<?xml version="1.0" encoding="utf-8"?>
<!-- Generator: Adobe Illustrator 17.1.0, SVG Export Plug-In . SVG Version: 6.00 Build 0)  -->
<!DOCTYPE svg PUBLIC "-//W3C//DTD SVG 1.1//EN" "http://www.w3.org/Graphics/SVG/1.1/DTD/svg11.dtd">
<svg version="1.1" id="Layer_1" xmlns="http://www.w3.org/2000/svg" xmlns:xlink="http://www.w3.org/1999/xlink" x="0px" y="0px"
	 viewBox="0 0 800 800" enable-background="new 0 0 800 800" xml:space="preserve">
<path fill="none" stroke="#000000" stroke-miterlimit="10" d="M635.9,513.9c-3,13.5-1.9,13.5-1.1,13.9c2.4,1.2,4.9,2.1,6.8,4.3
	c1.9,2.2,0.6,4.4,1.1,6.5c0.2,0.7,0.4,1.4,0.6,2.1c0,0,0,0,0,0c0.2,1.1,0.1,2.3,0.6,3.3c2,4.1,0.9,7.1-2.5,10.1
	c-3.4,3-6.8,1.7-10.3,1.5c-0.3,0-0.7-0.8-0.7-1.2c0-0.4,0.3-1.2,0.6-1.3c1.5-0.3,3.1-0.2,4.6-0.5c5.3-1.1,5.2-1.7,3.9-7.2
	c-0.7-2.9-4.7-5.4-1.4-9.1c0.2-0.2-1.5-2.6-2.7-3.4c-2.9-1.9-9.1-0.6-11.3,2.2c-2.4,3-2.4,3-5.5,1.2c-0.1,0-0.1-0.1,0-0.2
	c2-3.3,1.9-3.2-0.5-5c-0.6-0.5-0.9-1.7-0.8-2.5c0.1-0.6,1-1.2,1.6-1.7c2.5-2.1,4.4-4.4,3.8-8.1c-0.2-1.1,0.6-2.4,1.1-3.5
	c2-4.3,0.1-7.8-4.5-7.9c-5.8-0.2-8,1.4-10.2,7.6c-0.8,2.2-2.6,3.3-4.5,2.5c-0.6-0.2-1.3-1.6-1.1-1.8c3.2-3.6,4.6-8.8,8.9-11.5
	c0.8-0.5,2.1-0.2,2.9-0.8c0.8-0.5,1.9-2.1,1.7-2.3c-2.7-4,1.4-5.8,3.1-6.5c4.1-1.7,8.7-2.5,13.2-2.9c3.8-0.4,6.8,1.9,9.2,4.8
	c2.4,2.9,6.3,4.8,6.9,9.1c0.1,1,0.6,2,0.6,2.9c-0.1,1.8-0.5,3.7-0.8,5.5c0,0.1,0,0.1,0.1,0.1c3.5,0.4,7.1,0.8,10.6,1
	c0.4,0,1-1,1.4-1.6c0.9-1.2-1.9-3.8,1.6-4c3-0.2,1.3-3.4,2.8-4.9c1.1-1,0.3-4,1.4-4.9c3.2-2.8,1.9-7.1,4.2-10.4
	c2-2.9,1.8-7.2,2.5-10.9c1.2-6.4,3.8-12.6,3.9-19.2c0.2-9.2,3.4-17.9,4.3-27.1c1.3-13.2,0.8-26.4,0.6-39.6
	c-0.1-6.4-0.5-13.2-3.1-19.4c-0.8-1.8-0.9-3.9-1.2-5.9c-0.4-3.3-0.5-6.7-1.2-9.9c-2.1-9.2-4.4-18.4-6.7-27.6
	c-1-4.1-2.5-8.1-3.1-12.3c-0.6-4.3-4.4-7.4-3.9-12.1c0.1-1.2-1.5-2.5-2.1-3.9c-2.7-5.6-5.8-11-7.8-16.8c-1.2-3.5-5-4.9-5.7-8.9
	c-0.5-2.9-3.3-5.6-5.3-8.2c-3-3.9-5.9-8.1-8.6-12.3c-4-6.3-9.6-11.5-14.5-17.2c0,0,0,0-0.1,0c-4.3-1-6.7-5.1-10.9-6.5
	c-4.4-1.5-7.6-5.7-12.7-5.9c0,0-0.1,0-0.1,0c-2.4-3.6-6.7-1.6-9.8-3.3c-1-0.6-2.5-0.4-3.6-1c-4.3-2-4.2-2-2.3-6.2
	c0.9-2,1.4-4.2,2-6.4c0.5-1.5,4-2.2,1.4-4.2c-0.9-0.7-4.1-0.1-4.7,0.8c-1.6,2.5-6.7,1-6.1,5.8c0.1,0.6-1.4,1.7-2.3,1.9
	c-1.2,0.2-2.7-0.1-3.6-0.7c-0.6-0.4-0.6-2-0.4-2.9c0.2-0.9,1.3-1.6,1.6-2.5c1.4-4.6,3.8-9.2-0.1-13.7c-0.3-0.3-0.3-0.9-0.4-1.4
	c-0.4-2.5,0.9-5.1-1.5-7.4c-1.8-1.7-3.1-4-4.1-6.3c-2.6-5.9-7.2-10.9-6.9-18c0-0.6-1.2-1.5-1-1.9c0.9-1.9,2.2-4.2,0.3-5.5
	c-1.5-1-4-0.4-6.1-0.7c-2.3-0.3-5.2,0-6.6-1.3c-2.5-2.3-5.1-3-8.2-3.6c-2.5-0.5-4.4-3.6-7-4.3c-5.2-1.4-10.3-2.1-15.6,1.1
	c-4.4,2.6-7.6,6.1-11.3,9.3c-2,1.8-3.2,3.9-4,6.4c-0.8,2.3-3.4,3.9-5.9,3.7c-0.4,0-1.2-0.7-1.2-1.1c0.5-7.9-4.1-13.3-9.8-17.5
	c-3.9-2.9-8.7-4.7-13.2-6.6c-6.1-2.5-13.1-9.6-14.4-17.6c-0.2-1.2-0.7-2.4-1.1-3.5c-1.2-3.4-2.8-4.7-5.7-3.2
	c-3.7,1.9-7.4,2.1-11.2,1.9c-1.5,0-2.9-0.6-4.4-0.9c-9.5-2.3-19.2-1.7-28.5,0.1c-6.9,1.4-12.8,6.1-16.4,12
	c-3.6,5.9-7.5,12.1-8.6,19.3c-0.4,2.8-1,5.6-1.7,8.4c-1.3,5-1.3,5.4-4.1,2.7c-4.4-4.3-9.7-8.1-12.8-13.1c-5.4-8.7-13.5-14.6-20.2-22
	c-4.3-4.7-5.3-4.3-8.6,1.3c-1.7,2.8-3.6,5.5-5.6,8.1c-3.8,4.7-8.8,7.7-14.6,9.1c-2.5,0.6-3.3,1.8-3.6,4.2c-0.5,4.2-1.9,5.1-5.2,2.7
	c-2.2-1.5-2.9-0.9-4.4,0.4c-5.5,4.5-7.4,11.5-11.7,16.9c-1.2,1.6-1.1,4.4-1.2,6.6c-0.2,5.3,0,10.7-0.1,16c0,1.7,0.3,3.8-0.6,5.1
	c-0.5,0.8-3.2,0-4.3,0.7c-1.7,1.1-2.4,0-3.2-0.8c-5.3-5.3-12.1-7.9-18.6-11.2c-6.9-3.5-14.4-5-21.4-8.3c-3.1-1.5-3.4-1.1-3.9,2.3
	c-0.7,4.9-3.4,8.4-7.8,10.6c-5.8,2.8-4.9,3.9-4.4,9.3c0.2,2.9-0.1,3.7-2.4,3.2c-1.1-0.3-2-0.8-2.8-1.6c-1.4-1.4-2.6-0.5-3.1,0.6
	c-2.6,6-5.6,12.2-4.2,18.9c0.4,2,1,4,0.8,6c-0.6,8.9,2.4,17,5.1,25.2c0.4,1.3,0.8,2.5,1.4,3.7c0.8,1.7,0.8,3.1-0.5,4.7
	c-1.7,1.9-3.5,1.6-5.5,0.5c-1.3-0.7-3-0.9-4-1.9c-2.6-2.5-5.8-3.1-9.2-3c-6,0.3-12,0.8-17.9,1.1c-1.6,0.1-3.2,0.1-4.8,0
	c-3-0.2-6.4-1.4-8.8-0.4c-2.1,0.9,0.3,5.6-3,7.3c0,0-0.1,0-0.1,0.1c-0.6,4.5-2.5,8.5-4.5,12.5c-3.6,7.1-2.4,14.8-2,22.3
	c0.1,3.2,2.5,6.5,4.4,9.3c3.8,5.4,6.5,11.5,11.3,16.2c0.9,0.8,1.2,3.1,0.7,4.2c-0.5,1.1-2.4,1.9-3.8,2.1c-3.5,0.6-7.1,0.9-10.6,1.2
	c0,0-0.1,0-0.1,0.1c-1.8,3.7-6,1.6-8.9,3.8c-2.4,1.9-6.8,1.5-10.4,1.7c-5.6,0.3-5.5,0.2-6.8,5.9c-1.2,5.3-2.4,10.6-5.3,15.4
	c-2.9,4.9-3.5,9.6-2.6,15.6c1.4,9.9,5.7,18.7,12.3,25.3c1.7,1.7,3.5,3.3,5.1,5.1c2.3,2.5,4.7,4.9,8.3,5.2c2.2,0.1,3.4,1.2,3.7,3.2
	c0.4,2-1.6,6.2-3.1,7c-3,1.7-6,3.5-9,5.3c-1.9,1.1-4.4,1.9-5.7,3.6c-4.4,5.5-10.4,7.9-16.6,10.3c-1.4,0.6-2.8,1.4-1.4,2.6
	c4.4,3.7,3.7,9.2,5.2,13.9c1.2,4.1,2,8.3,2.9,12.4c0.2,1,0.1,2.4,0.7,2.8c3.1,2.2,4,6,6.3,8.6c3,3.4,5.9,7.1,9.7,9.5
	c7.6,4.9,15.5,9.2,25.1,9.1c4.6-0.1,9.3,0.6,13.9,1.1c0.5,0.1,1.3,1,1.4,1.6c0,0.6-0.7,1.7-1.2,1.7c-4,0-3.9,1-1.7,4.1
	c2,2.8,0.8,6.4-1.5,8.3c-3,2.5-6.9,3-9.5,0.7c-2.1-1.8-3.6-2-6.2-1c-2.8,1.1-6,1.1-9,1.5c-2.6,0.4-4.2-0.5-3.6-3.4
	c0.5-2.5-0.9-2.3-2.6-2.3c-2.8,0-5.7,0.6-8.3-1.1c-1.2-0.8-3.7-1.6-3.6-2.3c0.3-4.6-3.7-4.3-6.2-5.6c-1.9-1-4.4-1.1-6.2-2.3
	c-1.5-0.9-3.8-2.2-1.5-4.9c0.9-1.1,0.8-3.4-2.3-3.3c-1.6,0-3.1-1.7-4.7-1.9c-1.7-0.2-1.5-1.6-2-2c-2.5-1.9,1.5-4.1-0.5-5.3
	c-1.6-1.1-3.9-1-5.2-3c-1.1-1.6-3.7-2.7-0.7-5c0.8-0.6,0.8-2.4,0.7-3.6c0-0.3-1.6-0.5-2.5-0.8c-2.1-0.8-4.4-1.4-5.7-3.5
	c-0.3-0.6-0.7-1.8-0.5-1.9c3.7-2.6,1.1-4.2-0.8-6.1c-3.3-3.3-3.2-3.3-0.3-6.5c0.5-0.6,1.5-1.1,1.6-1.7c0.1-0.8-0.7-2.4-0.8-2.4
	c-3,0.4-4-2.3-5.7-3.7c-0.5-0.4-0.8-1.3-1-2c-0.2-0.8-0.3-2.1,0-2.3c4.5-2.4-1.6-7.9,3.4-10.7c3.2-1.7,2.6-2.8-0.1-5.2
	c-1.4-1.3-4.2-1.2-4.2-4c0-0.1-0.1-0.1-0.1-0.1c-3,0.3-2.7-2.8-4-4.2c-1.5-1.6-2.6-3.7-3.5-5.7c-0.9-2-1.8-4.3-1.7-6.4
	c0.1-5-1.7-9-5.6-12.2c-1.8-1.5-3.5-3.3-5.1-5.1c-1-1.1-0.4-3.2,1.1-3.7c1-0.3,2-0.4,3-0.4c7.8-0.1,13.8-4.1,19.6-8.7
	c3-2.3,6.1-4.6,9.1-6.9c0.2-0.2,0.4-0.3,0.7-0.3c1.7-0.3,3.3-0.7,5-1c0.1,0,0.1-0.1,0.1-0.2c-1.1-1.6-2.3-3.2-3.4-4.7
	c-0.5-0.6-1.1-1.1-1.7-1.7c-3.6-3.7-3.7-4.7-0.2-8.3c1.6-1.7,2.4-2.8,1.1-5.2c-0.5-0.9,0.5-3,1.3-4.1c1.2-1.5,0.8-2.5-0.4-3.2
	c-2.1-1.2-2.2-3.4-2.9-5.2c-1.2-3.7,0.5-6.6,4.6-7.1c2.1-0.2,3.1-0.6,3.2-2.7c0.2-3,2.8-3.5,4.9-4.1c1.5-0.4,3.2-0.1,4.8-0.1
	c0.4,0,0.9-0.2,1.3-0.3c-0.2-0.5-0.2-1.1-0.6-1.3c-3.4-3-4.5-7.2-6.1-11.1c-2-4.7-1.4-8.1,1.4-13.6c2.7-5.4,3-10.6-1.4-15.4
	c-1.3-1.4-2.3-3.5,0.1-5c0.9-0.5,1.9-0.6,2.9-0.4c6.2,1.6,12.4,0.5,18.6,0.8c1.8,0.1,7.6-4.4,7.7-5.9c0.1-0.6-0.5-1.4-1-1.9
	c-1.3-1.3-2.3-2.5-2.5-4.6c-0.2-1.2-1.2-2,0.1-3.2c2.1-2,2.1-4,0-6.1c-0.6-0.6-0.4-2.1-1-2.7c-3.1-3-2.3-5.9,0.3-8.4
	c2-1.9,2.1-4.5,3.1-6.7c2.3-5.2,5.2-5.9,9.3-1.9c1.5,1.5,3,3,4.5,4.5c1.7,1.6,2.6,1.1,3.2-1.1c0.2-0.9,0.9-2.5,1.3-2.4
	c5.7,0.3,2.3-3.4,2-5.1c-0.8-3.6-2.8-7-3.1-10.6c-0.7-6.7,0.4-13.1,5.4-18.5c2.5-2.7,3.1-6.7,1.7-10.7c-1.3-3.9,0.7-5.3,5-4
	c1,0.3,2.1,0.2,2.9,0.7c6.9,4.5,14.7,4.1,22.4,3.8c1.1,0,2.3-1.7,3.1-2.8c0.9-1.2,2.3-2.6,2.1-3.8c-0.2-2.4,1.4-1.9,2.5-2.6
	c0.8-0.5,1.1-2.4,0.9-3.5c-0.2-1.1-1.7-2-2.1-3.1c-0.5-1.5-1.3-3.9-0.5-4.8c1.5-1.9,2.8-4.8,6.2-4.2c1.9,0.3,4.1,1.3,5.8,0.7
	c1.2-0.4,1.6-2.9,2.5-4.4c2.3-3.7,5.2-3.1,8.3-1.2c1.6,1,2.4,0.1,2.6-1.5c0.1-0.5,0-1.1,0-1.6c-0.3-3.5,2.7-4.9,4.9-6.5
	c0.4-0.3,2.8,1.9,4.1,3.1c2.2,2.1,4.9,3.9,5.3,7.4c0,0.2,0.9,0.6,1.3,0.5c0.4-0.1,1.2-0.6,1.2-0.8c-0.2-4.7,1.5-8.9,2.5-13.4
	c1.6-7.1,3.8-13.3,11.4-16.5c5.5-2.3,5.3-2.8,7.9-8.1c0.5-1.1,0.9-2.3,1.6-3.3c0.3-0.5,1.5-0.8,1.9-0.6c2.2,1.2,4.3,2.6,6.3,4
	c3.3,2.3,6.5,4.6,10.3,6.1c1.7,0.7,2.4,1.1,3.9-0.3c1.8-1.7,2.9-4.6,6.1-4.5c0.5,0,1.2-1.4,1.5-2.2c0.3-1-0.1-2.1,0.1-3.2
	c0.2-1.2,0.4-2.7,1.2-3.4c0.8-0.8,2.3-1.2,3.4-1.1c3.9,0.3,6-0.7,7.3-4.9c1-3.2,5-2.4,7.6-1.4c1.9,0.8,2,0.7,2-1.2
	c-0.1-3.7-0.1-7.5,0-11.2c0.1-1.4,0.8-3.7,1.4-3.8c1.9-0.3,4.1,0.1,6,0.7c0.9,0.2,1.7,1.3,2.3,2.2c1.3,1.9,1.9,4.7,3.6,5.5
	c1.7,0.8,4.3-0.5,6.5-0.6c2.8-0.1,3.9,2.1,5,4.2c0.6,1.1,1.1,2.2,1.9,3.2c0.2,0.2,1.3,0.1,1.5-0.2c3.4-6.2,8.2-11.5,11.4-17.7
	c1.6-3.2,2.6-6.9,3.8-10.4c0.8-2.2,1.8-4.1,3.5-5.8c1.6-1.6,2.7-2.3,4.4-0.2c1.5,1.8,3.4,3.4,5,5.1c4.6,4.9,10,8.5,15.9,11.8
	c4.3,2.4,7.4,6.9,10.9,10.5c1.5,1.5,2.3,2.1,4.4,0.4c3-2.4,6.5-5.5,10.7-1.4c0.3,0.3,1.8-0.3,2.5-0.8c1.8-1.3,2.8-3.6,5.8-3.5
	c4.8,0.2,4.9-0.1,9.4-4.9c1.9-2.1,4-2.5,6.1-0.8c2.2,1.9,3.8,1.5,6.2,0.1c4-2.4,7.9-1.5,9.6,2.7c0.9,2.2,1.8,1.9,3.1,1.8
	c0.9-0.1,1.8-0.9,2.7-1c4.3-0.6,5.2-0.1,6.5,4.1c0.9,2.9,1.7,5.8,1.9,8.8c0.3,2.6-0.3,5.4-0.4,8.1c0,0.9,0.2,1.8,0.4,2.6
	c0,0.1,0.1,0.1,0.1,0.1c1.2-0.2,2.6-0.2,3.5-0.8c1.7-1,3.1-2.8,4.9-3.6c5-2.2,9.7-4.8,14.7-7.1c6.5-3,12.2-2.7,17.8,1.1
	c3.8,2.5,7.1,2.8,10.8,0c1-0.8,2.9-2.1,3-2c1.3,1.5,3.8,2.2,3.6,4.9c-0.1,0.5,0.1,1.1,0,1.6c-1.1,6.5,2.3,11.7,4.6,17.3
	c0.8,1.8,1.9,3.6,2.1,5.5c0.2,2.5,0.2,6.2,2,6.5c2.6,0.6,2.1-3.5,3.6-5.1c2.4-2.5,4.8-5,7.4-7.3c1.8-1.6,3.7-1.3,5.5,0.5
	c2.3,2.3,3.1,5.1,3.2,8.3c0.1,2.7,2.9,4.2,4.7,2.4c1.9-2,4.3-2.7,6.5-3.9c4.3-2.4,6.3-1.6,6.8,3c0.3,3,0.2,4.2,4,2.7
	c2.5-1,6-0.9,9.1,0.8c3,1.6,4.2,4,2.6,7.2c-0.7,1.3-0.9,3.1-1.9,4c-2.8,2.6-3.6,4.8-0.5,8c1.1,1.2,0.9,3.4-0.8,4.9
	c-0.9,0.8-1.8,2-2.1,3.1c-0.2,0.8-0.8,1.9,1.2,2.6c3,1,3.8,4.8,1.6,7c-2,2-2.4,3.9-0.8,6.2c2,2.9,1.9,5.5,0,8.5
	c-1.8,2.8-1.4,3.2,2.1,5.3c3.2,1.8,4,3.4,3,7.5c-0.4,1.7-0.1,1.6,1.2,1.6c1.6,0,3.3,0.4,4.8-0.1c3.7-1.2,4.5,3.1,7.4,3.7
	c1,0.2,2.3,3.1,2.1,4.6c-0.5,3.4,1.3,3.2,3.5,3.1c1.1-0.1,2.1,0,3.2,0c6.1,0,8.6,1.6,9.1,7.8c0.3,3.9,1.2,4.9,5,4.8
	c2.6,0,5.6,0.9,7.7,2.4c2.1,1.6,3,4.6,4.8,6.7c1.9,2.2,5.3,0.2,7.7,2.9c3.4,3.9,6.4,7.6,5.5,12.9c-0.4,2.8,1.7,2.2,2.7,2.3
	c4.3,0.6,7.4,2.9,10.5,5.8c2.5,2.4,3.7,5.3,2.5,7.6c-1.6,3.1-0.1,4.4,1.7,5.7c6.4,4.6,7.7,11.3,6.2,18.1c-0.8,3.8,0.6,5,3,6.5
	c0.8,0.5,2,0.5,2.8,1c5.8,4.5,7.4,9.4,4.5,17c-1,2.5-1.2,2.9,1.4,3.5c4.1,1.1,4,5.3,5.4,8.3c0.6,1.3,0.1,3.1,0.1,4.7
	c0,7.8,0,7.8,5.8,15.3c2.3,2.9,2,9.6-1,13c-1.7,1.9-1.5,2.9,0.2,4.4c1.8,1.6,3.3,3.6,5.1,5c3.3,2.6,2.7,5.9,1.4,9.1
	c-0.8,1.9-1.9,3.6-3.3,5.2c-1.4,1.6-1.8,2.5,0,4.3c5.4,5.7,5.4,7.2,1.5,14.7c-1.8,3.6-1.6,4.9,0.7,7.8c1.5,2,3.1,4,4,6.3
	c1.8,4.2-0.9,8.8-6.7,11.4c-1.8,0.8-2.6,1-1.4,3.1c3.8,6.7,3.7,6.8,4.4,13.3c0,0,0,0.1,0,0.1c-2.1,2.1-3.9,4.5-6.3,6.1
	c-3.2,2.1-1.6,4.8-0.9,6.6c3.5,8.8,2.3,14.4-4.7,19.5c0,0-0.1,0-0.1,0c-3.3-0.6-2.1,1.9-2.1,3.4c0,0.9,0.6,1.9,1.1,2.7
	c2.3,4.3,1.5,7.9-2.3,11c-1.4,1.1-2.6,2.6-3.3,4.2c-0.8,2,1.2,3.2,1.9,4.7c1.4,3.2,1.8,6.7-1.3,9.5c-2.8,2.6-5.1,5.8-9.4,6.4
	c-2,0.2-2.7,1.7-1.7,3.4c1.8,2.9,3.5,5.8,1.4,9.6c-0.9,1.7-0.4,3.5,2.8,4.2c3.8,0.8,7.5,2.6,10.5,5.3c1.1,1,1.9,1.9,0.4,3.2
	c-0.9,0.7-1.5,2.2-3.2,0.9c-2.9-2.1-6.2-3.5-8.6-6.3c-2.7-3.1-3.9-2.9-7.1-0.5c-3.2,2.4-6,2.6-8.9,0c-1.8-1.6-3.5-2.3-5.6-1.2
	c-0.8,0.4-1.6,1.5-1.8,2.4c-0.1,0.4,1.2,1.4,2,1.7c2.9,1,5.7,1.8,7.9,4.3c3.2,3.7,3.9,7,1.6,11.3c-0.6,1-2.3,1.7-0.7,3.2
	c6,5.7,5.4,11.6,0.5,17.6c0,0,0,0.1,0,0.1c0.8,4.8-4.3,3.3-6.2,5.5c-2,2.3-5.7,1.8-8.3-0.9c-0.4-0.4-1.5-0.1-2.2-0.4
	c-5.6-1.9-5.7-1.8-5.9,3.5c-0.2,4.2-1.1,5.1-4.9,6.7c-5.4,2.3-10.3,1.5-13.8-3.1c-3.8-5.1-8.9-3.7-13.7-3.6c-0.7,0-1.3,3-2.1,3.1
	c-2.5,0.3-5.1,0.8-7.3-1.8c-1.1-1.3-3.4-1.8-5.1-2.6c-0.1,0-0.1,0-0.2,0.1c-0.5,1.8-1,3.6-1.7,5.2c-0.4,0.9-1.5,1.5-1.9,2.4
	c-0.2,0.5,0.2,1.9,0.5,1.9c4.7,0.8,4.5,6.2,8,8.3c3.5,2,4.3,6.1,6,9.4c0.7,1.3,1.8,2.5,2.8,3.7c3.4,4.1,3.3,7.9-0.5,11.8
	c-0.7,0.8-1.4,1.6-2.3,2.2c-1.1,0.8-2.9,1.1-3.3,2.1c-0.6,1.4-0.7,3.4,0,4.7c2.6,5,0.1,8.6-3.5,11.2c-2.5,1.8-5,3.4-7.4,5.2
	c-2.4,1.7-5.3,0.6-8.1-0.4c-1.2-0.4-4.3-3.3-3.8,1.8c0.5,5.3-3.9,7.4-7.9,8.1c-3.4,0.6-6,2.4-8.9,3.7c-3.8,1.6-6.3,1.6-9-1.1
	c-3.4-3.4-7.7-6.3-8.1-11.9c-0.1-0.6-1.3-1.6-2-1.7c-1.6-0.3-3.3-0.5-4.8,0c-3.6,1.3-3.4-2.2-4.3-3.6c-0.7-1.1-0.3-3.1-0.1-4.7
	c0.2-1.8-0.6-2-2.1-2c-1.8,0-3.6-0.2-5.3-0.6c-5.6-1.5-6.9-5.9-3.2-10.2c0.7-0.8,1.6-1.4,2.2-2.3c1.2-1.6,0.2-2.4-1.3-2.7
	c-3.3-0.5-6.6-0.7-9.9-1.2c-1.5-0.2-2.9-0.9-4.3-1c-0.9-0.1-2.7,0.4-2.7,0.7c-0.3,3.7-3.1,2-4.9,2.7c-6.2,2.6-12.8,3-19.1,2
	c-7.8-1.3-11.4,3.7-15.9,8c-0.1,0.1,0.4,1.2,0.7,1.2c1.9,0.1,3.7,0,5.6,0.1c1,0.1,2.9-1.1,2.5,1.5c-0.2,1.3,2.4,2.3,0.2,4
	c-5,3.7-7.7,10-14.2,12c-0.9,0.3-1.3,1.2,0.4,1.8c2.5,0.9,4.9,2.3,7.2,3.8c2.2,1.3,4.1,1.2,5.5-0.8c1.7-2.5,3.7-5.1,4.1-7.8
	c0.6-4,3.8-6.4,5.1-9.9c1.8-4.8,7.6-6.2,13-4.5c1.9,0.6,4.5,0.7,5.4,2.1c2.8,3.9,6.6,4.1,10.6,3.5c4.1-0.6,7.2,1.3,8.5,4.3
	c1.3,3.1,2,7.1-1.3,10.2c-2.4,2.2-1.7,2.6,1.2,3.9c4.3,2,8.1,5.3,11.6,8.5c4.3,3.9,3.9,5.9,1.8,11.9c-0.9,2.5-3.1,4.5-2.7,7.8
	c0.3,2.3-2.7,4.2-5.4,4.3c-3.6,0.2-7.1,0-10.3-2.2c-0.3-0.2-1.4,0.5-1.9,0.9c-0.3,0.2-0.3,1.1-0.1,1.4c0.6,0.9,1.8,1.5,2,2.4
	c1.2,4.1-0.2,6.5-4.2,8.9c-1.7,1-4.4,2.3-4.5,3.7c-0.3,3.3-4.3,1.4-4.6,3.9c0,0.1-0.1,0.1-0.1,0.1c-1.1-0.3-2.3-0.5-3.3-0.9
	c-2.1-0.8-4.2-1.5-6.1-2.7c-2.1-1.3-2.2-0.4-3.2,1.3c-2.1,3.7-3.6,7.8-7,10.7c-2.8,2.4-6.2,2.9-8.9,0.4c-1.8-1.7-3.6-1.5-5.6-2
	c-3.3-0.8-6.9-1.3-7.9-6c-0.8-3.7-5-5.6-7.6-4.8c-2.5,0.7-3.5,0.1-4.4-1.3c-2.4-3.7-4.2-7.5-1.2-11.9c2.1-3.1,1.6-6.4,0-9.6
	c-0.7-1.3-1.3-2.7-1.8-4.1c-0.7-2,0.4-3.5,2.3-5.3c2.4-2.2,5-4,6.3-7.6c1.7-4.9,6.4-5.8,10.8-3.7c0,0,0.1,0.1,0.1,0.1
	c0.7,4.8,2.5,1,3.2,0.2c1.3-1.5-0.6-2.8-1.4-3c-3.2-0.7-5.4-3.9-9.2-3c-1.5,0.4-3.4-1-5-0.6c-0.6,0.1-0.6,2.7-1,4.2
	c-0.3,1.5-0.5,3-1.2,4.3c-1.7,3.6-4.1,4-7,1c-1.6-1.7-3.1-3.5-4.2-5.4c-1.1-1.9-1.3-4.8-2.9-5.8c-2.2-1.4-5.2-1.7-7.9-1.9
	c-3.7-0.3-7.5-0.1-11.2-0.1c-8.5,0.1-16.7-1.6-24.8-3.8c-1.7-0.5-3.7-0.1-5.2-0.9c-1.3-0.7-2.7-1.6-3.1,0c-0.4,1.5,0.1,4,1.9,4.6
	c5.3,1.9,10.3,4.1,14.1,8.5c0.3,0.4,1.7,0,2.5-0.2c5.2-0.8,9.7-4.1,15.3-3.7c4.5,0.3,5.4,0.9,5.3,5.6c0,2,0.2,3.8-1,6
	c-1.8,3.2-1.8,7.5-5.5,9.7c-0.8,0.5-1.7,1.2-2.6,1.3c-8.8,1.4-17.3,5.3-26.3,2.8c-2.8-0.8-3.9,1.1-3.9,2.1c0.1,4.2-2.1,7.7-3,11.6
	c-0.2,0.8,0,2,0.5,2.5c2.5,2.7,5.2,5.4,7.9,7.9c0.7,0.7,1.7,1.1,2.7,1.3c3.5,0.5,7.1,0.9,10.7,1.1c0.8,0.1,2.5-0.9,2.5-1.2
	c-1-4.5,2.5-6.6,4.9-9.3c1.7-1.9,1.2-5.6-1-5.8c-4.3-0.4-3.4-4.6-5.8-6.2c-0.2-0.1,0-1.5,0.5-1.9c0.4-0.3,1.7-0.4,1.9-0.1
	c2.6,4.1,7.3,4.5,11.1,6.2c1.4,0.6,4,1.2,4.6-2.5c0.4-3,3-4.8,6.4-4.2c3.8,0.6,5.7-1.1,6.3-4.9c0.2-1.4,1.1-2.7,1.7-4.1
	c0.6-1.3,3.3-1.8,1.9-3.7c-1.1-1.6-2.3-3.6-5-3.2c-1.6,0.2-3.2,0.2-4.8-0.1c-0.4-0.1-1-1.8-0.7-2.4c0.4-0.8,1.5-1.8,2.3-1.9
	c2.6-0.1,5.6-0.6,7.7,0.5c2.5,1.2,4.9,3.6,6.1,6.1c1,2,1.5,5.3-1.1,7.2c-2.3,1.6-3.1,4.1-3.9,6.4c-0.6,1.6-0.8,2-2.5,2.6
	c-2.5,0.8-2.7,2.8-0.7,4.6c2.1,1.9,3.1,3.9,3,6.8c-0.2,5.3-1,6.3-6.8,8.8c-2.2,0.9-5.3,1-4.9,5.5c0.4,3.6-3.3,5-7.2,3.9
	c-2-0.6-3.6-1.6-5.3-2.8c-1.6-1.1-3.8-3.3-5.9-1.4c-1.6,1.5-3.2,1.4-5,1.5c-3.9,0.2-3.9,0.2-4.6,4.1c-0.2,1.2-0.7,2.4-1.1,3.5
	c-1.3,3.7-3.5,6.3-7.9,6c-2.9-0.2-5.5,0.6-7.9,2.2c-5.9,4.1-11.8-1.9-12.5-6.7c-0.2-1-0.1-2.1,0-3.2c0.2-1.9-1.2-1.2-2.1-1.3
	c-0.6-0.1-1.1,0-1.7,0.1c-7.3,1.6-7.6,1.6-10.9-5.2c-1-2.1-2.7-2.2-3.7-1.6c-2.8,1.7-5.3,0.9-7.9-0.1c-2.5-1-3.4-3.1-4.6-5.5
	c-1.5-3.2-5-5.5-7.7-8c-1.2-1.1-1.5-2-0.2-3.2c2.1-2,4.2-4.1,6.2-6.2c2.6-2.8,2.6-4.3,0-7.2c-1.3-1.5-3.2-3.1-3.6-4.9
	c-1.5-6.5,4-9.3,9.4-8.8c2.7,0.3,6.3-0.4,8.2,1.1c4,3,9.1,2.7,13,5.6c0.8,0.6,1.8,0.7,2.8,1c0.5,0.1,1,0,1.6,0
	c-0.1-0.5-0.1-1.2-0.4-1.4c-1-0.7-2.2-1.2-3.2-2c-1.9-1.6-4.4-3.1-5.3-5.2c-1-2.4-3.5-4.4-2.6-7.8c0.9-3.2,3.1-5,6.1-3.5
	c1.3,0.7,2.6,1.4,4,2c1.7,0.7,2.6,1,3.9-0.4c1.5-1.7,3-3.3,5.9-3.3c3.6-0.1,5.6-5,3.6-8.1c-0.3-0.4-1.5-0.8-1.9-0.6
	c-4.8,2.6-9.5,2.3-14.7,1.1c-3.1-0.7-6.6-0.7-10,0.6c-2.2,0.8-3.8,1-3.5,3.8c0.1,1.1-0.6,2.5-1.3,3.4c-1.4,1.8-3.6,3-3.5,5.8
	c0,0.4-0.6,0.8-1.1,1.1c-1.4,0.9-4,1.6-4,2.5c-0.1,3.1-3.4,1.3-4.4,3.3c-0.5,1.1-3.1,1.2-4.7,1.8c-1.9,0.7-3.8,2-5.6,1.9
	c-6.8-0.7-7.5,4.5-9.3,8.8c-1.1,2.7-2.1,5.6-3.5,8.1c-0.4,0.8-2,1.3-3.1,1.4c-0.8,0.1-2-0.6-2.4-1.3c-1.8-3.4-0.1-13.9,2.6-17.1
	c0.3-0.4,0.8-0.7,1.1-1.1c3.1-3.9,8.2-6.1,9.7-11.2c1.2-4.3,1.6-8.9,2.4-13.4c0.2-1.5,0-2.3-1.9-2.2c-1.2,0.1-2.3-0.8-3.5-1
	c-4.3-0.8-4.8-1.4-4.7-5.4c0.1-3.5,2.2-5.8,5.6-5.9c4.8-0.1,9.6,0,14.4-0.1c0.5,0,1-0.6,1.4-0.9c-0.3-0.4-0.6-0.8-1-1.2
	c-0.6-0.5-1.2-1.1-1.9-1.2c-9.8-1.9-19.6-4.3-29.8-3.4c-1.3,0.1-2.6,0.1-3.9,0.4c-2.6,0.5-4.8,3.9-4.1,6.5c0.1,0.5,1.3,0.8,2.1,1.1
	c3.3,1,6,3,8,5.7c1.6,2.1,2.6,4.4,1.3,7.4c-2.1,4.7-3,9.8-2.3,15c0.5,3.7-2.5,5.6-4.7,6.7c-2.2,1-5.8,1.2-7.8-1.9
	c-0.7-1.1-1.8-1.9-2.2-3.1c-0.4-1-0.1-2.3-1.6-1.1c-1.2,1-2.8,2.3-2.9,3.5c-0.2,2.6-2.2,3.5-3.5,5c-1.7,2-3.9,1.8-5.4,0.2
	c-1.8-1.9-3.8-2.2-6.2-2.6c-1.8-0.3-3.3-2.4-4.8-3.7c-2.6-2.3-3.6-2.4-6.7-0.2c-4.3,3-9,2.5-12.5-0.8c-3.7-3.5-0.9-6.5,0.4-9.6
	c0.5-1.1,2.1-2,0.4-3.2c-3.4-2.4-4.8-5.8-3.5-9.6c1.4-4.1,3.4-8,8.5-9c1.4-0.3,2.6-1.4,3.9-2.2c0.4-0.3,1.1-1.2,1-1.3
	c-2.1-3.4,1-6,1.4-9c0.2-1.2,0.7-2.4,0.9-3.6c0-0.2-0.5-0.6-0.8-0.7c-4.4-1.3-4.5-1.3-5.9-4.1c-0.9-1.7-2-3.3-4.2-2.7
	c-3.2,0.8-6.9-2.5-9.8,1.1c-0.2,0.3-1,0.1-1.6,0c-1.3-0.2-2.7-0.4-4-0.6c-0.1,0-0.1,0-0.1,0.1c-0.2,1.7-1.1,3.7-0.5,5.2
	c1.3,3.3,0.9,6.6,1,10c0.1,1.6,0.5,1.4,1.8,0.7c1.5-0.8,3.2-1.3,4.9-1.7c1.7-0.4,5.2,1.7,5.7,3.3c0.1,0.2-0.7,1.1-1.1,1.1
	c-5.6,0.2-10.5,2.9-15.7,4.7c-2.5,0.9-4.7,3.2-6.5,5.4c-0.7,0.8-0.1,2.9,0.4,4.2c1,2.4,2.5,4,1.7,7.3c-1.8,7.6,3.1,10.6,9.4,8.5
	c0.7-0.3,2.2-0.2,2.5,0.3c1.2,1.6-0.6,2.8-1.4,3c-2.5,0.5-5.2,0.9-7.7,0.5c-2.1-0.3-4.7-1.4-5.8-3c-1.2-1.9-2.2-5.4-1.3-7.1
	c1.9-3.5-0.2-6-1.2-8.5c-2.1-5.2-2.3-6.6,1.5-10.1c1.6-1.5,2.6-3.8,5.5-4.2c1.1-0.1,2.4-3,2.7-4.7c0.4-2.9,0.6-5.9,0-8.8
	c-0.7-3.5-2.5-6.9,1-9.9c0.2-0.2-0.2-1.3-0.5-2c-2.4-5.3-2.3-6.3,1.4-10.1c0.9-1,1.9-1.9,2.8-2.8c6.2-6,14.7-6.1,21.2,0
	c2,1.9,3.5,3.3,6.7,1.8c3.2-1.6,6.6-0.8,9,2.5c1.1,1.5,2.5,2.8,3.9,4c3.3,2.6,4.7,5.8,4.4,10.1c-0.2,2.8,1.9,5.2,4.7,5.5
	c3.5,0.3,6.2,1.8,8.5,4.3c1,1.1,2.4,1.8,3.7,2.5c0.5,0.3,1.4-0.1,2.1-0.2c-0.2-0.5-0.3-1-0.5-1.4c-1.7-2.5-3.5-5-5.2-7.5
	c-1.6-2.3-3.1-4.6-4.6-6.9c-0.4-0.6-1.1-1.4-0.9-2c1.5-4.9-2.8-5.4-5.2-5.6c-4.7-0.4-7.9-3.6-11.2-5.8c-3.3-2.1-5.5-6.5-7.2-10.4
	c-1.2-2.8-2.8-3-5.3-3.4c-10.2-1.3-20.3-3.2-30-6.7c-1.6-0.6-3.2-1.4-4.7-2.3c-1.7-1-1.2-4.4,0.4-5.7c3.6-2.7,7.5-2.3,11.7-1.8
	c2,0.2,4,3.9,5.8,0.7c0.4-0.7-2.1-3.1-3.3-4.7c-0.5-0.6-1.2-1.1-1.7-1.7c-1.4-2.2,0.2-5.8,2.8-5.9c3.8-0.2,7.6-0.4,11.2,1.8
	c4.9,2.9,10,5.5,15,8.3c1.5,0.8,3.1,1.6,4.6,2.3c0.2,0.1,0.7,0.1,0.8,0c0.1-0.4,0.3-1,0.1-1.3c-3.8-5-5.8-11.3-10.8-15.6
	c-3.2-2.7-6.9-4.1-10.5-5.6c-2.4-0.9-5.3-0.6-7.9,1.8c-3.6,3.2-8.4,3.4-13,1.8c-3.9-1.4-8.1-2.6-11.5-5c-2.4-1.6-3.3-0.7-4.4,0.7
	c-2,2.6-2.7,6.1-5.7,8.1c-0.2,0.1,0.6,1.6,0.7,2.5c0.5,3.6,4.5,5.3,4.7,9.3c0.1,3.3,2.5,5.9,4.1,8.7c0.8,1.4,0.9,4,0.2,5.4
	c-2.2,3.9-0.4,6.9,1.6,9.7c3.5,5,0.7,9.6-0.4,14.3c-0.3,1.4-1.2,6.5-1.1,7.6c0.3,2.8,3,4.5,2.5,7.9c-0.7,4.8-1.2,6.7-6,7.2
	c-4.2,0.5-7.7,1.4-11.1,4.4c-3,2.6-10,0.2-12.2-4.1c-2-3.9-3.4-8.2-4.8-12.4c-0.5-1.6,0.7-4.1-1.5-4.9c-2.8-1-4.9-3.7-8.3-3.2
	c-1,0.2-2.1,0.2-3.1,0.4c-8.6,1.7-12.8-0.7-15.5-9c-0.8-2.6-1.6-5.2-2.3-7.9c-0.5-1.9-0.2-4.5-1.3-5.8c-1.1-1.2-3.9-0.6-5.5-1.6
	c-3.4-2.4-5.8-5.8-7.5-9.6c-1.2-2.7-0.5-5.5,0.7-8.1c1.5-3.3,1.6-6-1.6-8.9c-2.3-2-4.1-4.8-0.9-8.4c1.8-2,1.2-5.5-0.2-8.3
	c-2-3.9-1.4-5.5,2.5-7.5c1.3-0.7,2.6-1.4,3.8-2.3c0.4-0.2,0.8-1.1,0.6-1.3c-2-3.1-9.3-4.6-11.8-2.2c-0.8,0.8-1.3,2.2-1.4,3.4
	c-0.3,3.5-1.2,6.5-4.1,8.7c-2,1.5-2.1,3.4-1.2,5.5c0.5,1,1,1.9,1.4,2.9c-0.8-0.6-1.8-1-2.5-1.7c-3.3-3.2-3.9-3.9-1.5-7
	c2.1-2.8,2.7-5.9,3.7-8.9c1.1-3.2,2.7-6.3,5.5-7c3.6-0.9,8-1,11.3,1.3c2.7,2,4.7,4.7,8.8,4.3c1.2-0.1,2.8,2.3,3.9,3.7
	c2.2,2.8,4.4,3.6,8,1.9c3.6-1.7,8.2-1.4,8.7-7c0.1-0.8,1.9-1.6,3-2.2c2.3-1.3,6.4-0.4,6.2-4.8c0-0.1,0-0.1,0.1-0.1
	c3.3-1,6.5-2.4,9.9-2.8c2.7-0.3,5.5,0.7,8.3,1c3.8,0.4,3.9,0.3,4-3.2c0-0.5-0.1-1.1,0-1.6c0.3-1.7,0.1-4.5,1.1-5
	c2.1-1,5-1.6,7.2-0.9c4,1.3,8.4,2.6,11,6.3c3.9,5.6,10,5.5,15.7,6.7c1.6,0.3,3.3-0.3,2-2.7c-1.6-2.8-2.5-5.9-3.8-8.8
	c-7.2-16.4-13.4-33.2-15.1-51.4c-0.8-8.5-1.6-17-2.3-25.5c-0.7-7.6-0.8-15.2-0.9-22.7c-0.1-6.5,1-12.7,2-19.1
	c0.8-5,0.5-10.3,2.1-15.2c3-9.4,5.6-19,10.6-27.6c1.9-3.2,4.3-6.2,6-9.5c2.1-4,5.8-6.7,7.8-10.4c2.1-3.9,5.7-6.1,7.6-9.6
	c5.1-9.2,13.8-15.1,20.7-22.6c2-2.2,5-3.4,7.4-5.3c2.4-1.8,4.3-4,7.3-5.4c3.5-1.7,6.5-4.9,9.7-7.4c8.1-6.5,17.3-10.9,26.4-15.7
	c5.5-2.9,10.8-6,16.5-8.5c5.4-2.4,10.9-4.7,16.3-7.1c6.3-2.8,13.2-4.2,19.9-5.9c6.3-1.6,12.7-2.9,19.1-4c7.3-1.2,14.7-2.1,22-2.8
	c6.2-0.6,12.5-0.7,18.7-1.2c14.4-1.2,27.5,3.3,40.2,9.1c7,3.2,13.7,6.9,20.6,10.1c3.7,1.7,6.9,3.9,10.3,6.1c3.5,2.2,6.9,4.3,9.6,7.5
	c0,0,0.1,0,0.1,0c4.9-0.6,5.5,6.2,10.3,6c1.1,0,2.3,2.1,3.4,3.2c5.1,5.1,9.6,11,15.5,15c3.9,2.7,5.6,6.8,9,9.6
	c3.7,3.1,7.3,6.4,10.1,10.2c2.2,3.1,4.1,6.5,7,9c2.8,2.4,3.8,5.9,6.1,8.8c3.3,4.2,5.6,9.3,7.5,14.4c3.8,10.4,8.8,20.3,11.6,31.2
	c2.5,9.6,4.6,19,5.6,28.9c0.7,7.3,0.9,14.6,1,21.9c0.1,8.8-2.2,17.3-3,25.9c-0.6,7.2-3.1,13.8-3.8,20.9c-0.1,1-0.4,1.9-0.6,2.9
	c0,0.1,0.1,0.2,0.1,0.1c1.2-0.2,2.4-0.3,3.5-0.8c1-0.4,1.5-2.4,3.2-0.9c1.3,1.1,2.2,2.3,1.7,4.1c-0.7,2.6-1.5,5.2-2.3,7.9
	c-1.8,6-1.8,6.1,4.4,6.7c1.6,0.2,2.5,0.7,2.3,2.4c-0.1,1.5,2,2.6,0,4.7c-3.8,4-7.9,7.6-13.3,8.4c-3.2,0.4-3.8,2-4.1,4.3
	c-0.6,4-2.5,7.5-4,11.2c-0.9,2.4,0.2,3.7,2.8,4.2c1.7,0.3,3.4,0.7,5.1,1.1c1.5,0.4,3,3.4,2.1,4c-0.9,0.5-3,0.8-3.4,0.3
	c-2.3-3-4.8-2.1-7.6-1c-2.2,0.9-3.4,2.6-2.6,4.5c0.3,0.7,1.2,1.1,1.6,1.8c1.3,2.7,2.4,5.4-0.8,7.8c-1.8,1.4-0.7,1.8,1,1.9
	c1.7,0.1,3.4,0.7,5.1,1.1c1.4,0.3,2.4,0.1,2.2-1.7c-0.1-1.1-0.2-2.2,0-3.3c0.2-1.3,0.1-3.2,0.9-3.9c1.6-1.5,3.7-2.6,5.7-3.4
	c1.1-0.5,2.9-0.6,3.9,0c1,0.6,1.6,2.2,1.8,3.5c0.2,1.6,0.2,2.7,2.4,3.3c3.6,0.9,3.8,1.4,6.1,4.9c0,0.1,0,0.1,0,0.2
	c-1.7,0.9-3.7,1.6-5,3c-0.9,0.9-1.3,2.9-1,4.2c0.3,1.4,1.7,1.8,3,0.4c0.3-0.3,1.3,0.1,2,0.3c4.7,1,7.5,4.4,9.5,8.3
	c1.6,3.1,4,4.6,7,6.3c4.6,2.6,9.5,0.9,14.1,2.6c1.5,0.6,5.5-1,5.8-2.2c1.1-4.1,3.6-5.7,7.3-7c2.6-0.9,2.9-4.5,0.8-6.5
	c-3.4-3.2-7.4-4.4-11.9-2.6c-3.1,1.3-4.8-0.5-6.6-2.4c0,0,0-0.1,0-0.1c1-1.7,1.7-4.5,3-4.8c4.6-1.1,6.6-5.1,9.6-7.8
	c3.1-2.9,1.7-7.6-2.6-9c-5.8-1.8-11.6-1.3-15.8,3.1C635.8,523.9,633.8,525.5,635.9,513.9C635.9,513.9,635.9,513.9,635.9,513.9
	c3.8-13.2,3.7-13.2,3.7-13.1c-1.3-1.3-2.6-2.7-3.9-3.9c-3.7-3.4-11.6-2.1-14.1,2.3c-0.9,1.6,0.1,3.6,1.9,4.8
	c1.7,1.1,3.3,2.3,4.9,3.6c2.3,1.9,2.5,3.8,1.1,6.8c-0.7,1.6-2.6,3.4-2.3,4.5c1,3.5,0.4,6.2-2.2,8.7c-0.3,0.2-0.1,0.9-0.2,1.4
	c0.5,0,1.1,0.1,1.6,0c3.2-0.4,3.3-1,3-4.5c-0.1-1,4.4-5.6,5.5-6.3 M381.4,671.4c-0.2,0.2-0.6,0.5-0.5,0.6c0.3,0.4,0.7,1,1.1,1.1
	c2.1,0.7,5.7,0.9,5.9,2c0.8,3.1,4.3,2,5.3,4.5c0.3,0.6,2.6,1.2,3.5,0.8c5.6-2.6,11.5-3.7,17.7-3.5c0.4,0,0.8-1,1.2-0.9
	c2.6,0.5,2.3-1.3,2.1-2.7c-0.2-1.2-0.8-2.3-1.1-3.5c-0.2-1.3,0-2.9,1.7-2.8c2.9,0.2,3.3-1.7,2.6-3.5c-0.7-1.9-2.4-1-4.1-0.4
	c-7.7,2.7-15.5,4.8-23.1,7.6c-2.9,1.1-5.4,1.6-8.3,0.8c-1.2-0.3-2.6-0.1-5-0.2c-1.7-1.2-2.4-3.4-4.1-1.4c-0.3,0.4,0.1,1.8,0.5,2.4
	c0.7,0.9,1.6,2.2,3,0.7C380.1,672.6,380.2,671.8,381.4,671.4z M547.7,284.5c-1.1-1.1-2.3-2.3-3.4-3.4c-4.7-4.7-8.8-10.5-14.3-13.9
	c-7.4-4.5-13.6-10.4-20.9-14.9c-3.6-2.2-7.4-4.2-10.9-6.5c-5.3-3.4-11.5-4.7-16.8-7.9c-7.3-4.4-15.3-6.9-23.4-9.2
	c-3.4-1-6.9-1.9-10.4-1.9c-10.2,0.1-20.5,0.5-30.7,1.1c-3.7,0.2-7.4,1.6-11.1,2.1c-6,0.8-11.9,2.5-17.8,3.1
	c-6.2,0.5-11.5,4.4-17.8,3.8c-2.9,3.6-7.5,2.5-11.1,4.2c-9.2,4.2-18.3,8.6-27.5,12.8c-5.2,2.3-11,4-15.2,7.6
	c-5.5,4.6-13.3,5.9-17.3,12.4c-4.9,0.8-6.6,5.9-10.4,7.9c-4,2.1-7.2,5-10.2,8.2c-8.8,9.7-19.9,17.3-26.7,28.9
	c-5,3.2-6.3,9.5-10.8,13.1c-3.1,9.4-9,17.5-11.5,27.2c-1.6,6.4-2.3,13-3.7,19.3c-2.9,12.8-1.5,25.6-1.5,38.4c0,3.7,0.6,7.7,0.9,11.5
	c0.3,4.1,0.9,8.2,1.1,12.3c0.3,9.9,2.6,19.4,5.6,28.9c0.6,2,1.3,3.3,3.2,3.8c-0.3-1.4-0.6-2.7-0.9-4.1c-0.1-0.5-0.1-1.1,0-1.6
	c1.5-8.2,2.9-16.4,4.6-24.5c0.4-1.9,1.5-3.7,2.7-5.3c1.2-1.7,6.3-3.5,6.5-2.7c0.5,2.2,1.6,5.4,0.5,6.5c-2.8,3.2-2.1,7.2-3.6,10.6
	c-1,2.4,0,2.6,1.8,2.9c5.8,1,11,6.2,11.2,11.8c0.1,3.8-0.7,7.7-1,11.5c0,0.5,0,1,0,1.6c0.5-0.1,1.2-0.1,1.4-0.4
	c2.4-3.2,6.5-1,9.1-3.1c2.9-2.2,6.2-3.2,9.5-4c1.8-0.4,4.3,0.8,5.9,2c0.9,0.7,1.6,3.4,1,4.1c-2.3,2.9-4.7,6.3-7.9,7.7
	c-2.3,1.1-6.1,1.3-9-0.8c-0.8-0.5-1.9-0.5-2.9-0.8c-3.5-0.9-6.5-0.8-9.1,2.4c-2.5,3.1-5.6,5.7-8.4,8.6c-0.5,0.5-1.2,1.7-1,1.9
	c2.8,3.3,0.6,7.6,2.2,11c3.9,8,7.9,15.9,11.9,23.9c0.1,0.2,0.4,0.5,0.6,0.5c0.4-0.1,0.8-0.3,1-0.5c0.1-0.1,0-0.5,0-0.8
	c0.1-6.7-0.1-13.4-2-20c-0.5-1.7-0.4-3.3,1-5c2.1-2.6,4.7-2,7.3-1.9c1.9,0.1,3.7,3.4,4,6c0.5,4.9-1.1,9.9,1,14.8
	c2,4.7,1.7,9.3-1.5,13.6c-2.2,3-2.5,6.5-0.7,9.9c1.4,2.6,3,5.2,4.5,7.7c1.1,1.9,2.1,4,3.5,5.7c1.5,1.9,4.2,3.1,4.9,5.2
	c2.4,6.7,8.7,9.6,12.7,14.7c0.2,0.3,0.9,0.3,1.4,0.4c0-0.5,0.1-1.1,0-1.6c-0.4-3.8-0.9-7.7-1.1-11.5c-0.1-2.3,1.5-3.6,3.4-2.7
	c2.7,1.2,5.2,2.9,7.8,4.4c-0.4,3.6,3.1,4.6,4.6,6.9c0.5,0.8,1.1,1.8,1.1,2.7c-0.1,5.7,0.9,11.5-1.5,16.9c-0.3,0.7-0.3,2,0.2,2.5
	c1.1,1.5,2.5,2.8,3.9,3.9c0.6,0.5,1.7,0.3,2.5,0.4c0.1-0.7,0.3-1.4,0.2-2c-1.4-4.6-1.1-9.1,0.4-13.6c0.9-2.8,2.9-3,5.5-3.1
	c2.2-0.1,4.4,0.9,4.5,2.4c0.4,6.2,3.5,12.5-1.2,18.5c-1.7,2.1-1.8,5.1,0.1,7.2c4.2,4.9,8.8,9.3,15.4,11c0.6,0.1,1.2,0.2,1.8,0.3
	c0-0.8,0.3-1.8-0.1-2.4c-1.5-2.6-3.1-5.1-4.7-7.7c-1.2-1.9-1.6-3.7,0.3-5.5c1.9-1.8,3.7-3.8,5.7-5.6c1.8-1.7,3.5-1.4,5.5-0.1
	c3.5,2.2,4.1,6.4,6.8,9.2c1.8,1.8,5.9,13,5.6,15.2c-0.6,5.1,2.4,6.9,6.4,8c1.9,0.5,3.9,0.9,5.7,1.6c6.4,2.3,12.2,2.2,16.7-3.9
	c0.5-0.6,1.2-1.1,1.7-1.7c5.5-7.3,13.7-8,21.8-9.1c1.6-0.2,2.3,0.2,2.1,2c-0.3,1.7,0.3,3.4-1.3,5.1c-1.7,1.8-1.7,4.8-4.1,6.3
	c-0.3,0.2-0.4,1.2-0.2,1.4c0.5,0.5,1.3,1.1,1.9,1c1.2-0.1,2.3-0.9,3.5-1c4.6-0.5,9.3-0.7,13.9-1.2c4.6-0.4,8.2-3.3,12.4-4.7
	c4.4-1.4,7.6-4.2,8.6-8.7c0.7-3.2,1.8-5.2,5.2-5.8c0.9-0.2,1.9-0.9,2.5-1.7c2.7-3.6,7.1-3.5,10.8-4.9c0.8-0.3,2.5,0.1,2.8,0.7
	c0.6,1,0.9,2.7,0.5,3.7c-0.6,1.4-2.1,3.3-3.2,3.3c-3.6,0-4.7,3.1-6.9,4.8c-0.5,0.4-0.7,1.3-1.1,1.9c0.8-0.3,1.7-0.5,2.5-0.9
	c8.9-3.8,17.7-7.9,25.4-14c2.4-1.9,3.5-2.4,1.6-5.3c-1.3-2-1.8-4.6-2.5-6.9c-2.7-8.1,0.2-15.5,3.8-22.4c1.7-3.3,3.9-3.1,5.3,0.7
	c0.8,2.1,1,1.9,2.1,0.7c0.6-0.7,1.5-1.8,1.4-2.6c-0.7-4.6,1.5-8.5,2.7-12.5c0.5-1.6,0-4.8,3.9-4.5c3.8,0.3,1.9,3.7,3.5,5.2
	c0.8,0.8,0.4,3.1,0.1,4.6c-0.6,3.2-1.3,6.4-2.3,9.4c-0.4,1.2-1.8,2.2-0.1,3.1c0.5,0.3,1.7-0.5,2.5-0.8c1.4-0.4,3-1.3,4.3-1
	c2,0.5,1.5,2.7,1.2,4c-0.5,2.4-1.3,4.8-2.2,7.1c-0.6,1.6-1.5,3.1-2.3,4.7c-0.1,0.2-0.1,0.7,0,0.8c0.4,0.1,1,0.3,1.2,0.1
	c6.5-4.9,13-9.8,19.4-14.9c2.5-2,4.5-4.6,6.8-6.7c2.9-2.6,4.6-5.2,4.3-9.5c-0.3-4.9,0.2-9.9,1.1-14.7c0.5-2.9,0.2-6.7,5.1-7.4
	c2.4-0.3,4.2-2.9,3.9-6c-0.1-0.8-0.1-1.6,0-2.4c0.1-0.7,0.1-1.9,0.6-2.1c1.3-0.6-0.7-3.7,2.3-2.9c1.8,0.5,4.2-1.4,5.2,2
	c0.4,1.6,1.8,3,2.9,4.4c0.2,0.3,0.9,0.3,1.4,0.5c-0.1-1.7,0.6-2.9,1.8-4c0.4-0.4,0-1.7-0.3-2.5c-0.4-1.2-0.9-2.3-1.3-3.4
	c-3.2-7.7-2.3-15.9-2.1-23.9c0-1.9,2-3.9,3.3-5.8c1.1-1.5,2.5-2.9,4.6-2.2c2.3,0.8,4.1,2.1,4.4,4.8c0.1,1.3,0.2,2.6,0.7,3.7
	c0.4,0.8,1.6,1.3,2.5,1.6c0.2,0.1,1.1-1,1.3-1.6c2.1-9.5,6-18.3,8.5-27.7c2.9-11.1,6.5-22,8-33.4c1.1-8.1,2.3-16.3,2.7-24.5
	c0.3-8.1,0.1-16.2-0.8-24.3c-0.9-8.1-2.3-16-4.5-23.8c-5.5-19.1-8.3-25.3-18.3-43.6c-2.9-5.3-5.3-10.9-9.2-15.3
	c-4.1-4.7-6.8-10.4-11.8-14.4C554.6,292,551.3,288,547.7,284.5z M90.7,413.5c0.8,0.4,3.2,1.7,5.5,3.2c6.8,4.5,14.4,6.4,22.2,8
	c2.1,0.4,6.2-1.9,6.1-3.7c-0.1-1.9-2-2.3-3.7-3.2c-4.5-2.3-9.7-5.1-10.6-10.4c-0.6-3.5-1.8-5.7-4.1-8c-2.4-2.3-2.2-3.6,0.7-5.3
	c1-0.6,2.4-0.7,3.6-1c3-0.6,6-1.1,7.9-3.9c0.4-0.5,0.7-1.7,0.4-1.9c-4.6-4-4.3-10-6.1-15.1c-0.8-2.1,1.3-5.3-1.8-6.2
	c-2.2-0.6-5-0.7-7.1,0c-3.7,1.3-7.5,3-10.4,5.5c-3.4,2.8-6.5,5.4-10.7,7c-2,0.7-3.8,2.7-5.2,4.5c-0.3,0.4,1.6,2.4,2,3.7
	c0.9,3.1,1.4,6.3,2.4,9.4C83.4,401.9,84.8,407.7,90.7,413.5z M169.2,186.6c-0.2,0.7-0.5,1.2-0.4,1.7c0.5,2.7-1.1,4.2-2.6,6.2
	c-3.7,4.7-6.6,10.1-5.2,16.1c1.7,7.2,3.5,14.6,9.2,20.1c1.8,1.7,3.8,3.1,4.4,6.2c0.4,2.1,3.1,3.7,3.8,6.4c0.5,1.9,3.6,2.4,5.3,1.3
	c1.6-1.1,2.4-2.2,0.9-4.4c-1.4-1.9-1.7-4.6-2.4-7c-1.4-5.3,3-10.5,0.1-15.9c-0.7-1.3,3.9-4.5,4.8-3.4c2.6,3.1,6.1,0.9,8.9,1.8
	c3.7,1.2,4.1-2.4,4.1-3.6c-0.2-5,1.5-9.5,3-14c0.2-0.7,0.5-1.4,0.5-2.2c0.4-4.2-0.8-5.8-4.9-7.5c-3.5-1.5-6.9-1.3-10.5-0.5
	c-2.1,0.4-4.5,0.2-6.7-0.1c-3.5-0.4-7-1.1-10.5-1.6C170.5,186,169.8,186.4,169.2,186.6z M393.4,93.9c-2-2-3.3-4.6-5-4.8
	c-4-0.5-5.1-5-8-5.7c-4.1-1-5.7-4.4-8.5-6.6c-1.1-0.8-2-1.8-2.8-2.8c-1.5-2-2.7-1-3.7,0.4c-0.8,1-1.5,2-1.9,3.2
	c-3.1,8.5-7.9,16-13.3,23.2c-1.8,2.4-2.6,4.9-2.6,7.7c0,2.9,0.2,5.9,0,8.8c-0.5,5.6,1.5,10.1,6,13.5c0.6,0.4,1.3,0.6,2,0.9
	c0-0.5,0-1.1,0-1.6c0.3-5.1-0.2-10.4,4.4-14.1c-0.5-2.9,2.4-3.8,3.4-5.8c1-1.9,1.3-4.2,2-6.4c0.8-2.9,2.5-3.7,4.4-1.9
	c4.2,4,8.5,8.1,12.4,12.4c3,3.3,2.7,3.4,5.7,0.9c1.7-1.4,2.8-3.4,5.5-4.1c5.5-1.4,5.2-1.8,5.2-7.3C398.3,99.4,396.2,96.1,393.4,93.9
	z M286.3,131.7c-2.1-1.9-4.1-4.5-7.6-5.5c-2.6-0.8-5-2.1-7-4.4c-2-2.3-6.1-1.7-6.3,0.7c-0.2,4-3.2,3.7-5.1,4.5
	c-5.8,2.6-10.3,7.4-11.3,13.3c-0.3,2-0.7,4-1.1,5.9c-2.8,11.5-0.6,21.7,8.3,30c0.5,0.5,1.3,0.5,2,0.8c0.2-0.9,0.9-1.9,0.6-2.6
	c-2.1-5.4-1.9-10.7,0.5-15.9c1.2-2.7,1.4-5.3,0.6-8.1c-0.7-2.7,0.9-4,3.4-3.3c4.3,1.2,7.6,5.6,12.8,4c0.4-0.1,1.3,0.9,1.7,1.5
	c1.7,2.6,2.9,1.6,5,0c2.6-1.9,2.7-5.5,6.2-6.8c1.5-0.5,2.9-3.7,2.9-5.7c0-2-1.8-4-3-5.9C288.3,133.4,287.4,132.7,286.3,131.7z
	 M251.5,636.1c-0.8,0.8-1.6,1.5-2.3,2.3c-1.9,2.1-1.9,3.9,0,6.1c1.4,1.6,3.5,2.9,4.1,4.7c0.7,1.8-2.1,2.9-2.5,5.3
	c-0.4,2.3-0.3,4.6-0.7,6.8c2-0.4,4-0.5,5.9-1.2c2.3-0.8,5.9-0.7,6.3-3.4c0.5-3.5,3.3-4.6,4.9-6.8c1.6-2.3,3.1-4.6,4.6-6.9
	c0.5-0.6,1-1.3,1.7-1.6c0.5-0.2,1.4,0,2,0.2c0.3,0.2,0.7,1,0.5,1.3c-0.8,1.8-1.6,3.7-2.7,5.3c-1.1,1.5-2.6,2.7-3.9,4
	c-4.6,4.7-3.2,10.1,3.2,11.2c3.6,0.7,8.1,2.6,10.7-2.5c1-2,2.5-3.9,2.8-6c0.3-2.4,0.9-4.3,2.2-6.3c1.2-2-0.8-5.1,1.1-7.5
	c0.2-0.3-0.2-1.5-0.6-1.9c-0.4-0.3-1.6-0.2-1.9,0.1c-1.6,1.9-3.6,2.5-5.5,1.2c-1.9-1.3-3.8-2.9-3.1-5.9c0.4-1.8,0.6-3.9,0-5.5
	c-1.3-3.8-1.5-7.3,0-11.1c1-2.6-0.2-4.3-3.1-5.2c-1.6-0.6-3.4-0.9-5.1-1.1c-2.9-0.5-4.8,0.3-4.1,3.7c0.5,2.7-1.8,3.7-3.2,5
	c-1.7,1.5-1.7,3.4-1,4.9c0.3,0.7,2.2,0.8,3.5,1c0.8,0.1,1.6,0,2.4,0c1.7,0.2,3.8-0.8,5.1,1.2c0.7,1.1-1.8,2.9-5.1,3.3
	c-1.3,0.2-2.7-0.2-4,0.1C259.3,631.8,254.6,632.2,251.5,636.1z M123.2,312.5c0.6,0.6,1,1.5,1.7,1.6c4,1.1,6.3,4.4,9.2,6.9
	c1.3,1.1,3,1.7,4.6,2.3c0.7,0.3,1.7,0,2.6-0.1c-0.3-0.9-0.4-1.8-0.8-2.6c-3.6-5.5-7.6-10.8-4.6-18c0.3-0.8,0-2.4-0.5-2.9
	c-2.2-1.6-1.6-3.7-1.6-5.8c-0.1-2.3,0.1-3,3.1-2.2c6.4,1.8,6.8,1.1,7.1-5.7c0.2-3.8,0.7-7.7,1.1-11.5c0.2-2.1-0.8-2.8-2.8-2.7
	c-7.3,0.4-14.6,0.8-21.9,1.1c-1.7,0.1-1.4,1-1.3,1.9c0.3,2.8,0.7,5.5,1.1,8.3c-3.5,2.1-2,6.7-4.7,9.2c-1.6,1.5-0.7,3.1-0.5,4.9
	C115.6,303.8,121.4,307,123.2,312.5z M472.1,114.5c-2.9,4.9-5.7,10-4.6,16.2c0.2,1.1,1.1,2.5,2.1,3c2.2,1.1,4.8,2.6,6.9,2.2
	c1.3-0.3,2-3.8,2.8-5.9c0.6-1.6,1.1-3.3,1.7-4.9c0.5-1.1,1-2.7,1.9-3.1c3.4-1.5,6.9-3.5,10.4-3.6c3.4-0.1,5.7-1.9,8.6-2.6
	c1.4-0.3,2.7-2.2,3.8-2c2,0.4,1.1,2.6,1.2,4.1c0.3,2.6,2.1,3.9,4.4,4.8c1.2,0.4,2.3,0.9,3.5,1.1c5.6,1.2,5.5,1.1,6.8,7.2
	c0.3,1.2,0.4,2.7,1.2,3.5c0.9,0.9,2.4,1.2,3.6,1.8c0.3-0.8,0.7-1.6,0.8-2.4c0.6-8.9-5-16-7.4-24.1c-0.2-0.8-2.1-1.2-3.2-1.8
	c-3.3-1.7-7.8-0.6-10.1-4.5c-5.2-1.2-10.2-3.3-15.4,0.8c-3,2.4-7.2,3.1-10.7,4.9C477.7,110.7,475,112.6,472.1,114.5z M510.8,603.1
	c-0.6,0.6-0.8,0.7-1,1c-0.6,0.8-1.1,1.7-1.7,2.5c1.2,0,2.5,0.4,3.6,0c6.8-2.6,14.1-1.8,21.1-3.1c2.3-0.4,5.2,0.7,7-0.4
	c2.6-1.5,0.4-4.9,1.2-7.3c1.3-4.1,0.1-9.7,6.3-11.3c1.8-0.4,1.3-2.5,1.6-4.1c1.4-8.5,6.1-12,13.9-9.1c4.2,1.6,7.1,0.1,10.2-1.3
	c6-2.6,8.8-2.6,13.1,1.6c1.1,1.1,2.2,2.3,3.4,3.4c0.2,0.2,0.8-0.1,1.2-0.2c-2.2-2.9,4.7-6.8-1.1-9.2c-1.2-5.1-6.5-9.1-3.5-15.3
	c0.8-1.6-1.2-1.4-1.9-1.1c-1.3,0.6-3.3,1.3-3.6,2.4c-2.9,9.2-11.4,9.6-18.6,12.2c-4.1-1.3-6.9,1.4-9.7,3.5c-1.8,1.3-2.9,3.7-4.5,5.3
	c-3.3,3.5-6.6,7-10.2,10.1c-3.4,3.1-7.2,5.8-10.8,8.6c-2,1.5-3.5,3.4-6.2,4.4C516.9,597.4,513.8,600.9,510.8,603.1z M514.1,662.3
	c-0.8-0.2-2.5-0.9-4.1-1.1c-4.4-0.4-8.7,0.1-13.1-1c-5.1-1.2-9.1,3-9,8.5c0,1.2,0.8,2.3,1.1,3.5c0.4,1.8,0,3-2.3,2.6
	c-0.1,0-1,1.9-0.6,2.4c1.5,2.6,3.6,4.9,5,7.5c2.5,4.6,4.3,9.4,0.7,14.2c-1.3,1.7,0,2.5,0.9,3.1c1.8,1.3,3.8,2.4,5.7,3.5
	c2.9,1.7,5.4,0.7,7.6-2.4c1.3-1.8,2.6-4.2,5.5-3.6c3.2,0.6,2.4-1.7,2.3-3.2c-0.1-0.9-0.7-1.8-1.1-2.7c-3-6.3-6.2-12.3-14.7-12.2
	c-0.9,0-1.9-1.1-2.7-1c-3,0.3-2-2-1.7-3c0.6-2.3,2.6-2.7,4.9-2.8c2.5-0.1,5.5,1.5,7.4-1.1c1.8-2.4,3.6-1.9,5.9-1.1
	c2,0.7,4.7,2.9,6.1,0.2c0.9-1.6-0.2-4.3-0.7-6.5C516.8,665.1,515.6,664.2,514.1,662.3z M585,595.5c-3.1-3.9-7.8-5.1-12.3-6.6
	c-1.3-0.5-3.5-0.6-3.4,1.8c0.1,2.5-1.7,1.4-2.6,1.4c-0.7-0.1-1.8-1.1-1.9-1.8c-0.3-2.1,0-4.2-0.1-6.4c-0.1-2.8-1.2-5.2-3.1-7.5
	c-1.9-2.2-3.1-0.1-4.7-0.1c-1.6-0.1-2.7,0.6-2.4,2.2c1,4.9-1.8,7.8-5,10.7c-1.2,1.2-2.3,2.7-2.9,4.4c-0.7,2.2,0.4,3.1,2.8,2.3
	c2.6-0.9,4.5-0.3,6.1,1.8c1.4,1.8,3.3,2.9,3.8,5.7c0.2,1.4,3.6,2.2,5.4,3.6c0.7,0.5,0.6,1.9,1.1,2.7c0.5,0.7,1.3,1.4,2.1,1.7
	c1,0.3,2.2-0.2,3.2,0.1c6.2,1.8,9.4,1.5,14.4-1.1c0.8-0.4,1.5-0.1,1.8-1.5C588.7,604,590.1,599.3,585,595.5z M368.8,713.5
	c0.5-1,1-3.3,2.4-4.5c6-5.1,7.2-12.5,9.9-19.1c0.2-0.6-0.1-1.3-0.2-2c-0.9,0.1-2-0.1-2.6,0.4c-6.9,5.3-13.8,10.5-23.4,7
	c-0.9-0.3-2.4-0.5-3.1,0c-4.2,2.5-6.7,0.3-9.2-2.7c-0.4-0.4-1.7-0.7-1.8-0.5c-0.9,1.5-1.8,3-2.2,4.6c-0.2,0.7,1,1.6,1.6,2.5
	c1.7,2.5,5.5,3.5,5.3,7.4c0,0.3,1.2,1,1.9,1c5.2,0.2,10.7,0.9,14.1-4.7c0.8-1.3,2.1-2.4,3.4-3.4c0.9-0.8,2.1-1.4,3.1-2.1
	c0,1.3,0,2.7,0,4c0.1,2.9-2.1,3.9-4.1,5c-3.6,2-4.3,3.5-2.7,6.7C362.5,716,365.7,716.4,368.8,713.5z M377.3,685.3
	c-0.1-0.2-0.2-0.3-0.3-0.5c0.9-0.9,1.9-1.8,2.8-2.8c0.3-0.3,0.6-1.1,0.4-1.3c-0.4-0.6-1.1-1.3-1.7-1.3c-2.9-0.1-5.8,0.1-8.7-0.1
	c-2.5-0.2-5.6,0.1-7.4-1.2c-4.4-3.4-9.7-3.6-14.6-5.1c-1.8-0.6-3.2-0.5-5,0.6c-1.9,1.2-2.9,2.5-1.6,4c0.6,0.7,1.6,1.7,2.4,1.7
	c2.9-0.2,2.8,1.7,2.7,3.6c0,1.6,0,3.2,0,4.8c-0.1,1.7,0.2,2.9,2.4,3.1c4.7,0.5,9.4,1.5,14.2,2.2c0.5,0.1,1.2,0.2,1.6,0
	C368.7,690.4,373,687.8,377.3,685.3z M470.2,698c0.4,0.4,0.7,0.8,1.1,1.1c2.6,2.5,5.8,2.6,9.2,2.9c3.7,0.4,2-3,3.4-4.1
	c0.8-0.6,1.7-1.5,2.5-1.6c3.7-0.1,3-3.2,2.3-4.5c-2.2-4.5-3.7-9.3-7.8-12.7c-1.8-1.5-2.8-2-5.2-1c-2,0.9-4.2,0.3-3.9-3
	c0.1-0.9-0.7-1.8-1.1-2.7c-0.5-1.2-1.1-1.3-1.9-0.1C463.4,679.4,463.3,691.3,470.2,698z M179.2,583.5c-0.3,1.8-0.4,2.6-0.6,3.3
	c-2,7-1.6,7.6,5.4,7.6c1.3,0,2.6,0,4,0c1.6,0,2.3-0.8,2.3-2.4c0-1.1-0.1-2.1,0-3.2c0.1-0.4,0.7-1.1,1-1.1c0.7,0,1.5,0.2,2,0.7
	c0.7,0.7,1.6,1.9,1.4,2.5c-1,3.2,2,5,2.6,7.8c0.6,3,4.5,3.4,6.8,1c0.8-0.9,1.5-2,2-3.1c0.9-2.3,2.2-4.1,4.7-4.4
	c1.7-0.2,1.6-1.5,2.2-2.5c2.1-3.1,0.5-5.9-0.2-8.6c-0.5-1.7-2.4-3.4-4.2-2.4c-2.6,1.5-4.7-0.2-7.1-0.1c-1.8,0.1-3.5-0.2-4.9,1.6
	c-1.2,1.6-2.5,3.5-5.1,2.9c-2.8,3.6-5.8,4.9-9.6,1.2C181.1,583.7,179.9,583.7,179.2,583.5z M572,618.8c-1.5-1.5-2.5-2.7-3.8-3.7
	c-1.1-0.9-3.3-2.5-3.6-2.2c-2.2,2-6.2-0.7-7.7,2.9c-0.5,1.1-0.6,2.7-1.5,3.3c-0.9,0.6-2.5,0.1-3.7,0.4c-0.3,0.1-0.6,1-0.7,1.6
	c-0.7,3.3,4.5,3.9,3.5,7.4c0,0.1,2.2,0.8,3.3,1.2c4.6,1.6,6.1,2.8,9.9,7.6c0.3,0.4,0.7,0.8,1.1,1.1c2.8,2.6,6.1,1.6,7-2.1
	c0.4-1.5,0.2-3.3,1.1-4.3c1.6-2,0.8-3.6,0.5-5.6C577,622.4,573.6,621.1,572,618.8z M603,624c4.4-4.2,3.9-4.6,1.8-9
	c-1.9-3.8-5.6-6.5-6.6-10.8c-0.2-0.8-1.5-1.6-2.4-1.7c-0.4-0.1-1.4,1.2-1.6,2c-1.7,6.8-5.9,10.9-12.7,12.6c-2.7,0.7-2.7,1.3-0.7,3.6
	c0.9,1,2.3,1.7,2.7,2.8c2,4.8,6.2,5.5,10.2,4.7C597.4,627.4,600.8,625,603,624z M205.8,537c1-1.7,2.2-3.5,3.2-5.5
	c0.3-0.5,0.2-1.6-0.2-1.9c-0.4-0.4-1.8-0.5-1.9-0.4c-1.6,3.6-5.6,0.6-7.7,2.8c-0.2,0.2-2.4-1.4-3.6-2.3c-1.5-1.1-0.3-2,0-3.2
	c0.4-1.6,0.8-2.8,1.9-4c1.3-1.4,0.2-2.6-1.2-2.6c-2.6-0.1-5.3-0.1-7.8,0.4c-3.1,0.7-4.7-2.1-7.2-2.5c-3-0.6-4.7,1.2-4.9,4.3
	c-0.2,3,2,4.2,3.6,5.7c3.5,3.1,5.1,4.9,6.7,7.9c0.6,1.1,1.3,3,2,3c5,0.3,10,0.3,15,0.2C204.5,538.8,205,537.8,205.8,537z
	 M641.5,565.4c-1.2-0.1-2.3,0-3.1-0.4c-2.3-1-4.4-2.3-6.6-3.3c-3.6-1.5-4.2,3.5-7.4,3.4c-2.1,0-2.8,1.4-1.1,3
	c3.7,3.6,4.4,7.7,2.8,12.5c-1.1,3.3,1.1,6.4,4.1,7c4.4,0.8,5.9-0.3,6.9-4.8c0.3-1.2,0.6-2.6,1.5-3.3c2.5-2.2,2.6-5.4,3.4-8.2
	C642.5,569.6,641.8,567.6,641.5,565.4z M180.1,532c-2.3-1.2-5-3.4-8-4c-2.1-0.4-4.7,1.3-6.9,2.2c-0.9,0.4-1.6,2-2.3,1.9
	c-3.2-0.2-3.3,1.6-3.2,4c0.2,5.3,1.3,6.6,6.7,7.5c1,0.2,2,0.5,3,0.5c5,0.2,9.9,0.6,14.9,0.4c0.9,0,2.7-2.7,2.4-3.2
	C184.9,538.3,182.6,535.5,180.1,532z M380.3,701.7c0.6,3.1-2,4.2-3.4,5.9c-0.3,0.4-1,0.7-1.1,1.1c-0.2,0.8-0.4,1.9,0,2.3
	c2.2,2.2,0,4.2-0.1,6.3c-0.1,2.9,0.9,5.4,2,7.9c0.4,0.9,1.3,2.2,3.1,1.1c4-2.3,8.3-3.6,13.1-3c1.6,0.2,2.3-0.8,2.3-2.4
	c0-0.8,0-1.6,0-2.4c0-5.6-0.7-6.7-6.3-7.6c-2.8-0.4-4-2.2-5-4.2c-0.7-1.3-0.5-3-1.3-4.2C383.1,702,381.5,702,380.3,701.7z
	 M556.2,657.2c2.7,2.8,2.6,2.5,6.5,0.4c2.1-1.1,4.6-1.7,7.1-2c2.1-0.2,3.4-1.2,3.9-3c0.8-2.8-0.1-6.6-2-6.9
	c-3.3-0.4-4.8-2.9-6.8-4.7c-3.6-3.4-3.5-3.4-6.6,0.6c-1.2,1.4-2.5,2.7-3.9,3.9c-2.1,1.9-2.5,3.7-1.3,6.7
	C553.8,654.3,554.8,655.8,556.2,657.2z M508.1,677.5c0.3,1.1,0.3,1.9,0.6,2.4c4.2,5.9,10.9,6.7,17.1,8.5c2.1,0.6,3.6-1.1,3.7-3
	c0.1-2.4,0.4-4.4,2.5-6.2c3.8-3.2,0.9-6.8-0.2-10c-1.3-3.9-5.9-1-8.1-3.4c-0.3,0.5-0.8,1-0.8,1.5c-0.3,2.8-0.5,5.6-0.9,8.4
	c-0.2,1.2,0.2,3.2-2.3,2.6c-2.7-0.6-5.5-0.9-8.3-1.1C510.4,677,509.4,677.3,508.1,677.5z M620.1,572c-2.7-3.2-4.3-4.9-6.5-1.7
	c-0.2,0.2-1.6-0.6-2.5-0.7c-2.5-0.4-5-0.7-7.5-1.2c-1.2-0.2-2.5-0.5-3.6-1c-2.8-1.2-4.4-0.7-4.7,2c-0.3,3.1-0.1,6.4,2,8.7
	c2,2.1,4.9,3.4,7.5,4.9c0.3,0.2,1.7-0.7,1.7-1.1c-0.1-4.4,2.5-3.6,5.2-2.8c1.9,0.6,3.8,1.2,5.7,1.7c0.7,0.1,1.9-0.1,2.1-0.5
	c0.8-2.1,1.5-4.3,1.7-6.5C621.2,572.9,619.9,571.8,620.1,572z M576.4,533c-5.3,2.7-6.5,9.9-10.5,15.1c0,0.1,0.8,1.1,1.1,1.1
	c1.2-0.3,2.4-0.6,3.5-1.2c2.5-1.3,5.4-3.1,7.7-1.9c1.9,1,2.7,0.2,4-0.2c3-1,6.1-1.9,9.1-2.9c1.4-0.5,3.8-1.3,3.8-1.7
	c-0.3-2.3-2.3-0.6-3.5-1c-1.1-0.5-2.5-0.5-3.5-1.2c-1.9-1.3-3.7-2.8-5.1-4.6c-0.3-0.4,1.6-2.3,2.4-3.6c0.4-0.6,0.8-1.4,0.8-2
	c0-1-0.2-2.1-0.8-2.8c-0.2-0.3-1.8,0.1-2.4,0.6C580.9,528.3,579.1,530.2,576.4,533z M175.1,563.2c1.7-1.7,3.5-3.3,5-5.1
	c0.5-0.6,0.6-1.7,0.5-2.5c-0.1-1.7-0.5-3.5-0.8-5.2c0-0.1-1-0.1-1.5,0c-4.6,1.1-9.2,2.1-13.7,3.4c-2.7,0.8-2.9,2.5-0.9,5.1
	c2.3,3.1,2.6,6.1-0.1,8.9c-2.7,2.7-1.6,5.3-0.3,7.6c0.5,0.9,3,0.8,4.5,0.9c0.3,0,1-1.5,0.9-2.1c-0.6-3.6,1.1-6,3.6-8.1
	C173.3,565.2,174.2,564.1,175.1,563.2z M271,585.4c2.1,1.1,4.5,1.7,6,3.1c5.2,5.1,12.3,3.8,18.3,5.9c0.3,0.1,0.9-0.5,1.1-1
	c0.2-0.4,0.2-1.1,0-1.4c-0.6-0.8-1.3-1.9-2.2-2.2c-4.8-1.5-7.2-5.7-10.8-8.5c-2.9-2.3-6.2-4.1-9.4-6c-0.8-0.5-1.8-1-2.7-1.1
	c-2.5-0.3-4.7,2.4-3.8,4.5C268.3,581,269.7,583.1,271,585.4z M619.5,550.8c-0.5-0.5-0.9-0.9-1.3-1.2c-3.2-3.1-3.2-3.1-6.5,0.1
	c-3.4,3.2-3.4,3.2-8.3,1c-1.7-0.8-2.4,0-2.5,1.6c-0.1,1.6-0.1,3.2,0,4.8c0.3,5.7,2.2,8,7.8,9.1c0.9,0.2,2.8,1.1,2.4-1.5
	c-0.2-1.3-0.3-2.7,0-3.9c0.3-1.1,1-2.4,1.9-3.1c1.5-1.4,2.2,0.5,3.1,1.2c0.8,0.7,1.4,1.7,2.3,2.2c1.1,0.5,2.6,1,3.6,0.6
	c0.8-0.3,1.2-1.9,1.5-3C624.5,554.7,621.4,553,619.5,550.8z M418.8,695.7c-0.1,4.2-2.7,7-5.6,9.6c-0.2,0.2,0,1.1,0.2,1.4
	c1.4,1.6,2.8,3.3,4.5,4.4c1.6,1,3.8,2.2,5.4,1.8c2.4-0.6,0.3-2.4,0-3.7c-0.1-0.4,0.3-0.9,0.7-1.3c2.1-2.4,4.2-4.7,7.9-3.9
	c1.1,0.2,2.9-0.1,3.5-0.9c1.6-2-0.3-8.5-2.8-8.7c-4.5-0.3-9.1,0.4-13.7,0.7C418.9,695.2,418.8,695.5,418.8,695.7z M193.7,616.1
	c1.3,0.5,1.8,3.6,3.6,1.7c3.1-3.3,6.9-3.8,11-4.2c3.8-0.4,5.6-4.1,4.4-7.8c-0.5-1.5-3.1-2.3-4.2-1.2c-1.5,1.5-3,3.2-5.4,2.4
	c-1.8-0.7-3.7-1.4-5.3-2.6c-1.9-1.4-3.3-3.4-5.2-4.9c-0.4-0.3-2.1,0.2-2.4,0.8C188.3,604.4,190,612.3,193.7,616.1z M299.6,614.1
	c2.5,2.4,5.2,4.7,8.5,5.1c3.9,0.5,7.9,0.2,11.9,0.1c1.3,0,1.9-1.8,0.9-2.8c-1.5-1.5-2.5-3.9-5.6-1.8c-1.6,1.1-2.6-0.3-3.3-2.3
	c-0.7-2.1-2.6-3.8-4.2-5.4c-1.8-1.8-3.8-3.4-5.9-4.9c-1.4-0.9-3.1-1.7-4.7-1.9c-3.5-0.4-5,2-3.3,5.1
	C295.6,608.3,297.7,611.2,299.6,614.1z M191.4,576.3c1.4-1.7,3.8-2.8,3.4-5.8c-0.3-2.8-0.5-5.6-2.5-7.8c-1.2-1.3-2.8-2.3-4.2-3.4
	c-0.6,1.3-0.9,3.3-1.9,3.7c-3.7,1.6-6.1,5.4-10.1,6.4c-2.9,0.7-2.1,3.1-1.6,4.4c0.4,1.1,1.3,3.5,4.1,1.8c1.7-1.1,4.6-1.7,4.9,2.4
	c0.2,2.7,3,1.9,4.4,1.4C189.3,579.1,190.3,577.5,191.4,576.3z M659.2,577.1c1.9-2.1,3.6-3.2,3.8-4.5c0.4-3.7,4.7-8-1-11.2
	c0.1-4.5-2.6-2.1-4-1.4c-1.3,0.7-2.2,2.3-3.5,3.2c-1,0.7-2.1,1.4-3.3,1.6c-1.7,0.4-3.4,0.3-5.1,0.5c0.4,1.7,0.8,3.4,1.1,5.1
	c0.1,0.3,0.1,0.5,0,0.8c-1.2,5.5,4.5,4.7,6.8,6.9C655.8,580,658.4,578.2,659.2,577.1z M595.6,643.6c1.2-2.2,2.6-4.3,3.4-6.6
	c1.6-4.3,1.3-4.4-3.5-4.1c-1.8,0.1-3.6-0.4-5.3-0.5c-2.2-0.1-5-0.9-6.6,0.1c-2.7,1.6-2.9,5-3.1,8.2c-0.2,3.2,1.7,4.8,4.2,5.8
	C588.9,648.3,592.3,646.6,595.6,643.6z M294.4,660.5c1,0.4,2.8,1.9,3.5,1.4c1.4-0.8,2.3-2.6,3.2-4.1c0.2-0.4,0.1-1.1,0-1.6
	c-0.8-3.6-0.3-7,1-10.5c1.2-3.4-1.1-7.5-4.2-9.3c-1.6-0.9-3.9,0.2-4.8,2c-1.7,3.7,0,8-1.4,11.3C290,654.3,292.1,657,294.4,660.5z
	 M467.9,646c1.3-1.3,2.7-2.6,3.9-4c0.6-0.7,0.7-1.7,1-2.5c-0.9-0.3-1.9-1-2.8-0.8c-1.9,0.4-3.9,0.8-5.6,1.8c-3.4,2.1-7.6,2-11.1,4.1
	c-1,0.6-2.4,0.5-3.6,0.8c-3.6,0.8-7.3,1.6-10.9,2.6c-0.8,0.2-1.4,1.5-2,2.3c0.8,0.3,1.6,0.7,2.4,0.8c3.2,0.2,6.5,2.8,9.5,0.4
	c2.7-2.2,5.2-1.8,7.9-0.9c3.9,1.3,7.1,0.6,9.6-2.8C466.7,647.1,467.3,646.6,467.9,646z M545.9,621.8c-0.8-0.3-1.9-0.7-3-1
	c-0.3,0.9-0.7,1.9-0.8,2.8c-0.8,5.7-1.6,11.5-2.2,17.3c-0.1,1.1,0.4,3,1.2,3.3c3.7,1.5,6.8-1.2,10-2.4c1.3-0.5,1.7-3.3,2.3-5.2
	c0.2-0.7,0.4-2,0-2.3C549.5,631.1,549,625.9,545.9,621.8z M585.7,577.5c-2.7-4.4-7-3.6-10.9-3.3c-2.4,0.2-4.2,2-4.4,4.6
	c-0.2,2.1-0.9,5,0.2,6.2c1.2,1.3,4.1,1,6.2,1.6c2.4,0.6,4.6,1.7,7,2.2c3.5,0.7,6-2.7,4.6-6C587.7,580.9,586.6,579.2,585.7,577.5z
	 M242.9,557.5c4.1,2.3,8.4,4.8,12.7,7.3c6.9,4,15.8,2.5,22,8.2c0.1,0.1,0.5,0,0.8,0c0-0.5,0.1-1.1-0.1-1.3c-1.5-1.5-3-4.1-4.5-4.1
	c-3.8-0.1-4.5-4-7.6-4.9c-2.9-0.9-5.7-3.1-8.5-4.5c-4.1-2.1-7.7-5.8-12.8-5.4c-1.6,0.1-3.4-3-4.5-0.2
	C239.9,553.6,241.8,555.4,242.9,557.5z M497.2,653.7c2.8-2.4,3.2-5.4,3.3-8.6c0-0.7,1-1.7,0.8-1.9c-1.4-1.6-2.7-3.5-4.5-4.4
	c-1.4-0.8-3.4-0.4-4.9,1.2c-3.2,3.3-5.3,7.3-6.7,11.5c-0.5,1.5,0,3.2,0,4.9c1.9-0.3,3.3,2.2,5.5,0.9
	C492.8,655.9,495,654.9,497.2,653.7z M233,599.6c2.5,0.9,5,2,7.5,2.7c1.7,0.4,4.1-0.4,5.3,0.5c2.1,1.5,2.7,0,3.8-1
	c2.3-2,2.7-4.8,2.7-7.5c0.1-3-2.9-2.9-4.9-3.8c-0.7-0.3-1.1-1.4-1.7-1.6c-1.2-0.2-3.2-0.5-3.7,0.2c-2.2,3.1-5.9,3.9-8.6,6.1
	C232.2,596.4,231.2,597.6,233,599.6z M147.5,567.6c0.2,0.2,1.5,1.9,2.7,1.8c4.2-0.4,6.9-3.5,9.1-6.6c1.4-1.9-1.9-2.7-2.6-4.2
	c-0.7-1.6-1-3.3-1.6-4.9c-0.3-0.8-1-2.1-1.6-2.2c-2.4-0.3-4.8-0.3-7.2,0.1c-0.3,0.1-0.2,2.8-0.3,4.3c0,0.2-0.4,0.3-0.5,0.6
	C142.9,562.4,143,563,147.5,567.6z M468.8,708.1c-0.8,1.3-2.5,2.6-2.3,3.8c0.2,2.1,2.5,1,3.9,1.4c2.6,0.7,5.2,1.2,7.4,3.3
	c2.2,2.2,5.7,1.6,6.4-1c1.2-4.4,4.4-7.7,5.4-12.1c0.2-0.8-0.3-1.7-0.4-2.6c-0.9,0.4-2.2,0.5-2.5,1.1c-1.1,2.4-2.5,3.7-5.3,3.3
	c-1.8-0.3-3.7,0.1-5.5-0.1C472.8,704.9,470.6,705.8,468.8,708.1z M245.7,518.8C245.7,518.8,245.7,518.8,245.7,518.8
	c-0.1-0.2-0.3-0.4-0.5-0.6c-2.7-2.8-6.1-4.2-9.8-5.3c-4.8-1.4-7.3,3.2-11.3,3.6c-2.1,4.5-5.2,8.4-6.4,13.3c-0.1,0.3,0.5,1.2,0.8,1.2
	c4.3,0.1,8.5,0.1,12.8,0c0.2,0,0.7-1.1,0.6-1.3c-1.1-1.1-2.2-2.9-3.5-3c-2.2-0.2-4-1.3-3.9-2.9c0.1-1.4,1.9-3,3.3-4.1
	c3.3-2.5,7.3-3,11-2c3.1,0.8,6.1,2.7,8.1,5.5c0.3,0.4,0.8,0.6,1.3,0.9c0.3-0.7,1.1-1.7,0.9-1.9C248,521,246.8,519.9,245.7,518.8z
	 M346.3,611.5c-0.2,0.5-1.1,2-1,3.3c0.4,5.3,2.5,10,7.5,12.3c1.5,0.7,2.5,1.6,3.8,2.4c0.7,0.5,1.7,0.6,2.6,0.8
	c0.3-1,0.8-1.9,0.8-2.9c-0.5-6.1-3.8-11.2-6.3-16.6C352.4,608.3,349.4,608.5,346.3,611.5z M650.1,267c3.9,3.9,6,4.6,7.8,3.5
	c2.6-1.6,5.1-9,4-11.9c-0.2-0.5-0.7-1.1-1.1-1.1c-3.4,0-5.7-3.5-9.5-2.4c-2,0.5-2.7,3.6-5.3,2.5c-0.1,1.9,0,3.4,1.6,5
	C649.2,264,649.8,266.4,650.1,267z M677.5,321c-1.1,1.3-1.8,2-1.1,4.4c0.9,3.3,1.8,6.7,2.6,10.1c0.4,1.6-1,4.6,1.8,4.2
	c2.1-0.3,5.2-0.5,6.2-3.6c0.1-0.2-0.1-0.6,0-0.8c3-5.1-0.4-9.7-1.2-14.5c-0.1-0.4-0.6-0.9-1-1.2C683.5,319,678.8,319.9,677.5,321z
	 M589.4,205.5c-2.1,2.1-3.1,3-3.9,3.9c-2.7,3-2.1,4.9,2,6.1c2.1,0.6,4.2,1.3,6.4,1.8c0.6,0.2,1.7,0.2,1.9-0.2
	c1.4-1.8,3.7-2.7,4.1-5.4c0.9-6-0.5-9.9-6.8-8.6C591.3,203.5,589.7,205.3,589.4,205.5z M156.2,525c-2.5-0.2-4.3-0.8-5.8-0.3
	c-2.1,0.6-3.8,2.5-5.9,2.9c-2.7,0.6-3.9,0.9-1.7,3.8c1.3,1.7,2.1,4.2,2.1,6.2c-0.1,3.5,1.5,4,4.3,3.7c0.7-0.1,1.5,0.2,2.1,0.6
	c1.6,1.1,2.7,0.2,2.7-1.2c0-2,2.9-4.4-0.7-5.9c0.7-2,1.3-4,2-6.1C155.5,527.8,155.7,526.8,156.2,525z M320,635.7
	c0.4,1.2,0.8,3.7,1.5,3.8c9.4,1.1,18.8,3.1,28.1-0.9c1.3-0.5,2.7-0.6,2.3-2.2c-0.1-0.6-1.6-1.2-2.5-1.2c-6.2-0.2-12.5,0.2-18.6-1.1
	c-2.3-0.5-4.8-0.2-7.1,0.1C322.5,634.3,321.5,635.1,320,635.7z M410.1,636.1c1.4-1.6,2.9-3,4-4.8c0.3-0.6-0.4-2.7-0.9-2.8
	c-5.9-1.1-17.1,3.8-20.2,8.7c-0.2,0.4-0.4,1-0.2,1.5c0.2,0.8,0.6,2.1,1,2.1C399.6,640.9,405.7,641.3,410.1,636.1z M697,376.2
	c3.1-1.3,2.3-4.4,2.3-7.3c0.1-3.4-3.4-1.2-4.8-3c-1.6-2-5.4-3.5-7.5-2c-2.4,1.6-1.7,4.9-0.2,7.7c0.8,1.5,0.4,3.5,0.9,5.2
	c0.4,1.3,1,3.3,1.9,3.6c1.1,0.4,2.9-0.4,4.2-1.1C694.9,378.7,695.7,377.5,697,376.2z M516.4,654.1c1-1,2-1.7,2.5-2.6
	c1-1.7,1.2-3.4-0.5-4.9c-2.7-2.4-6.1-2.8-9.4-2.3c-2.3,0.4-4.1,2-4.3,4.7c0,0.5-0.3,0.9-0.6,1.4c-0.9,1.7-3,3.9-2.6,5.1
	c0.9,2.5,3.9,0.9,5.9,1C510.8,656.8,514.5,657.7,516.4,654.1z M668,289.8c1-1.5,3.5-2.3,3.2-5.4c-0.3-3.1-0.6-6.1-2.9-8.3
	c-1.4-1.3-3.3-2.5-5.1-2.8c-1.1-0.2-2.6,1.4-3.6,2.4c-0.9,0.8-2.1,2.7-1.9,3c2.9,3.8,3.7,8.5,5.8,12.7c0.2,0.4,1.7,0.5,2.5,0.3
	C666.6,291.6,667.1,290.7,668,289.8z M677.9,299.2c-1.2-0.4-3.6-1.7-6.2-2.2c-2.6-0.5-4,1.5-3.2,4.1c1.5,4.4,3.2,8.8,4.9,13.1
	c0.2,0.5,1.7,0.9,2.4,0.7C681.3,313.1,683.1,304.5,677.9,299.2z M350,646.2c1.5-1.5,2-1.8,2.2-2.3c0.4-0.6,0.6-1.3,0.9-2
	c-0.8,0-1.6-0.2-2.4,0c-4.9,1.4-9.8,2.2-14.9,2.3c-6.1,0.1-8.9,3-8.7,8.1c0.1,2.6,2.9,4.7,4.5,3c2.7-2.8,5.9-3.6,9.2-4.6
	c1.8-0.5,2.4-3.2,5-3.2C347.7,647.5,349.5,646.4,350,646.2z M566.1,145.1c-1.2,1.7-4.2,2.6-3.8,5.9c0.1,0.6-0.7,1.3-1,1.9
	c0.7,0.1,1.5,0.4,2.1,0.2c4.2-1.5,8.9-1.8,11.8-5.9c0.6-0.8,1.6-1.9,2.3-1.9c3.6,0.1,3.8-2.7,4.6-5c0.8-2.4,0.2-3.4-2.2-3
	C574.6,138.4,570,140.7,566.1,145.1z M637.2,249.5c0.6,0.6,1,1.3,1.7,1.6c1.4,0.8,1.9,3.9,4.2,2.4c1.6-1,3.5-2.3,3.2-5
	c-0.2-1.8,0-3.7-0.1-5.5c-0.1-4.2-1-5.1-5.1-4.9c-1.4,0.1-2.9,0.6-4.3,1.1c-5,1.7-5.7,3.8-2.4,7.4
	C635.3,247.6,636.2,248.5,637.2,249.5z M266.1,537.9c1.3-0.5,3.2-0.9,3.1-1.1c-0.3-2.6,3.3-5.2,0.2-7.8c0.4-4.4-2.8-8.7-0.2-13.4
	c0.7-1.3-0.3-3.9-1.1-5.7c-0.3-0.8-2.1-1.1-3.2-1.3c-1.6-0.3-2.4,0.7-2.3,2.3c0.5,5.8,1.2,11.7,1.7,17.5c0.2,1.8,0.3,3.6,0.5,5.3
	C265.1,534.8,265.6,536,266.1,537.9z M458.5,687.5c-1.6,2.3-2.9,4.1-4.1,6c-0.4,0.6-0.4,1.4-0.6,2.1c-2.2,6.4-2.1,6.6,4.5,7.5
	c1.5,0.2,2.9,1,4.3,1.1c2.2,0.1,4.3-1.9,3.5-3.9c-1.7-4.3-4.1-8.4-6.3-12.5C459.6,687.3,458.6,687.5,458.5,687.5z M233.3,150.3
	c-1.5-0.6-2.9-1.6-3.6-1.2c-1,0.4-1.7,1.9-2,3c-0.2,0.8,0.2,2,0.6,2.9c1.1,2.8,0.9,6.1,3.6,8.1c0.2,5.6,5.4,5,8.6,7
	c0.4,0.3,2.5,0.6,1.7-1.1C239.3,162.7,236.2,156.5,233.3,150.3z M249.3,482.2c4.7-4.6,7.1-12.1,5.3-17.5c-0.6-1.7-2.1-2.8-4.3-2.6
	c-2.2,0.2-2.4,1.3-2.5,3.1c0,1.2-0.7,2.4-0.8,3.6c-0.5,4.8-0.9,9.6-1.4,14.5c0,0.5,0,1.1,0,1.6c0.7-0.3,1.4-0.5,2-0.9
	C248.3,483.4,248.8,482.7,249.3,482.2z M545.3,127.3c-3.7,3.3-5,7.9-6.6,12.2c-0.6,1.7,0.2,3.3,1.7,3.9c1.3,0.5,3.4,0.9,4.2,0.2
	c1.8-1.6,3.5-3.2,4.5-6c1.4-3.9,0.3-7.7,0.8-11.5c0-0.3-1.7-1.2-2.3-1C546.7,125.5,546.1,126.6,545.3,127.3z M681.8,346.1
	c-0.1,0.3-0.7,1.4-0.5,1.6c1.9,1.7,0.7,3.9,1.2,5.9c1.3,4.8,1.5,4.1,6.7,3.5c4.5-0.5,4.2-3.9,5.5-6.1c0.9-1.5-2-5.8-3.8-6.6
	C688.4,343.4,683.9,344.1,681.8,346.1z M699.1,419.3c2.6-2.4,3.1-4.5,1-7.2c-2.4-3.1-5.4-5.6-9.7-5.4c-0.5,0-1.3,0.9-1.3,1
	c2.2,3.2-2.2,6.9,0.8,9.9c1.3,1.4-1.3,4.5,1.7,4.7c1.9,0.2,3.9-0.8,5.7-1.4C698.1,420.7,698.6,419.9,699.1,419.3z M158.5,579.7
	c0,0.9-0.1,1.5,0,2c0.7,2.3,1.4,4.7,2.3,7c1.6,4.1,6.7,6.3,10.7,4.7c0.3-0.1,0.5-0.6,0.6-1c0.4-2.7,0.8-5.5,1.1-8.2
	c0.3-2.5-0.2-1.9-2.3-1.2c-3.6,1.2-7-1.8-10.6-2.5C159.7,580.3,159.2,580,158.5,579.7z M259.3,598.5c-0.8,1.3-2.2,2.6-2.1,3.8
	c0.1,1.6,4,0.5,3.4,3.5c0,0.2,1.2,0.9,1.9,1c2.9,0.1,5.8,0.2,8.7,0c1.9-0.1,2.1-2.1,2-4.3c-0.2-4.7-4-5.4-7-6.8
	C263.2,594.5,261.2,596.6,259.3,598.5z M456.1,120.9c1-0.8,2.1-1.2,2.5-1.9c2.6-5.2,3.7-10.8,4.3-16.4c0.3-3.1,0.2-6.3-0.2-9.4
	c-0.1-0.8-1.9-1.5-2.9-2.2c-0.5,0.8-1.2,1.6-1.3,2.5c-0.4,4.1,0.8,8.3-1.2,12.2c-0.5,1-1.9,1.6-2.1,2.5c-0.4,1.5-0.2,3.2-0.1,4.7
	c0.2,2.2,0.7,4.4,1.1,6.7C456.1,119.8,456.1,120.1,456.1,120.9z M667.1,519.3c-1.1-1.1-2.2-2.3-3.4-3.3c-0.5-0.4-1.3-0.3-2-0.4
	c-0.1,0.9-0.6,2.2-0.3,2.5c1.6,1.4,1.6,2.5,0.6,4.5c-1,1.9-1,4.4-1.2,6.6c-0.2,1.6,0,3,2.2,3.2c2.3,0.2,4.7,2.5,6.9-0.2
	c1.7-2,2-7.4,0.4-9.5C669.5,521.4,668.2,520.4,667.1,519.3z M246.3,526.1c-1.1-1.1-1.6-2-2.3-2.2c-3.5-1.2-6.5-4.1-10.7-3
	c-1.2,0.3-2.9,3-2.2,3.5c3.1,2.5,6.3,5.1,9.7,7.3c0.9,0.6,2.7-0.3,4-0.6c2.8-0.8,1.4,2,2.4,2.6c0.5,0.4,1.5,0.8,1.9,0.5
	c0.5-0.3,1.2-1.5,1-1.8C248.8,530,247.3,527.8,246.3,526.1z M688.5,387c-0.2,0.5-0.5,1-0.4,1.4c0.3,3.3,0.7,6.6,1.2,9.9
	c0.1,0.6,0.8,1.4,1.4,1.6c2.7,0.9,6.2-0.3,7.8-2.4c1.4-1.9,1.3-6.1-0.3-7.9c-1.9-2.1-7.1-4-9-3.1C688.8,386.5,688.7,386.8,688.5,387
	z M422.5,107.3c2.2,0.6,4.4,1.3,6.5,1.7c0.2,0.1,0.9-0.8,1-1.3c0.2-3.8,0.1-7.6-2.1-11c-0.6-1-0.6-3-1.3-3.3c-1.4-0.5-3.6-0.8-4.6,0
	c-1.2,1-2.2,3.2-2.1,4.7C420.4,101.3,421.7,104.3,422.5,107.3z M446.1,642.1c-0.8-0.6-1.2-1.2-1.6-1.2c-5.3,0.2-10.8-1.1-15.5,3.1
	c-2.1,1.9-5.3,2.5-8,3.7c-1.1,0.5-2.2,0.9-3.4,1.3c1.3,0.3,2.5,0.8,3.8,0.9c3.6,0.3,7.1-0.1,10.5-1.7c4.2-1.9,8.7-3.4,13-5.1
	C445.3,642.9,445.7,642.5,446.1,642.1z M694.5,433.5c-1.2-1.2-1.8-2.2-2.7-2.6c-0.9-0.4-2.1-0.6-3-0.3c-0.5,0.1-0.7,1.5-0.8,2.3
	c-0.1,3.9,0.3,7.7-1.1,11.5c-0.3,0.7-0.6,2,1.2,1.9c4.3-0.1,6.4-1.5,7.8-4.6C697.7,438.2,697.6,435.3,694.5,433.5z M210,170.8
	c2.9,2.8,5.7,5.7,9.6,7.6c2.7,1.3,3.3,1,3.4-1.6c0-1.4,2.7-2.8,0.4-3.9c-4.6-2.2-8.6-5.2-12.6-8.1c-1.1-0.8-2.8-1-4.2-1.3
	c-0.3-0.1-1,0.4-1.2,0.8c-0.3,0.4-0.5,1.2-0.3,1.4C206.6,167.4,208.3,169.1,210,170.8z M602.3,217.2c-3.7,3.1,0.5,2.7,1.5,3.4
	c2.2,1.6,4.5,3.1,6.8,4.5c2.6,1.7,4.9,0.4,5.1-2.7c0.3-8.2-2.2-10-10.1-6.9C604.4,215.9,603.4,216.6,602.3,217.2z M331,660
	c-0.9,1.8-1.9,3.6-2.7,5.4c-0.1,0.3,0.7,1.4,0.8,1.4c2.8-1.1,5.9-1.7,8.1-3.5c3.5-2.8,6.5-6.2,9.6-9.5c0.4-0.4,0.5-1.5,0.2-1.9
	c-0.3-0.5-1.5-1-1.9-0.7C340.5,654,335.8,657,331,660z M434.9,88.4c-0.1,0.8-0.2,1.4-0.3,2c-0.3,6.1,1.4,11.9,3.5,17.6
	c0.2,0.5,1.3,1.2,2,1.1c2.8-0.3,3.4-1.5,2.6-4.3c-0.6-2.2-0.7-4.5-1.3-6.6c-0.9-3-2.1-6-3.4-8.8C437.7,88.8,436.2,88.8,434.9,88.4z
	 M689.4,467.5c4.5-4.4,4.6-7.4,0.2-11.7c-2.1-2-4.5-1.5-4.9,1.2c-0.6,3.5-0.9,7-1.1,10.6c-0.1,0.8,0.2,2.2,0.7,2.4
	c0.9,0.3,2.1,0.2,3-0.3C688.1,469.2,688.7,468.2,689.4,467.5z M332.6,111c2.6,2.1,4.1,3.4,5.6,4.6c0.2,0.1,1.3-0.4,1.3-0.6
	c0.6-5.4-1.1-10.5-2.2-15.7c-0.5-2.1-2.5-1.6-3.9-1.4c-0.7,0.1-1.6,1.3-1.7,2c-0.2,2.9-0.2,5.8,0,8.7
	C331.8,109.9,332.7,111.2,332.6,111z M509.9,585.6c-0.9,1.6-1.5,3.9-3,5.5c-2.6,2.9-3.3,6.1-3.3,9.7c0,0.5,0,1.1,0,1.6
	c0.7-0.3,1.6-0.4,2-0.9c3.2-3.9,6.3-7.9,9.3-12c0.8-1.1,0.9-2.8,1.2-4.2c0.1-0.7,0.1-1.8-0.3-2c-0.6-0.3-1.6-0.3-2.3,0
	C512.3,583.7,511.4,584.6,509.9,585.6z M307,116.2c-0.6-0.6-1-1.4-1.7-1.6c-1.1-0.5-2.4-0.6-3.6-0.9c-0.2,1.1-0.9,2.4-0.5,3.3
	c0.8,2,2,4,3.4,5.7c1.9,2.3,4.5,4.1,5.2,7.4c0.1,0.7,1.6,1.1,2.4,1.7c0.5-1.1,1.5-2.3,1.3-3.2C312.1,124,310.7,119.5,307,116.2z
	 M320.5,123.7c0.6-0.7,0.9-0.9,0.9-1.1c0-2.5,0.4-5.1-1.1-7.5c-1.8-2.9-3.3-6.1-5.3-8.8c-0.5-0.7-3-0.6-4.2-0.1
	c-1.8,0.9-0.1,2,0.4,3.1c0.8,1.8,1.4,3.7,2.3,5.4c1.5,2.8,3.1,5.6,4.9,8.2C318.8,123.5,320,123.6,320.5,123.7z M465.2,668.3
	c-0.4-0.1-0.9-0.2-1.3-0.3c-2.2-0.5-4.1,0.9-4.3,2.5c-0.3,3.5-2.8,5-5.1,6.4c-1.2,0.7-2.2,0.7-1.8,2.2c0.4,1.6,0.5,3.7,1.6,4.6
	c1,0.8,3.2,0.5,4.6,0c0.8-0.3,1.1-1.9,1.7-2.9c1.9-2.9,1.4-6.9,4.3-9.4C465.5,671,465.1,669.4,465.2,668.3z M254.3,570.1
	c-3.7-1.4-7.5-3.3-11.5-4.4c-4.6-1.3-9.4-2.5-14.3-1.5c-0.4,0.1-0.7,0.7-0.9,1.2c-0.1,0.2,0.4,0.7,0.7,0.8
	c5.5,1.5,11.1,2.8,16.4,4.7c3.1,1.1,6.1,0.9,9.1,1c0.3,0,0.6-0.4,0.8-0.8C254.7,570.9,254.5,570.6,254.3,570.1z M592.2,562.1
	c0.5,0.3,1.2,0.8,1.3,0.7c1.4-1.4,2.7-2.9,4-4.4c-3-3.8,0.9-7.2,0.6-10.8c0-0.6,0.1-1.1,0.1-1.7c-1.7,0.1-4.4-0.4-5,0.5
	c-1.7,2.4-3.2,5.3-3.4,8.1C589.6,556.9,591.4,559.5,592.2,562.1z M533.6,613.5c-0.2,1.3-0.6,2.3-0.5,3.2c0.1,2.2,0.7,4.4,0.5,6.5
	c-0.3,3.3-3,5.2-5.1,7.5c-0.6,0.6-1.1,2.1-0.8,2.5c0.8,0.9,2,1.9,3,1.9c3.5-0.3,5.3-2.4,5.6-5.8c0.2-1.7,1-3.5,0.9-5.2
	c-0.2-3.2-0.8-6.4-1.4-9.6C535.8,614,534.7,613.9,533.6,613.5z M204.2,520.5c-1.4,1.4-2.6,2.2-3.2,3.3c-0.6,1-0.5,2.4-0.7,3.7
	c1.2,0,2.8,0.6,3.5,0c1.4-1.3,3.1-1.6,4.6-2.3c2.7-1.3,3.7-5.1,7.3-5.3c0.2,0,0.4-0.2,0.4-0.3c0.4-1.4,0.7-2.8,1.1-4.2
	c-1.1,0-2.3-0.4-3.1,0.1C210.8,517.3,206,516.9,204.2,520.5z M199.1,561.4c-0.3,0.9-0.9,1.9-0.7,2.6c0.6,2.3,1,5.3,2.6,6.4
	c1.6,1.1,4.6,0.5,6.9,0.1c1-0.2,2.2-1.4,2.7-2.4c0.7-1.7-2.3-6-4-6.5c-1.7-0.4-3.4-0.9-5.1-1.1C200.8,560.5,200,561,199.1,561.4z
	 M495.6,581.7c-2.8,5.1-2,16.8,0.9,20.3c0.2,0.3,1,0.5,1.4,0.3c0.4-0.1,1.1-0.7,1.1-1c-0.2-5.2-0.4-10.3-0.7-15.5
	c-0.1-1.2-0.6-2.4-1.2-3.4C496.7,581.9,495.8,581.7,495.6,581.7z M300.1,127.1c-0.1,0-0.1,0.1-0.2,0.1c-1.5-1.5-2.9-3.2-4.6-4.4
	c-0.7-0.5-2.1-0.2-3.1,0c-0.2,0-0.2,1.3-0.3,2c-0.2,2.1,0.1,3.9,1.9,5.6c2.5,2.4,5.7,3,8.4,4.7c0.5,0.3,1.8,0.1,2-0.3
	c0.3-0.6,0.4-1.8,0-2.3C303.1,130.6,301.6,128.9,300.1,127.1z M679.4,506.8c3.9-3.7,3.6-3.3,1.6-5.4c-4.5-4.7-4.9-4.6-7.7,2
	c-0.3,0.7-0.9,1.3-1.4,1.8c-1.4,1.6-1.7,3.7-0.1,4.8c1,0.7,3.3,0,4.8-0.6C677.7,509.1,678.5,507.8,679.4,506.8z M578.5,157.9
	c0.2-0.7,1-1.9,0.7-2.4c-0.4-0.7-1.7-0.9-2.6-1.1c-0.7-0.1-1.5,0.2-2.2,0.4c-4.4,1.5-8.2,4.7-13.3,4.3c-0.1,0-0.8,2-0.5,2.4
	c0.8,0.9,2.2,2,3.1,1.8C568.7,162.1,573.9,161.3,578.5,157.9z M588.7,502.6c-4.1,1.8-2.4,7.5-5.7,10.7c-2,1.9-2.5,5.3-3.5,8
	c-0.3,0.9,0.1,2,0.1,3c0.8-0.5,2.2-0.9,2.5-1.6c2.2-5.3,5.5-10,8.2-15c0.9-1.7,1.1-3.8,1.6-5.7c0.1-0.4-0.1-0.9-0.2-1.4
	c-0.5,0.2-1,0.2-1.4,0.5C589.8,501.3,589.5,501.8,588.7,502.6z M188,511.8c-3,3-2.8,3.8-0.2,4.5c2.1,0.6,4,2.1,6.4,0.6
	c2.7-1.6,6.5-1,8.5-4.1c-2.7-2.7-6.2-2.1-9.5-2.2c-0.5,0-1.1-0.1-1.6,0C190,511.2,188.4,511.7,188,511.8z M574.3,500.9
	c-0.7-0.2-1.3-0.5-1.7-0.3c-0.4,0.2-1,0.6-1.1,1.1c-0.5,1.9-1.1,3.9-1.1,5.9c0.1,2.8,0.5,5.6,1.1,8.2c0.5,1.8,1.6,3.4,2.5,5.2
	c0.7-1.9,1.9-3.9,1.9-5.8c0.1-4.1,0.9-8.3-1-12.2C574.6,502.3,574.5,501.5,574.3,500.9z M622.6,232.7c2.3,2.3,3.4,3.4,4.5,4.5
	c1.2,1.1,2.9,0.7,3.7-0.8c2.4-4.9,0.5-8.5-4.8-8.4c-2,0-4.9-1.3-5.7,1.1C620.1,230.3,622.4,232.3,622.6,232.7z M564.7,169
	c0.1,1.1-0.2,2.5,0.3,3.6c0.3,0.6,1.8,1.1,2.7,0.9c3.2-0.6,6.3-1.4,9.5-2.2c0.7-0.2,1.5-0.4,2-0.9c0.6-0.7,1-1.7,1.2-2.6
	c0-0.2-1.2-1-1.9-1c-4.1,0.3-8.2,0.7-12.3,1.1C565.7,168,565.3,168.5,564.7,169z M165.7,237c-2.5-2.2-3.8-3.4-5.3-4.5
	c-0.2-0.2-1.8,0.8-1.7,1.1c0.4,2.5,0.5,5.2,1.7,7.2c1.4,2.4,3.7,4.2,6.8,4.7c0.7,0.1,1.6,0.3,2,0c0.4-0.4,0.8-1.5,0.5-1.9
	C168.2,240.9,166.5,238.4,165.7,237z M134.6,489.1c-1.6-1.6-1.6-1.6-4.9-1c-1.9,0.3-3.9,1-5.8,1.1c-1.3,0.1-2,0.3-1.5,1.6
	c0.4,1,1,2.8,1.6,2.8c3.9,0.3,7.8,0.2,11.8,0c0.4,0,1.2-1.7,1-2.3C136.5,490.5,135.4,489.9,134.6,489.1z M306.6,577
	c-2-1.1-2.9-2.1-3.9-2.9c-0.1,1.5-0.7,3-0.3,4.4c0.9,3.3,2.5,6.5,3.2,9.8c0.4,2.1,1.3,3.2,3.1,3.9c0.1-1.5,0.4-2.9,0.4-4.4
	C308.8,583.8,310.5,579.2,306.6,577z M95.5,448.5c-0.1,0.4-0.4,1-0.3,1.1c1.6,1.3,2.4,3.5,5,3.4c3.2-0.1,6.4,0.1,9.6-0.1
	c0.8,0,1.6-1,2.3-1.5c-0.6-0.8-1.1-2.3-1.8-2.4c-4.4-0.4-8.7-3.6-13.2-0.7C96.8,448.7,96.1,448.5,95.5,448.5z M684,479.6
	c-2.2-2.4-3-2.3-3.9,0.7c-0.8,2.8-1.6,5.7-2.2,8.6c-0.1,0.4,0.9,1.4,1.5,1.4c1.9,0.1,6.4-2.3,6.3-3.5
	C685.5,484.4,687,481.5,684,479.6z M562.1,140.7c-0.1-0.2-0.2-0.3-0.3-0.5c1.3-1.3,2.8-2.5,3.8-3.9c0.5-0.7,0.1-2,0.2-3.1
	c-0.8,0.3-1.5,0.6-2.3,0.8c-4.6,1.5-7.4,5.2-10.6,8.5c-0.4,0.4-0.6,1.5-0.3,1.9c0.3,0.5,1.5,1.1,1.9,0.8
	C557.1,143.8,559.6,142.3,562.1,140.7z M559,560.1c0.4,0.1,0.8,0.4,1.1,0.4c5.2,0.3,10.3-0.1,13.8-4.8c0.4-0.6,0.6-1.3,0.9-2
	c-0.9-0.4-2-1.3-2.7-1c-4.2,1.9-8.4,4-12.5,6.1C559.4,559,559.3,559.6,559,560.1z M412.1,98.5c-1.5-0.7-2.6-1.2-3.7-1.7
	c-0.3,1.2-0.8,2.4-1,3.6c-0.2,1.3-0.4,2.8,0,3.9c0.5,1.3,1.3,3,2.5,3.5c1.2,0.5,2.8,0.5,4.3-0.9c1.8-1.7,0.5-2.6-0.1-3.9
	C413.5,101.5,412.8,99.9,412.1,98.5z M91.7,436.8c0.6,0.9-0.5,1.9,1.3,2.9c3.9,2.3,8.4,2.7,12.4,4.3c0.5,0.2,1.6-0.3,1.9-0.8
	c0.3-0.4,0.1-1.7-0.3-1.9c-4.4-2.8-9.3-4.2-14.4-5.1C92.4,436.1,92,436.5,91.7,436.8z M103.1,349.6c0.2,0.8,0.2,1.6,0.6,2.1
	c1.9,2.7,4.8,3.5,7.8,4c2.5,0.4,3.7-1.2,4.1-3.5c0.6-3.5-2.1-1.8-3.4-2.1c-2.2-0.5-4.4-0.9-6.6-1.1
	C104.8,348.9,104.1,349.4,103.1,349.6z M508.8,614.9c4.2,2.6,8.2,4.4,12.8,4.5c0.8,0,1.6,0,2.3,0c-0.5-0.9-0.8-1.9-1.5-2.5
	c-3.1-3.2-7.7-3-11.5-4.7c-0.7-0.3-1.7,0.1-2.5,0.2C508.6,613.1,508.7,614,508.8,614.9z M100.1,459.4c-0.1,0.5-0.4,1-0.3,1.4
	c0.1,0.4,0.6,1,1,1.1c3.2,0.5,6.5,0.9,9.7,1.2c0.5,0.1,1.3,0.2,1.5,0c0.9-0.9,1.9-1.8,2.2-2.9c0.2-0.6-1-2-1.8-2.2
	C108.2,456.9,104,457.5,100.1,459.4z M108,469.7c-2.3,2.2-2.1,2.7,1.3,3.7c1.7,0.5,3.4,0.9,5.1,1.1c1.4,0.1,3.3,0.6,3.5-1.9
	c0.2-2.4-0.9-4.7-2.8-4.8C112.5,467.7,109.7,466.9,108,469.7z M150.1,497.7c-2.5-1.6-12.1-1.2-14.1,0.8c-0.4,0.4-0.1,1.6,0,2.3
	c0,0.3,0.5,0.8,0.8,0.8c4.3-0.4,8.7-0.9,13-1.4c0.3,0,0.8-0.7,0.8-1.2C150.6,498.7,150.2,498.2,150.1,497.7z M320.6,91.7
	c-0.1,0.6-0.4,1.4-0.3,2c1.1,4.8,2.3,9.6,3.6,14.4c0.1,0.4,0.8,0.6,1.2,0.9c0.3-0.5,0.8-1,0.8-1.5c0.1-1.6-0.1-3.2,0.1-4.8
	c0.5-4-2.2-7.2-2.6-10.9c0-0.3-0.7-0.8-1.2-0.8C321.8,91,321.3,91.4,320.6,91.7z M238.1,466.6c0.1-0.2-0.4,0.3-0.3,0.7
	c0.7,3.7,1.5,7.4,2.2,11.1c0.1,0.3,0.6,0.8,0.8,0.8c0.5-0.2,1.1-0.5,1.2-0.9c0.9-4.4,1.7-8.9,2.5-13.3c0.1-0.5,0-1.1,0-1.6
	c-0.5,0.1-1,0.1-1.5,0.4C241.6,464.4,240.1,465.3,238.1,466.6z M216.8,503.4c-0.8-0.5-3-1.7-5.2-2.7c-0.4-0.2-1.8,0.5-1.9,0.9
	c-0.3,1.8-0.6,3.8-0.1,5.4c0.3,0.8,2.4,1.3,3.8,1.5c1.5,0.2,3.2,0.1,4.7,0c1.3-0.1,1.8-1.8,0.8-2.9
	C218.7,505.2,218.3,504.8,216.8,503.4z M212.2,182c-2-2.7-5-3.3-8-3.9c-1.5-0.3-1.9,0.5-1.5,1.7c0.5,1.4,1.4,3.7,2.1,3.7
	c2.6,0,3.6,1.9,5.2,3c0.5,0.4,1.8,0.1,2.5-0.3C215.1,184.7,213.7,183.3,212.2,182z M105.4,338.7c0.2,0.6,0.2,1.3,0.6,1.8
	c3.1,3.8,7.6,3.4,11.8,3.9c0.3,0,1.1-0.7,1-1.1c-0.1-0.7-0.3-1.8-0.8-2c-3.7-1.3-7.4-2.5-11.2-3.7
	C106.6,337.6,106.1,338.2,105.4,338.7z M122.6,323c-3.4-2.5-6.6-4.9-11-4.5c-0.6,0-1.6,0.5-1.6,0.7c0.3,1.2,0.5,2.5,1.1,3.5
	c0.4,0.7,1.5,1,2.3,1.5c2.6,1.7,5.2-0.5,7.8,0c0.8,0.2,1.6,0.5,2.3,0.8C123.1,324.2,122.8,323.5,122.6,323z M102,325.7
	c0.2,0.9,0.1,2,0.4,2.2c4.5,2.4,9.1,4.7,13.7,7c0.4,0.2,1.1,0,1.6,0c-0.1-0.9,0.1-2.5-0.4-2.8c-4.3-2.4-8.7-4.5-13.1-6.7
	C103.9,325.2,103,325.6,102,325.7z M104,429.1c-2.2-2.3-8.9-2.9-10.7-1.3c-0.3,0.3-0.5,1-0.4,1.4c1.3,3.1,8.4,4.4,10.5,1.9
	C104,430.5,103.9,429.5,104,429.1z M448.5,99.7c4-3.8,3.8-8.5,0-11.7c-0.3-0.3-1.2-0.5-1.4-0.4c-0.5,0.5-1.2,1.2-1.2,1.8
	c0.2,3.3,0.7,6.6,1.1,9.8C447.2,99.5,448.3,99.6,448.5,99.7z M316.3,667.8c-1.7,3.8-3.4,7.6-5,11.5c-0.3,0.7-0.1,1.6,0.1,2.3
	c0.1,0.4,0.7,0.9,1.1,1c0.2,0.1,1-0.2,1-0.5c0.9-4.5,2.8-8.4,5.6-12c0.5-0.7,0.1-2,0.1-3.1C318.4,667.3,317.5,667.5,316.3,667.8z
	 M532.9,609.1c-0.4-0.3-0.8-1-1.2-1c-2.9-0.1-5.8-0.1-8.7,0c-0.9,0-1.7,0.8-2.5,1.3c0.5,0.8,0.9,2,1.6,2.4c1.5,0.8,3.4,2.1,4.7,1.7
	c2.2-0.6,4.1-2.4,6.1-3.7C533.1,609.8,533,609.3,532.9,609.1z M572,179.4c-0.3,1.1-0.5,1.5-0.5,2c-0.2,2.3,1,4.2,3,4.6
	c2.1,0.4,3.9-0.4,4.6-2.2c0.5-1.2,0-4-0.6-4.1C576.4,179.2,574.1,179.5,572,179.4z M221,159.2c-0.2-0.2-1.5-1.4-2.9-2.5
	c-0.2-0.2-1.7,0.6-1.8,1c-0.4,3.6,2.9,7.8,6.4,7.9c0.8,0,1.8-0.7,2.5-1.2c0.1-0.1-0.5-1.3-0.9-1.9C223.7,161.7,222.9,161,221,159.2z
	 M399.8,647.2c0-0.1,0,0.8,0.3,0.9c2.4,0.9,4.9,1.5,7.2-0.4c1.4-1.1,2.3-2.8,4.6-2.5c0.3,0.1,0.8-1.1,1.2-1.7
	c-0.6-0.2-1.3-0.3-1.9-0.5C406.8,642.1,403.5,644.6,399.8,647.2z M599.9,488.8c-0.9,1.3-1.6,2.4-2.4,3.4c1.4-0.1,2.8,0,4.1-0.4
	c1.6-0.5,3.3-1.3,4.6-2.4c1.1-0.9,1.8-2.4,2.6-3.7c-1.6,0-3.3-0.4-4.8,0.1C602.4,486.6,601.1,488,599.9,488.8z M446.9,655.6
	c-1.5,1.7-0.5,7.2,0.8,7.9c0.2,0.1,0.5,0,0.8,0c1.7,0.1,3.4-0.2,3-2.3c-0.4-1.9,1.9-5.1-2.1-5.6
	C448.4,655.5,447.4,655.6,446.9,655.6z M150.1,235.3c-1.7-1.7-2.3-2.3-2.8-2.8c-0.4-0.4-0.7-0.9-1.1-1.1c-0.7-0.4-1.5-0.6-2.3-0.9
	c0,1-0.4,2.5,0.1,3.1c2.2,2.6,4.7,4.9,7.2,7.3c0.4,0.4,1.2,0.3,1.8,0.4c0-0.8,0.3-1.8-0.1-2.3C151.7,237.2,150.4,235.6,150.1,235.3z
	 M114,482.2c3.1,0.5,6.3,1,9.5,1.3c0.2,0,1-1.9,0.7-2.4c-1.7-2.5-9.3-2.7-10.9-0.4C113.2,480.8,113.7,481.5,114,482.2z M235.5,535.8
	c-0.2-0.1-0.4-0.2-0.6-0.2c-3.2-0.4-6.5-0.8-9.7-1.1c-0.3,0-0.9,0.8-0.9,1.3c-0.1,0.6,0.1,1.9,0.3,1.9c2.9,0.4,5.9,0.8,8.9,1
	c0.5,0,1.2-1,1.6-1.6C235.3,536.8,235.3,536.3,235.5,535.8z M323.9,603.5c0.5-0.2,1-0.3,1.4-0.5c1.9-1.1,2.3-3,1.7-4.8
	c-0.6-1.7-2-4.7-2.7-4.6c-3.2,0.4-1.5,3.2-1.6,5.1c-0.1,1.1,0.7,2.3,1,3.5C323.8,602.6,323.9,603.1,323.9,603.5z M155.9,503.2
	c-0.1,0.1-0.8,1.6-1.6,3c1.4-0.4,2.9-0.8,4.3-1.2c1.2-0.4,2.4-0.7,3.5-1.2c1.2-0.6,2.2-1.4,3.3-2.1c-0.2-0.2-0.3-0.5-0.6-0.5
	c-1.8-0.5-3.7-1.1-5.5-1.2C158.5,500,157.7,501.4,155.9,503.2z M365,665.2c0.6,0.6,1.1,1.1,1.7,1.7c1.7,1.9,4.4,1.9,5.2,0.2
	c1.7-3.1-1.6-1.9-2.9-2.6c-1.3-0.7-2.2-2.2-3.4-3.2c-0.3-0.2-1.4,0.4-1.9,0.8c-0.3,0.2-0.4,1.1-0.2,1.4
	C363.8,664.1,364.4,664.6,365,665.2z M459,620.3c-0.9,1.6-1.5,2.5-1.7,3.4c-0.2,0.7,0,1.6,0,2.4c0.7-0.3,1.4-0.4,2-0.8
	c2.3-2,3.9-4.9,7.5-5.2c0.3,0,0.6-0.8,0.7-1.2c0-0.1-0.7-0.6-0.9-0.6C463.8,618.9,461.2,619.7,459,620.3z M582.2,196.8
	c0-0.3,0.2-1.1,0.3-2c-2-0.3-4-0.5-6-0.8c-0.2,1.2-0.4,2.3-0.4,3.5c0,1.8,1.9,3.1,3.4,2.1C580.3,199,580.9,198.1,582.2,196.8z
	 M150.8,256.1c-1.7-2.8-4.5-2.1-7-2.2c-0.4,0-0.7,0.3-1.1,0.5c0.2,0.4,0.3,1.1,0.7,1.3c2.3,1.4,4.6,2.7,7,3.8
	c0.2,0.1,1.3-0.9,1.3-1.5C151.7,257.4,151.1,256.8,150.8,256.1z M275.7,480.7c0.2-0.2,0.4-0.4,0.6-0.6c0.4-0.6,0.7-1.3,1.1-1.9
	c-0.7-0.1-1.5-0.4-2.1-0.2c-2.1,0.7-4.1,1.6-6.1,2.6c-0.4,0.2-0.6,0.8-0.8,1.2c0,0.1,0.6,0.6,0.9,0.6
	C271.5,482.3,274.1,483.4,275.7,480.7z M372.2,642.9c-0.4-0.3-0.8-0.9-1.2-0.9c-2.4-0.1-4.7-0.1-7.1,0c-0.2,0-0.5,0.6-0.5,1
	c0,0.1,0.3,0.5,0.4,0.6c2.8,0.3,5.6,0.5,8.4,0.7C372.2,643.8,372.2,643.4,372.2,642.9z M560.6,535.6c-0.1,0.4-0.4,0.8-0.4,1.2
	c0,1.3-0.2,2.7,0,4c0.2,1-1.3,2.8,1.1,2.7c0.4,0,1-1.7,1.1-2.6c0.1-1.5-0.2-3.1-0.5-4.5C561.8,536,561.1,535.9,560.6,535.6z
	 M455,634.8c0.1,0.1,0.3,0.3,0.4,0.3c1.5,0.5,4.6-0.8,5.2-2.3c0.1-0.2,0.1-0.7,0-0.7c-0.3-0.2-0.8-0.4-1.1-0.3
	c-1.3,0.5-2.7,1-3.9,1.7C455.2,633.7,455.1,634.4,455,634.8z M451.7,638.7c0.1,1.2-0.1,2.1,0.2,2.5c0.4,0.5,1.6,1,1.9,0.8
	c0.9-0.8,1.6-1.9,2.3-2.9c0,0-0.2-0.4-0.4-0.4C454.5,638.6,453.3,638.6,451.7,638.7z M507.4,572.4c-0.1,0.7-0.4,1.6-0.3,2.5
	c0,0.5,0.5,1,0.8,1.5c0.4-0.3,1-0.5,1.1-0.9c0.2-0.9,0.3-2,0.3-2.9c0-0.2-0.5-0.5-0.8-0.7C508.3,571.8,508,572,507.4,572.4z"/>
<path fill="none" stroke="#000000" stroke-miterlimit="10" d="M338.8,231.7c-5.1-4.2-5.9-10.4-7-16.3c-0.5-2.8-1.9-4.5-3.8-5.5
	c-5.4-3.1-14.6-0.2-17.6,5.2c-1.5,2.7-0.1,6.8,3,8.2c3.4,1.4,5.4,3.7,6.1,7.2c0.5,2.2,0.9,4.5,1.9,6.4c1.7,3.1-0.3,5.1-1.7,7.3
	c-1.6,2.5-4.2,1.7-6.4,1.8c-0.5,0-1.1-0.1-1.4-0.4c-4.2-4.2-9.1-7.8-8.8-14.8c0.2-4.6-2-5.9-6.8-6.4c-4.1-0.4-7.5,1.4-11,2.6
	c-3.2,1.1-3.9,5.2-4.6,8.2c-0.7,3,2,4.1,4.6,5.2c6.1,2.8,7.9,8.8,9.9,14.5c0.2,0.5,0.1,1.1,0,1.6c-0.4,1.9-5.3,6.3-7.3,6.4
	c-2.4,0.1-4.6,0.1-6.3-2.2c-2.2-2.8-5-5-6.5-8.5c-0.9-2-1.2-3.8-1.4-5.8c-0.3-4.2-2.1-5.9-6.3-6.1c-2.4-0.1-4.8-0.1-7.2,0
	c-3.2,0.1-5.4,1.9-5.6,5.1c-0.2,2.9-1,5.7-0.2,8.7c1,3.6,2.4,5.2,6.2,5.5c4.2,0.3,12.9,4,15,6.4c1.8,2,2.3,8.1,0.8,10.2
	c-1.5,2-3.7,3.8-6,2.5c-4.6-2.6-10.9-3-12.6-9.7c-0.6-2.6-5.6-4.8-8.5-3.6c-3,1.3-6.4,0.5-9.2,3.1c-2.9,2.6-7.1,3.6-10.1,6.4
	c-2.4,2.3-3.4,5-3.7,8.1c-0.1,1.5,0.4,3,0.7,4.5c1.4-0.2,2.8-0.5,4.2-0.7c3.7-0.7,7.3-1.4,11,0c4.9,1.9,8.7,8,7.8,13.1
	c-0.9,5.1-7.9,8-12.3,5.1c-3-2-5.7-4.3-8.6-6.3c-1.4-1-3.1-1.5-4.6-2.4c-2.6-1.6-2.8,1.6-4.3,2.1c-2.4,0.8-4.7,1.7-4.7,4.7
	c0,1.6,0,3.4,0.7,4.8c0.4,0.8,2.1,1,3.2,1.4c1.2,0.4,2.4,1.1,3.5,1.1c5.7,0,8.6,4.3,12,7.7c0.3,0.3,0.1,1.6-0.2,1.9
	c-1.3,1.1-1.2,2.9-1.9,4c-1.2,1.8-2.7,5-6,2.3c-5.7,1.6-8.7-2.5-12-5.8c-5.9-6-8.5-5.8-14.7,0.2c-2,1.9-3.2,3.9-4,6.4
	c-0.6,2,1.2,4.5,3.3,4.9c2.5,0.4,5,1,7.5,1.1c6.6,0.1,9.8,5.3,13.6,9.3c0.5,0.6,0.2,2.8-0.5,3.6c-2,2.3-4,4.1-7.8,4.3
	c-6.5,0.4-11-3.1-16.1-5.7c-0.7-0.4-1.1-1.6-1.4-2.6c-0.5-1.9-1.3-3.5-3.6-3.1c-3.6,0.6-5.5,2.3-5.4,5.2c0.1,3.9,0.4,7.7,1.2,11.5
	c0.2,1,1.3,2.6,4.2,1.8c5.1-1.4,10.7-3.5,16.1,0.3c1.3,0.9,3.2,1.2,4.5,2.5c3.9,3.9,2.4,9.3-2.8,11.3c-7.2,2.7-13.5,2.1-19.1-3.7
	c-2.6-2.8-6.2-2.8-9.5,0c-2.7,2.2-5.4,4.6-7.2,7.4c-1.1,1.7-1.3,4.6-0.7,6.6c0.7,2.3,4.4,3,4.2,6.3c0,0.1,1.3,0.5,1.9,0.3
	c2.1-0.7,4.2-1.5,6.2-2.5c5.3-2.5,10.7-2.9,16.3-0.9c5.8,2.1,6.9,6.8,2.7,11.3c-4.1,4.5-8.8,5.6-14.5,3.5c-3-1.1-6.3-1.7-9.4-2.3
	c-0.9-0.2-2.4,0.1-2.8,0.8c-1.5,2.3-2.9,4.7-3.8,7.2c-0.8,2.6,0.5,4.8,2,7.2c0.7,1.1,0.8,2.1,2.3,1.8c3.6-0.9,7.5-1.3,10.8-2.9
	c6.4-2.9,12.4-1.5,18.4,0.7c1.7,0.6,3.1,2,2.7,4.2c-0.5,2.5-0.3,5.5-1.7,7.2c-1.6,2-4.4,3.6-6.9,4.2c-7,1.7-14,1.9-20-3.4
	c-1.1-0.9-2.6-1.5-4-1.8c-3-0.7-5.4,1.7-6,4.6c-1.2,5.7,2,9.8,4.6,14.1c1.8,3.1,5.3,3.4,8.8,1.6c1.5-0.8,3.1-1.5,4.6-2.4
	c6-3.3,12.3-4.8,19-2.8c1,0.3,2.2,0.8,2.6,1.6c1.3,2.5,2.4,5.8,0.7,8c-1.9,2.5-3.9,5-8,5.7c-5.7,1.1-11,1.8-16.6-0.2
	c-2.2-0.8-6.8,1.9-7.6,4.5c-0.7,2,0,4,1.9,5.6c3,2.4,5.1,5.9,9.2,6.8c2.3,0.5,3.7-0.2,4.6-3.2c1.5-4.7,4.7-7.4,9.1-9.4
	c3.9-1.8,7.5-1.1,11.1,0.2c3.5,1.2,3.3,1.4,2.5,5.3c-1.5,6.7-5.6,10.7-11.8,12.7c-1.6,0.5-2.6,0.5-3.1,2.6c-0.4,2.1-3.5,3.1-4.6,1.7
	c-3-4-7.8-4.4-11.8-6.4c-3.3-1.7-6.5-3.8-9.6-5.8c-0.8-0.5-1.7-1.4-2.1-2.3c-2.1-4.5-1.1-9.1,1.1-13c1.3-2.3,0.9-3.1-0.6-4.4
	c-1.2-1.1-2.2-2.3-3.4-3.4c-6.1-5.4-6.5-12.6-6-19.9c0.1-1.7,2.3-3.3,3.7-4.8c1.3-1.4,2.6-2.5,0.7-4.5c-0.8-0.8-0.8-2.3-1.2-3.5
	c-1.6-4.3-1.5-8.3,2-11.9c1.2-1.2,1.3-3.3,2.5-4.5c1.5-1.6,1-2.3-0.1-3.9c-2.3-3.2-4.8-6.4-5.9-10.3c-0.3-1.2-1.1-2.9-0.6-3.6
	c2.8-4.1,2-10.7,8.9-12c2.3-0.4,3-4.4,6.2-4.4c0.2,0,0.7-1.1,0.6-1.7c-0.3-2.5-0.6-5.1-1.3-7.5c-1.4-4.9-2.1-9.5,1.3-13.9l5.6-5.2
	c2.1,0.4,2.6-0.6,2.4-2.5c-0.8-6.5,2.2-11.3,6.7-15.7c2.4-2.3,5.1-3.3,8.2-3.4c2.9-0.1,4.7-1.3,4.3-4.2c-1-7.7,4.6-11.7,9.2-16.2
	c2.5,0.6,2.6-1.2,2.1-2.6c-1.9-5,0.3-9.6,2.7-13.1c2.5-3.7,5.8-7.1,10.3-9.3c4.7-2.3,8.8-5.6,14-6.8c1.1-0.2,3.4-1.3,1.7-4.1
	c-3.8-6.3-0.3-12.1,2.4-17.7c0.8-1.7,2.6-2.7,5.1-3.1c5.1-1,10.1-1.2,15.1,0.1c1.9,0.5,2.9,0,3.4-2.4c0.5-2.6,1.7-5.2,3.1-7.5
	c2.7-4.4,7.7-5.4,12.2-6.9c2.1-0.7,4.8-0.3,7.1,0c5.4,0.8,5.4,0.9,7.3-4.2c2.3-6.2,6.5-10.3,13-11.8c3.1-0.7,6.7-0.3,9.2,0.6
	c4.2,1.4,6.7-0.5,7.5-3.2c2.2-7.2,8.2-7.9,13.8-8.6c4.8-0.6,9.9-1,14.7,0.9c1.1,0.4,1.6-0.3,2.4-1.5c2.7-3.8,5.8-8.4,9.8-10.1
	c4.3-1.8,9.7-3.6,14.8-0.9c1.5,0.8,3.3,1,5.1,1.3c1.9,0.3,2.3-0.2,4.7-2.8c3.9-4.2,9.6-5,14.5-7.3c3.3,1.6,6.8,3,10,4.9
	c3.1,1.8,4.2,6.8,8.5,6.3c3.1-0.3,6-2.2,9-3.2c2.3-0.8,4.7-1.6,7.1-2.3c3.1-0.9,8,0.2,10.1,2.2c0.6,0.5,1.2,1.1,1.7,1.7
	c2.2,2.8,4.6,4.1,8,1.8c1-0.7,2.3-0.9,3.5-1.2c1.7-0.4,3.4-1.1,5.1-1.1c4.4,0,8.4,1.6,11.9,4.1c1.7,1.2,3.1,2.9,4.5,4.5
	c2.2,2.4,4.5,3.5,8,4.1c5.4,0.9,9.2,5,11.7,10.2c2,4.2,2.5,4.2,7.7,3.3c4.5-0.7,8.7,0,11.9,3.6c1.4,1.6,3.1,3,4.5,4.6
	c1.3,1.5,2.3,1.4,4.5,0.9c4.7-1.2,7.9,2.5,11.2,5.4c2.6,2.2,3.4,5.1,3.2,9.4c-0.2,4.7-2.4,7.9-4.9,11.7c-2,3-4.2,5.7-6.6,8.4
	c-0.5,0.5-1.3,0.7-1.9,1.1c0.3-0.8,0.6-1.6,1-2.4c2.6-4.5,5.4-8.9,7.6-13.6c1-2.2,1.4-5,1.1-7.5c-0.5-4.7-6.8-8.3-11.5-7
	c-0.4,0.1-0.6,1-0.8,1.5c-0.4,0.9-1.1,1.9-1.1,2.7c0.5,6.4-3.9,9.9-7.8,13.6c-0.8,0.8-2.2,1.2-3.4,1.3c-3.2,0.4-4.8-1.8-3.9-5.2
	c0.9-3.4,1.5-7,4.7-9.2c1.9-1.3,0.3-5.9,4.7-4.8c0-1.1,0.4-2.3-0.1-3.2c-1.8-3.6-8.5-6.8-12.6-5.7c-1.2,0.3-3,1.8-3,2.9
	c-0.3,7.6-5.9,11.7-10.6,16.5c-0.5,0.5-1.3,0.8-2,0.9c-4.7,1-6.7-0.6-5.5-5.3c1.4-5.5,2.9-11.3,9.1-13.9c2.1-0.9,3-3.3,1.8-4.8
	c-1.8-2.2-4.1-3.8-4.7-6.9c-0.3-1.7-6.5-3.6-8.2-3c-0.6,0.2-1.4,1.1-1.4,1.6c0.3,3.5-1.3,6.4-2.4,9.5c-0.9,2.6-0.8,5.8-3.7,7.2
	c-3.6,1.8-7.3,3.5-11.5,3.2c-2.9-0.2-5.4-2.6-5.1-5.6c0.6-7.2,3.3-13.4,9.9-16.9c2.7-1.4,5.9-3.1,5.6-5.6c-0.4-3.1-4.3-4-7.3-4.7
	c-4.9-1.1-9.6,0.9-14.1,2.5c-1,0.4-2.2,2.6-2,3.8c0.9,5.4-1.8,10-2.5,15.1c-0.9,5.9-10.8,9.3-14.7,5.1c-1.7-1.8-4.3-4.9-3.1-8.1
	c1.5-3.9,2.1-8.4,6-11.1c2.2-1.5,3.9-3.6,5.7-5.6c1.6-1.9,0.4-3.8-1.8-5.2c-4.3-2.6-7.7,0.3-11.4,1.3c-2.3,0.6-5.2,1.8-6.2,3.6
	c-1,1.7-0.9,4.4-0.4,6.9c1.3,6.6-2.4,12.2-4.7,17.9c-1,2.4-3.4,1.8-5.5,2c-2.3,0.2-3.8-1-4.2-2.7c-0.9-4.4-3-8.6,0.7-13.2
	c1.8-2.3,1.7-6.1,4.2-8.7c0.7-0.8,0-3.9-1-5.3c-1.6-2.3-3.6-4.5-6.8-4.7c-3.3-4.8-7-2.5-10.7-0.6c-0.9,0.4-1.8,0.7-2.7,1.2
	c-4.8,2.5-4.9,4.2-2,9c4.4,7.1,6.4,14.9,3,23c-0.6,1.3,0.7,4.1-2.4,4.3c-2.8,0.2-5.6,0.7-8.3,1.1c-0.2,0-0.5-0.3-0.6-0.5
	c-1.1-4.3-5.4-7.2-5.2-12.3c0.2-4.9,0.4-9.6,2.2-14.3c1-2.7-0.1-3.1-3-4.7c-5.2-2.8-10.3-0.6-15,0.6c-3.4,0.8-4.8,5.6-5.5,9.4
	c-0.2,0.9,0.9,2.3,1.7,3.2c5.2,5.3,5.3,12.1,4.8,18.7c-0.1,1.6-2.3,3.4-3.9,4.2c-0.9,0.5-3-0.5-4.1-1.3c-4.8-3.7-6.2-9.1-6.5-14.9
	c-0.2-2.6-0.3-5.2-0.4-7.8c-2.8-0.2-5.7-0.7-8.5-0.7c-2.6,0-5.1,0.6-7.7,0.7c-3,0.1-4.5,2.3-6.3,4.1c-1.5,1.5-1.4,3.3-0.1,4.9
	c2.3,3.1,4.7,6,6.8,9.2c2.4,3.6,3.9,7.6,3.7,12c-0.1,3.7-3.7,4.9-5.5,7.3c-0.2,0.2-1.4-0.1-1.9-0.6C341,234,340,232.8,338.8,231.7z
	 M185.5,422.4c0.4,0.1,2,0.6,3.6,1.2c4.2,1.6,8.2,0.6,12.2-1c1.3-0.5,2.3-0.5,2.5-2.2c0.2-1.8-0.2-3.5-1.8-4
	c-2.5-0.8-4.8-2.7-7.9-1.4c-2.9,1.3-6.1,1.9-9.1,3C183.1,418.7,182.9,419.7,185.5,422.4z M401,193.9c-0.9-0.3-2.1-1.2-2.6-0.9
	c-0.7,0.4-0.9,1.7-1.1,2.6c-0.4,2-0.5,4-0.9,6c-0.9,4.3,2.5,6.8,4.1,10.1c0.1,0.1,2.4-0.5,2.4-0.8c0.2-4.5,0.2-9,0-13.5
	C402.8,196.3,401.7,195.2,401,193.9z M212.9,341.1c-2.9-4.2-7.9-3.5-12.7-3.4c-0.2,0-0.8,0.9-0.7,1.3c0.3,1.1,0.5,2.8,1.3,3.1
	c4.1,1.6,7.9,4.5,12.7,3.5c1.4-0.3,2-1.7,1.1-2.8C214.3,342.4,213.8,342,212.9,341.1z M484.1,213.1c3.3-2.3,5.1-5,5.9-8.4
	c0.2-0.9,0.1-2.5-0.4-2.7c-0.8-0.4-2.4-0.5-3,0c-2.4,2.1-4.7,4.3-6.7,6.8c-1.5,1.9-1,4.9,0.4,6C483,216.8,483.2,213.5,484.1,213.1z
	 M243,294.3c-0.4-0.4-0.8-0.7-1.1-1.1c-2.5-3.8-5.6-0.9-8.4-0.7c-0.5,0-1.5,1.4-1.4,1.5c1.5,1.8,2.9,3.6,4.6,5.2
	c0.6,0.6,1.9,0.5,2.8,0.8c2.2,0.8,4.1,0.6,5.5-1.4C246.9,296,243.6,295.8,243,294.3z M204.4,445.6c0.2-0.2,0.4-0.3,0.5-0.6
	c0.4-0.6,0.7-1.3,1.1-1.9c-0.7-0.1-1.4-0.3-2.1-0.3c-4,0-8.2-0.7-11.7,2.2c-0.7,0.6-1.4,1.1-2.1,1.7c0.8,0.9,1.6,2.6,2.5,2.7
	C197.1,450,201.3,449.5,204.4,445.6z M210.8,466.8c0.2-1,0.6-2.7,0.9-4.3c-1.4-0.1-2.9-0.5-4.3-0.4c-4,0.4-6.1,2.3-7,6
	c-0.2,1-0.4,2.5,0.2,2.9c0.6,0.5,2.2,0.5,3,0.1C205.8,470,207.8,468.6,210.8,466.8z M186.2,391.5c-0.2,0.5-0.6,1.2-0.4,1.3
	c0.8,0.9,1.8,2.4,2.7,2.4c3.5-0.1,7-0.6,10.5-1.1c0.5-0.1,1.3-1,1.3-1.6c0-0.6-0.6-1.4-1.1-1.8C196.8,389,188.5,389.5,186.2,391.5z
	 M285.6,248.6c-1.4-1.4-1.5-1.6-1.7-1.7c-1.2-0.6-1.9-3.4-3.6-1.4c-0.7,0.9-0.7,3-0.2,4.2c1,2.3,2.3,4.5,4,6.2
	c0.9,0.9,2.8,0.9,4.2,1.3c-0.1-1.4,0-2.9-0.5-4.1C287.1,251.1,285.9,249.2,285.6,248.6z M454.5,200c-0.5,0.9-1.8,3.2-2.9,5.7
	c-0.3,0.8,0.1,1.9,0.2,2.9c1.2-0.2,2.8,0,3.7-0.7c3.7-2.7,4.2-6.8,3.9-11c0-0.2-1.1-0.6-1.3-0.5C457.2,197.2,456.5,198,454.5,200z
	 M193.5,363.8c0.3,0.6,0.7,1.9,1.2,2c3.2,0.6,6.5,1,9.7,1.2c0.9,0.1,1.8-0.6,2.7-1c-0.6-1-1.2-2.9-1.9-3c-3.6-0.3-7.2-0.2-10.8-0.2
	C194.3,362.8,194.1,363.1,193.5,363.8z M314.2,231.6c-1.7-1.3-2.5-2.2-3.4-2.5c-0.4-0.2-1.8,0.8-1.7,1.1c0.4,2.5,0.7,5,1.7,7.3
	c0.5,1.2,2.3,2.8,3.5,2.7c2.1-0.1,1.6-2.4,1.4-3.8C315.4,234.5,314.6,232.7,314.2,231.6z M429.3,197.5c-0.7,1.8-1.3,3.4-2.1,5
	c-0.8,1.8-1.4,4.1,0.5,4.8c2.9,1.1,2-2,2.6-3.4c0.7-1.6,1.4-3.2,1.9-4.8c0.1-0.3-0.3-1.1-0.7-1.2C431,197.6,430.3,197.6,429.3,197.5
	z M263.8,267.3c0,0.5-0.2,1.4,0,1.5c2.1,1.5,4.2,2.9,6.4,4.3c0.1,0.1,0.6-0.1,0.6-0.3c0.3-0.9,0.9-1.9,0.8-2.8
	c-0.1-0.9-0.6-2.2-1.3-2.4c-1.9-0.7-3.9-0.9-5.9-1.2C264.3,266.4,264,267,263.8,267.3z M222.4,318.9c0.9,0.9,1.7,2.2,2.9,2.7
	c0.9,0.4,2.2-0.2,3.4-0.4c-0.3-1.2-0.2-3.1-0.9-3.5c-1.7-0.9-3.8-1.1-5.7-1.6c-0.4-0.1-0.9,0.2-1.3,0.2c0.2,0.5,0.3,1,0.5,1.4
	C221.6,318.2,222,318.6,222.4,318.9z M340.6,219.6c-0.6-0.1-1.4-0.2-2.2-0.4c0,0.8-0.3,1.7,0.1,2.3c0.5,1.1,1.7,1.9,2.1,3
	c0.5,1.5-0.6,4.5,2.6,3c2.6-1.2-0.8-2.8-0.4-4.6C343,222.1,341.6,221,340.6,219.6z M509.3,217.7c-0.6,0.6-1.3,1-1.6,1.7
	c-0.7,1.5-1.2,3.2-1.8,4.8c2.3,0.7,2.7-1.6,3.9-2.5c1.1-0.7,2-1.7,2.7-2.8c0.2-0.3-0.3-1.4-0.8-1.9c-0.2-0.3-1-0.4-1.4-0.3
	C510,216.8,509.6,217.3,509.3,217.7z M532.7,225.9c-0.8,1.5-1.3,3.2-2.3,4.5c-1.1,1.4-1,2.4,0.4,3c0.4,0.2,1.7-0.7,2.2-1.4
	c0.9-1.4,1.7-2.9,2.2-4.5c0.2-0.4-0.6-1.3-1.1-1.8C533.9,225.5,533.2,225.8,532.7,225.9z M370,206.3c-0.7,0.3-1.3,0.4-1.6,0.7
	c-1.7,2,1.4,3.2,0.9,5.1c0.4-0.2,1.3-0.4,1.3-0.5C370.5,209.8,370.2,208.1,370,206.3z"/>
<path fill="none" stroke="#000000" stroke-miterlimit="10" d="M616.2,255c5.2,6.1,10.8,12,15.5,18.5c3.6,5,6.1,10.7,8.8,16.3
	c3.5,7.1,4.6,15.1,9.1,21.8c-1.2,4.7,3,7.8,3.6,12.2c0.6,4,3.1,7.7,4.3,11.8c2.8,10.1,5.7,20.1,7.8,30.3c1.5,7.8,2.1,15.8,2.4,23.8
	c0.3,9.1,0.9,18,2.1,27.1c0.8,6.1,0,12.5-1,18.7c-1.4,8.2-2.4,16.4-4.2,24.6c-2.4,10.7-5.6,21.1-9.2,31.4c-0.4,1.2-1.2,2.2-1.9,3.2
	c-1,1.6-2.7,2-4.1,1.3c-0.6-0.3-0.7-2.6-0.3-3.7c4.6-10.3,5.2-21.7,9.4-32.1c0-9.2,4.2-17.9,3.8-27.3c-0.1-3,0.9-6.1,1-9.1
	c0.2-7.5-0.7-14.9-2.1-22.3c-0.5-2.3,0-4.8-0.1-7.2c-0.2-12.3-1.5-24.4-5.4-36.1c-1.5-4.5-1.7-9.4-2.9-14c-2-8.2-5-16-8-23.8
	c-3-7.8-4.3-16.3-9.6-23.2c0-7.5-5.8-12.5-8.1-19c-0.2-0.5-0.5-0.9-0.8-1.2c-8.2-7.4-13.2-17.8-22.2-24.3
	c-7.8-5.7-15.1-12.4-25.1-14.5c-2-0.4-1.9-1.6-0.5-3.4c1.7-2.1,3.5-2.7,6.1-1.9c4.5,1.4,12.2,5.8,15.6,8.8c2.7,2.3,5.8,4.1,8.5,6.4
	c2.6,2.2,4.9,4.9,7.4,7.3C615.9,255.2,616,255.1,616.2,255z"/>
<path fill="none" stroke="#000000" stroke-miterlimit="10" d="M628.4,458.7c3.9-3.3,7.7-6.8,11.9-9.8c1.5-1.1,3.8-1.2,5.7-1.5
	c1.6-0.3,2.5,0.6,2.4,2.2c-0.4,6.8-0.7,13.5-1.1,20.3c-0.1,2.1-1.3,3.2-3.5,3.5c-4.2,0.6-7.2-1.9-10.4-3.8c-1.6-0.9-2.5-3.1-4.1-3.8
	c-1.9-0.8-4.6-0.8-4.5-3.2c0.1-1.4,2.1-2.8,3.3-4.2C628.2,458.5,628.3,458.6,628.4,458.7z"/>
<path fill="none" stroke="#000000" stroke-miterlimit="10" d="M732.6,338.4c2-2.4,4.7-3.4,6.8-5.1c3-2.4,5.2-0.6,7.8-0.2
	c3.1,0.4,3,3.2,3.6,5.3c1.1,3.8,0.3,8,2.6,11.7c1.1,1.8-2.1,5.8-4.5,6.8c-5.3,2.1-9.9,1.4-13.9-2.8c-0.6-0.6-1.2-1.1-1.7-1.7
	c-1.2-1.9-5.3-0.2-4.9-4.8C728.9,343.7,729.3,340.5,732.6,338.4z M736.1,341.6c-0.8,0.8-1.6,1.4-2.2,2.3c-1.3,1.6-0.6,3,1.6,4
	c1.2,0.5,3.2,1.2,3.3,2c0.2,2.8,3.6,0.4,3.9,2.7c0,0.2,1.9,0.7,2.4,0.3c0.9-0.7,2.2-1.2,1.6-3.1c-0.9-2.5-2-5.3-1.9-7.9
	c0.2-3.2-1.1-3-3.5-3.2C738.6,338.5,737.6,340.3,736.1,341.6z"/>
<path fill="none" stroke="#000000" stroke-miterlimit="10" d="M729.9,507.4c0.7,0.7,1.1,1.1,1.5,1.5c2.6,2.8,2.6,4.3,0,7.2
	c-2.1,2.4-5.6,4.1-2.8,8.5c0.9,1.4-0.5,4.4-1,6.6c-0.2,0.7-1,1.6-1.6,1.6c-2.8,0.3-5.8,1-8.5,0.3c-1.5-0.4-2.8-2.5-3.6-4.7
	c-1.1-3.2-1.5-6.7-3.9-9.6c-2-2.4,1.2-9,4.5-10.2c2.6-0.9,5-1.9,7.5-3.1C724.5,504.2,728.3,504.2,729.9,507.4z M717.6,527.9
	c2,0.4,4.1,1.4,5.3,0.8c0.9-0.5,1.2-3.1,0.9-4.6c-0.3-1.6-1.3-3.2-2.3-4.6c-1-1.5-6.4-0.1-2.9-4.5c-1.6-0.2-3.2-0.5-4.9-0.7
	c-0.3,0-0.5,0-0.8,0c0.3,0.7,0.7,1.3,0.9,2C715,519.9,716.2,523.7,717.6,527.9z M727.8,511.6c-0.9-0.4-1.7-0.9-2.3-0.8
	c-1.5,0.2-2.9,0.7-4.3,1.1c-0.5,0.2-1,0.6-1.5,0.9c0.6,0.4,1.1,1.2,1.7,1.3c1.8,0.1,3.6-0.1,5.4-0.4
	C727.2,513.6,727.4,512.5,727.8,511.6z"/>
<path fill="none" stroke="#000000" stroke-miterlimit="10" d="M658.3,195.4c1.2-1.2,1.9-2,2.7-2.7c5-4,8.9-2.7,11.3,3.5
	c1.2,2.9,2.7,5.7,4,8.6c0.9,2.1,0.3,3.7-1.2,5.5c-3.7,4.5-8.5,5.8-13.8,4.9c-2.8-0.5-5.7-2.1-7.7-4c-1.1-1.1-1.3-4.3-0.5-5.9
	C654.9,201.9,654.5,197.2,658.3,195.4z M662.5,198c-3.7,3.6-4.3,6.9-2.8,11.3c0.2,0.6,0.3,1.5,0.7,1.6c2.4,0.9,7-0.8,8-3.2
	c0.3-0.6-0.4-1.9-1-2.5c-2.2-2.2-2.2-2.1-2.2-4.8c0-0.9-0.3-2.1-0.9-2.7C664,197.4,662.8,197.9,662.5,198z"/>
<path fill="none" stroke="#000000" stroke-miterlimit="10" d="M735,376.7c2.3-1.7,4.1-4.3,7.6-5.6c6.7-2.5,9.3-2.7,13.7,2
	c2.7,2.9,2.6,6.5,0,9.6c-2.3,2.7-5.9,4.4-6.4,8.5c-0.1,0.8-1.9,1.5-3.1,1.9c-1,0.3-2.1-0.1-3.2,0.1c-3.9,0.5-7.3-0.3-9.6-3.9
	c-0.6-1-1.6-2.1-1.5-3.1c0.1-1.2,3.2-1.4,4.8-0.3c0.9,0.6,1.4,1.6,2.3,2.2c1.8,1.3,3.8,0.5,3.8-1.7c0.1-3.3,1.5-4.8,4.8-4.6
	c1.7,0.1,3.2,0.1,3.2-2.3c0-2.5-1-4.3-3.2-4.5c-2.6-0.2-5.2-0.5-7.1,2.2c-1,1.5-2.8,2.5-3.8,4c-1.8,2.5-4.3,1.5-6.5,1.6
	c-0.2,0-0.7-1.1-0.5-1.3C731.6,380,733.2,378.5,735,376.7z"/>
<path fill="none" stroke="#000000" stroke-miterlimit="10" d="M736.7,428.2c-0.6-1.4-3.7-1.7-1.4-4.3c2.5-2.9,3.4-0.1,4.9,1
	c1,0.8,2,1.8,3.1,2.1c0.8,0.2,2.8,1.1,2.5-1.4c-0.3-2.9,0.4-5,4-5.4c1.3-0.2,3.8-1.3,2.1-3.8c-1.2-1.7-4.1-2.4-5.5-1.3
	c-1.6,1.4-3,3.1-4.6,4.5c-1.3,1.2-4.6,1.1-4.8-0.1c-0.3-1.4-0.2-4,0.4-4.2c4.6-1.8,7.3-7.2,13.4-6.4c5.9,0.8,10.4,8.1,6.9,12.7
	c-2.1,2.9-5,5.1-5.4,9c0,0.4-0.8,0.8-1.4,1C745.5,433.8,741.3,432.8,736.7,428.2z"/>
<path fill="none" stroke="#000000" stroke-miterlimit="10" d="M727.8,302.4c2.1-3.3,5.6-5,10.3-4.4c3.4,0.5,5.5,2.6,5.3,6.2
	c-0.2,4.1-0.6,8.2-1.2,12.3c-0.1,0.9-0.9,2-1.7,2.4c-3,1.5-6.3,2.3-9.6,1.7c-2.4-0.5-4.9-1.3-6.9-2.6c-0.9-0.6-0.3-3-1-4.2
	c-2.3-4.1-0.6-6.8,2.6-9.2C726.3,304.1,726.8,303.4,727.8,302.4z M730.1,306.9c-0.4,0.4-0.8,0.8-1.1,1.1c-2.8,2.8-2.4,5.6,1.2,6.9
	c1,0.4,2.5-0.2,3.7-0.6c0.2-0.1-0.3-1.6-0.3-2.5c0-0.7,0-1.6,0.4-2c1.8-1.7,1.9-3.9,2-6.2C733,303,731.8,305.4,730.1,306.9z"/>
<path fill="none" stroke="#000000" stroke-miterlimit="10" d="M409.8,147.5c2.2-3.3,6.1-4.9,10.4-6c3.5-0.9,6.8-2.7,10.3-4
	c0.8-0.3,2.2-0.4,1.8,1.3c-0.4,2.3,0.5,4,2.2,5.5c1.6,1.4,2.5,2.2,5.1,1.3c2.7-0.9,5.4,1.9,5.9,5.1c0.4,2.6,0.6,5.3,0.2,7.8
	c-0.2,1-2.1,1.7-3.3,2.6c-0.6-1.2-3.4-1.9-1.7-3.6c2-2.1-0.9-3.1-0.7-4.9c0.3-2.1-2.2-1.7-3.6-1.5c-2.7,0.3-3.8-1.8-5-3.3
	c-2-2.4-4.7-3.3-7-2.2c-3,1.5-7.1-0.6-9.1,3.2c-6,0.5-6.1,5.2-6.8,9.4c-0.2,1.3,0,2.7-0.1,4c0,0.4-0.6,1.1-0.9,1.1
	c-0.7,0-1.5-0.1-2-0.5c-2.2-2.1-2.3-8.4-0.2-10.7C406.6,150.5,408,149.3,409.8,147.5z"/>
<path fill="none" stroke="#000000" stroke-miterlimit="10" d="M634.4,171.8c2.6-2.6,8.1-2.4,9.8,1.4c1.2,2.5,3.2,2.5,4.5,4
	c2.3,2.6,5.1,4.6,3.2,9c-2,4.8-3.5,6.5-8.9,6.5c-3,0-6.2-0.4-9.1-1.2c-1.3-0.4-2.7-1.8-3.4-3.2C629,185.6,631.8,174.3,634.4,171.8z
	 M643.1,188c0.4-0.4,0.7-0.8,1.1-1.1c1.9-1.4,2.7-3.5,1.6-5.4c-0.5-0.9-2.7-0.8-4.2-1.1c-0.5-0.1-1.1,0.1-1.6,0
	c-1.4-0.3-2.8-0.6-4.1-1c0.5,2.2-1,4.6,1.1,6.7c1,1,1.5,2.5,2.4,3.7c0.2,0.3,1.2,0.5,1.4,0.3C641.7,189.5,642.4,188.7,643.1,188z"/>
<path fill="none" stroke="#000000" stroke-miterlimit="10" d="M632.5,418.1c0.8-0.4,2.9-1.2,4.7-2.5c1.9-1.4,3.2-3.8,5.2-4.8
	c1.7-0.9,4-0.6,6-0.6c0.4,0,1.1,1.1,1.2,1.7c0.8,4.7,1.6,9.4,2.3,14.1c0.3,2.2-0.6,2.7-2.8,3.5c-2.7,1-4.7,0.8-7.1-0.2
	c-3.2-1.3-6.5-2.3-9.6-3.7C628.8,423.9,628.7,421.8,632.5,418.1z"/>
<path fill="none" stroke="#000000" stroke-miterlimit="10" d="M679.5,217.2c2.3-0.9,4.5-1.9,6.8-2.8c2.6-1,5.8,0.4,6.2,2.9
	c0.5,3.5,1,7.1,1.1,10.7c0.3,5.4-2,8.1-7.2,8.9c-2.3,0.3-4.8,0.1-7.2,0c-3.2-0.1-6.7-3.5-5.8-6.4c1.4-4.4,3.6-8.6,5.5-12.9
	C679.1,217.5,679.3,217.3,679.5,217.2z M682.8,221.1c-1,2.5-1.6,4.6-2.7,6.5c-0.9,1.5-1.5,2.5,0.2,3.9c1.7,1.4,3.4,1.5,4.9,0.4
	c1.1-0.8,2.7-1.6,1.1-3.7c-1-1.3-0.8-3.4,0.6-4.9c0.2-0.2-0.4-1.7-0.9-1.8C684.8,221,683.6,221.2,682.8,221.1z"/>
<path fill="none" stroke="#000000" stroke-miterlimit="10" d="M257.4,668.7c0.9-0.9,1.8-1.9,2.8-2.8c0.2-0.2,0.8,0,1.2,0.2
	c0.1,0,0.1,0.5,0,0.8c-0.4,1.2-0.8,2.3-1.2,3.5c-0.7,2.1-1.6,4.1-2.2,6.3c-0.4,1.4,0,2.7,1.9,2.7c4,0,6.5,2.7,9,5.2
	c1,1.1,3.1,2.8,3.5,2.5c2.1-1.3,5.2-1.2,6.4-3.8c0.8-1.8,1.1-3.8,1.8-5.6c0.2-0.6,0.9-1.1,1.3-1.7c0.3,0.5,0.8,1,0.9,1.5
	c0.6,4.1,2.4,6.2,6,6.3c1.4,0.1,3.2-0.4,4.1-1.3c0.5-0.5,0.1-2.5-0.4-3.6c-0.9-2-2.4-3.8-3.4-5.8c-0.5-1.1-0.7-2.5-0.5-3.7
	c0.1-0.5,2-1.4,2.2-1.1c3.9,3.5,5.8,8.1,6.6,13.1c0.2,1.1-1.2,3-2.4,3.6c-1.9,1.1-4.6,2.6-6.2,2c-5.5-2.2-9.6,0.3-14.2,2.3
	c-1.6,0.7-4.1,2.4-6.2,0.2c-0.3-0.3-1.4-0.1-1.4-0.2c-0.5-5.9-5.9-5.5-9.5-6.8c-2.4-0.9-3.6-2.6-3.9-4.3c-0.4-2.4-1.4-5.3,1.4-7.3
	C256,670.3,256.7,669.4,257.4,668.7z"/>
<path fill="none" stroke="#000000" stroke-miterlimit="10" d="M736.2,499.9c-3.3,3.3-5.5,3.4-9,0.2c-2.6-2.4-5.5-4.7-6.3-8.5
	c-0.1-0.6,0.2-1.6,0.7-1.9c0.4-0.3,1.5-0.2,1.9,0.2c2,1.8,3.9,3.7,5.7,5.6c1.1,1.2,2.3,2.2,4.1,1.7c2.3-0.6,0.5-2.5,1-3.7
	c0.1-0.2,0.1-0.6,0-0.8c-1.6-3.2-1.2-5.2,2.8-5.8c0.6-0.1,1.1-1.4,1.7-2.1c-0.9-0.4-1.8-1.2-2.6-1.2c-2.8,0.2-5.6,0.8-7.4,3.2
	c-1.3,1.7-2.3,1.4-3.8,0c-1.9-1.9-0.3-2.7,0.7-3.8c3.3-3.4,7.7-5.3,12.2-5.2c5.9,0.1,9.5,6.2,6.5,11.2c-1.2,2-3.8,3.4-4.3,5.4
	C739.7,497.3,737.3,498.1,736.2,499.9z"/>
<path fill="none" stroke="#000000" stroke-miterlimit="10" d="M747.6,461.4c-1.1,1.1-2.5,2.1-3.3,3.4c-1.9,2.8-4.6,3.4-7.6,2.9
	c-3.7-0.6-6.6-2.6-8.8-5.6c-0.4-0.5-0.2-1.6-0.1-2.3c0.1-0.7,0.4-1.6,0.9-2c0.4-0.3,1.5,0,1.9,0.4c1,0.8,1.9,1.9,2.9,2.8
	c2.3,2,4,1.4,5.6-1.6c0.4-0.8,1.2-1.6,2-1.8c1-0.3,2.2,0.1,3.2-0.1c1.9-0.5,3.2-3.1,2.7-4.9c-0.6-2.3-3.3-3.9-5.5-3.1
	c-2.5,0.9-5,2.1-7.6,2.9c-0.7,0.2-2.4-0.1-2.5-0.4c-0.3-1.1-0.3-3.3,0.1-3.4c4.3-1.2,7.3-5.4,12.5-4.8c5.1,0.6,9.2,3.6,9.7,8.9
	c0.1,1.2-0.3,2.6-1,3.5C751.1,458.1,749.3,459.7,747.6,461.4z"/>
<path fill="none" stroke="#000000" stroke-miterlimit="10" d="M715.2,283.4c-0.2,0.2-0.1,1,0,1c2.2,0.4,4.4,1.2,6.6,1
	c0.9-0.1,1.6-2.2,2.4-3.3c-3.6-2.1-1.1-4.7-0.6-7.1c0.1-0.6,0.3-1.2,0.5-1.8c-0.8,0-1.6-0.2-2.3,0c-0.9,0.3-1.7,0.9-5.4,0.6
	c0.5-3.5,1.1-4,1.7-4.6c2.5-2.3,6.9-3.2,9.4-1.7c2.9,1.8,3.8,4.9,3.4,7.9c-0.2,1.9-0.3,3.5,0,5.5c0.9,5-0.9,7.6-6.2,8.6
	c-2.9,0.6-6.1,0.3-9-0.1c-3.2-0.5-3.3-1.1-2.2-4.4c0.2-0.7,2.4-1.7-0.2-1.6c-3.8,0-3.1-3-2.4-4.4c1.3-2.9,3.4-5.5,5.5-5.2"/>
<path fill="none" stroke="#000000" stroke-miterlimit="10" d="M314.7,166c0.5-0.4,1.4-3.1,4.4-2.7c0.3,0,0.8-1.6,1.2-2.5
	c0.6-1.6,1-3.3,1.9-4.8c0.4-0.8,1.6-1.2,2.5-1.5c0.2-0.1,1.1,1,1.2,1.7c0.4,3,2.1,4.3,4.9,5.1c2.6,0.8,4.8,2.7,6.9,4.2
	c3,2.1,3.2,6.2,3.3,9.9c0,1-0.2,2-0.5,3c-0.4,1.1-0.7,2.5-1.5,3.1c-0.9,0.6-3-2-3-3.7c0-0.7,0.3-1.5,0.4-2.2
	c0.5-3.4-0.8-5.9-3.8-7.5c-1.1-0.6-2.1-1.3-3.2-2c-2.8-1.9-6-1.9-8.4,0c-1.6,1.2-2.9,2.5-4.9,3.5c-1.9,0.9-3.3,4.3-3.7,6.8
	c-0.5,3.2-2.4,6.7,0.7,9.9c0.4,0.4,1.6,3-1,3.4c-1.5,0.2-2.8,0.1-3.4-2.1c-1.2-4.3-1.4-8.6-0.6-13C308.9,171.2,311,169,314.7,166z"
	/>
<path fill="none" stroke="#000000" stroke-miterlimit="10" d="M614,291.7c3.3-3.3,5.4-3.4,6.7,0.3c1.6,4.5,6.7,7.1,6.4,12.6
	c-0.1,0.9,1.8,2,0.2,3.2c-0.8,0.6-1.6,1.3-2.6,1.5c-3.8,0.7-7.6-0.8-11.6,1c-2.1,1-5.1-4.1-4.3-6.8C610,299.2,610.4,294.4,614,291.7
	z"/>
<path fill="none" stroke="#000000" stroke-miterlimit="10" d="M625.9,381.1c0.1-1.3-0.2-2.9,0.3-4.1c0.4-0.9,1.9-1.6,3.1-2
	c5.2-1.5,10-3.3,13.5-7.8c0.7-0.9,2.8-1.4,4.2-1.1c2.1,0.4,1.5,2.5,1.4,3.9c-0.3,4.9-0.6,9.8-1.2,14.6c-0.1,0.7-2.2,1.9-2.8,1.6
	c-5.2-2.7-11.1-2.6-16.5-4.4C627.4,381.6,626.9,381.5,625.9,381.1z"/>
<path fill="none" stroke="#000000" stroke-miterlimit="10" d="M538.5,189.3c0.3-1.4,0.3-2.7,0.8-3.8c1-2.2,0.7-3.8-1-5.6
	c-3.4-3.4-7.4-6.3-7.7-12c-0.2-2.5-4.3-3.1-6.4-1.3c-1.7,1.4-3,2.9-2.5,5.4c0.2,0.8-0.7,1.8-1,2.7c-1.1-0.9-3.2-1.8-3.2-2.7
	c-0.1-2.7,0.4-5.6,1.1-8.3c0.1-0.6,1.5-1,2.3-1.5c3.9-2,8.2-1,12.3-1.1c6.1-0.1,6.5,0.2,4.4,5.6c-1.3,3.3,0.2,5.2,1.7,7.2
	c1.4,1.9,3.4,3.3,5,5.1c3.1,3.6,1.4,9.1-3.3,10.3C540.2,189.6,539.4,189.4,538.5,189.3z"/>
<path fill="none" stroke="#000000" stroke-miterlimit="10" d="M712.6,548.9c3.8,3.9,3.8,4.6,0.2,8.5c-1.8,2-3.6,3.8-6.7,3.2
	c-1.6-0.3-1.9,0.9-2.3,2.4c-0.6,2.3-2.1,4-4.7,4.4c-4.2,0.5-4.7-0.2-6.7-4.3c-1.4-2.9-0.8-5.6-0.8-8.4c0-1.1,1.8-2.1,2.8-3.2
	c0.5,1,1.3,2,1.6,3.1c0.5,1.9,0.6,4,1.3,5.9c0.2,0.5,1.6,0.7,2.4,1c0.1-0.9,0.6-1.9,0.2-2.5c-0.7-1.2-2.7-1.8-0.8-3.8
	c2.4-2.5,2.5-2.6,6-0.2c0.8,0.5,1.8,0.8,2.7,1.1c1.1,0.3,1.7,0.1,1.8-1.4c0.1-2.3-1.1-3.6-2.8-4.1c-2.4-0.7-5-0.7-7.4-1.3
	c-0.4-0.1-1-2-0.7-2.4c0.8-0.9,2-1.8,3.1-1.9C706,544.4,709.9,545.4,712.6,548.9z"/>
<path fill="none" stroke="#000000" stroke-miterlimit="10" d="M696.1,243.6c2.3-3.1,6.1-5.4,9.8-4.1c3.6,1.2,5.5,5.1,5.9,9.3
	c0,0.3,0,0.5,0,0.8c0.2,3.1,3.1,6.4-1.2,9c-4.2,2.5-8.7,4.4-13.7,3c-0.9-0.3-1.4-2-2.1-3c0.9-0.4,1.7-0.9,2.7-1.2
	c0.8-0.2,1.6,0.1,2.4-0.1c6.1-1.3,7.7-5.3,4.3-10.9c-0.8-1.4-2.1-2.5-3.7-0.5c-1.2,1.4-2.8,2.5-2.3,4.7c0.5,1.8-0.5,3.2-1.9,4
	c-1.1,0.5-2.8,0.9-3.7,0.4c-0.8-0.5-1.2-2.2-1.1-3.4C691.6,249.2,693.6,246,696.1,243.6z"/>
<path fill="none" stroke="#000000" stroke-miterlimit="10" d="M596.3,262.9c2.1,1.9,4.5,4.4,5.8,8c0.7,2.1,0.3,4.4-1.7,4.5
	c-4.6,0.1-9,0.9-13.4,2.2c-2.6,0.8-4.5-1.4-4.3-4.2c0.3-4.5,3-8.5,2.4-13.4c-0.3-2.3,4.1-3.7,6.1-2.1
	C592.9,259.3,594.3,260.9,596.3,262.9z"/>
<path fill="none" stroke="#000000" stroke-miterlimit="10" d="M143.2,377.9c-1.7-2.5-4.1-5.7-6.1-9.2c-0.9-1.7-1.2-3.9-1.2-5.8
	c0-3.1,1.3-6.1-0.8-9.1c-1.1-1.5,1.6-4.2,3.3-3.1c2.6,1.6,4.4-0.1,6.4-0.5c2.4-0.5,4.7-2.3,7,0c4-1,6.3,1.7,8.6,4.2
	c0.8,0.9,2.6,1.8,0.8,3c-0.9,0.7-2.6,0.9-3.6,0.6c-2.1-0.7-2.8-4-5.8-3.3c-3.1,0.7-6.3,1.5-9.4,2.3c-0.3,0.1-0.9,0.4-0.9,0.7
	c-0.3,4.6-2.6,9.4,1.7,13.5c2.4,2.2,2.1,7.1,7,7.1c0.1,0,0.3,2.4,0.4,3.6c-1.1,0-2.3,0.4-3.1-0.1
	C146.2,380.9,145.1,379.7,143.2,377.9z"/>
<path fill="none" stroke="#000000" stroke-miterlimit="10" d="M573.5,253.6c3.4,1.4-0.3,3.5,0.3,5.2c1.7,4.6-0.7,8.4-2.3,12.4
	c-1.6,4-6.6,5-9.9,2.3c-3-2.4-4.4-6.7-8.9-7.2c-0.2,0-0.4-0.7-0.5-1.1c-0.5-2.7,3.7-8.4,6.3-9.1c3.6-0.9,7.5-1.5,10.4-3.4
	C571.5,251.1,572.1,252.4,573.5,253.6z M561.2,266.2c2.7,2.7,5.9,4.4,6.3,3.5c0.9-2.1,1.5-4.5,1.7-6.9c0.3-5.2,0.2-5.3-5.3-3.3
	C557,262.1,557,262.1,561.2,266.2z"/>
<path fill="none" stroke="#000000" stroke-miterlimit="10" d="M173.4,299.3c-2.1-3.4-3.9-8.5-4.6-14c-0.6-4.6,0.5-9,2.1-13.4
	c0.8-2.1,1.8-2.5,3.3-2.1c4.5,1.2,8.9,1.3,13.6,0.4c2.6-0.5,5.8,0.8,8.3,2.2c1.5,0.8,2.1,3.2,2.9,5c0.2,0.5,0,1.6-0.4,1.9
	c-0.4,0.4-1.5,0.4-1.9,0.1c-0.9-0.5-1.4-1.9-2.3-2.1c-3.1-0.8-5.5-3.9-9.5-2.1c-2,0.9-4.7,0.1-7.1,0.2c-3.4,0.1-5.6,2.3-5.6,5.9
	c-0.1,5.7,1.1,11,5.3,15.4c0.9,1,1.2,2.7,1.4,4.1c0.1,0.5-0.7,1.3-1.2,1.7c-0.2,0.2-1-0.1-1.4-0.4
	C175.6,301.7,175.1,301,173.4,299.3z"/>
<path fill="none" stroke="#000000" stroke-miterlimit="10" d="M606.8,340.7c-3.3-4.8-6.2-8.8-8.9-13c-0.3-0.5,0.2-2.1,0.8-2.5
	c2.4-1.7,5-4.2,7.6-4.4c4.8-0.3,9.9-1.2,14.7,0.6c2.2,0.8,3.3,2.5,2.2,3.9c-3.3,4.2-6.6,8.5-10.3,12.4c-1.3,1.4-3.3,2.1-5.1,2.9
	C607.3,341,606.5,340.7,606.8,340.7z M607,335.5c1.1-0.3,1.9-0.3,2.4-0.7c1.8-1.6,3.4-3.3,5.1-5c1.5-1.5,0.6-4.1-1.6-4.5
	c-3.3-0.5-6.5,0.9-9.7,0.4c-1,3.3,2.2,4.4,3.3,6.6C606.9,333.1,606.8,334.2,607,335.5z"/>
<path fill="none" stroke="#000000" stroke-miterlimit="10" d="M627,367c-2.6,2-6.3,5.1-10.3,7.9c-1.6,1.2-4.7-0.5-4.4-2.4
	c0.6-4.5-1.3-8.6-2.8-12.4c-1.2-2.9,0.8-3.2,1.7-4.3c0.5-0.6,1.9-0.7,2.8-0.7c5.9,0.2,11.9,0.3,17.1,3.7c1.4,0.9,2.3,2.2,0.4,3.7
	C630.2,363.5,629.2,364.8,627,367z M621,366.2c0.9-0.9,2-1.8,2.8-2.8c0.4-0.5,0.9-1.5,0.7-2c-0.2-0.5-1.2-1-1.8-1.1
	c-2.1-0.1-4.3-0.2-6.4,0c-1.5,0.1-2.3,0.9-1.5,2.6c0.4,0.9,0.5,1.9,0.8,2.9c0.3,1.2,0.7,2.3,1.1,3.5c1-0.7,2.1-1.3,3.1-2
	C620.3,367,620.6,366.6,621,366.2z"/>
<path fill="none" stroke="#000000" stroke-miterlimit="10" d="M615.2,393.9c1.1-0.2,2.4-0.8,2.8-0.5c1.4,1.2,2.3,0.9,3.2-0.3
	c1-1.2,2-1.7,3.1-0.3c2.2,2.7,5.5,3.3,8.4,4.7c1.8,0.9,3.1,1.6,3.2,3.8c0.2,2.4-1.3,2.4-3,3.3c-2.9,1.5-5.1,4.4-7.5,6.9
	c-2.1,2.2-3.9,1.9-6.8,1.1c-2.8-0.8-2.6-3-2.9-4.2c-0.9-3.7-1-7.6-1.3-11.4C614.5,396.1,614.9,395.1,615.2,393.9z M624.7,405.5
	c0.6-0.6,1.1-1.1,1.7-1.7c2.2-2.3,2-3.6-1-5.1c-1.3-0.7-2.6-1.6-3.9-2c-0.6-0.2-2.3,0.8-2.3,1.1c0.3,3,0.7,6,1.3,9
	c0.1,0.4,1.5,1,1.9,0.8C623.3,407.2,623.9,406.3,624.7,405.5z"/>
<path fill="none" stroke="#000000" stroke-miterlimit="10" d="M578.3,291.4c0.7,0,1.4,0,2.1-0.2c5.7-1.5,11.4-3.1,17.2-4.5
	c2.7-0.7,5.3,2,4.3,5.5c-1.1,4.2-1.4,8.8-4.4,12.4l-6,4.7c-0.5-0.2-1.2-0.3-1.3-0.6c-1.7-5.9-7.3-8.6-10.7-13
	c-0.6-0.7-0.9-1.8-1.2-2.7C578.2,292.6,578.3,292.1,578.3,291.4z M589.7,301.5c3,3.1,4,2.9,5.6-1.4c0.2-0.7,0.8-1.3,1-2
	c1.2-5-0.7-6.8-5.8-5.5c-4.2,1-5.1,3.6-2.4,7.2C588.5,300.5,589.1,301,589.7,301.5z"/>
<path fill="none" stroke="#000000" stroke-miterlimit="10" d="M234.7,205.3c0.6,0,1.2-0.1,1.6,0c0.9,0.3,2,0.6,2.6,1.3
	c2.4,2.8,4.7,4,8.7,2.3c3.1-1.3,7.4,0.8,8,3.1c0.5,1.7,0.2,3.7,0.2,5.5c-1.2-0.7-2.3-1.5-3.6-2.2c-0.9-0.4-1.8-0.8-2.8-1
	c-3.5-0.7-7.3,1.1-10.8-1c-0.4-0.2-2.7,1.5-3.1,2.7c-1.7,5.2-4,10.4-0.7,15.9c0.5,0.8,0.6,1.9,0.5,2.9c0,0.3-0.8,0.9-1.3,0.9
	c-0.6,0.1-1.8,0-1.9-0.4c-2.1-6.5-4.6-13.3-1-19.9c1.6-3,3.3-5.6,3.2-9.1C234.4,206.1,234.6,205.7,234.7,205.3z"/>
<path fill="none" stroke="#000000" stroke-miterlimit="10" d="M627.8,336.7c2.2-1.7,3.6-4.7,7.2-5.1c2.3-0.2,3.8,0.1,4.3,2.3
	c0.3,1.5,0.4,3,0.8,4.5c2.8,9.9,1.8,11.1-8.3,9.4c-1.7-0.3-3.4-0.7-5.1-1.1c-4.2-1.1-4.9-3.9-1.9-7
	C625.8,338.8,626.7,337.8,627.8,336.7z"/>
<path fill="none" stroke="#000000" stroke-miterlimit="10" d="M140.4,463.6c-2.1-2.9-4.7-6.3-7.1-9.9c-1.6-2.4-0.8-4.3,2.1-6.8
	c3-2.7,5.8-5.5,8.5-8.5c1.6-1.7,2.5-1.1,3.8,0.2c1.3,1.3,0.8,2.1-0.3,3.2c-2.7,2.6-5.2,5.4-8,7.8c-1.5,1.4-1.6,3.3-1,4.3
	c3.3,5.4,6.3,11.2,12.7,13.9c1.9,0.8,3.5,2.1,5.3,3.2c-2.5,2.7-4.4-0.6-6.5-0.7C145.4,470.1,144.1,466,140.4,463.6z"/>
<path fill="none" stroke="#000000" stroke-miterlimit="10" d="M634.2,438.6c2.3,2,0.7,2.6-3,4.2c-4.8,2.2-9.6,4.3-15.2,3.5
	c-1.4-0.2-1.6-0.5-1.5-1.7c0.1-3.4,0.1-6.9,0-10.3c-0.1-2,0.2-4.1,2-4.6c2.1-0.5,4.8-0.6,6.6,0.4C626.5,432.1,629.5,435,634.2,438.6
	z M625.8,437.2c-1.1-1.1-1.7-1.8-2.3-2.3c-2.7-2.2-4.5-1.5-5.6,2.2c-0.4,1.2-0.9,2.3-1.1,3.5c-0.2,1.6,0.7,2.4,2.3,2.1
	c1.5-0.3,3-0.5,4.3-1.1c1.1-0.4,2.6-1,3-2C626.8,439,625.9,437.6,625.8,437.2z"/>
<path fill="none" stroke="#000000" stroke-miterlimit="10" d="M712.7,415.5c-0.1-0.3-1.1-1.5-0.8-2c0.6-1,1.8-2,2.9-2.3
	c2.2-0.5,4.5-0.4,6.8-0.9c1.8-0.3,3.6-1,4.9,0.8c0.5,0.8-2.1,6.1-3.1,6.5C721.1,418.8,715,417.8,712.7,415.5z"/>
<path fill="none" stroke="#000000" stroke-miterlimit="10" d="M697.7,488.6c0-0.1-0.7-1.1-0.5-1.3c0.6-0.7,1.6-1.5,2.4-1.4
	c3.9,0.6,7.8,1.8,11.7,2.1c2.9,0.2,1.9,2.2,1.6,3.1c-0.5,1.7-1.8,3.3-4,2.7C705.1,492.6,700.9,492.5,697.7,488.6z"/>
<path fill="none" stroke="#000000" stroke-miterlimit="10" d="M705.7,346.4c3.2-0.6,6.6-1.5,10-1.8c0.9-0.1,2.2,1.3,2.7,2.4
	c0.2,0.4-0.8,1.7-1.4,2.4c-2.7,3-6.3,3.2-9.9,2.9c-1.1-0.1-2.6-1.1-3-2.1C703.9,349.4,705,348.1,705.7,346.4z"/>
<path fill="none" stroke="#000000" stroke-miterlimit="10" d="M698.5,317.5c1.3-0.6,2.2-1,3.1-1.4c1.8-0.7,3.9-1.1,5.4-2.2
	c1.6-1.2,3.4-2,4.6-0.6c0.8,0.9,0.5,3.2,0,4.6c-0.3,0.8-1.9,1.3-2.9,1.6c-2.6,0.8-5.2,1.6-7.9,2.2c-0.8,0.2-2.5-0.2-2.5-0.5
	C698.1,320.1,698.4,318.8,698.5,317.5z"/>
<path fill="none" stroke="#000000" stroke-miterlimit="10" d="M703.2,471.5c-2-1.8-1.7-3.4,0.1-4.3c2.6-1.3,8.7-0.5,10.6,1.7
	c0.9,1,1.4,2.8,1.2,4.2c-0.3,2.1-2.5,1.8-3.8,1.4C708.2,473.6,705.3,472.3,703.2,471.5z"/>
<path fill="none" stroke="#000000" stroke-miterlimit="10" d="M703.8,442.8c0.3-0.6,0.5-1.8,1.1-2.1c3.3-1.7,6.6-0.1,10,0
	c1.6,0,3,3.2,2.4,5c-0.2,0.7-1.3,1.5-2.1,1.6C711.4,447.7,706.8,445.9,703.8,442.8z"/>
<path fill="none" stroke="#000000" stroke-miterlimit="10" d="M689.3,290.5c2.9-1.3,5.5-2.9,8.3-3.7c2.2-0.7,3,0.5,2.2,2.9
	c-0.5,1.3-0.9,3-1.9,3.7c-1.8,1.2-4,1.9-6.2,2.2c-0.9,0.2-2.5-0.9-3.1-1.8C688.1,293.1,689,291.8,689.3,290.5z"/>
<path fill="none" stroke="#000000" stroke-miterlimit="10" d="M692.9,509.6c-0.7-1.5-1.5-2.6-1.3-3.3c0.2-0.9,1.5-2.2,2.1-2.2
	c3.4,0.5,6.8,1.3,10.1,2.3c0.3,0.1,0.5,2.3,0,2.9c-0.8,1.1-2.4,2.6-3.4,2.4C697.7,511.4,695.2,510.3,692.9,509.6z"/>
<path fill="none" stroke="#000000" stroke-miterlimit="10" d="M645,221.8c1.2-0.5,2.8-1,4.4-1.8c1.1-0.5,2.2-2,3.1-0.3
	c0.6,1,0.9,3,0.3,3.7c-2.1,2.5-4.1,5.3-8.4,4.7c-2.3-0.3-1.8-1.5-1.6-2.4C643.1,224.5,644,223.4,645,221.8z"/>
<path fill="none" stroke="#000000" stroke-miterlimit="10" d="M660.3,240.9c0.6-0.6,1-1.2,1.7-1.6c1.2-0.8,1.9-3.3,3.5-2
	c1.6,1.3,1.5,3.4,0,5.4c-1.5,2-1.9,4.5-5.2,5.3c-2.3,0.5-2.7-0.9-3.6-1.8c-0.3-0.2,0.4-1.7,0.9-2.4
	C658.3,242.7,659.4,241.9,660.3,240.9z"/>
<path fill="none" stroke="#000000" stroke-miterlimit="10" d="M546.1,76.8c-3.3,3.3-4.7,3.7-7.1,1.9c-0.9-0.7-2.4-1.7-0.8-3
	c1.9-1.6,3.4-3.3,6.1-4.3c2.6-1,3.3,0,4.3,1.3c1.2,1.5-0.7,2.1-1.4,3.1C546.8,76.1,546.4,76.5,546.1,76.8z"/>
<path fill="none" stroke="#000000" stroke-miterlimit="10" d="M625.9,198.4c0.4-0.1,1.8-1,2.5-0.6c1.5,0.9,3.1,2.3,0.9,4.3
	c-0.4,0.4,0,1.6-0.3,2.2c-1.5,2.7-5.3,4.9-7,4.3c-1.4-0.5-0.4-5.4,1.7-8C624.1,200.1,624.7,199.6,625.9,198.4z"/>
<path fill="none" stroke="#000000" stroke-miterlimit="10" d="M675.2,262.2c0.2-0.1,1.5-1,2.9-1.5c1.6-0.6,3.4-0.8,5.1-1.2
	c-0.7,2-1.3,4.1-2.3,5.8c-0.6,1-1.9,1.6-3.1,2c-1.8,0.7-3.8,2.3-5.2-0.6C671.9,265.4,671.9,265.5,675.2,262.2z"/>
<path fill="none" stroke="#000000" stroke-miterlimit="10" d="M253.5,66.8c0.3,1,0.7,2.6,1.2,4.2c0.4,1.1,1,2.2,1.4,3.4
	c0.2,0.8,0.5,1.9,0.2,2.5c-0.8,1.5-2.2,2.2-3.9,1.7c-0.4-0.1-0.9-0.8-1-1.3c-0.5-3.2-0.9-6.5-1.1-9.8c-0.1-0.8,0.4-1.7,0.6-2.5
	C251.5,65.4,252.1,65.8,253.5,66.8z"/>
<path fill="none" stroke="#000000" stroke-miterlimit="10" d="M144.1,150.1c1.5,1.7,3.9,3,3,5.7c-0.4,1.1-1.3,2.2-2.3,2.9
	c-0.4,0.3-1.9-0.6-2.4-1.3c-1-1.4-1.8-2.9-2.3-4.5c-0.4-1.5-1-4-0.2-4.7C142.2,146.1,142.7,149.5,144.1,150.1z"/>
<path fill="none" stroke="#000000" stroke-miterlimit="10" d="M722,375.1c0,1.6,0.2,3.2-0.1,4.7c-0.1,0.4-1.6,0.4-2.1,0.9
	c-1.7,1.9-3.9,0.9-5.8,1.1c-1.6,0.1-2.1-0.9-2.2-2.4c0-1.4,0.3-1.7,1.8-2.3c2.3-1,4.2-2.7,7-2.1C721,375.1,721.5,375,722,375.1z"/>
<path fill="none" stroke="#000000" stroke-miterlimit="10" d="M82.1,248.8c-0.2-0.3-1.3-1.3-1.5-2.4c-0.2-1.1,0.5-2.3,0.8-3.5
	c0.8,0.3,1.8,0.4,2.5,1c1.2,1,2.2,3,3.4,3.1c5,0.4,1.9,2.9,1.2,4.5c-0.4,1-1.6,2.2-3,0.7C84.6,251.2,83.6,250.3,82.1,248.8z"/>
<path fill="none" stroke="#000000" stroke-miterlimit="10" d="M362.5,38.2c-2-2.5-1.5-7.6,0.7-9.2c0.5-0.4,1.5-0.3,2.3-0.2
	c0.5,0.1,1.2,0.7,1.2,1.1c0,2.3,0.1,4.7-0.3,7c-0.1,0.8-1.4,1.6-2.3,2C363.6,39.1,362.8,38.4,362.5,38.2z"/>
<path fill="none" stroke="#000000" stroke-miterlimit="10" d="M606.6,196.2c0-0.3-0.3-1.4,0-2.2c0.6-1.6,1.3-3.1,2.3-4.6
	c0.4-0.6,1.3-0.9,2-1.1c1.7-0.4,1.4,0.9,1.3,1.8c-0.3,2-0.6,3.9-1.1,5.8C610.7,197.4,608.1,197.9,606.6,196.2z"/>
<path fill="none" stroke="#000000" stroke-miterlimit="10" d="M35.4,373.8c-0.4-1.6-1.2-3.2-1-4.7c0.2-1.4,4.7-1.2,7,0.2
	c1,0.6,0.7,3.2-0.6,4.5C40.2,374.6,36.3,374.6,35.4,373.8z"/>
<path fill="none" stroke="#000000" stroke-miterlimit="10" d="M322.3,197.1c-2.1-2.1-2.7-5.1-1.4-5.8c1.2-0.6,3-0.8,4.2-0.3
	c1.8,0.7,1.2,4.3-0.8,5.8C323.7,197.2,322.7,197,322.3,197.1z"/>
<path fill="none" stroke="#000000" stroke-miterlimit="10" d="M99,256.8c0.6,0.1,1.7-0.1,2.6,0.3c2,1,2,3.4,1.3,4.6
	c-0.6,0.9-3.1,1.2-4.6,0.9C96.9,262.2,97.1,259.1,99,256.8z"/>
<path fill="none" stroke="#000000" stroke-miterlimit="10" d="M165.6,472.4c1.2,0.3,2.4,0.4,3,1c1.6,1.7,1.9,4.4,0.4,5.2
	c-1,0.6-2.7,0.8-3.6,0.3c-0.8-0.4-1.1-2.1-1.1-3.3C164.2,474.8,165,473.9,165.6,472.4z"/>
<path fill="none" stroke="#000000" stroke-miterlimit="10" d="M184.5,484.7c0.2,1.8,0.4,3.5,0.7,5.1c-1.5,0.1-2.9,0.2-4.4,0.2
	c0-1.6-0.3-3.4,0.2-4.9C181.2,484.6,183.3,484.8,184.5,484.7z"/>
<path fill="none" stroke="#000000" stroke-miterlimit="10" d="M530.3,86c0.4,0,1.6-0.2,2.3,0.3c2,1.4,2.3,3.4,0.9,5.3
	c-1.3,1.7-2.2,0-3-0.8C529.4,89.5,527,88.5,530.3,86z"/>
<path fill="none" stroke="#000000" stroke-miterlimit="10" d="M171,352.6c-0.7,0.1-2.5,0.7-2.7,0.3c-0.6-1-1-2.5-0.6-3.5
	c0.3-1,1.5-2.1,2.6-2.5c0.5-0.2,1.7,0.9,2.4,1.6C174.4,350.3,171.9,350.9,171,352.6z"/>
<path fill="none" stroke="#000000" stroke-miterlimit="10" d="M177.5,326.4c-1.4-2.7-1.2-4.4,0.6-6.1c1.4-1.3,2.1-0.6,3.2,0.3
	c2.8,2.7-0.5,3.4-1.5,4.7C179.3,326,178.2,326.1,177.5,326.4z"/>
<path fill="none" stroke="#000000" stroke-miterlimit="10" d="M194.8,299.1c0.4-0.1,1.7-1,2.5-0.7c1.5,0.7,1.2,3.4-0.3,5.3
	c-1,1.3-1.9,1.4-3.1,0.2C192,302.2,192,302,194.8,299.1z"/>
<path fill="none" stroke="#000000" stroke-miterlimit="10" d="M523.1,194.2c-1.1-1.1-1.8-1.6-2.2-2.2c-1.1-1.7,0.6-2.4,1.4-3
	c0.5-0.4,1.9-0.2,2.4,0.2c0.7,0.5,1.4,1.6,1.4,2.5c0,1.1-0.7,2.3-1.1,3.4C524.2,194.7,523.3,194.3,523.1,194.2z"/>
<path fill="none" stroke="#000000" stroke-miterlimit="10" d="M436.8,170.1c-0.3,2.1-0.1,3.9-0.8,5.2c-0.3,0.6-2.4,0.4-3.6,0.5
	c0-1.8-0.2-3.7,0.2-5.5C432.5,170.1,434.8,170.2,436.8,170.1z"/>
<path fill="none" stroke="#000000" stroke-miterlimit="10" d="M162.7,392.2c0.4,1.2,1.3,2.4,1.1,3.4c-0.2,1.1-4.3,1.5-4.6,0.3
	c-0.4-1.5,0.1-3.2,0.2-4.8C160.5,391.4,161.5,391.8,162.7,392.2z"/>
<path fill="none" stroke="#000000" stroke-miterlimit="10" d="M160,162.4c-0.5,2.5-0.4,4-1.1,5.1c-0.7,1.2-1.9,2.7-3.6,0.7
	c-0.8-0.9-2.3-1.8-0.7-3C156,164.1,157.6,163.6,160,162.4z"/>
<path fill="none" stroke="#000000" stroke-miterlimit="10" d="M155.2,445.1c2.9,1.3,4.6,1.8,6,2.7c1.6,1,0.6,2-0.3,3.1
	c-1,1.1-2.1,1.7-3.1,0.2C156.9,449.7,156.4,448,155.2,445.1z"/>
<path fill="none" stroke="#000000" stroke-miterlimit="10" d="M358.8,180.5c0.5,0,1.1-0.2,1.5-0.1c1.1,0.4,2.7,0.8,2.9,1.6
	c0.4,1.3,0.8,3.2-1.2,4c-1,0.5-3.1-0.5-3.2-1.6C358.8,183.1,358.8,181.8,358.8,180.5z"/>
<path fill="none" stroke="#000000" stroke-miterlimit="10" d="M301.4,207.2c0.1,1.1,0.2,2.1,0.3,3.2c-1.4,0.1-3.2,0.7-4.2,0.1
	c-2.5-1.4,0.1-3.7,0.5-4.4C299.3,203.9,299.7,207.2,301.4,207.2z"/>
<path fill="none" stroke="#000000" stroke-miterlimit="10" d="M475,174.9c-1.7,2-2.7,2.8-4.2,1c-1-1.1-1.6-1.9-0.3-3.2
	c1.2-1.2,2.4-2.3,3.7-0.2C474.7,173.3,474.8,174.4,475,174.9z"/>
<path fill="none" stroke="#000000" stroke-miterlimit="10" d="M235.6,249.8c0.2,0.1,1.3,0.2,2.1,0.7c2,1.2,1.1,2.4-0.2,3.7
	c-1.3,1.3-2,0.8-3.2-0.2C232.6,252.5,233,251.4,235.6,249.8z"/>
<path fill="none" stroke="#000000" stroke-miterlimit="10" d="M366.9,47.2c2.1,1.7,2.8,2.7,0.9,4.2c-1.2,1-1.9,1.5-3.2,0.2
	c-1.3-1.3-2.2-2.4-0.2-3.7C365.3,47.5,366.4,47.4,366.9,47.2z"/>
<path fill="none" stroke="#000000" stroke-miterlimit="10" d="M207.3,280.3c1.8,1,2.6,1.3,3.2,1.8c1.6,1.2,1.7,3,0.7,4.5
	c-0.3,0.4-3,0.1-3.3-0.5C207.3,284.8,207.5,283,207.3,280.3z"/>
<path fill="none" stroke="#000000" stroke-miterlimit="10" d="M154.9,417.8c0.5-2.2,0.8-3.8,1.2-5.3c0.8,0.3,1.8,0.5,2.5,1
	c1.6,1.2,1.8,3,0.5,4.3C158.6,418.5,156.8,417.9,154.9,417.8z"/>
<path fill="none" stroke="#000000" stroke-miterlimit="10" d="M503,185c-1-0.8-0.7-5.3,0.5-5.7c0.7-0.2,1.7-0.3,2.3,0
	c0.8,0.4,0.9,5.2,0.2,5.4C505,184.9,504,184.9,503,185z"/>
<path fill="none" stroke="#000000" stroke-miterlimit="10" d="M540.9,201.6c1.8,0.3,2.9,0.3,3.8,0.8c0.4,0.2,0.6,1.3,0.6,1.9
	c-0.1,0.9-0.4,2-1,2.7c-0.3,0.4-1.2,0.5-1.8,0.5c-0.5-0.1-1.4-0.5-1.4-0.9C540.9,205,540.9,203.4,540.9,201.6z"/>
<path fill="none" stroke="#000000" stroke-miterlimit="10" d="M256.4,96.9c0.8-1.9,1.1-2.7,1.5-3.4c1.1-1.5,2.4-2.1,3.6-0.2
	c0.5,0.7,0.6,1.7,0.8,2.5C260.7,96.1,259.2,96.4,256.4,96.9z"/>
<path fill="none" stroke="#000000" stroke-miterlimit="10" d="M268.3,218.9c0.6,0.2,1.2,0.3,1.7,0.6c1.9,1.1,2.1,2.9,1.5,4.6
	c-0.1,0.3-2.5-0.1-3.8-0.2C267.9,222.4,268.1,220.8,268.3,218.9z"/>
<path fill="none" stroke="#000000" stroke-miterlimit="10" d="M53.2,370.4c1.5,0,3.1-0.3,3.4,0.2c0.7,1.2,0.9,2.8,1.3,4.2
	c-1.2-0.1-3,0.3-3.6-0.3C53.4,373.6,53.5,371.9,53.2,370.4z"/>
<path fill="none" stroke="#000000" stroke-miterlimit="10" d="M396,170c-0.2,2.1-0.2,3.7-0.5,5.3c0,0.2-1.2,0.2-1.9,0.3
	c-0.1-1.6-0.2-3.2-0.2-4.8C393.4,170.5,394.6,170.4,396,170z"/>
<path fill="none" stroke="#000000" stroke-miterlimit="10" d="M605.3,159.3c2.6-2.6,8.1-2.4,9.8,1.4c1.2,2.5,3.2,2.5,4.5,4
	c2.3,2.6,5.1,4.6,3.2,9c-2,4.8-3.5,6.5-8.9,6.5c-3,0-6.2-0.4-9.1-1.2c-1.3-0.4-2.7-1.8-3.4-3.2C600,173.1,602.8,161.8,605.3,159.3z
	 M614.1,175.5c0.4-0.4,0.7-0.8,1.1-1.1c1.9-1.4,2.7-3.5,1.6-5.4c-0.5-0.9-2.7-0.8-4.2-1.1c-0.5-0.1-1.1,0.1-1.6,0
	c-1.4-0.3-2.8-0.6-4.1-1c0.5,2.2-1,4.6,1.1,6.7c1,1,1.5,2.5,2.4,3.7c0.2,0.3,1.2,0.5,1.4,0.3C612.6,177.1,613.3,176.2,614.1,175.5z"
	/>
</svg>
