<svg xmlns="http://www.w3.org/2000/svg" xmlns:xlink="http://www.w3.org/1999/xlink" version="1.1" x="0px" y="0px" width="100px" height="100px" viewBox="0 0 100 100" enable-background="new 0 0 100 100" xml:space="preserve">
<g id="Captions">
</g>
<g id="Your_Icon">
	<path fill="#000000" d="M36,31.344c0-0.912,0-1.778,0-2.591c-2-1.457-3.401-3.813-3.401-6.475c0-4.416,3.548-8.01,7.964-8.01   c4.418,0,7.881,3.594,7.881,8.01c0,2.662-1.443,5.019-3.443,6.477v2.591c3-1.704,5.632-5.125,5.632-9.067   c0-5.635-4.53-10.219-10.167-10.219c-5.633,0-10.104,4.584-10.104,10.219C30.361,26.22,33,29.641,36,31.344z"/>
	<path fill="#000000" d="M70.07,43.118h-2.762c-0.779,0-1.576,0.188-2.275,0.53c-0.363-2.075-2.178-3.658-4.354-3.658h-2.762   c-0.912,0-1.758,0.278-2.463,0.752c-0.607-1.715-2.246-2.944-4.166-2.944h-2.762c-0.805,0-1.559,0.216-2.209,0.593V22.278   c0-3.198-2.602-5.8-5.801-5.8c-3.197,0-5.799,2.602-5.799,5.8v30.591c-1.24,0.589-2.389,1.381-3.389,2.379l-2.264,2.265   c-4.74,4.739-4.74,12.447,0,17.186l6.309,6.311c0.311,0.31,0.635,0.596,0.971,0.867c2.102,3.621,6.031,6.064,10.525,6.064h15.467   c6.699,0,12.15-5.429,12.15-12.102V47.536C74.488,45.1,72.506,43.118,70.07,43.118z M72.279,75.839   c0,5.454-4.459,9.892-9.941,9.892H46.871c-1.822,0-3.527-0.497-4.996-1.353c-1.219-0.729-2.576-1.788-3.818-3.981   c-0.717-1.365-1.129-2.914-1.129-4.558c0-0.61-0.494-1.105-1.105-1.105c-0.609,0-1.104,0.495-1.104,1.105   c0,0.503,0.035,0.997,0.094,1.482l-4.186-4.186c-3.875-3.876-3.875-10.184,0-14.061l2.264-2.264   c0.559-0.557,1.174-1.029,1.828-1.434v7.567c0,0.611,0.494,1.105,1.104,1.105c0.611,0,1.105-0.494,1.105-1.105V22.278   c0-1.979,1.611-3.591,3.59-3.591c1.98,0,3.592,1.612,3.592,3.591v28.378c0,0.611,0.494,1.105,1.104,1.105s1.105-0.494,1.105-1.105   v-8.44c0-1.217,0.99-2.208,2.209-2.208h2.762c1.219,0,2.209,0.991,2.209,2.208v8.452c0,0.61,0.494,1.104,1.105,1.104   c0.609,0,1.105-0.493,1.105-1.104v-6.259c0-1.217,0.99-2.209,2.209-2.209h2.762c1.217,0,2.209,0.992,2.209,2.209v6.247   c0,0.611,0.496,1.105,1.105,1.105s1.105-0.494,1.105-1.105v-4.005c0-0.644,1.135-1.324,2.209-1.324h2.762   c1.217,0,2.209,0.991,2.209,2.209V75.839z"/>
	<path fill="#000000" d="M58.699,63.889l-3.314-3.313c-0.043-0.043-0.1-0.064-0.148-0.099c-0.067-0.049-0.129-0.105-0.207-0.139   c-0.134-0.056-0.278-0.086-0.426-0.086s-0.292,0.03-0.426,0.086c-0.135,0.056-0.256,0.137-0.356,0.238l-3.313,3.312   c-0.432,0.432-0.432,1.131,0,1.562s0.882,0.432,1.313,0L53,64.023v13.904c0,0.609,0.89,1.104,1.501,1.104   c0.609,0,1.499-0.495,1.499-1.104V64.022l1.281,1.429c0.217,0.216,0.427,0.323,0.708,0.323c0.283,0,0.53-0.107,0.747-0.323   C59.166,65.02,59.129,64.32,58.699,63.889z"/>
</g>
</svg>