<svg xmlns="http://www.w3.org/2000/svg" xmlns:xlink="http://www.w3.org/1999/xlink" version="1.1" x="0px" y="0px" width="100px" height="100px" viewBox="0 0 100 100" enable-background="new 0 0 100 100" xml:space="preserve">
<g id="Captions">
</g>
<g id="Your_Icon">
	<path fill="#000000" d="M31.881,33.879c-2.987-1.11-5.127-3.982-5.127-7.352c0-4.326,3.521-7.847,7.848-7.847   s7.848,3.521,7.848,7.847c0,1.844-0.644,3.538-1.712,4.879l0.667,2.456c1.747-1.621,3.054-3.855,3.297-6.358   C45.35,28.101,46,28.61,47,29.022v-2.534c-2-1.428-3.382-3.736-3.382-6.344c0-4.327,3.452-7.848,7.78-7.848   c4.326,0,7.85,3.521,7.85,7.848c0,2.609-1.248,4.918-3.248,6.346v2.538c3-1.669,5.378-5.021,5.378-8.884   c0-5.521-4.509-10.013-10.03-10.013c-5.191,0-9.479,3.972-9.971,9.037c-1.784-1.642-4.161-2.653-6.771-2.653   c-5.52,0-10.015,4.491-10.015,10.012c0,4.817,3.419,8.849,7.957,9.799L31.881,33.879z"/>
	<path fill="#000000" d="M71.082,45.949h-2.705c-0.811,0-1.576,0.188-2.23,0.512c-0.359-2.028-2.135-3.574-4.266-3.574h-2.705   c-0.787,0-1.527,0.211-2.166,0.581V20.12c0-3.134-2.549-5.683-5.682-5.683s-5.684,2.549-5.684,5.683v25.232L40.127,25.03   c-0.809-3.026-3.928-4.835-6.957-4.022c-3.027,0.81-4.83,3.93-4.021,6.962l6.994,25.667c0.025,0.147,0.115,0.754,0.191,1.925   c-1.17,0.571-2.256,1.327-3.203,2.275l-2.219,2.219c-4.643,4.642-4.643,12.195,0,16.838l6.182,6.183   c0.301,0.3,0.615,0.578,0.941,0.841c2.057,3.554,5.91,5.951,10.316,5.951h15.154c6.564,0,11.906-5.319,11.906-11.857V50.278   C75.412,47.892,73.471,45.949,71.082,45.949z M73.246,78.011c0,5.345-4.369,9.693-9.74,9.693H48.352   c-1.787,0-3.457-0.489-4.898-1.328c-0.914-0.425-2.699-1.958-3.742-3.907c-0.699-1.336-1.102-2.851-1.102-4.458   c0-0.598-0.484-1.083-1.082-1.083s-1.082,0.485-1.082,1.083c0,0.489,0.033,0.972,0.092,1.445l-4.094-4.094   c-3.797-3.798-3.797-9.979,0-13.776l2.219-2.219c0.539-0.539,1.135-0.998,1.768-1.391c0.01,0.471,0.016,0.979,0.016,1.535v5.766   c0,0.598,0.484,1.082,1.082,1.082s1.082-0.484,1.082-1.082v-5.766c0-0.968-0.016-1.803-0.041-2.528   c-0.037-0.919-0.105-1.797-0.121-2.215c-0.086-1.047-0.176-1.53-0.182-1.568c-0.006-0.027-0.012-0.056-0.02-0.082l-7.008-25.713   c-0.5-1.873,0.617-3.805,2.49-4.306c1.875-0.501,3.807,0.616,4.309,2.494l7.646,28.16c0.141,0.523,0.65,0.86,1.188,0.789   c0.537-0.072,0.939-0.531,0.939-1.073V20.12c0-1.939,1.578-3.519,3.518-3.519s3.518,1.579,3.518,3.519v33.228   c0,0.598,0.484,1.083,1.082,1.083c0.6,0,1.082-0.485,1.082-1.083v-6.131c0-1.194,0.973-2.165,2.166-2.165h2.705   c1.193,0,2.166,0.971,2.166,2.165v6.12c0,0.598,0.484,1.082,1.082,1.082s1.082-0.484,1.082-1.082v-3.924   c0-0.511,0.93-1.299,2.166-1.299h2.705c1.193,0,2.164,0.971,2.164,2.164V78.011z"/>
	<path fill="#000000" d="M64.879,72.229c0.018-0.025,0.029-0.053,0.045-0.08c0.02-0.035,0.039-0.068,0.055-0.105   c0.016-0.035,0.023-0.072,0.033-0.108c0.01-0.031,0.021-0.062,0.029-0.094c0.027-0.14,0.027-0.283,0-0.424   c-0.008-0.032-0.02-0.062-0.029-0.094c-0.01-0.036-0.018-0.072-0.033-0.108c-0.016-0.037-0.035-0.07-0.055-0.105   c-0.016-0.026-0.027-0.055-0.045-0.08c-0.039-0.06-0.084-0.116-0.135-0.166l-3.246-3.247c-0.424-0.423-1.109-0.423-1.531,0   c-0.424,0.423-0.424,1.108,0,1.531l1.398,1.399H47.742c-0.598,0-1.082,0.484-1.082,1.082s0.484,1.083,1.082,1.083h13.623   l-1.398,1.399c-0.424,0.423-0.424,1.107,0,1.53c0.211,0.212,0.488,0.317,0.766,0.317s0.553-0.105,0.766-0.317l3.246-3.247   C64.795,72.345,64.84,72.289,64.879,72.229z"/>
</g>
</svg>