<svg xmlns="http://www.w3.org/2000/svg" xmlns:xlink="http://www.w3.org/1999/xlink" version="1.1" x="0px" y="0px" width="100px" height="100px" viewBox="0 0 100 100" enable-background="new 0 0 100 100" xml:space="preserve">
<g id="Captions">
</g>
<g id="Your_Icon">
	<path fill="#000000" d="M57.078,31.046c-0.088-0.509-0.418-0.945-0.885-1.163c-0.213-0.1-0.441-0.15-0.668-0.15   c-0.274,0-0.406,0.071-0.649,0.215C54.87,29.95,55,29.952,55,29.955v4.2c1,2.056,2.082,3.805,3.816,5.093l0.813-3.385   C58.361,34.594,57.398,32.934,57.078,31.046z"/>
	<path fill="#000000" d="M43.768,29.403c-0.484,0.185-0.847,0.597-0.97,1.102c-0.4,1.655-1.244,3.1-2.38,4.231l0.914,3.366   c1.678-1.248,3.135-2.928,3.985-4.913C45.507,33.277,46,33.344,46,33.422v-3.511c0-0.111-0.49-0.207-0.673-0.333   C44.9,29.282,44.251,29.219,43.768,29.403z"/>
	<path fill="#000000" d="M65.864,17.472c-1.434,0-2.857,0.26-4.2,0.762c-1.665-4.782-6.176-8.079-11.389-8.079   c-4.896,0-9.203,2.915-11.08,7.295c-1.578-0.733-3.297-1.114-5.061-1.114c-6.658,0-12.074,5.416-12.074,12.075   c0,6.177,4.665,11.277,10.656,11.983l-0.922-3.382c-3.787-1.031-6.583-4.492-6.583-8.602c0-4.922,4.003-8.926,8.924-8.926   c1.811,0,3.557,0.546,5.051,1.577c0.428,0.292,0.972,0.358,1.456,0.173c0.485-0.184,0.848-0.598,0.97-1.1   c0.973-4.022,4.535-6.83,8.664-6.83c4.359,0,8.056,3.123,8.788,7.426c0.086,0.509,0.417,0.942,0.885,1.162   c0.468,0.219,1.013,0.196,1.458-0.062c1.361-0.792,2.903-1.208,4.458-1.208c4.921,0,8.927,4.003,8.927,8.924   c0,4.136-2.834,7.614-6.66,8.622l-0.903,3.371c6.019-0.68,10.711-5.796,10.711-11.993C77.939,22.889,72.523,17.472,65.864,17.472z"/>
	<path fill="#000000" d="M69.419,47.244h-2.626c-0.002,0-0.004,0-0.004,0l4.369-16.32c0.791-2.937-0.953-5.968-3.889-6.759   c-2.936-0.787-5.967,0.957-6.76,3.9l-4.741,18.163V22.185c0-3.04-2.474-5.513-5.513-5.513s-5.512,2.473-5.512,5.513v24.477   l-5.353-19.713c-0.784-2.936-3.813-4.688-6.749-3.902s-4.688,3.814-3.9,6.755l6.785,24.898c0.023,0.143,0.109,0.73,0.184,1.866   c-1.135,0.555-2.187,1.287-3.107,2.206l-2.152,2.153c-4.502,4.502-4.502,11.83,0,16.334l5.998,5.997   c0.291,0.291,0.597,0.561,0.912,0.816c1.997,3.445,5.733,5.773,10.008,5.773h14.7c6.368,0,11.55-5.16,11.55-11.504V51.44   C73.619,49.125,71.734,47.244,69.419,47.244z M71.52,78.342c0,5.186-4.241,9.403-9.451,9.403h-14.7   c-1.732,0-3.353-0.475-4.75-1.288c-1.488-1.059-2.922-2.243-3.632-3.788c-0.679-1.298-1.068-2.768-1.068-4.327   c0-0.58-0.47-1.05-1.051-1.05c-0.579,0-1.049,0.47-1.049,1.05c0,0.476,0.032,0.943,0.088,1.403l-3.971-3.971   c-3.685-3.686-3.685-9.681,0-13.364l2.152-2.154c0.523-0.521,1.103-0.967,1.716-1.348c0.009,0.456,0.015,0.95,0.015,1.489v5.591   c0,0.581,0.47,1.052,1.049,1.052c0.581,0,1.051-0.471,1.051-1.052v-5.591c0-0.939-0.015-1.748-0.04-2.454   c-0.02-0.79-0.053-1.414-0.118-2.146c-0.083-1.017-0.169-1.486-0.177-1.522c-0.004-0.027-0.011-0.054-0.018-0.079l-6.799-24.941   c-0.484-1.817,0.6-3.693,2.417-4.18c1.817-0.484,3.692,0.599,4.179,2.421l7.418,27.315c0.137,0.509,0.63,0.836,1.151,0.768   c0.521-0.071,0.911-0.516,0.911-1.043V22.185c0-1.88,1.531-3.412,3.412-3.412c1.883,0,3.413,1.532,3.413,3.412v32.223   c0,0.527,0.393,0.975,0.916,1.04c0.526,0.074,1.017-0.267,1.149-0.776l6.807-26.067c0.488-1.816,2.365-2.897,4.182-2.408   c1.817,0.488,2.898,2.363,2.408,4.182L62.75,54.2c-0.15,0.558,0.183,1.134,0.743,1.284c0.56,0.15,1.136-0.182,1.285-0.741   l1.131-4.221c0.316-1.18,0.713-1.18,0.884-1.18h2.626c1.157,0,2.1,0.941,2.1,2.098V78.342z"/>
	<path fill="#000000" d="M54.454,83.922c-5.79,0-10.5-4.709-10.5-10.5c0-5.788,4.71-10.498,10.5-10.498s10.501,4.71,10.501,10.498   C64.955,79.213,60.244,83.922,54.454,83.922z M54.454,65.022c-4.632,0-8.4,3.768-8.4,8.399s3.769,8.4,8.4,8.4s8.4-3.769,8.4-8.4   S59.085,65.022,54.454,65.022z"/>
	<path fill="#000000" d="M58.982,65.022h-9.057c-1.646,0-2.985-1.34-2.985-2.985c0-1.647,1.34-2.986,2.985-2.986h9.057   c1.646,0,2.986,1.339,2.986,2.986C61.968,63.683,60.628,65.022,58.982,65.022z M49.925,61.15c-0.488,0-0.885,0.397-0.885,0.887   c0,0.486,0.396,0.887,0.885,0.887h9.057c0.489,0,0.887-0.4,0.887-0.887c0-0.489-0.397-0.887-0.887-0.887H49.925z"/>
	<path fill="#000000" d="M54.454,74.472c-0.579,0-1.05-0.47-1.05-1.05v-9.449c0-0.581,0.471-1.049,1.05-1.049   c0.58,0,1.05,0.468,1.05,1.049v9.449C55.503,74.002,55.034,74.472,54.454,74.472z"/>
	<path fill="#000000" d="M63.904,74.472h-9.45c-0.579,0-1.05-0.47-1.05-1.05c0-0.579,0.471-1.049,1.05-1.049h9.45   c0.58,0,1.051,0.47,1.051,1.049C64.955,74.002,64.484,74.472,63.904,74.472z"/>
</g>
</svg>