<svg xmlns="http://www.w3.org/2000/svg" xmlns:xlink="http://www.w3.org/1999/xlink" version="1.1" x="0px" y="0px" width="100px" height="100px" viewBox="0 0 100 100" enable-background="new 0 0 100 100" xml:space="preserve">
<g id="Captions">
</g>
<g id="Your_Icon">
	<path fill="#000000" d="M66.162,18.066c-2.26,0-4.339,0.771-6.007,2.051c-0.207-5.275-4.551-9.504-9.874-9.504   c-5.101,0-9.311,3.88-9.837,8.845c-1.753-1.579-4.065-2.55-6.606-2.55c-5.456,0-9.895,4.438-9.895,9.895   c0,4.722,3.325,8.674,7.754,9.655l-0.663-2.432c-2.893-1.128-4.952-3.938-4.952-7.224c0-4.275,3.479-7.756,7.755-7.756   c3.122,0,5.811,1.858,7.04,4.522c0.108,0.331,0.235,0.652,0.376,0.968c0.219,0.717,0.339,1.478,0.339,2.266   c0,1.867-0.664,3.582-1.767,4.922l0.653,2.405c1.752-1.591,3.075-3.799,3.337-6.278C44.432,28.405,45,28.879,46,29.268v-2.523   c-1-0.778-2.064-1.805-2.619-3.01c-0.107-0.328-0.304-0.647-0.443-0.959c-0.22-0.718-0.375-1.479-0.375-2.268   c0-4.277,3.46-7.756,7.737-7.756s7.746,3.479,7.746,7.756c0,0.87-0.154,1.703-0.42,2.484c-0.287,0.493-0.438,1.013-0.638,1.555   C56.448,25.424,56,26.182,55,26.784v2.503c0-0.271,0.922-0.582,1.385-0.938c0.107,2.735,1.284,5.184,3.177,6.913l0.608-2.419   c-1.085-1.335-1.751-3.033-1.751-4.883c0-0.87,0.145-1.705,0.411-2.486c0.287-0.492,0.527-1.01,0.728-1.551   c1.364-2.225,3.812-3.717,6.606-3.717c4.276,0,7.754,3.479,7.754,7.754c0,3.317-2.1,6.148-5.036,7.254l-0.648,2.419   c4.465-0.956,7.823-4.929,7.823-9.673C76.057,22.506,71.618,18.066,66.162,18.066z"/>
	<path fill="#000000" d="M69.783,45.988h-2.674c-0.002,0-0.005,0-0.007,0l4.453-16.625c0.805-2.99-0.974-6.078-3.963-6.883   c-2.989-0.803-6.079,0.973-6.885,3.973l-4.831,18.502V20.463c0-3.098-2.52-5.617-5.614-5.617c-3.098,0-5.616,2.52-5.616,5.617   v24.934l-5.453-20.082c-0.8-2.992-3.884-4.775-6.876-3.975c-2.99,0.799-4.774,3.883-3.973,6.879l6.912,25.365   c0.023,0.146,0.112,0.744,0.187,1.9c-1.155,0.566-2.228,1.314-3.164,2.25l-2.192,2.191c-4.589,4.588-4.589,12.053,0,16.641   l6.109,6.109c0.297,0.295,0.607,0.572,0.929,0.832c2.034,3.51,5.841,5.879,10.195,5.879h14.975c6.489,0,11.767-5.256,11.767-11.717   V50.266C74.062,47.906,72.143,45.988,69.783,45.988z M71.922,77.67c0,5.281-4.317,9.578-9.627,9.578H47.32   c-1.765,0-3.415-0.482-4.839-1.311c-1.517-1.078-2.977-2.287-3.7-3.861c-0.691-1.32-1.089-2.816-1.089-4.406   c0-0.592-0.479-1.07-1.069-1.07s-1.069,0.479-1.069,1.07c0,0.482,0.033,0.959,0.091,1.43l-4.046-4.047   c-3.753-3.754-3.753-9.859,0-13.615l2.193-2.191c0.532-0.531,1.122-0.986,1.747-1.373c0.009,0.465,0.015,0.967,0.015,1.518v5.695   c0,0.592,0.479,1.07,1.069,1.07s1.069-0.479,1.069-1.07v-5.695c0-0.957-0.015-1.783-0.04-2.5c-0.021-0.807-0.054-1.441-0.12-2.189   c-0.084-1.033-0.173-1.512-0.18-1.549c-0.006-0.027-0.012-0.055-0.019-0.082l-6.925-25.408c-0.495-1.852,0.609-3.762,2.461-4.256   s3.762,0.609,4.258,2.465l7.556,27.828c0.141,0.518,0.642,0.85,1.174,0.779c0.531-0.07,0.928-0.523,0.928-1.061V20.463   c0-1.918,1.56-3.477,3.478-3.477c1.916,0,3.476,1.559,3.476,3.477v32.824c0,0.537,0.399,0.992,0.934,1.061   c0.535,0.074,1.034-0.271,1.171-0.791L62.775,27c0.499-1.852,2.41-2.951,4.261-2.453c1.852,0.498,2.952,2.41,2.453,4.262   L62.99,53.076c-0.153,0.57,0.186,1.156,0.756,1.309c0.571,0.154,1.158-0.186,1.31-0.756l1.152-4.299   c0.321-1.203,0.728-1.203,0.901-1.203h2.674c1.179,0,2.139,0.959,2.139,2.139V77.67z"/>
	<path fill="#000000" d="M62.837,70.293H49.375l1.382-1.383c0.419-0.418,0.419-1.094,0-1.512c-0.418-0.418-1.094-0.418-1.512,0   l-3.206,3.205c-0.051,0.051-0.096,0.105-0.137,0.166c-0.003,0.004-0.004,0.008-0.007,0.014c-0.034,0.053-0.066,0.109-0.092,0.17   c-0.004,0.012-0.006,0.025-0.012,0.037c-0.02,0.053-0.037,0.105-0.049,0.162c-0.011,0.059-0.017,0.121-0.018,0.182   c-0.001,0.01-0.003,0.018-0.003,0.029l0,0l0,0c0,0.07,0.008,0.143,0.021,0.211c0.009,0.039,0.022,0.074,0.033,0.111   c0.01,0.029,0.016,0.061,0.028,0.09c0.016,0.037,0.038,0.07,0.058,0.105c0.015,0.025,0.024,0.053,0.041,0.078   c0.024,0.035,0.053,0.064,0.08,0.096c0.019,0.021,0.033,0.045,0.053,0.064l3.209,3.209c0.209,0.209,0.482,0.312,0.756,0.312   s0.547-0.104,0.756-0.312c0.419-0.418,0.419-1.096,0-1.512l-1.383-1.385h13.463c0.591,0,1.069-0.479,1.069-1.068   C63.906,70.771,63.428,70.293,62.837,70.293z"/>
</g>
</svg>