<svg xmlns="http://www.w3.org/2000/svg" xmlns:xlink="http://www.w3.org/1999/xlink" version="1.1" x="0px" y="0px" width="100px" height="100px" viewBox="0 0 100 100" enable-background="new 0 0 100 100" xml:space="preserve">
<g id="Captions">
</g>
<g id="Your_Icon">
	<path fill="#000000" d="M21.357,60.603c-3.823-0.785-6.707-4.176-6.707-8.226c0-4.631,3.768-8.398,8.398-8.398   c4.629,0,8.396,3.768,8.396,8.398c0,1.574-0.444,3.044-1.201,4.305l0.995,2.243c1.44-1.797,2.307-4.071,2.307-6.548   c0-5.787-4.709-10.496-10.496-10.496c-5.789,0-10.497,4.709-10.497,10.496c0,5.551,4.335,10.098,9.797,10.461L21.357,60.603z"/>
	<path fill="#000000" d="M77.734,30.248c-1.27,0-2.479,0.252-3.591,0.696c0.228-0.823,0.358-1.685,0.358-2.579   c0-5.355-4.359-9.713-9.715-9.713c-2.219,0-4.26,0.756-5.896,2.014c-0.203-5.178-4.467-9.33-9.693-9.33   c-5.007,0-9.14,3.81-9.657,8.683c-1.722-1.549-3.991-2.501-6.484-2.501c-5.355,0-9.713,4.355-9.713,9.711   c0,4.634,3.264,8.514,7.612,9.478l-0.65-2.387c-2.84-1.106-4.861-3.864-4.861-7.091c0-4.197,3.415-7.611,7.612-7.611   c3.059,0,5.696,1.817,6.905,4.426c0.108,0.331,0.235,0.653,0.377,0.969c0.214,0.702,0.332,1.445,0.332,2.217   c0,1.833-0.652,3.517-1.735,4.832l0.641,2.36c1.72-1.561,3.021-3.728,3.279-6.16C43.459,28.805,44,29.27,45,29.651v-2.478   c-1-0.764-2.025-1.769-2.57-2.95c-0.105-0.324-0.301-0.641-0.439-0.949c-0.216-0.704-0.369-1.451-0.369-2.226   c0-4.195,3.396-7.611,7.594-7.611c4.199,0,7.604,3.416,7.604,7.611c0,0.854-0.151,1.672-0.411,2.438   c-0.283,0.484-0.346,0.995-0.543,1.528C55.336,25.877,54,26.62,54,27.212v2.459c0-0.267,0.82-0.573,1.275-0.922   c0.105,2.685,1.218,5.088,3.074,6.785l0.576-2.376c-1.064-1.31-1.728-2.977-1.728-4.793c0-0.854,0.136-1.674,0.397-2.44   c0.281-0.483,0.515-0.991,0.711-1.522c1.34-2.184,3.739-3.648,6.483-3.648c4.197,0,7.611,3.414,7.611,7.611   c0,3.259-2.061,6.036-4.943,7.121l-0.636,2.368c0.536-0.117,1.059-0.271,1.56-0.472c-0.228,0.822-0.358,1.686-0.358,2.58   c0,1.566,0.382,3.043,1.043,4.354l1.434-2.001c-0.242-0.742-0.377-1.531-0.377-2.354c0-4.199,3.416-7.615,7.611-7.615   c4.199,0,7.613,3.63,7.613,7.829c0,4.195-3.414,7.823-7.613,7.823c-0.007,0-0.013,0-0.02,0l-1.421,1.77   c0.472,0.07,0.95,0.012,1.44,0.012c5.357,0,9.713-4.409,9.713-9.765C87.447,34.659,83.092,30.248,77.734,30.248z"/>
	<path fill="#000000" d="M83.125,39.053c-0.24-1.453-1.031-2.725-2.227-3.582c-2.473-1.771-5.924-1.199-7.693,1.27l-7.98,11.133   l4.857-18.131c0.789-2.936-0.955-5.965-3.891-6.754s-5.967,0.955-6.758,3.898l-4.742,18.162V21.006   c0-3.041-2.473-5.514-5.513-5.514c-3.039,0-5.512,2.473-5.512,5.514v24.477L38.314,25.77c-0.784-2.938-3.812-4.689-6.749-3.902   c-2.936,0.783-4.688,3.811-3.9,6.754l6.785,24.896c0.042,0.258,0.293,1.953,0.293,5.699v1.908l-1.658-0.633l-4.67-10.52   c-0.945-2.135-3.065-3.514-5.4-3.514c-0.827,0-1.632,0.17-2.391,0.508c-2.979,1.32-4.326,4.816-3.006,7.795l5.178,11.67   c1.791,4.213,4.979,8.047,6.58,9.648l5.998,5.996c0.289,0.289,0.596,0.561,0.91,0.816c1.998,3.445,5.733,5.771,10.009,5.771h14.7   c6.369,0,11.551-5.16,11.551-11.502v-20.57l9.623-13.43C83.023,41.967,83.365,40.508,83.125,39.053z M80.459,41.938l-9.82,13.703   c-0.127,0.18-0.197,0.395-0.197,0.615v20.906c0,5.184-4.238,9.402-9.449,9.402h-14.7c-1.732,0-3.353-0.475-4.749-1.287   c-1.623-0.988-3.065-2.482-3.633-3.789c-0.679-1.297-1.068-2.766-1.068-4.326c0-0.58-0.471-1.049-1.051-1.049   c-0.579,0-1.049,0.469-1.049,1.049c0,0.475,0.031,0.941,0.088,1.402l-3.971-3.971c-1.936-1.938-4.682-5.574-6.139-9l-5.185-11.686   c-0.85-1.918,0.019-4.17,1.938-5.02c0.491-0.219,1.009-0.33,1.54-0.33c1.504,0,2.872,0.889,3.481,2.266l4.846,10.92   c0.114,0.258,0.325,0.455,0.586,0.555l2.815,1.074v1.436c0,0.582,0.47,1.051,1.049,1.051c0.58,0,1.051-0.469,1.051-1.051v-5.592   c0-4.312-0.32-6.051-0.335-6.121c-0.005-0.027-0.011-0.055-0.019-0.08l-6.797-24.943c-0.486-1.818,0.598-3.689,2.415-4.178   c1.818-0.482,3.694,0.598,4.179,2.42l7.418,27.318c0.137,0.508,0.627,0.834,1.152,0.764c0.521-0.068,0.91-0.514,0.91-1.041v-32.35   c0-1.883,1.531-3.414,3.412-3.414c1.883,0,3.414,1.531,3.414,3.414v32.219c0,0.531,0.391,0.975,0.916,1.043   c0.52,0.068,1.018-0.266,1.15-0.775l6.805-26.07c0.488-1.816,2.369-2.893,4.184-2.408c1.816,0.49,2.896,2.367,2.408,4.184   l-6.35,23.705c-0.131,0.49,0.105,1.004,0.564,1.221s1.006,0.076,1.303-0.336l11.34-15.824c1.096-1.529,3.232-1.883,4.762-0.785   c0.742,0.531,1.23,1.318,1.381,2.219C81.201,40.295,80.99,41.197,80.459,41.938z"/>
	<path fill="#000000" d="M57.469,60.294l-3.145-3.145c-0.189-0.193-0.455-0.315-0.748-0.315c-0.273,0-0.521,0.107-0.709,0.279   c-0.01,0.01-0.023,0.019-0.033,0.028l-3.15,3.152c-0.41,0.41-0.41,1.074,0,1.484c0.205,0.204,0.474,0.306,0.743,0.306   c0.268,0,0.536-0.102,0.741-0.306l1.359-1.359v5.341c0,0.58,0.469,1.05,1.049,1.05s1.051-0.47,1.051-1.05v-5.339l1.355,1.357   c0.41,0.409,1.074,0.409,1.486,0C57.879,61.368,57.879,60.704,57.469,60.294z"/>
	<path fill="#000000" d="M45.286,63.801h1.918c0.58,0,1.051-0.47,1.051-1.05c0-0.579-0.471-1.048-1.051-1.048H42.76   c-0.207-0.003-0.414,0.057-0.593,0.175c-0.036,0.023-0.067,0.054-0.1,0.081c-0.021,0.018-0.042,0.031-0.061,0.05c0,0,0,0-0.001,0   l0,0c-0.05,0.051-0.094,0.106-0.133,0.163c-0.012,0.018-0.018,0.036-0.028,0.055c-0.024,0.041-0.05,0.083-0.067,0.128   c-0.007,0.015-0.008,0.028-0.014,0.044c-0.041,0.112-0.064,0.231-0.064,0.353v4.456c0,0.579,0.471,1.048,1.05,1.048   c0.581,0,1.051-0.469,1.051-1.048l-0.001-1.921l3.776,3.777c0.205,0.202,0.474,0.306,0.742,0.306s0.538-0.104,0.743-0.306   c0.409-0.41,0.409-1.075,0-1.485L45.286,63.801z"/>
	<path fill="#000000" d="M46.922,72.543h-5.338l1.355-1.356c0.41-0.409,0.41-1.074,0-1.483c-0.41-0.41-1.075-0.41-1.484,0   l-3.145,3.144c-0.1,0.097-0.179,0.215-0.233,0.347c-0.001,0.002-0.001,0.006-0.003,0.009c-0.024,0.06-0.044,0.122-0.057,0.185   c-0.01,0.05-0.012,0.101-0.015,0.15c-0.001,0.02-0.007,0.038-0.007,0.058v0.002l0,0c0,0.068,0.009,0.139,0.021,0.206   c0.006,0.029,0.018,0.055,0.025,0.082c0.012,0.038,0.021,0.078,0.035,0.116c0.012,0.024,0.027,0.047,0.039,0.071   c0.02,0.037,0.037,0.076,0.06,0.109c0.001,0.002,0.005,0.004,0.007,0.007c0.035,0.054,0.076,0.103,0.121,0.147l3.15,3.149   c0.205,0.207,0.473,0.309,0.742,0.309c0.268,0,0.537-0.102,0.742-0.309c0.41-0.409,0.41-1.075,0-1.484l-1.357-1.358h5.34   c0.579,0,1.05-0.469,1.05-1.05C47.972,73.014,47.501,72.543,46.922,72.543z"/>
	<path fill="#000000" d="M63.189,65.286l-0.002,1.921c0,0.579,0.471,1.048,1.051,1.048s1.051-0.469,1.051-1.048v-4.456   c0-0.121-0.025-0.24-0.066-0.353c-0.004-0.016-0.006-0.029-0.012-0.044c-0.02-0.045-0.043-0.087-0.068-0.128   c-0.01-0.019-0.018-0.037-0.029-0.055c-0.037-0.057-0.082-0.112-0.131-0.163l0,0c-0.002,0-0.002,0-0.002,0   c-0.018-0.019-0.039-0.032-0.061-0.05c-0.031-0.027-0.064-0.058-0.1-0.081c-0.178-0.118-0.387-0.178-0.592-0.175h-4.445   c-0.578,0-1.049,0.469-1.049,1.048c0,0.58,0.471,1.05,1.049,1.05h1.918l-3.773,3.777c-0.41,0.41-0.41,1.075,0,1.485   c0.205,0.202,0.473,0.306,0.742,0.306s0.537-0.104,0.742-0.306L63.189,65.286z"/>
	<path fill="#000000" d="M68.869,74.072c0.014-0.024,0.029-0.047,0.039-0.071c0.016-0.038,0.025-0.078,0.035-0.116   c0.01-0.027,0.02-0.053,0.025-0.082c0.016-0.067,0.021-0.138,0.021-0.206l0,0v-0.002c0-0.02-0.004-0.038-0.006-0.058   c-0.004-0.05-0.004-0.101-0.016-0.15c-0.012-0.062-0.031-0.125-0.055-0.185c-0.002-0.003-0.002-0.007-0.004-0.009   c-0.055-0.132-0.133-0.25-0.234-0.347l-3.143-3.144c-0.41-0.41-1.076-0.41-1.486,0c-0.408,0.409-0.408,1.074,0,1.483l1.357,1.356   h-5.338c-0.58,0-1.051,0.471-1.051,1.05c0,0.581,0.471,1.05,1.051,1.05h5.34l-1.359,1.358c-0.408,0.409-0.408,1.075,0,1.484   c0.207,0.207,0.475,0.309,0.744,0.309c0.268,0,0.537-0.102,0.742-0.309l3.148-3.149c0.047-0.045,0.086-0.094,0.123-0.147   c0.002-0.003,0.004-0.005,0.008-0.007C68.834,74.148,68.852,74.109,68.869,74.072z"/>
</g>
</svg>