<svg xmlns="http://www.w3.org/2000/svg" xmlns:xlink="http://www.w3.org/1999/xlink" version="1.1" x="0px" y="0px" width="100px" height="100px" viewBox="0 0 100 100" enable-background="new 0 0 100 100" xml:space="preserve">
<g id="Captions">
</g>
<g id="Your_Icon">
	<path fill="#000000" d="M69.075,31.227h-2.624c-0.74,0-1.498,0.18-2.163,0.504c-0.345-1.972-2.07-3.476-4.138-3.476h-2.625   c-0.865,0-1.672,0.267-2.342,0.717c-0.576-1.632-2.135-2.801-3.959-2.801H48.6c-1.658,0-3.098,0.969-3.778,2.366   c-0.702-0.526-1.575-0.841-2.521-0.841h-2.626c-2.316,0-4.198,1.881-4.198,4.199v8.602c-1.18,0.562-2.272,1.312-3.222,2.262   l-2.152,2.15c-4.505,4.505-4.505,11.831,0,16.336l5.997,5.996c0.295,0.294,0.604,0.566,0.922,0.825   c2,3.442,5.733,5.763,10.003,5.763h14.701c6.368,0,11.55-5.159,11.55-11.501V35.427C73.275,33.11,71.391,31.227,69.075,31.227z    M71.176,62.328c0,5.184-4.24,9.402-9.45,9.402H47.024c-1.73,0-3.35-0.475-4.748-1.287c-1.77-1.055-3.018-2.477-3.63-3.783   c-0.681-1.297-1.072-2.77-1.072-4.332c0-0.58-0.469-1.05-1.049-1.05s-1.049,0.47-1.049,1.05c0,0.478,0.032,0.946,0.089,1.408   l-3.978-3.978c-3.684-3.685-3.684-9.679,0-13.364l2.151-2.151c0.528-0.529,1.114-0.979,1.737-1.361v8.045   c0,0.579,0.469,1.05,1.049,1.05s1.049-0.471,1.049-1.05V31.896c0-1.158,0.943-2.101,2.101-2.101h2.626   c1.157,0,2.098,0.942,2.098,2.101c0,0.581,0.473,1.05,1.052,1.05s1.051-0.469,1.051-1.05v-1.524c0-1.159,0.94-2.101,2.099-2.101   h2.625c1.158,0,2.101,0.941,2.101,2.101v2.085c0,0.579,0.47,1.05,1.05,1.05s1.05-0.471,1.05-1.05c0-1.157,0.941-2.1,2.101-2.1   h2.625c1.158,0,2.1,0.942,2.1,2.1v2.13c0,0.58,0.471,1.051,1.051,1.051c0.579,0,1.049-0.471,1.049-1.051   c0-0.613,1.08-1.26,2.102-1.26h2.624c1.158,0,2.101,0.941,2.101,2.101V62.328z"/>
	<path fill="#000000" d="M56.633,45.984l-1.358,1.354V42c0-0.579-0.469-1.051-1.049-1.051s-1.05,0.472-1.05,1.051v5.341   l-1.357-1.356c-0.41-0.411-1.075-0.411-1.485,0c-0.411,0.408-0.411,1.074,0,1.483l3.15,3.148c0.045,0.048,0.095,0.087,0.147,0.125   c0.002,0.002,0.004,0.005,0.008,0.006c0.034,0.021,0.072,0.04,0.108,0.06c0.025,0.012,0.048,0.026,0.074,0.036   c0.034,0.018,0.074,0.026,0.113,0.039c0.027,0.006,0.054,0.018,0.081,0.024c0.07,0.014,0.138,0.02,0.21,0.02l0,0l0,0   c0.02,0,0.037-0.005,0.057-0.006c0.051-0.003,0.101-0.004,0.15-0.014c0.063-0.015,0.126-0.033,0.184-0.059   c0.004-0.002,0.008-0.002,0.011-0.003c0.131-0.052,0.249-0.133,0.347-0.232l3.143-3.145c0.412-0.409,0.412-1.073,0-1.483   C57.707,45.573,57.042,45.573,56.633,45.984z"/>
	<path fill="#000000" d="M48.888,52.833c0.007-0.015,0.008-0.028,0.014-0.044c0.042-0.114,0.066-0.231,0.066-0.354l-0.002-4.454   c0-0.58-0.469-1.05-1.051-1.05c-0.58,0-1.048,0.47-1.048,1.05l0.001,1.92l-3.778-3.776c-0.411-0.41-1.074-0.41-1.485,0   c-0.41,0.411-0.41,1.074,0,1.486l3.776,3.773h-1.919c-0.58,0-1.05,0.472-1.05,1.051s0.47,1.05,1.05,1.05h4.444   c0.002,0,0.006,0,0.006,0c0.208,0,0.41-0.058,0.587-0.175c0.035-0.024,0.066-0.056,0.099-0.083   c0.021-0.017,0.043-0.032,0.061-0.049l0,0l0,0c0.052-0.051,0.096-0.105,0.133-0.164c0.011-0.016,0.019-0.035,0.029-0.054   C48.845,52.92,48.869,52.878,48.888,52.833z"/>
	<path fill="#000000" d="M47.566,58.703c-0.003-0.05-0.005-0.101-0.017-0.15c-0.01-0.062-0.03-0.125-0.054-0.185   c-0.002-0.003-0.002-0.007-0.005-0.009c-0.054-0.132-0.133-0.25-0.234-0.347l-3.143-3.144c-0.41-0.41-1.075-0.41-1.485,0   c-0.409,0.409-0.409,1.074,0,1.483l1.357,1.356h-5.337c-0.582,0-1.052,0.471-1.052,1.05c0,0.581,0.47,1.05,1.052,1.05h5.339   l-1.359,1.358c-0.409,0.409-0.409,1.075,0,1.484c0.206,0.207,0.475,0.309,0.741,0.309c0.27,0,0.54-0.102,0.744-0.309l3.151-3.149   c0.044-0.045,0.084-0.094,0.121-0.147c0.002-0.003,0.006-0.005,0.006-0.007c0.023-0.033,0.041-0.072,0.059-0.109   c0.013-0.024,0.028-0.047,0.04-0.071c0.015-0.038,0.022-0.078,0.035-0.116c0.008-0.027,0.018-0.053,0.023-0.082   c0.016-0.067,0.022-0.138,0.022-0.206l0,0v-0.002C47.572,58.741,47.567,58.723,47.566,58.703z"/>
	<path fill="#000000" d="M60.37,53.485c0,0,0.009,0,0.011,0h4.444c0.58,0,1.051-0.471,1.051-1.05s-0.471-1.051-1.051-1.051h-1.919   l3.776-3.773c0.409-0.412,0.409-1.075,0-1.486c-0.41-0.41-1.076-0.41-1.486,0l-3.776,3.776v-1.92c0-0.58-0.469-1.05-1.05-1.05   c-0.58,0-1.049,0.47-1.049,1.05l-0.002,4.454c0,0.122,0.026,0.239,0.065,0.354c0.005,0.016,0.008,0.029,0.013,0.044   c0.021,0.045,0.044,0.087,0.069,0.128c0.01,0.019,0.018,0.038,0.028,0.054c0.038,0.059,0.083,0.113,0.132,0.164h0.001l0,0   c0.019,0.017,0.041,0.032,0.062,0.049c0.032,0.027,0.063,0.059,0.1,0.083C59.964,53.428,60.167,53.485,60.37,53.485z"/>
	<path fill="#000000" d="M69.639,57.709h-5.337l1.355-1.356c0.41-0.409,0.41-1.074,0-1.483c-0.41-0.41-1.073-0.41-1.483,0   l-3.146,3.144c-0.1,0.097-0.18,0.215-0.233,0.347c-0.002,0.002-0.002,0.006-0.004,0.009c-0.023,0.06-0.042,0.122-0.055,0.185   c-0.01,0.05-0.013,0.101-0.016,0.15c0,0.02-0.006,0.038-0.006,0.058v0.002l0,0c0,0.068,0.008,0.139,0.021,0.206   c0.006,0.029,0.016,0.055,0.025,0.082c0.01,0.038,0.02,0.078,0.034,0.116c0.013,0.024,0.025,0.047,0.04,0.071   c0.018,0.037,0.036,0.076,0.059,0.109c0.002,0.002,0.004,0.004,0.006,0.007c0.036,0.054,0.077,0.103,0.123,0.147l3.15,3.149   c0.203,0.207,0.472,0.309,0.741,0.309s0.537-0.102,0.742-0.309c0.41-0.409,0.41-1.075,0-1.484L64.3,59.809h5.339   c0.581,0,1.05-0.469,1.05-1.05C70.688,58.18,70.22,57.709,69.639,57.709z"/>
</g>
</svg>