<svg xmlns="http://www.w3.org/2000/svg" xmlns:xlink="http://www.w3.org/1999/xlink" version="1.1" x="0px" y="0px" width="100px" height="100px" viewBox="0 0 100 100" enable-background="new 0 0 100 100" xml:space="preserve">
<g id="Captions">
</g>
<g id="Your_Icon">
	<path fill="#000000" d="M31.88,33.878c-2.988-1.109-5.125-3.981-5.125-7.351c0-4.327,3.52-7.848,7.848-7.848   c4.326,0,7.848,3.521,7.848,7.848c0,1.844-0.644,3.538-1.712,4.879l0.667,2.455c1.746-1.621,3.053-3.854,3.297-6.357   C45.35,28.101,46,28.61,47,29.022v-2.535c-2-1.428-3.383-3.736-3.383-6.343c0-4.327,3.454-7.848,7.779-7.848   c4.328,0,7.85,3.521,7.85,7.848c0,2.607-1.246,4.917-3.246,6.345v2.539c3-1.67,5.378-5.021,5.378-8.884   c0-5.521-4.511-10.013-10.032-10.013c-5.189,0-9.478,3.972-9.971,9.036c-1.783-1.641-4.16-2.652-6.769-2.652   c-5.521,0-10.016,4.491-10.016,10.012c0,4.817,3.418,8.848,7.957,9.799L31.88,33.878z"/>
	<path fill="#000000" d="M71.082,45.949h-2.707c-0.809,0-1.574,0.188-2.23,0.512c-0.357-2.028-2.135-3.574-4.264-3.574h-2.707   c-0.787,0-1.527,0.211-2.164,0.581V20.12c0-3.134-2.549-5.683-5.684-5.683c-3.132,0-5.681,2.549-5.681,5.683v25.232L40.127,25.03   c-0.809-3.026-3.93-4.835-6.957-4.022c-3.027,0.81-4.832,3.93-4.021,6.962l6.994,25.667c0.023,0.147,0.113,0.754,0.189,1.925   c-1.17,0.571-2.254,1.327-3.201,2.275l-2.219,2.219c-4.643,4.642-4.643,12.195,0,16.838l6.182,6.183   c0.299,0.299,0.613,0.578,0.939,0.841c2.059,3.554,5.91,5.951,10.316,5.951h15.154c6.566,0,11.906-5.319,11.906-11.857V50.278   C75.41,47.892,73.469,45.949,71.082,45.949z M73.246,78.011c0,5.345-4.369,9.692-9.742,9.692H48.35   c-1.785,0-3.455-0.488-4.896-1.327c-0.914-0.425-2.701-1.958-3.744-3.907c-0.699-1.336-1.1-2.851-1.1-4.458   c0-0.598-0.486-1.083-1.084-1.083s-1.082,0.485-1.082,1.083c0,0.489,0.035,0.971,0.092,1.445l-4.094-4.094   c-3.797-3.798-3.797-9.979,0-13.776l2.219-2.219c0.541-0.539,1.137-0.998,1.77-1.391c0.008,0.471,0.014,0.979,0.014,1.535v5.766   c0,0.598,0.484,1.082,1.082,1.082s1.084-0.484,1.084-1.082v-5.766c0-0.968-0.018-1.803-0.043-2.528   c-0.035-0.919-0.104-1.797-0.121-2.215c-0.086-1.047-0.174-1.53-0.182-1.568c-0.006-0.028-0.012-0.056-0.02-0.082l-7.006-25.713   c-0.502-1.873,0.617-3.805,2.49-4.306s3.807,0.616,4.309,2.494l7.645,28.16c0.143,0.523,0.65,0.86,1.188,0.789   c0.539-0.072,0.939-0.531,0.939-1.073V20.12c0-1.94,1.578-3.519,3.517-3.519c1.941,0,3.52,1.578,3.52,3.519v33.228   c0,0.598,0.484,1.082,1.082,1.082s1.082-0.484,1.082-1.082v-6.131c0-1.194,0.971-2.165,2.164-2.165h2.707   c1.193,0,2.164,0.971,2.164,2.165v6.12c0,0.598,0.484,1.082,1.082,1.082c0.6,0,1.084-0.484,1.084-1.082v-3.924   c0-0.512,0.93-1.3,2.164-1.3h2.707c1.193,0,2.164,0.972,2.164,2.165V78.011z"/>
	<path fill="#000000" d="M65.289,72.111c0.01-0.016,0.016-0.031,0.025-0.046c0.027-0.045,0.055-0.091,0.074-0.141   c0.01-0.021,0.014-0.043,0.02-0.063c0.016-0.046,0.033-0.091,0.043-0.139c0.014-0.069,0.021-0.142,0.021-0.214   s-0.008-0.144-0.021-0.214c-0.01-0.048-0.027-0.093-0.043-0.138c-0.006-0.021-0.01-0.044-0.02-0.064   c-0.02-0.049-0.047-0.095-0.074-0.141c-0.01-0.015-0.016-0.03-0.025-0.045c-0.039-0.06-0.084-0.114-0.135-0.164l-2.434-2.435   c-0.424-0.423-1.109-0.423-1.531,0c-0.424,0.423-0.424,1.108,0,1.531l0.588,0.587h-4.424v-4.423l0.588,0.588   c0.213,0.211,0.488,0.316,0.766,0.316s0.555-0.105,0.766-0.316c0.422-0.423,0.422-1.108,0-1.531l-2.436-2.435   c-0.02-0.021-0.043-0.035-0.064-0.054c-0.031-0.027-0.062-0.057-0.098-0.08c-0.025-0.017-0.053-0.027-0.078-0.043   c-0.035-0.02-0.07-0.041-0.107-0.057c-0.029-0.013-0.061-0.02-0.092-0.028c-0.035-0.012-0.072-0.026-0.111-0.034   c-0.07-0.015-0.141-0.021-0.215-0.021l0,0l0,0c-0.01,0-0.02,0.003-0.029,0.003c-0.062,0.002-0.123,0.007-0.184,0.019   c-0.057,0.011-0.111,0.029-0.164,0.05c-0.012,0.005-0.025,0.007-0.037,0.012c-0.061,0.025-0.119,0.057-0.174,0.093   c-0.004,0.002-0.008,0.004-0.012,0.007c-0.061,0.04-0.117,0.086-0.168,0.138l-2.432,2.432c-0.424,0.423-0.424,1.108,0,1.531   c0.422,0.423,1.107,0.423,1.529,0l0.588-0.588v4.423h-4.421l0.587-0.587c0.422-0.423,0.422-1.108,0-1.531   c-0.423-0.423-1.109-0.423-1.531,0l-2.436,2.435c-0.051,0.05-0.096,0.104-0.135,0.164c-0.01,0.015-0.016,0.03-0.023,0.045   c-0.027,0.046-0.055,0.092-0.076,0.141c-0.008,0.021-0.012,0.043-0.02,0.064c-0.016,0.045-0.033,0.09-0.041,0.138   c-0.016,0.07-0.021,0.142-0.021,0.214s0.006,0.145,0.021,0.214c0.008,0.048,0.025,0.093,0.041,0.139   c0.008,0.021,0.012,0.043,0.02,0.063c0.021,0.05,0.049,0.096,0.076,0.141c0.008,0.015,0.014,0.03,0.023,0.046   c0.039,0.059,0.084,0.114,0.135,0.163l2.436,2.436c0.211,0.211,0.488,0.317,0.766,0.317c0.275,0,0.552-0.106,0.765-0.317   c0.422-0.423,0.422-1.108,0-1.531l-0.587-0.587h4.421v4.422l-0.588-0.587c-0.422-0.423-1.107-0.423-1.529,0   c-0.424,0.423-0.424,1.107,0,1.53l2.432,2.432c0.051,0.052,0.107,0.098,0.168,0.139c0.004,0.003,0.008,0.004,0.012,0.007   c0.055,0.035,0.113,0.067,0.174,0.093c0.012,0.005,0.025,0.007,0.037,0.012c0.053,0.02,0.107,0.038,0.164,0.049   c0.061,0.013,0.121,0.018,0.184,0.019c0.01,0.001,0.02,0.004,0.029,0.004l0,0l0,0c0.074,0,0.145-0.008,0.215-0.022   c0.039-0.008,0.076-0.021,0.111-0.033c0.031-0.01,0.062-0.016,0.092-0.028c0.037-0.016,0.072-0.038,0.107-0.058   c0.025-0.015,0.053-0.025,0.078-0.043c0.035-0.023,0.066-0.053,0.098-0.08c0.021-0.019,0.045-0.033,0.064-0.053l2.436-2.436   c0.422-0.423,0.422-1.108,0-1.53c-0.422-0.423-1.107-0.423-1.531,0l-0.588,0.587v-4.422h4.424l-0.588,0.587   c-0.424,0.423-0.424,1.108,0,1.531c0.211,0.211,0.488,0.317,0.766,0.317s0.553-0.106,0.766-0.317l2.434-2.436   C65.205,72.226,65.25,72.17,65.289,72.111z"/>
</g>
</svg>