<svg xmlns="http://www.w3.org/2000/svg" xmlns:xlink="http://www.w3.org/1999/xlink" version="1.1" x="0px" y="0px" width="100px" height="100px" viewBox="0 0 100 100" enable-background="new 0 0 100 100" xml:space="preserve">
<g id="Captions">
</g>
<g id="Your_Icon">
	<path d="M70.086,45.951h-2.715c-0.764,0-1.548,0.186-2.235,0.521c-0.356-2.039-2.139-3.594-4.278-3.594h-2.714   c-0.895,0-1.729,0.272-2.42,0.738c-0.598-1.684-2.208-2.894-4.095-2.894h-2.713c-0.791,0-1.532,0.212-2.171,0.583V25.473   c0-3.143-2.557-5.7-5.7-5.7c-3.143,0-5.699,2.557-5.699,5.7v30.062c-1.219,0.579-2.347,1.355-3.33,2.338l-2.226,2.226   c-4.656,4.656-4.656,12.232,0,16.888l6.201,6.201c0.304,0.304,0.624,0.586,0.953,0.853C39.01,87.599,42.871,90,47.287,90h15.199   c6.585,0,11.941-5.335,11.941-11.894V50.293C74.428,47.899,72.479,45.951,70.086,45.951z M72.257,78.106   c0,5.36-4.383,9.723-9.771,9.723H47.287c-1.79,0-3.464-0.49-4.909-1.33c-1.198-0.717-2.532-1.757-3.754-3.913   c-0.704-1.342-1.108-2.863-1.108-4.479c0-0.6-0.486-1.085-1.085-1.085s-1.085,0.485-1.085,1.085c0,0.494,0.034,0.979,0.093,1.458   l-4.113-4.113c-3.81-3.81-3.81-10.008,0-13.817l2.226-2.226c0.547-0.547,1.152-1.012,1.794-1.408v7.438   c0,0.6,0.486,1.086,1.085,1.086s1.085-0.486,1.085-1.086V25.473c0-1.946,1.583-3.528,3.528-3.528c1.946,0,3.528,1.583,3.528,3.528   v27.887c0,0.6,0.486,1.086,1.086,1.086s1.085-0.486,1.085-1.086v-8.293c0-1.197,0.974-2.171,2.171-2.171h2.713   c1.197,0,2.172,0.974,2.172,2.171v8.305c0,0.6,0.486,1.086,1.086,1.086s1.086-0.486,1.086-1.086v-6.15   c0-1.197,0.974-2.171,2.171-2.171h2.714c1.197,0,2.172,0.975,2.172,2.171v6.138c0,0.6,0.485,1.086,1.085,1.086   s1.086-0.486,1.086-1.086v-3.935c0-0.633,1.116-1.302,2.171-1.302h2.715c1.196,0,2.171,0.974,2.171,2.171V78.106z"/>
	<path d="M58.822,77.741h-7.871c-0.599,0-1.085-0.485-1.085-1.085c0-2.002,2.025-3.409,4.169-4.899   c1.734-1.205,3.701-2.571,3.701-3.82c0-1.934-1.477-2.815-2.85-2.815c-1.545,0-2.85,1.025-2.85,2.239   c0,0.6-0.486,1.085-1.086,1.085c-0.599,0-1.085-0.485-1.085-1.085c0-2.432,2.252-4.41,5.021-4.41c2.862,0,5.021,2.144,5.021,4.986   c0,2.384-2.354,4.021-4.633,5.604c-0.909,0.631-1.958,1.36-2.61,2.03h6.158c0.6,0,1.085,0.486,1.085,1.086   S59.422,77.741,58.822,77.741z"/>
	<path d="M41.045,17.6c-0.6,0-1.085-0.486-1.085-1.086v-5.428c0-0.599,0.486-1.085,1.085-1.085s1.085,0.486,1.085,1.085v5.428   C42.13,17.113,41.645,17.6,41.045,17.6z"/>
	<path d="M36.567,18.8c-0.375,0-0.741-0.195-0.941-0.543l-2.714-4.701c-0.3-0.519-0.122-1.183,0.397-1.483   c0.52-0.3,1.184-0.122,1.483,0.397l2.714,4.701c0.3,0.52,0.122,1.184-0.397,1.483C36.938,18.753,36.751,18.8,36.567,18.8z"/>
	<path d="M33.285,22.079c-0.184,0-0.371-0.047-0.542-0.146l-4.701-2.714c-0.52-0.3-0.697-0.964-0.397-1.483   c0.3-0.52,0.964-0.697,1.483-0.397l4.701,2.714c0.52,0.299,0.697,0.963,0.397,1.483C34.026,21.884,33.661,22.079,33.285,22.079z"/>
	<path d="M32.085,26.558h-5.427c-0.6,0-1.086-0.486-1.086-1.085c0-0.6,0.486-1.086,1.086-1.086h5.427   c0.599,0,1.085,0.486,1.085,1.086C33.171,26.072,32.685,26.558,32.085,26.558z"/>
	<path d="M28.586,33.752c-0.375,0-0.74-0.195-0.941-0.543c-0.3-0.519-0.122-1.183,0.397-1.483l4.7-2.713   c0.52-0.301,1.183-0.122,1.483,0.397c0.3,0.519,0.122,1.183-0.397,1.483l-4.7,2.713C28.958,33.705,28.771,33.752,28.586,33.752z"/>
	<path d="M53.503,33.752c-0.184,0-0.37-0.047-0.541-0.146l-4.701-2.713c-0.519-0.3-0.697-0.963-0.398-1.483   c0.3-0.52,0.963-0.697,1.483-0.397l4.701,2.712c0.52,0.3,0.697,0.963,0.397,1.483C54.244,33.557,53.879,33.752,53.503,33.752z"/>
	<path d="M50.004,26.56c-0.599,0-1.085-0.486-1.085-1.085c0-0.599,0.486-1.085,1.085-1.086l5.428-0.001l0,0   c0.6,0,1.086,0.486,1.086,1.085s-0.486,1.085-1.086,1.086L50.004,26.56L50.004,26.56z"/>
	<path d="M48.805,22.08c-0.375,0-0.74-0.195-0.941-0.543c-0.3-0.519-0.122-1.183,0.397-1.483l4.7-2.715   c0.52-0.299,1.184-0.122,1.483,0.397c0.3,0.52,0.122,1.183-0.397,1.483l-4.7,2.715C49.176,22.033,48.989,22.08,48.805,22.08z"/>
	<path d="M45.524,18.8c-0.185,0-0.371-0.047-0.542-0.146c-0.52-0.3-0.697-0.963-0.398-1.483l2.713-4.701   c0.3-0.52,0.964-0.698,1.483-0.398c0.52,0.3,0.697,0.964,0.398,1.483l-2.713,4.701C46.265,18.605,45.899,18.8,45.524,18.8z"/>
</g>
</svg>