<svg xmlns="http://www.w3.org/2000/svg" xmlns:xlink="http://www.w3.org/1999/xlink" version="1.1" x="0px" y="0px" width="100px" height="100px" viewBox="0 0 100 100" enable-background="new 0 0 100 100" xml:space="preserve">
<g id="Captions">
</g>
<g id="Your_Icon">
	<path fill="#000000" d="M21.314,60.615c-3.828-0.785-6.717-4.18-6.717-8.238c0-4.635,3.773-8.408,8.41-8.408   s8.408,3.773,8.408,8.408c0,1.578-0.444,3.05-1.203,4.312l0.997,2.247c1.441-1.8,2.31-4.078,2.31-6.56   c0-5.793-4.715-10.51-10.512-10.51s-10.512,4.717-10.512,10.51c0,5.562,4.342,10.115,9.812,10.479L21.314,60.615z"/>
	<path fill="#000000" d="M77.775,30.219c-1.272,0-2.484,0.252-3.6,0.698c0.228-0.824,0.359-1.688,0.359-2.585   c0-5.361-4.363-9.725-9.725-9.725c-2.223,0-4.267,0.757-5.906,2.015c-0.203-5.187-4.473-9.343-9.707-9.343   c-5.016,0-9.154,3.812-9.672,8.693c-1.725-1.552-3.997-2.506-6.494-2.506c-5.363,0-9.727,4.363-9.727,9.727   c0,4.642,3.269,8.525,7.622,9.49l-0.651-2.389c-2.844-1.108-4.869-3.869-4.869-7.102c0-4.203,3.422-7.623,7.625-7.623   c3.062,0,5.703,1.82,6.915,4.432c0.108,0.333,0.236,0.656,0.378,0.972c0.215,0.703,0.332,1.448,0.332,2.22   c0,1.836-0.652,3.522-1.738,4.84l0.642,2.363c1.723-1.563,3.03-3.734,3.288-6.171C43.452,28.77,44,29.235,45,29.617v-2.48   c-1-0.764-2.032-1.77-2.577-2.951c-0.106-0.326-0.305-0.644-0.444-0.954c-0.215-0.704-0.369-1.451-0.369-2.226   c0-4.205,3.401-7.625,7.606-7.625c4.203,0,7.613,3.42,7.613,7.625c0,0.854-0.151,1.674-0.412,2.441   c-0.284,0.485-0.351,0.997-0.548,1.531C55.34,25.84,54,26.584,54,27.176v2.463c0-0.267,0.823-0.572,1.278-0.922   c0.105,2.689,1.222,5.095,3.081,6.795l0.577-2.381c-1.065-1.311-1.729-2.98-1.729-4.799c0-0.854,0.136-1.673,0.396-2.439   c0.283-0.486,0.52-0.999,0.717-1.533c1.342-2.186,3.744-3.65,6.492-3.65c4.203,0,7.621,3.42,7.621,7.623   c0,3.264-2.064,6.047-4.952,7.133l-0.636,2.37c0.537-0.117,1.061-0.272,1.562-0.473c-0.228,0.824-0.359,1.688-0.359,2.583   c0,1.569,0.382,3.048,1.045,4.361l1.437-2.004c-0.243-0.743-0.378-1.534-0.378-2.357c0-4.203,3.42-7.623,7.623-7.623   S85.4,35.957,85.4,40.16S81.979,48,77.775,48c-0.007,0-0.015,0-0.021,0l-1.422,1.768c0.473,0.07,0.952,0.012,1.443,0.012   c5.365,0,9.729-4.417,9.729-9.78S83.141,30.219,77.775,30.219z"/>
	<path fill="#000000" d="M83.174,39.037c-0.24-1.455-1.033-2.73-2.23-3.59c-2.477-1.771-5.932-1.201-7.705,1.271l-7.99,11.15   l4.865-18.158c0.789-2.939-0.959-5.975-3.898-6.766c-2.939-0.789-5.975,0.955-6.768,3.904l-4.75,18.189V20.961   c0-3.045-2.477-5.521-5.52-5.521c-3.045,0-5.521,2.477-5.521,5.521v24.514l-5.361-19.742c-0.783-2.941-3.816-4.695-6.758-3.908   c-2.939,0.785-4.693,3.818-3.906,6.764l6.795,24.934c0.043,0.258,0.291,1.957,0.291,5.709v1.912l-1.66-0.635l-4.674-10.537   c-0.949-2.137-3.072-3.52-5.41-3.52c-0.828,0-1.633,0.172-2.395,0.51c-2.982,1.322-4.332,4.824-3.01,7.807l5.186,11.686   c1.795,4.221,4.986,8.061,6.59,9.662l6.006,6.008c0.291,0.291,0.598,0.562,0.912,0.818c2,3.451,5.742,5.779,10.023,5.779h14.723   c6.379,0,11.566-5.168,11.566-11.52v-20.6l9.639-13.449C83.072,41.953,83.414,40.492,83.174,39.037z M80.504,41.926l-9.836,13.723   c-0.127,0.18-0.195,0.395-0.195,0.613v20.939c0,5.193-4.246,9.416-9.465,9.416H46.285c-1.734,0-3.355-0.475-4.756-1.289   c-1.623-0.99-3.07-2.484-3.639-3.795c-0.68-1.297-1.07-2.77-1.07-4.332c0-0.58-0.471-1.051-1.051-1.051s-1.053,0.471-1.053,1.051   c0,0.477,0.035,0.943,0.09,1.406l-3.977-3.979c-1.939-1.939-4.688-5.582-6.148-9.014L19.49,53.914   c-0.852-1.922,0.018-4.178,1.939-5.031c0.492-0.217,1.012-0.328,1.543-0.328c1.508,0,2.877,0.891,3.486,2.27l4.855,10.938   c0.111,0.256,0.322,0.457,0.586,0.555l2.816,1.076v1.438c0,0.58,0.473,1.053,1.053,1.053s1.051-0.473,1.051-1.053v-5.6   c0-4.32-0.32-6.061-0.334-6.131c-0.004-0.027-0.012-0.055-0.018-0.08l-6.807-24.98c-0.488-1.82,0.598-3.699,2.418-4.184   c1.82-0.486,3.697,0.6,4.186,2.424l7.428,27.355c0.139,0.51,0.627,0.836,1.154,0.768c0.521-0.068,0.912-0.516,0.912-1.043V20.961   c0-1.885,1.533-3.418,3.418-3.418c1.883,0,3.418,1.533,3.418,3.418v32.27c0,0.529,0.393,0.975,0.916,1.043   c0.521,0.068,1.02-0.266,1.152-0.777l6.816-26.107c0.488-1.82,2.371-2.9,4.188-2.412c1.82,0.488,2.902,2.367,2.412,4.189   l-6.357,23.74c-0.133,0.49,0.105,1.006,0.564,1.223c0.461,0.217,1.01,0.076,1.305-0.338l11.357-15.848   c1.098-1.531,3.238-1.883,4.77-0.787c0.742,0.533,1.23,1.322,1.379,2.223S81.035,41.184,80.504,41.926z"/>
	<path fill="#000000" d="M62.414,71.582c0.016-0.023,0.027-0.051,0.043-0.076c0.02-0.035,0.039-0.068,0.055-0.104   c0.014-0.035,0.021-0.07,0.031-0.105c0.01-0.031,0.021-0.061,0.027-0.092c0.027-0.135,0.027-0.275,0-0.41   c-0.006-0.033-0.018-0.061-0.027-0.092c-0.01-0.035-0.018-0.07-0.031-0.105c-0.016-0.035-0.035-0.068-0.055-0.102   c-0.016-0.025-0.027-0.055-0.043-0.078c-0.039-0.059-0.082-0.113-0.131-0.16l-3.154-3.156c-0.412-0.41-1.076-0.41-1.488,0   c-0.41,0.41-0.41,1.076,0,1.488L59,69.947H45.768c-0.582,0-1.053,0.473-1.053,1.053s0.471,1.051,1.053,1.051H59l-1.359,1.359   c-0.41,0.412-0.41,1.078,0,1.488c0.205,0.207,0.477,0.307,0.744,0.307c0.27,0,0.539-0.1,0.744-0.307l3.154-3.154   C62.332,71.695,62.375,71.641,62.414,71.582z"/>
</g>
</svg>