<svg xmlns="http://www.w3.org/2000/svg" xmlns:xlink="http://www.w3.org/1999/xlink" version="1.1" x="0px" y="0px" width="100px" height="100px" viewBox="0 0 100 100" enable-background="new 0 0 100 100" xml:space="preserve">
<g id="Captions">
</g>
<g id="Your_Icon">
	<path fill="#000000" d="M31.879,33.878c-2.987-1.109-5.125-3.981-5.125-7.351c0-4.326,3.52-7.847,7.848-7.847   c4.326,0,7.848,3.521,7.848,7.847c0,1.844-0.644,3.538-1.712,4.879l0.666,2.456c1.746-1.622,3.054-3.855,3.297-6.359   c0.648,0.597,1.3,1.106,2.3,1.519v-2.535c-2-1.428-3.381-3.735-3.381-6.342c0-4.327,3.451-7.848,7.779-7.848   c4.326,0,7.848,3.521,7.848,7.848c0,2.608-1.246,4.918-3.246,6.346v2.538c3-1.669,5.378-5.021,5.378-8.884   c0-5.521-4.511-10.013-10.03-10.013c-5.191,0-9.48,3.972-9.973,9.036c-1.784-1.641-4.159-2.652-6.769-2.652   c-5.521,0-10.017,4.491-10.017,10.012c0,4.817,3.419,8.848,7.958,9.799L31.879,33.878z"/>
	<path fill="#000000" d="M71.082,45.949h-2.707c-0.809,0-1.574,0.188-2.23,0.512c-0.357-2.028-2.135-3.574-4.264-3.574h-2.707   c-0.787,0-1.527,0.211-2.164,0.581V20.12c0-3.134-2.549-5.683-5.684-5.683c-3.133,0-5.682,2.549-5.682,5.683v25.232L40.127,25.03   c-0.809-3.026-3.93-4.835-6.957-4.022c-3.027,0.81-4.832,3.93-4.021,6.962l6.994,25.667c0.023,0.147,0.113,0.754,0.189,1.925   c-1.17,0.571-2.254,1.327-3.201,2.275l-2.219,2.219c-4.643,4.642-4.643,12.195,0,16.838l6.182,6.183   c0.301,0.3,0.613,0.578,0.939,0.841c2.059,3.554,5.912,5.951,10.316,5.951h15.154c6.566,0,11.906-5.319,11.906-11.857V50.278   C75.41,47.892,73.469,45.949,71.082,45.949z M73.246,78.011c0,5.345-4.369,9.693-9.742,9.693H48.35   c-1.785,0-3.455-0.489-4.896-1.328c-0.914-0.425-2.701-1.958-3.742-3.907c-0.701-1.336-1.102-2.851-1.102-4.458   c0-0.598-0.484-1.083-1.084-1.083c-0.596,0-1.082,0.485-1.082,1.083c0,0.489,0.035,0.972,0.092,1.445l-4.092-4.094   c-3.799-3.798-3.799-9.979,0-13.776l2.219-2.219c0.539-0.539,1.135-0.998,1.768-1.391c0.008,0.471,0.014,0.979,0.014,1.535v5.766   c0,0.598,0.486,1.082,1.082,1.082c0.6,0,1.084-0.484,1.084-1.082v-5.766c0-0.968-0.018-1.803-0.043-2.528   c-0.035-0.919-0.104-1.797-0.121-2.215c-0.086-1.047-0.174-1.53-0.182-1.568c-0.006-0.027-0.012-0.056-0.02-0.082l-7.006-25.713   c-0.5-1.873,0.617-3.805,2.49-4.306s3.807,0.616,4.309,2.494l7.645,28.16c0.143,0.523,0.65,0.86,1.188,0.789   c0.539-0.072,0.939-0.531,0.939-1.073V20.12c0-1.939,1.578-3.519,3.518-3.519c1.941,0,3.52,1.579,3.52,3.519v33.228   c0,0.598,0.484,1.083,1.082,1.083s1.082-0.485,1.082-1.083v-6.131c0-1.194,0.971-2.165,2.164-2.165h2.707   c1.193,0,2.164,0.971,2.164,2.165v6.12c0,0.598,0.486,1.082,1.082,1.082c0.6,0,1.084-0.484,1.084-1.082v-3.924   c0-0.511,0.93-1.299,2.164-1.299h2.707c1.193,0,2.164,0.971,2.164,2.164V78.011z"/>
	<path fill="#000000" d="M64.92,72.153c0.02-0.035,0.041-0.069,0.057-0.107c0.014-0.029,0.02-0.06,0.029-0.09   c0.012-0.037,0.025-0.073,0.033-0.112c0.014-0.07,0.021-0.142,0.021-0.214v-0.001l0,0c0-0.01-0.002-0.019-0.002-0.029   c-0.002-0.062-0.008-0.124-0.02-0.184c-0.012-0.057-0.029-0.111-0.049-0.164c-0.006-0.013-0.008-0.025-0.012-0.038   c-0.025-0.061-0.059-0.118-0.094-0.173c-0.002-0.004-0.004-0.008-0.006-0.013c-0.041-0.061-0.088-0.116-0.139-0.168l-3.244-3.243   c-0.422-0.423-1.107-0.423-1.531,0c-0.422,0.423-0.422,1.107,0,1.53l1.4,1.399h-11.01l1.398-1.399c0.424-0.423,0.424-1.107,0-1.53   c-0.422-0.423-1.107-0.423-1.529,0L46.98,70.86c-0.053,0.052-0.098,0.107-0.139,0.168c-0.002,0.005-0.004,0.009-0.006,0.013   c-0.037,0.055-0.068,0.112-0.094,0.173c-0.004,0.013-0.006,0.025-0.012,0.038c-0.02,0.053-0.039,0.107-0.049,0.164   c-0.012,0.06-0.018,0.122-0.02,0.184c0,0.011-0.002,0.02-0.002,0.029l0,0v0.001c0,0.072,0.008,0.144,0.021,0.214   c0.008,0.039,0.021,0.075,0.033,0.112c0.01,0.03,0.016,0.061,0.029,0.09c0.016,0.038,0.037,0.072,0.057,0.107   c0.016,0.026,0.025,0.054,0.043,0.079c0.023,0.035,0.053,0.066,0.08,0.098c0.018,0.021,0.033,0.045,0.053,0.064l3.248,3.247   c0.211,0.212,0.488,0.317,0.766,0.317c0.275,0,0.553-0.105,0.764-0.317c0.424-0.423,0.424-1.108,0-1.53l-1.398-1.399h11.01   l-1.4,1.399c-0.422,0.422-0.422,1.107,0,1.53c0.213,0.212,0.49,0.317,0.766,0.317c0.277,0,0.555-0.105,0.766-0.317l3.248-3.247   c0.02-0.02,0.033-0.043,0.053-0.064c0.027-0.031,0.057-0.062,0.08-0.098C64.895,72.207,64.904,72.18,64.92,72.153z"/>
</g>
</svg>