<svg xmlns="http://www.w3.org/2000/svg" xmlns:xlink="http://www.w3.org/1999/xlink" version="1.1" x="0px" y="0px" width="100px" height="100px" viewBox="0 0 100 100" enable-background="new 0 0 100 100" xml:space="preserve">
<g id="Captions">
</g>
<g id="Your_Icon">
	<path fill="#000000" d="M72.434,30.165c-1.276,0-2.492,0.253-3.61,0.7c0.229-0.826,0.36-1.692,0.36-2.591   c0-5.378-4.375-9.754-9.752-9.754c-2.229,0-4.277,0.759-5.922,2.021c-0.204-5.199-4.485-9.369-9.734-9.369   c-5.029,0-9.179,3.825-9.697,8.718c-1.729-1.556-4.008-2.512-6.512-2.512c-5.377,0-9.754,4.375-9.754,9.754   c0,4.654,3.278,8.55,7.645,9.518l-0.653-2.398c-2.853-1.11-4.882-3.879-4.882-7.119c0-4.215,3.43-7.645,7.645-7.645   c3.076,0,5.727,1.83,6.938,4.456c0.106,0.327,0.232,0.646,0.372,0.956c0.216,0.707,0.334,1.456,0.334,2.232   c0,1.84-0.654,3.53-1.741,4.851l0.644,2.372c1.728-1.567,2.754-3.744,3.013-6.188C37.732,28.714,39,29.181,39,29.564v-2.488   c-1-0.766-1.753-1.773-2.3-2.958c-0.106-0.329-0.163-0.648-0.304-0.96c-0.217-0.707-0.3-1.456-0.3-2.232   c0-4.215,3.446-7.644,7.661-7.644s7.653,3.429,7.653,7.644c0,0.858-0.144,1.682-0.405,2.452c-0.283,0.485-0.641,0.996-0.838,1.529   C49.638,25.772,49,26.52,48,27.113v2.47c1-0.267,1.122-0.573,1.578-0.924c0.105,2.696,1.374,5.108,3.238,6.813l0.652-2.385   c-1.068-1.315-1.698-2.99-1.698-4.813c0-0.855,0.154-1.676,0.415-2.444c0.285-0.488,0.531-1.004,0.73-1.541   c1.346-2.19,3.76-3.658,6.514-3.658c4.215,0,7.646,3.428,7.646,7.644c0,3.271-2.069,6.062-4.965,7.15l-0.637,2.377   c0.539-0.117,1.063-0.272,1.566-0.474c-0.229,0.826-0.36,1.692-0.36,2.59c0,1.574,0.384,3.058,1.049,4.375l1.439-2.01   c-0.243-0.745-0.379-1.539-0.379-2.365c0-4.215,3.43-7.645,7.645-7.645s7.645,3.648,7.645,7.863c0,4.216-3.43,7.863-7.645,7.863   c-0.008,0-0.015,0-0.022,0l-1.426,1.771c0.474,0.07,0.955,0.01,1.448,0.01c5.379,0,9.754-4.43,9.754-9.809   C82.188,34.595,77.812,30.165,72.434,30.165z"/>
	<path fill="#000000" d="M77.846,39.007c-0.24-1.459-1.035-2.735-2.236-3.599c-2.482-1.778-5.947-1.205-7.725,1.274l-8.014,11.182   l4.877-18.208c0.793-2.948-0.959-5.991-3.908-6.785c-2.947-0.792-5.99,0.961-6.785,3.916l-4.762,18.239V20.883   c0-3.053-2.482-5.537-5.537-5.537c-3.053,0-5.535,2.484-5.535,5.537v24.579l-5.375-19.796c-0.789-2.948-3.828-4.707-6.777-3.919   s-4.707,3.828-3.918,6.782l6.814,25.003c0.023,0.144,0.111,0.735,0.186,1.874c-1.141,0.558-2.197,1.294-3.119,2.218l-2.162,2.161   c-2.191,2.19-3.396,5.104-3.396,8.2c0,3.1,1.205,6.012,3.396,8.202l6.021,6.023c0.293,0.293,0.6,0.563,0.916,0.819   c2.006,3.461,5.758,5.797,10.051,5.797h14.762c6.396,0,11.6-5.183,11.6-11.552V56.619l9.664-13.486   C77.744,41.933,78.086,40.466,77.846,39.007z M75.168,41.904l-9.861,13.762c-0.129,0.18-0.197,0.394-0.197,0.613v20.996   c0,5.207-4.258,9.443-9.49,9.443H40.857c-1.74,0-3.367-0.477-4.77-1.293c-1.684-0.983-2.912-2.318-3.648-3.807   c-0.682-1.301-1.072-2.776-1.072-4.344c0-0.582-0.473-1.054-1.055-1.054s-1.055,0.472-1.055,1.054c0,0.479,0.033,0.947,0.09,1.409   l-3.988-3.987c-1.791-1.793-2.777-4.176-2.777-6.712c0-2.534,0.986-4.917,2.777-6.709l2.162-2.162   c0.525-0.524,1.105-0.972,1.723-1.354c0.008,0.458,0.014,0.952,0.014,1.495v5.615c0,0.583,0.473,1.055,1.055,1.055   s1.055-0.472,1.055-1.055v-5.615c0-0.943-0.016-1.756-0.039-2.464c-0.041-0.952-0.076-1.575-0.119-2.157   c-0.084-1.02-0.172-1.491-0.178-1.527c-0.004-0.027-0.012-0.055-0.018-0.08L24.188,27.98c-0.488-1.826,0.6-3.708,2.426-4.196   c1.824-0.486,3.709,0.602,4.197,2.431l7.447,27.431c0.139,0.512,0.631,0.84,1.156,0.77c0.523-0.069,0.916-0.517,0.916-1.046V20.883   c0-1.89,1.537-3.428,3.426-3.428c1.891,0,3.428,1.538,3.428,3.428v32.356c0,0.53,0.395,0.979,0.92,1.046   c0.523,0.064,1.02-0.267,1.154-0.779l6.834-26.179c0.492-1.825,2.379-2.908,4.201-2.419c1.824,0.491,2.91,2.376,2.418,4.201   l-6.377,23.805c-0.131,0.493,0.107,1.009,0.568,1.227c0.461,0.217,1.012,0.074,1.309-0.339L69.6,37.911   c1.1-1.536,3.246-1.888,4.781-0.788c0.744,0.533,1.234,1.324,1.385,2.228C75.914,40.254,75.701,41.16,75.168,41.904z"/>
	<path fill="#000000" d="M56.152,70.004h-13.27l1.363-1.363c0.41-0.412,0.41-1.079,0-1.491c-0.412-0.411-1.08-0.411-1.492,0   l-3.16,3.159c-0.049,0.051-0.096,0.105-0.135,0.164c-0.002,0.004-0.004,0.008-0.006,0.013c-0.035,0.053-0.066,0.109-0.092,0.169   c-0.004,0.011-0.006,0.024-0.01,0.036c-0.02,0.052-0.039,0.104-0.049,0.16c-0.012,0.059-0.016,0.118-0.018,0.179   c-0.002,0.01-0.004,0.018-0.004,0.028l0,0l0,0c0,0.071,0.008,0.141,0.021,0.21c0.008,0.037,0.021,0.072,0.033,0.109   c0.01,0.029,0.016,0.059,0.027,0.087c0.016,0.038,0.037,0.069,0.057,0.105c0.014,0.024,0.025,0.052,0.041,0.076   c0.023,0.034,0.051,0.064,0.078,0.096c0.018,0.021,0.033,0.044,0.051,0.062l3.164,3.163c0.207,0.206,0.477,0.309,0.746,0.309   s0.539-0.103,0.746-0.309c0.41-0.412,0.41-1.08,0-1.49l-1.365-1.365h13.271c0.582,0,1.055-0.472,1.055-1.054   S56.734,70.004,56.152,70.004z"/>
</g>
</svg>