<svg xmlns="http://www.w3.org/2000/svg" xmlns:xlink="http://www.w3.org/1999/xlink" version="1.1" x="0px" y="0px" width="100px" height="100px" viewBox="0 0 100 100" enable-background="new 0 0 100 100" xml:space="preserve">
<g id="Captions">
</g>
<g id="Your_Icon">
	<path fill="#000000" d="M21.314,60.615c-3.828-0.786-6.716-4.18-6.716-8.238c0-4.635,3.773-8.408,8.411-8.408   c4.636,0,8.408,3.773,8.408,8.408c0,1.578-0.445,3.051-1.204,4.314l0.996,2.244c1.441-1.799,2.31-4.078,2.31-6.559   c0-5.793-4.715-10.51-10.51-10.51c-5.798,0-10.514,4.717-10.514,10.51c0,5.562,4.342,10.114,9.812,10.479L21.314,60.615z"/>
	<path fill="#000000" d="M77.777,30.219c-1.272,0-2.484,0.252-3.6,0.698c0.228-0.824,0.359-1.688,0.359-2.585   c0-5.361-4.363-9.725-9.728-9.725c-2.222,0-4.267,0.757-5.906,2.016c-0.203-5.187-4.473-9.344-9.706-9.344   c-5.015,0-9.153,3.812-9.671,8.693c-1.725-1.552-3.997-2.506-6.494-2.506c-5.364,0-9.728,4.363-9.728,9.727   c0,4.642,3.268,8.525,7.622,9.49l-0.651-2.389c-2.844-1.108-4.867-3.869-4.867-7.102c0-4.203,3.42-7.623,7.624-7.623   c3.068,0,5.712,1.826,6.92,4.444c0.106,0.325,0.23,0.642,0.369,0.951c0.216,0.705,0.334,1.452,0.334,2.228   c0,1.836-0.652,3.522-1.737,4.84l0.642,2.364c1.723-1.563,3.03-3.734,3.288-6.172C43.452,28.771,44,29.236,45,29.618v-2.48   c-1-0.763-2.028-1.767-2.574-2.945c-0.107-0.33-0.307-0.651-0.449-0.965c-0.215-0.704-0.368-1.449-0.368-2.222   c0-4.205,3.403-7.625,7.607-7.625c4.203,0,7.613,3.42,7.613,7.625c0,0.854-0.151,1.674-0.412,2.442   c-0.284,0.485-0.351,0.996-0.547,1.53C55.341,25.84,54,26.583,54,27.176v2.461c0-0.266,0.824-0.571,1.277-0.92   c0.105,2.689,1.224,5.096,3.083,6.795l0.577-2.379c-1.066-1.312-1.729-2.982-1.729-4.801c0-0.855,0.137-1.676,0.397-2.444   c0.282-0.483,0.517-0.992,0.713-1.524c1.342-2.187,3.746-3.654,6.494-3.654c4.204,0,7.622,3.42,7.622,7.623   c0,3.264-2.063,6.046-4.951,7.132l-0.636,2.37c0.536-0.116,1.06-0.271,1.561-0.472c-0.228,0.824-0.359,1.688-0.359,2.583   c0,1.569,0.383,3.048,1.046,4.362l1.436-2.004c-0.243-0.743-0.378-1.535-0.378-2.358c0-4.203,3.422-7.623,7.625-7.623   s7.624,3.635,7.624,7.838S81.98,48,77.777,48c-0.008,0-0.016,0-0.023,0l-1.422,1.768c0.473,0.07,0.953,0.012,1.445,0.012   c5.362,0,9.727-4.417,9.727-9.78S83.14,30.219,77.777,30.219z"/>
	<path fill="#000000" d="M83.174,39.037c-0.239-1.455-1.032-2.73-2.23-3.59c-2.477-1.771-5.932-1.201-7.703,1.271l-7.992,11.15   l4.863-18.158c0.791-2.939-0.956-5.975-3.896-6.766c-2.94-0.789-5.977,0.955-6.77,3.904l-4.747,18.189V20.961   c0-3.045-2.477-5.521-5.522-5.521c-3.044,0-5.52,2.477-5.52,5.521v24.514l-5.36-19.742c-0.785-2.941-3.819-4.695-6.76-3.908   c-2.94,0.785-4.694,3.818-3.906,6.764l6.794,24.934c0.043,0.258,0.294,1.957,0.294,5.709v1.912l-1.66-0.635l-4.676-10.537   c-0.947-2.137-3.07-3.52-5.409-3.52c-0.828,0-1.635,0.172-2.396,0.51c-2.98,1.322-4.33,4.824-3.01,7.807l5.186,11.686   c1.796,4.221,4.986,8.061,6.59,9.662l6.007,6.008c0.291,0.291,0.598,0.562,0.913,0.818c1.999,3.451,5.741,5.779,10.021,5.779   h14.722c6.379,0,11.568-5.168,11.568-11.52v-20.6l9.638-13.449C83.073,41.953,83.413,40.492,83.174,39.037z M80.504,41.926   l-9.835,13.723c-0.129,0.18-0.196,0.395-0.196,0.613v20.939c0,5.193-4.246,9.416-9.466,9.416H46.285   c-1.734,0-3.354-0.475-4.756-1.289c-1.623-0.99-3.069-2.484-3.638-3.795c-0.68-1.297-1.07-2.77-1.07-4.332   c0-0.58-0.471-1.051-1.051-1.051c-0.581,0-1.052,0.471-1.052,1.051c0,0.477,0.032,0.943,0.088,1.406l-3.977-3.979   c-1.938-1.939-4.688-5.582-6.147-9.014l-5.191-11.701c-0.851-1.922,0.019-4.178,1.94-5.031c0.49-0.217,1.01-0.328,1.542-0.328   c1.508,0,2.876,0.891,3.487,2.27l4.853,10.938c0.112,0.256,0.325,0.457,0.587,0.555l2.818,1.076v1.438   c0,0.58,0.471,1.053,1.052,1.053c0.58,0,1.051-0.473,1.051-1.053v-5.6c0-4.32-0.321-6.061-0.333-6.131   c-0.006-0.027-0.012-0.055-0.021-0.08l-6.807-24.98c-0.486-1.82,0.6-3.699,2.418-4.184c1.822-0.486,3.7,0.6,4.188,2.424   l7.428,27.355c0.138,0.51,0.627,0.836,1.152,0.768c0.523-0.068,0.913-0.516,0.913-1.043V20.961c0-1.885,1.533-3.418,3.417-3.418   c1.885,0,3.419,1.533,3.419,3.418v32.27c0,0.529,0.392,0.975,0.917,1.043c0.521,0.068,1.019-0.266,1.151-0.777l6.815-26.107   c0.49-1.82,2.373-2.9,4.189-2.412c1.819,0.488,2.901,2.367,2.411,4.189l-6.358,23.74c-0.132,0.49,0.107,1.006,0.566,1.223   s1.008,0.076,1.305-0.338l11.356-15.848c1.098-1.531,3.237-1.883,4.77-0.787c0.741,0.533,1.231,1.322,1.381,2.223   C81.248,40.279,81.037,41.184,80.504,41.926z"/>
	<path fill="#000000" d="M57.491,65.883l-3.154-3.154c-0.019-0.02-0.042-0.035-0.062-0.051c-0.031-0.027-0.062-0.055-0.096-0.078   c-0.023-0.018-0.052-0.027-0.076-0.043c-0.035-0.02-0.068-0.039-0.104-0.055c-0.029-0.012-0.059-0.02-0.089-0.029   c-0.035-0.01-0.07-0.023-0.107-0.031c-0.069-0.016-0.139-0.021-0.209-0.021l0,0h-0.001c-0.01,0-0.018,0.002-0.027,0.004   c-0.06,0-0.121,0.006-0.179,0.018c-0.055,0.01-0.107,0.029-0.16,0.049c-0.012,0.004-0.024,0.006-0.037,0.01   c-0.058,0.025-0.114,0.057-0.167,0.092c-0.004,0.002-0.008,0.002-0.012,0.006c-0.06,0.039-0.113,0.084-0.164,0.135l-3.151,3.15   c-0.41,0.41-0.41,1.076,0,1.488c0.411,0.41,1.076,0.41,1.487,0l1.358-1.361v13.234c0,0.582,0.473,1.053,1.052,1.053   c0.581,0,1.052-0.471,1.052-1.053V66.01l1.359,1.361c0.206,0.203,0.475,0.307,0.744,0.307c0.269,0,0.538-0.104,0.743-0.307   C57.902,66.959,57.902,66.293,57.491,65.883z"/>
</g>
</svg>