<svg xmlns="http://www.w3.org/2000/svg" xmlns:xlink="http://www.w3.org/1999/xlink" version="1.1" x="0px" y="0px" width="100px" height="100px" viewBox="0 0 100 100" enable-background="new 0 0 100 100" xml:space="preserve">
<g id="Captions">
</g>
<g id="Your_Icon">
	<path fill="#000000" d="M31.88,33.879c-2.987-1.11-5.127-3.982-5.127-7.352c0-4.327,3.521-7.848,7.848-7.848   s7.848,3.521,7.848,7.848c0,1.844-0.644,3.537-1.712,4.878l0.667,2.457c1.746-1.622,3.052-3.856,3.296-6.359   C45.348,28.1,46,28.61,47,29.022v-2.534c-2-1.429-3.383-3.736-3.383-6.344c0-4.327,3.452-7.848,7.78-7.848   c4.326,0,7.85,3.521,7.85,7.848c0,2.608-1.247,4.918-3.247,6.346v2.538c3-1.669,5.377-5.021,5.377-8.884   c0-5.521-4.51-10.013-10.029-10.013c-5.191,0-9.481,3.972-9.974,9.036c-1.784-1.641-4.159-2.652-6.769-2.652   c-5.521,0-10.015,4.491-10.015,10.012c0,4.817,3.418,8.849,7.957,9.799L31.88,33.879z"/>
	<path fill="#000000" d="M71.081,45.949h-2.705c-0.811,0-1.576,0.188-2.23,0.512c-0.359-2.028-2.135-3.574-4.266-3.574h-2.705   c-0.789,0-1.527,0.211-2.166,0.581V20.12c0-3.134-2.549-5.683-5.682-5.683s-5.684,2.549-5.684,5.683v25.232L40.126,25.03   c-0.809-3.026-3.928-4.835-6.957-4.022c-3.027,0.81-4.832,3.93-4.021,6.962l6.994,25.667c0.025,0.147,0.115,0.754,0.191,1.925   c-1.17,0.571-2.256,1.327-3.203,2.275l-2.219,2.219c-4.643,4.642-4.643,12.195,0,16.838l6.182,6.183   c0.301,0.299,0.615,0.578,0.939,0.841c2.059,3.554,5.912,5.951,10.318,5.951h15.154c6.564,0,11.906-5.319,11.906-11.857V50.278   C75.411,47.892,73.468,45.949,71.081,45.949z M73.245,78.011c0,5.345-4.369,9.692-9.74,9.692H48.351   c-1.787,0-3.457-0.488-4.898-1.327c-0.914-0.425-2.701-1.958-3.742-3.907c-0.699-1.336-1.102-2.851-1.102-4.458   c0-0.598-0.484-1.083-1.082-1.083s-1.082,0.485-1.082,1.083c0,0.489,0.033,0.971,0.092,1.445l-4.094-4.094   c-3.799-3.798-3.799-9.979,0-13.776l2.219-2.219c0.539-0.539,1.135-0.998,1.768-1.391c0.01,0.471,0.016,0.979,0.016,1.535v5.766   c0,0.598,0.484,1.082,1.082,1.082s1.082-0.484,1.082-1.082v-5.766c0-0.968-0.016-1.803-0.041-2.528   c-0.037-0.919-0.105-1.797-0.121-2.215c-0.086-1.047-0.176-1.53-0.182-1.568c-0.006-0.028-0.012-0.056-0.02-0.082l-7.008-25.713   c-0.5-1.873,0.617-3.805,2.49-4.306c1.875-0.501,3.807,0.616,4.309,2.494l7.646,28.16c0.141,0.523,0.65,0.86,1.188,0.789   c0.537-0.072,0.939-0.531,0.939-1.073V20.12c0-1.94,1.578-3.519,3.518-3.519s3.518,1.578,3.518,3.519v33.228   c0,0.598,0.484,1.082,1.082,1.082s1.082-0.484,1.082-1.082v-6.131c0-1.194,0.973-2.165,2.166-2.165h2.705   c1.193,0,2.166,0.971,2.166,2.165v6.12c0,0.598,0.484,1.082,1.082,1.082s1.082-0.484,1.082-1.082v-3.924   c0-0.512,0.93-1.3,2.166-1.3h2.705c1.193,0,2.164,0.972,2.164,2.165V78.011z"/>
	<path fill="#000000" d="M59.151,62.765l1.471-0.951c0.502-0.324,0.645-0.994,0.32-1.496c-0.324-0.501-0.996-0.646-1.498-0.32   l-3.855,2.494c-0.24,0.156-0.41,0.401-0.471,0.682c-0.059,0.281-0.006,0.574,0.15,0.815l2.496,3.854   c0.207,0.32,0.555,0.494,0.91,0.494c0.201,0,0.404-0.056,0.586-0.174c0.502-0.324,0.646-0.994,0.32-1.496l-1.221-1.886   c2.879,0.883,4.979,3.564,4.979,6.728c0,3.88-3.156,7.036-7.035,7.036c-3.881,0-7.037-3.156-7.037-7.036   c0-1.797,0.678-3.508,1.906-4.816c0.41-0.436,0.389-1.12-0.047-1.53c-0.436-0.408-1.121-0.387-1.531,0.049   c-1.607,1.712-2.492,3.948-2.492,6.298c0,5.073,4.127,9.201,9.201,9.201c5.072,0,9.199-4.128,9.199-9.201   C65.503,67.43,62.833,63.968,59.151,62.765z"/>
</g>
</svg>