<svg xmlns="http://www.w3.org/2000/svg" xmlns:xlink="http://www.w3.org/1999/xlink" version="1.1" x="0px" y="0px" width="100px" height="100px" viewBox="0 0 100 100" enable-background="new 0 0 100 100" xml:space="preserve">
<g id="Captions">
</g>
<g id="Your_Icon">
	<path fill="#000000" d="M72.434,30.165c-1.275,0-2.491,0.253-3.609,0.7c0.229-0.826,0.36-1.692,0.36-2.591   c0-5.378-4.375-9.754-9.754-9.754c-2.228,0-4.276,0.759-5.921,2.021c-0.204-5.199-4.485-9.368-9.734-9.368   c-5.029,0-9.179,3.825-9.698,8.719c-1.729-1.557-4.007-2.513-6.511-2.513c-5.378,0-9.753,4.375-9.753,9.754   c0,4.653,3.277,8.55,7.643,9.518l-0.654-2.398c-2.852-1.111-4.88-3.88-4.88-7.119c0-4.215,3.429-7.645,7.645-7.645   c3.076,0,5.727,1.83,6.938,4.456c0.107,0.327,0.232,0.646,0.372,0.956c0.216,0.707,0.334,1.456,0.334,2.232   c0,1.841-0.654,3.531-1.742,4.852l0.644,2.371c1.728-1.567,2.755-3.744,3.014-6.188C37.732,28.713,39,29.181,39,29.563v-2.487   c-1-0.768-1.756-1.777-2.303-2.965c-0.106-0.325-0.161-0.641-0.3-0.949c-0.217-0.708-0.301-1.458-0.301-2.236   c0-4.215,3.446-7.644,7.662-7.644c4.215,0,7.653,3.429,7.653,7.644c0,0.857-0.144,1.679-0.405,2.449   c-0.285,0.486-0.642,1-0.84,1.536C49.636,25.775,49,26.521,48,27.114v2.47c1-0.268,1.122-0.574,1.578-0.924   c0.106,2.695,1.374,5.107,3.239,6.812l0.652-2.387c-1.069-1.314-1.697-2.988-1.697-4.812c0-0.856,0.155-1.678,0.416-2.446   c0.285-0.488,0.53-1.002,0.728-1.538c1.346-2.19,3.759-3.659,6.514-3.659c4.215,0,7.646,3.428,7.646,7.644   c0,3.271-2.068,6.061-4.963,7.149l-0.637,2.378c0.538-0.117,1.062-0.272,1.565-0.474c-0.229,0.826-0.36,1.692-0.36,2.59   c0,1.574,0.383,3.057,1.048,4.375l1.439-2.009c-0.243-0.746-0.379-1.54-0.379-2.366c0-4.215,3.43-7.645,7.646-7.645   c4.215,0,7.645,3.648,7.645,7.863c0,4.216-3.43,7.863-7.645,7.863c-0.008,0-0.015,0-0.022,0l-1.427,1.771   c0.475,0.07,0.955,0.01,1.449,0.01c5.378,0,9.753-4.43,9.753-9.809C82.187,34.595,77.812,30.165,72.434,30.165z"/>
	<path fill="#000000" d="M77.845,39.007c-0.24-1.459-1.034-2.735-2.235-3.599c-2.483-1.778-5.948-1.205-7.726,1.274L59.87,47.864   l4.878-18.208c0.792-2.948-0.96-5.991-3.908-6.785c-2.948-0.792-5.991,0.961-6.786,3.916l-4.762,18.239V20.883   c0-3.053-2.483-5.537-5.536-5.537s-5.535,2.484-5.535,5.537v24.579l-5.375-19.796c-0.788-2.948-3.828-4.707-6.778-3.919   c-2.948,0.788-4.706,3.828-3.916,6.782l6.812,25.003c0.024,0.144,0.111,0.735,0.186,1.874c-1.14,0.558-2.196,1.294-3.119,2.218   l-2.162,2.161c-2.19,2.19-3.396,5.104-3.396,8.2c0,3.1,1.206,6.012,3.396,8.202l6.022,6.023c0.292,0.293,0.6,0.563,0.916,0.819   c2.005,3.461,5.757,5.797,10.05,5.797h14.763c6.396,0,11.599-5.183,11.599-11.552V56.619l9.664-13.486   C77.744,41.933,78.087,40.466,77.845,39.007z M75.169,41.904l-9.863,13.762c-0.128,0.18-0.196,0.394-0.196,0.613v20.996   c0,5.207-4.258,9.443-9.49,9.443H40.856c-1.74,0-3.366-0.477-4.769-1.293c-1.685-0.983-2.914-2.318-3.648-3.807   c-0.682-1.301-1.072-2.776-1.072-4.344c0-0.582-0.474-1.054-1.056-1.054s-1.054,0.472-1.054,1.054c0,0.479,0.032,0.947,0.09,1.409   l-3.988-3.987c-1.792-1.793-2.779-4.176-2.779-6.712c0-2.534,0.987-4.917,2.779-6.709l2.161-2.162   c0.526-0.524,1.107-0.972,1.723-1.354c0.009,0.458,0.015,0.952,0.015,1.495v5.615c0,0.583,0.472,1.055,1.054,1.055   s1.056-0.472,1.056-1.055v-5.615c0-0.943-0.016-1.756-0.04-2.464c-0.039-0.952-0.076-1.575-0.12-2.157   c-0.083-1.02-0.169-1.491-0.177-1.527c-0.004-0.027-0.011-0.055-0.018-0.08L24.187,27.98c-0.488-1.826,0.601-3.708,2.426-4.196   c1.826-0.486,3.709,0.602,4.197,2.431l7.447,27.431c0.139,0.512,0.632,0.84,1.157,0.77c0.524-0.069,0.915-0.517,0.915-1.046V20.883   c0-1.89,1.538-3.428,3.427-3.428c1.891,0,3.428,1.538,3.428,3.428v32.356c0,0.53,0.394,0.979,0.92,1.046   c0.521,0.064,1.021-0.267,1.154-0.779l6.834-26.179c0.492-1.825,2.379-2.908,4.2-2.419c1.825,0.491,2.91,2.376,2.419,4.201   l-6.376,23.805c-0.132,0.493,0.107,1.009,0.567,1.227c0.461,0.217,1.01,0.074,1.308-0.339l11.389-15.891   c1.1-1.536,3.246-1.888,4.781-0.788c0.745,0.533,1.235,1.324,1.386,2.228C75.913,40.254,75.702,41.16,75.169,41.904z"/>
	<path fill="#000000" d="M57.07,71.569c0.019-0.036,0.04-0.067,0.055-0.105c0.013-0.028,0.018-0.058,0.028-0.087   c0.012-0.037,0.025-0.072,0.032-0.109c0.015-0.069,0.021-0.139,0.021-0.21l0,0l0,0c0-0.011-0.003-0.019-0.003-0.028   c-0.002-0.061-0.006-0.12-0.019-0.179c-0.011-0.056-0.029-0.108-0.048-0.16c-0.005-0.012-0.006-0.025-0.012-0.036   c-0.024-0.06-0.055-0.116-0.09-0.169c-0.003-0.005-0.004-0.009-0.007-0.013c-0.039-0.059-0.084-0.113-0.134-0.164l-3.16-3.159   c-0.412-0.411-1.08-0.411-1.491,0c-0.413,0.412-0.413,1.079,0,1.491l1.363,1.363H42.882l1.362-1.363   c0.413-0.412,0.413-1.079,0-1.491c-0.411-0.411-1.079-0.411-1.49,0l-3.159,3.159c-0.052,0.051-0.097,0.105-0.136,0.164   c-0.002,0.004-0.004,0.008-0.006,0.013c-0.035,0.053-0.066,0.109-0.091,0.169c-0.004,0.011-0.007,0.024-0.012,0.036   c-0.019,0.052-0.037,0.104-0.048,0.16c-0.012,0.059-0.017,0.118-0.018,0.179c-0.001,0.01-0.003,0.018-0.003,0.028l0,0l0,0   c0,0.071,0.007,0.141,0.021,0.21c0.007,0.037,0.021,0.072,0.033,0.109c0.01,0.029,0.015,0.059,0.027,0.087   c0.016,0.038,0.036,0.069,0.056,0.105c0.015,0.024,0.025,0.052,0.042,0.076c0.023,0.034,0.051,0.064,0.078,0.096   c0.018,0.021,0.032,0.044,0.051,0.062l3.164,3.163c0.205,0.206,0.477,0.309,0.746,0.309s0.539-0.103,0.744-0.309   c0.413-0.412,0.413-1.08,0-1.49l-1.363-1.365h10.727l-1.363,1.365c-0.413,0.41-0.413,1.078,0,1.49   c0.206,0.206,0.476,0.309,0.745,0.309c0.271,0,0.54-0.103,0.746-0.309l3.163-3.163c0.02-0.019,0.034-0.042,0.051-0.062   c0.027-0.031,0.056-0.062,0.079-0.096C57.044,71.621,57.056,71.594,57.07,71.569z"/>
</g>
</svg>