<svg xmlns="http://www.w3.org/2000/svg" xmlns:xlink="http://www.w3.org/1999/xlink" version="1.1" x="0px" y="0px" width="100px" height="100px" viewBox="0 0 100 100" enable-background="new 0 0 100 100" xml:space="preserve">
<g id="Captions">
</g>
<g id="Your_Icon">
	<path fill="#000000" d="M72.434,30.165c-1.275,0-2.491,0.253-3.609,0.7c0.229-0.826,0.36-1.692,0.36-2.591   c0-5.378-4.375-9.754-9.753-9.754c-2.229,0-4.277,0.759-5.922,2.021c-0.204-5.199-4.485-9.368-9.734-9.368   c-5.028,0-9.179,3.825-9.697,8.718c-1.729-1.556-4.008-2.512-6.511-2.512c-5.379,0-9.755,4.375-9.755,9.754   c0,4.653,3.277,8.55,7.645,9.518l-0.654-2.398c-2.852-1.111-4.881-3.88-4.881-7.119c0-4.215,3.43-7.645,7.646-7.645   c3.075,0,5.727,1.831,6.938,4.457c0.107,0.326,0.232,0.644,0.371,0.954c0.217,0.707,0.335,1.456,0.335,2.233   c0,1.841-0.654,3.531-1.742,4.852l0.645,2.372c1.727-1.567,2.754-3.745,3.013-6.188C37.732,28.714,39,29.181,39,29.563v-2.487   c-1-0.766-1.753-1.773-2.3-2.958c-0.106-0.329-0.163-0.648-0.304-0.96c-0.217-0.707-0.3-1.456-0.3-2.232   c0-4.215,3.446-7.644,7.661-7.644c4.216,0,7.654,3.429,7.654,7.644c0,0.855-0.143,1.676-0.402,2.444   c-0.287,0.489-0.646,1.006-0.846,1.545c-0.53,0.863-1.164,1.607-2.164,2.2v2.469c1-0.268,1.121-0.574,1.578-0.924   c0.105,2.695,1.373,5.108,3.238,6.812l0.653-2.386c-1.069-1.315-1.698-2.989-1.698-4.812c0-0.856,0.154-1.678,0.416-2.447   c0.284-0.487,0.529-1.001,0.728-1.536c1.346-2.191,3.76-3.66,6.515-3.66c4.215,0,7.645,3.428,7.645,7.644   c0,3.271-2.068,6.062-4.963,7.15l-0.637,2.377c0.538-0.117,1.062-0.272,1.565-0.474c-0.229,0.826-0.36,1.692-0.36,2.59   c0,1.574,0.383,3.057,1.048,4.375l1.44-2.01c-0.243-0.746-0.379-1.539-0.379-2.365c0-4.215,3.429-7.645,7.645-7.645   c4.215,0,7.645,3.648,7.645,7.863c0,4.216-3.43,7.863-7.645,7.863c-0.008,0-0.015,0-0.021,0l-1.427,1.771   c0.474,0.07,0.955,0.01,1.448,0.01c5.379,0,9.754-4.43,9.754-9.809C82.188,34.595,77.812,30.165,72.434,30.165z"/>
	<path fill="#000000" d="M77.846,39.007c-0.241-1.459-1.034-2.735-2.236-3.599c-2.482-1.778-5.947-1.205-7.726,1.274l-8.013,11.182   l4.877-18.208c0.793-2.948-0.96-5.991-3.907-6.785c-2.948-0.792-5.992,0.961-6.786,3.916l-4.762,18.239V20.883   c0-3.053-2.484-5.537-5.536-5.537c-3.053,0-5.536,2.484-5.536,5.537v24.579l-5.375-19.796c-0.788-2.948-3.828-4.707-6.777-3.919   c-2.948,0.788-4.706,3.828-3.918,6.782l6.814,25.003c0.023,0.144,0.111,0.735,0.184,1.874c-1.139,0.558-2.195,1.294-3.118,2.218   l-2.161,2.161c-2.19,2.19-3.397,5.104-3.397,8.2c0,3.1,1.207,6.012,3.397,8.202l6.022,6.023c0.291,0.293,0.599,0.563,0.915,0.819   c2.005,3.461,5.758,5.797,10.051,5.797h14.761c6.396,0,11.601-5.183,11.601-11.552V56.619l9.663-13.486   C77.744,41.933,78.087,40.466,77.846,39.007z M75.169,41.904l-9.862,13.762c-0.129,0.18-0.197,0.394-0.197,0.613v20.996   c0,5.207-4.258,9.443-9.491,9.443H40.857c-1.741,0-3.366-0.477-4.77-1.293c-1.684-0.983-2.914-2.318-3.648-3.807   c-0.682-1.301-1.072-2.776-1.072-4.344c0-0.582-0.473-1.054-1.055-1.054s-1.055,0.472-1.055,1.054c0,0.479,0.032,0.947,0.09,1.409   l-3.987-3.987c-1.793-1.793-2.78-4.176-2.78-6.712c0-2.534,0.987-4.917,2.78-6.709l2.161-2.162   c0.525-0.524,1.106-0.972,1.721-1.354c0.01,0.458,0.016,0.952,0.016,1.495v5.615c0,0.583,0.473,1.055,1.055,1.055   s1.055-0.472,1.055-1.055v-5.615c0-0.943-0.017-1.756-0.04-2.464c-0.039-0.952-0.076-1.575-0.119-2.157   c-0.083-1.02-0.17-1.491-0.177-1.527c-0.006-0.027-0.012-0.055-0.019-0.08L24.188,27.98c-0.488-1.826,0.6-3.708,2.426-4.196   c1.825-0.486,3.708,0.602,4.196,2.431l7.448,27.431c0.138,0.512,0.631,0.84,1.157,0.77c0.523-0.069,0.915-0.517,0.915-1.046V20.883   c0-1.89,1.537-3.428,3.427-3.428c1.889,0,3.427,1.538,3.427,3.428v32.356c0,0.53,0.394,0.979,0.92,1.046   c0.521,0.064,1.021-0.267,1.155-0.779l6.834-26.179c0.49-1.825,2.378-2.908,4.2-2.419c1.824,0.491,2.909,2.376,2.418,4.201   l-6.376,23.805c-0.131,0.493,0.107,1.009,0.567,1.227c0.462,0.217,1.011,0.074,1.309-0.339L69.6,37.911   c1.099-1.536,3.246-1.888,4.781-0.788c0.744,0.533,1.234,1.324,1.384,2.228C75.913,40.254,75.702,41.16,75.169,41.904z"/>
	<path fill="#000000" d="M52.152,65.927l-3.163-3.163c-0.019-0.02-0.041-0.033-0.062-0.052c-0.031-0.027-0.06-0.056-0.095-0.078   c-0.024-0.017-0.052-0.027-0.076-0.042c-0.036-0.019-0.068-0.041-0.105-0.055c-0.028-0.013-0.059-0.02-0.088-0.028   c-0.036-0.012-0.071-0.025-0.109-0.034c-0.068-0.013-0.139-0.021-0.208-0.021l0,0c-0.001,0-0.001,0-0.001,0   c-0.01,0-0.019,0.003-0.028,0.003c-0.061,0.002-0.121,0.007-0.179,0.018c-0.057,0.012-0.108,0.029-0.161,0.05   c-0.011,0.004-0.024,0.006-0.036,0.011c-0.06,0.024-0.115,0.056-0.169,0.09c-0.004,0.003-0.008,0.004-0.012,0.008   c-0.059,0.039-0.114,0.084-0.164,0.134l-3.16,3.16c-0.411,0.411-0.411,1.079,0,1.491c0.413,0.411,1.079,0.411,1.492,0l1.363-1.363   v13.271c0,0.583,0.472,1.055,1.054,1.055s1.055-0.472,1.055-1.055V66.054l1.363,1.364c0.205,0.205,0.476,0.309,0.745,0.309   c0.271,0,0.54-0.104,0.745-0.309C52.565,67.007,52.565,66.338,52.152,65.927z"/>
</g>
</svg>