<svg xmlns="http://www.w3.org/2000/svg" xmlns:xlink="http://www.w3.org/1999/xlink" version="1.1" x="0px" y="0px" width="100px" height="100px" viewBox="0 0 100 100" enable-background="new 0 0 100 100" xml:space="preserve">
<g id="Captions">
</g>
<g id="Your_Icon">
	<path fill="#000000" d="M69.075,31.227H66.45c-0.739,0-1.497,0.18-2.163,0.504c-0.344-1.972-2.068-3.476-4.137-3.476h-2.625   c-0.865,0-1.671,0.267-2.34,0.717c-0.578-1.632-2.136-2.801-3.961-2.801h-2.624c-1.66,0-3.098,0.969-3.779,2.366   c-0.703-0.526-1.576-0.841-2.521-0.841h-2.625c-2.315,0-4.199,1.881-4.199,4.199v8.602c-1.178,0.562-2.271,1.312-3.221,2.262   l-2.152,2.15c-4.504,4.505-4.504,11.831,0,16.336l5.998,5.996c0.293,0.294,0.604,0.566,0.922,0.825   c1.998,3.442,5.732,5.763,10.002,5.763h14.701c6.369,0,11.55-5.159,11.55-11.501V35.427C73.275,33.11,71.392,31.227,69.075,31.227z    M71.176,62.328c0,5.184-4.24,9.402-9.45,9.402H47.024c-1.731,0-3.35-0.475-4.748-1.287c-1.77-1.055-3.018-2.477-3.629-3.783   c-0.682-1.297-1.072-2.77-1.072-4.332c0-0.58-0.47-1.05-1.051-1.05c-0.578,0-1.049,0.47-1.049,1.05c0,0.478,0.033,0.946,0.09,1.408   l-3.979-3.978c-3.684-3.685-3.684-9.679,0-13.364l2.152-2.151c0.529-0.529,1.115-0.979,1.736-1.361v8.045   c0,0.579,0.471,1.05,1.049,1.05c0.581,0,1.051-0.471,1.051-1.05V31.896c0-1.158,0.941-2.101,2.1-2.101H42.3   c1.158,0,2.101,0.942,2.101,2.101c0,0.581,0.47,1.05,1.05,1.05s1.049-0.469,1.049-1.05v-1.524c0-1.159,0.943-2.101,2.102-2.101   h2.624c1.158,0,2.101,0.941,2.101,2.101v2.085c0,0.579,0.47,1.05,1.051,1.05c0.579,0,1.05-0.471,1.05-1.05   c0-1.157,0.941-2.1,2.1-2.1h2.625c1.158,0,2.1,0.942,2.1,2.1v2.13c0,0.58,0.471,1.051,1.051,1.051s1.05-0.471,1.05-1.051   c0-0.613,1.079-1.26,2.1-1.26h2.625c1.159,0,2.101,0.941,2.101,2.101V62.328z"/>
	<path fill="#000000" d="M58.184,45.46l-3.144-3.145C54.85,42.122,54.584,42,54.291,42c-0.273,0-0.521,0.107-0.709,0.279   c-0.01,0.01-0.023,0.019-0.033,0.028l-3.149,3.152c-0.41,0.41-0.41,1.074,0,1.484c0.205,0.204,0.474,0.306,0.743,0.306   c0.268,0,0.536-0.102,0.741-0.306l1.358-1.359v5.341c0,0.58,0.47,1.05,1.049,1.05c0.58,0,1.051-0.47,1.051-1.05v-5.339l1.356,1.357   c0.41,0.409,1.074,0.409,1.485,0C58.594,46.534,58.594,45.87,58.184,45.46z"/>
	<path fill="#000000" d="M46.001,48.967h1.918c0.58,0,1.051-0.47,1.051-1.05c0-0.579-0.471-1.048-1.051-1.048h-4.443   c-0.207-0.003-0.414,0.057-0.593,0.175c-0.036,0.023-0.067,0.054-0.1,0.081c-0.021,0.018-0.042,0.031-0.061,0.05c0,0,0,0-0.001,0   l0,0c-0.05,0.051-0.094,0.106-0.133,0.163c-0.012,0.018-0.018,0.036-0.028,0.055c-0.024,0.041-0.05,0.083-0.067,0.128   c-0.007,0.015-0.008,0.028-0.014,0.044c-0.041,0.112-0.064,0.231-0.064,0.353v4.456c0,0.579,0.471,1.048,1.05,1.048   c0.581,0,1.051-0.469,1.051-1.048l-0.001-1.921l3.776,3.777c0.205,0.202,0.474,0.306,0.742,0.306s0.538-0.104,0.743-0.306   c0.409-0.41,0.409-1.075,0-1.485L46.001,48.967z"/>
	<path fill="#000000" d="M47.638,57.709H42.3l1.355-1.356c0.41-0.409,0.41-1.074,0-1.483c-0.41-0.41-1.075-0.41-1.484,0   l-3.145,3.144c-0.1,0.097-0.179,0.215-0.233,0.347c-0.001,0.002-0.001,0.006-0.003,0.009c-0.024,0.06-0.044,0.122-0.057,0.185   c-0.01,0.05-0.012,0.101-0.015,0.15c-0.001,0.02-0.007,0.038-0.007,0.058v0.002l0,0c0,0.068,0.009,0.139,0.021,0.206   c0.006,0.029,0.018,0.055,0.025,0.082c0.012,0.038,0.021,0.078,0.035,0.116c0.012,0.024,0.027,0.047,0.039,0.071   c0.02,0.037,0.037,0.076,0.06,0.109c0.001,0.002,0.005,0.004,0.007,0.007c0.035,0.054,0.076,0.103,0.121,0.147l3.15,3.149   c0.205,0.207,0.473,0.309,0.742,0.309c0.268,0,0.537-0.102,0.742-0.309c0.41-0.409,0.41-1.075,0-1.484l-1.357-1.358h5.34   c0.579,0,1.05-0.469,1.05-1.05C48.688,58.18,48.217,57.709,47.638,57.709z"/>
	<path fill="#000000" d="M63.904,50.452l-0.001,1.921c0,0.579,0.47,1.048,1.05,1.048s1.051-0.469,1.051-1.048l0.001-4.456   c0-0.121-0.025-0.24-0.067-0.353c-0.004-0.016-0.006-0.029-0.012-0.044c-0.02-0.045-0.043-0.087-0.067-0.128   c-0.011-0.019-0.019-0.037-0.03-0.055c-0.037-0.057-0.082-0.112-0.131-0.163l0,0c-0.001,0-0.001,0-0.001,0   c-0.019-0.019-0.04-0.032-0.062-0.05c-0.031-0.027-0.063-0.058-0.1-0.081c-0.178-0.118-0.386-0.178-0.592-0.175h-4.445   c-0.578,0-1.049,0.469-1.049,1.048c0,0.58,0.471,1.05,1.049,1.05h1.919l-3.774,3.777c-0.41,0.41-0.41,1.075,0,1.485   c0.205,0.202,0.474,0.306,0.742,0.306c0.27,0,0.537-0.104,0.742-0.306L63.904,50.452z"/>
	<path fill="#000000" d="M69.584,59.238c0.014-0.024,0.029-0.047,0.039-0.071c0.017-0.038,0.025-0.078,0.035-0.116   c0.01-0.027,0.02-0.053,0.025-0.082c0.016-0.067,0.021-0.138,0.021-0.206l0,0v-0.002c0-0.02-0.004-0.038-0.005-0.058   c-0.004-0.05-0.005-0.101-0.017-0.15c-0.012-0.062-0.031-0.125-0.055-0.185c-0.002-0.003-0.002-0.007-0.004-0.009   c-0.054-0.132-0.133-0.25-0.234-0.347l-3.143-3.144c-0.41-0.41-1.075-0.41-1.485,0c-0.409,0.409-0.409,1.074,0,1.483l1.356,1.356   h-5.338c-0.58,0-1.05,0.471-1.05,1.05c0,0.581,0.47,1.05,1.05,1.05h5.34l-1.358,1.358c-0.409,0.409-0.409,1.075,0,1.484   c0.206,0.207,0.474,0.309,0.743,0.309c0.269,0,0.537-0.102,0.742-0.309l3.149-3.149c0.046-0.045,0.086-0.094,0.122-0.147   c0.002-0.003,0.005-0.005,0.008-0.007C69.549,59.314,69.566,59.275,69.584,59.238z"/>
</g>
</svg>