<svg xmlns="http://www.w3.org/2000/svg" xmlns:xlink="http://www.w3.org/1999/xlink" version="1.1" x="0px" y="0px" width="100px" height="100px" viewBox="0 0 100 100" enable-background="new 0 0 100 100" xml:space="preserve">
<g id="Captions">
</g>
<g id="Your_Icon">
	<path fill="#000000" d="M70.438,45.88h-2.762c-0.776,0-1.575,0.188-2.275,0.53c-0.362-2.074-2.176-3.657-4.353-3.657h-2.762   c-0.911,0-1.759,0.277-2.463,0.751c-0.608-1.713-2.246-2.943-4.166-2.943h-2.762c-0.804,0-1.559,0.216-2.209,0.592V25.041   c0-3.197-2.602-5.8-5.8-5.8c-3.197,0-5.8,2.603-5.8,5.8v30.59c-1.239,0.59-2.388,1.381-3.388,2.379l-2.264,2.266   c-4.739,4.738-4.739,12.447,0,17.186l6.31,6.31c0.31,0.31,0.634,0.597,0.97,0.868c2.103,3.621,6.032,6.064,10.525,6.064h15.466   c6.701,0,12.151-5.429,12.151-12.103V50.299C74.857,47.862,72.875,45.88,70.438,45.88z M72.648,78.601   c0,5.455-4.461,9.893-9.942,9.893H47.24c-1.822,0-3.526-0.497-4.996-1.353c-1.219-0.729-2.577-1.788-3.82-3.981   c-0.716-1.366-1.127-2.915-1.127-4.559c0-0.61-0.495-1.105-1.105-1.105s-1.105,0.495-1.105,1.105c0,0.504,0.035,0.997,0.095,1.483   l-4.185-4.186c-3.877-3.877-3.877-10.184,0-14.061l2.264-2.264c0.557-0.558,1.172-1.03,1.826-1.434v7.567   c0,0.61,0.495,1.105,1.105,1.105s1.105-0.495,1.105-1.105V25.041c0-1.979,1.61-3.591,3.59-3.591c1.979,0,3.59,1.611,3.59,3.591   v28.378c0,0.61,0.495,1.104,1.104,1.104c0.61,0,1.105-0.494,1.105-1.104v-8.439c0-1.219,0.991-2.21,2.209-2.21h2.762   c1.219,0,2.209,0.991,2.209,2.21v8.451c0,0.609,0.495,1.104,1.104,1.104c0.611,0,1.105-0.495,1.105-1.104v-6.258   c0-1.219,0.991-2.21,2.21-2.21h2.762c1.218,0,2.208,0.991,2.208,2.21v6.246c0,0.61,0.496,1.104,1.105,1.104   c0.611,0,1.104-0.494,1.104-1.104v-4.005c0-0.644,1.136-1.325,2.21-1.325h2.762c1.219,0,2.21,0.991,2.21,2.21V78.601z"/>
	<path fill="#000000" d="M54.972,78.229c-0.609,0-1.104-0.495-1.104-1.104V66.948l-1.658,1.66c-0.432,0.43-1.131,0.43-1.562,0   c-0.432-0.433-0.432-1.132,0-1.562l3.544-3.546c0.316-0.315,0.792-0.41,1.203-0.238c0.413,0.171,0.683,0.573,0.683,1.02v12.844   C56.077,77.734,55.583,78.229,54.972,78.229z"/>
	<path fill="#000000" d="M40.887,17.029c-0.61,0-1.104-0.494-1.104-1.104v-5.523c0-0.61,0.495-1.104,1.104-1.104   s1.105,0.494,1.105,1.104v5.523C41.992,16.535,41.497,17.029,40.887,17.029z"/>
	<path fill="#000000" d="M36.331,18.251c-0.382,0-0.753-0.198-0.958-0.553l-2.761-4.783c-0.305-0.528-0.124-1.204,0.404-1.51   c0.529-0.305,1.205-0.124,1.509,0.405l2.762,4.783c0.305,0.528,0.124,1.204-0.404,1.509C36.708,18.204,36.518,18.251,36.331,18.251   z"/>
	<path fill="#000000" d="M32.991,21.588c-0.188,0-0.378-0.048-0.551-0.148l-4.784-2.762c-0.529-0.305-0.709-0.98-0.405-1.509   c0.305-0.528,0.981-0.709,1.51-0.404l4.783,2.762c0.528,0.305,0.709,0.981,0.405,1.509C33.744,21.39,33.373,21.588,32.991,21.588z"/>
	<path fill="#000000" d="M31.77,26.146h-5.522c-0.61,0-1.105-0.495-1.105-1.105s0.495-1.104,1.105-1.104h5.522   c0.61,0,1.105,0.494,1.105,1.104S32.38,26.146,31.77,26.146z"/>
	<path fill="#000000" d="M28.21,33.466c-0.382,0-0.753-0.198-0.958-0.553c-0.304-0.528-0.124-1.204,0.405-1.509l4.782-2.762   c0.528-0.306,1.204-0.124,1.509,0.405c0.305,0.528,0.124,1.203-0.404,1.509l-4.782,2.761C28.587,33.418,28.397,33.466,28.21,33.466   z"/>
	<path fill="#000000" d="M53.564,33.466c-0.188,0-0.377-0.048-0.551-0.148l-4.784-2.76c-0.528-0.305-0.709-0.98-0.404-1.509   c0.304-0.529,0.979-0.71,1.508-0.405l4.783,2.761c0.528,0.305,0.711,0.98,0.404,1.509C54.318,33.268,53.947,33.466,53.564,33.466z"/>
	<path fill="#000000" d="M50.003,26.147c-0.609,0-1.104-0.494-1.105-1.104c0-0.61,0.495-1.105,1.105-1.105l5.524-0.001l0,0   c0.61,0,1.104,0.494,1.104,1.104c0,0.609-0.494,1.104-1.104,1.105L50.003,26.147L50.003,26.147z"/>
	<path fill="#000000" d="M48.783,21.589c-0.381,0-0.752-0.198-0.958-0.552c-0.305-0.529-0.124-1.204,0.404-1.51l4.783-2.763   c0.528-0.305,1.204-0.124,1.509,0.404c0.307,0.527,0.125,1.204-0.403,1.509l-4.783,2.763   C49.162,21.541,48.971,21.589,48.783,21.589z"/>
	<path fill="#000000" d="M45.445,18.251c-0.188,0-0.377-0.047-0.551-0.147c-0.529-0.305-0.71-0.981-0.405-1.509l2.761-4.784   c0.305-0.529,0.979-0.71,1.509-0.405c0.529,0.306,0.709,0.981,0.405,1.509l-2.761,4.785C46.199,18.054,45.827,18.251,45.445,18.251   z"/>
</g>
</svg>