<svg xmlns="http://www.w3.org/2000/svg" xmlns:xlink="http://www.w3.org/1999/xlink" version="1.1" x="0px" y="0px" width="100px" height="100px" viewBox="0 0 100 100" enable-background="new 0 0 100 100" xml:space="preserve">
<g id="Captions">
</g>
<g id="Your_Icon">
	<path fill="#000000" d="M24.182,39.608c-1.584-0.946-2.867-2.385-3.552-4.164c-0.805-2.088-0.746-4.366,0.164-6.421   c0.912-2.053,2.563-3.625,4.654-4.431c0.967-0.372,1.979-0.562,3.007-0.562c3.452,0,6.605,2.162,7.846,5.378   c1.318,3.429,0.226,7.195-2.437,9.438l0.203,2.454c4.151-2.62,6.022-7.896,4.192-12.646c-1.55-4.022-5.489-6.724-9.805-6.724   c-1.288,0-2.554,0.235-3.763,0.702c-2.612,1.006-4.679,2.972-5.817,5.538c-1.137,2.565-1.211,5.417-0.205,8.028   c1.036,2.689,3.145,4.783,5.716,5.879L24.182,39.608z"/>
	<path fill="#000000" d="M72.323,14.058c-5.356,0-9.714,4.357-9.714,9.713c0,1.018,0.159,1.998,0.45,2.921   c0.617-0.617,1.202-1.202,1.75-1.75c-0.06-0.383-0.1-0.771-0.1-1.171c0-4.198,3.415-7.613,7.613-7.613   c4.195,0,7.611,3.415,7.611,7.613c0,4.197-3.416,7.611-7.611,7.611c-0.417,0-0.824-0.043-1.224-0.107l-1.741,1.741   c0.936,0.301,1.931,0.467,2.965,0.467c5.354,0,9.711-4.357,9.711-9.712C82.034,18.415,77.678,14.058,72.323,14.058z"/>
	<path fill="#000000" d="M78.166,57.62l-1.856-1.855c-0.523-0.522-1.188-0.934-1.887-1.173c0.494-0.702,0.764-1.538,0.764-2.415   c0-1.121-0.438-2.174-1.232-2.969l-1.855-1.856c-0.613-0.61-1.368-0.994-2.161-1.149c0.744-1.562,0.471-3.489-0.819-4.778   l-1.856-1.857c-0.541-0.54-1.193-0.902-1.885-1.086l10.829-10.828c1.042-1.042,1.616-2.426,1.616-3.898   c-0.001-1.473-0.574-2.855-1.616-3.896c-1.04-1.042-2.426-1.615-3.897-1.615c-1.473,0-2.857,0.573-3.898,1.615l-25.123,25.12   l-8.016-1.874l-0.924-11.146c-0.264-3.202-3.114-5.673-6.372-5.398c-3.245,0.269-5.67,3.127-5.4,6.371l1.053,12.726   c0.31,4.574,2.059,9.236,3.043,11.274l2.536,5.243c-0.095,0.6-0.154,1.206-0.152,1.827c0.006,3.076,1.212,5.974,3.394,8.155   L42.843,82.55c2.18,2.18,5.075,3.385,8.154,3.393c0.009,0,0.017,0,0.024,0c3.07,0,5.954-1.193,8.119-3.359L78.166,63.56   C79.804,61.923,79.804,59.257,78.166,57.62z M76.681,62.075L57.658,81.097c-1.771,1.771-4.126,2.746-6.637,2.746   c-0.007,0-0.013,0-0.021,0c-2.519-0.006-4.888-0.993-6.674-2.78L33.931,70.669c-1.204-1.204-2.033-2.679-2.454-4.281   c-0.524-1.844-0.079-4.512-0.079-4.512c0.386-1.705,1.236-3.272,2.501-4.538c0.411-0.408,0.411-1.073,0-1.484   c-0.41-0.41-1.075-0.41-1.486,0c-0.979,0.981-1.751,2.114-2.313,3.343l-1.534-3.181c-1.195-2.466-2.591-6.802-2.843-10.519   l-1.054-12.74c-0.174-2.09,1.389-3.933,3.479-4.105c0.107-0.01,0.215-0.015,0.319-0.015c1.963,0,3.626,1.535,3.787,3.494   l0.985,11.906c0.039,0.455,0.364,0.833,0.808,0.937l7.495,1.752l-0.463,0.463c-0.41,0.411-0.41,1.077,0,1.484   c0.408,0.41,1.074,0.41,1.483,0l1.385-1.384l1.749-1.747l24.199-24.199c0.645-0.646,1.5-1,2.413-1c0.91,0,1.77,0.354,2.413,0.998   c0.644,0.646,0.999,1.502,0.999,2.413s-0.355,1.769-0.999,2.414L55.648,45.239c-0.204,0.203-0.308,0.474-0.308,0.743   s0.104,0.538,0.308,0.741c0.409,0.412,1.074,0.412,1.486,0l5.672-5.671c0.819-0.819,2.149-0.819,2.97,0l1.856,1.857   c0.817,0.817,0.817,2.149,0,2.968l-1.456,1.454c-0.006,0.007-0.012,0.014-0.018,0.02l-4.206,4.206   c-0.409,0.411-0.409,1.076,0,1.486c0.411,0.409,1.074,0.409,1.485,0l4.22-4.221c0.819-0.806,2.141-0.801,2.955,0.013l1.856,1.859   c0.396,0.395,0.613,0.922,0.613,1.481c0,0.562-0.217,1.089-0.613,1.486l-4.199,4.197c-0.203,0.207-0.308,0.475-0.308,0.743   c0,0.27,0.104,0.537,0.308,0.743c0.409,0.41,1.075,0.41,1.485,0l2.693-2.692c0.445-0.44,1.64-0.14,2.374,0.595l1.857,1.856   C77.499,59.924,77.499,61.256,76.681,62.075z"/>
	<path fill="#000000" d="M57.48,59.087c-0.398-0.424-1.062-0.443-1.484-0.047c-0.423,0.396-0.443,1.061-0.046,1.483   c1.192,1.272,1.85,2.929,1.85,4.671c0,3.764-3.063,6.827-6.824,6.827c-3.765,0-6.827-3.063-6.827-6.827   c0-3.068,2.035-5.669,4.829-6.523l-1.184,1.827c-0.315,0.487-0.177,1.138,0.312,1.452c0.174,0.115,0.373,0.171,0.567,0.169   c0.344,0,0.682-0.169,0.882-0.479l2.422-3.741c0.15-0.232,0.203-0.518,0.145-0.79c-0.059-0.271-0.223-0.51-0.457-0.661l-3.74-2.42   c-0.486-0.315-1.136-0.176-1.45,0.312c-0.317,0.487-0.177,1.137,0.31,1.451l1.425,0.922c-3.571,1.168-6.161,4.527-6.161,8.481   c0,4.924,4.005,8.927,8.928,8.927c4.92,0,8.924-4.003,8.924-8.927C59.899,62.917,59.04,60.746,57.48,59.087z"/>
</g>
</svg>