<svg xmlns="http://www.w3.org/2000/svg" xmlns:xlink="http://www.w3.org/1999/xlink" version="1.1" x="0px" y="0px" width="100px" height="100px" viewBox="0 0 100 100" enable-background="new 0 0 100 100" xml:space="preserve">
<g id="Captions">
</g>
<g id="Your_Icon">
	<path fill="#000000" d="M83.336,41.688c-0.24-1.456-1.031-2.729-2.229-3.589c-2.477-1.773-5.932-1.203-7.705,1.27L65.41,50.521   l4.863-18.157c0.793-2.94-0.955-5.977-3.895-6.768c-2.941-0.79-5.977,0.957-6.768,3.904l-4.75,18.19V23.612   c0-3.045-2.477-5.521-5.52-5.521c-3.047,0-5.523,2.476-5.523,5.521v24.514l-5.359-19.742c-0.785-2.941-3.818-4.696-6.758-3.909   c-2.941,0.786-4.695,3.818-3.908,6.764l6.795,24.936c0.043,0.258,0.293,1.955,0.293,5.708v1.911l-1.66-0.634l-4.676-10.536   c-0.947-2.139-3.07-3.52-5.408-3.52c-0.828,0-1.635,0.172-2.396,0.51c-2.98,1.321-4.33,4.823-3.008,7.805l5.186,11.688   c1.795,4.221,4.986,8.059,6.588,9.662l6.006,6.007c0.291,0.291,0.598,0.562,0.914,0.817c1.998,3.451,5.742,5.781,10.023,5.781   H61.17c6.379,0,11.566-5.168,11.566-11.521v-20.6l9.641-13.45C83.236,44.604,83.578,43.143,83.336,41.688z M80.668,44.578   l-9.836,13.724c-0.127,0.178-0.197,0.393-0.197,0.612v20.938c0,5.192-4.246,9.418-9.465,9.418H46.449   c-1.736,0-3.357-0.476-4.758-1.29c-1.623-0.991-3.068-2.485-3.637-3.796c-0.68-1.298-1.07-2.77-1.07-4.332   c0-0.581-0.471-1.052-1.051-1.052c-0.582,0-1.053,0.471-1.053,1.052c0,0.476,0.033,0.945,0.09,1.405l-3.977-3.978   c-1.939-1.938-4.688-5.582-6.148-9.013l-5.191-11.703c-0.852-1.921,0.018-4.177,1.939-5.028c0.492-0.219,1.01-0.33,1.543-0.33   c1.506,0,2.875,0.891,3.486,2.27l4.854,10.938c0.113,0.255,0.324,0.456,0.586,0.556l2.818,1.073v1.441   c0,0.579,0.471,1.051,1.053,1.051c0.58,0,1.051-0.472,1.051-1.051v-5.602c0-4.319-0.32-6.06-0.334-6.132   c-0.006-0.026-0.012-0.055-0.02-0.079l-6.807-24.979c-0.486-1.821,0.598-3.698,2.42-4.185c1.82-0.486,3.697,0.6,4.186,2.424   l7.428,27.356c0.137,0.509,0.627,0.836,1.152,0.768c0.523-0.07,0.912-0.516,0.912-1.043V23.612c0-1.885,1.535-3.418,3.42-3.418   c1.883,0,3.416,1.533,3.416,3.418v32.271c0,0.527,0.393,0.976,0.918,1.043c0.52,0.067,1.018-0.268,1.15-0.779l6.816-26.105   c0.49-1.821,2.373-2.901,4.189-2.413c1.818,0.49,2.902,2.368,2.412,4.189l-6.359,23.74c-0.131,0.49,0.107,1.005,0.566,1.223   c0.459,0.216,1.006,0.076,1.305-0.338l11.357-15.847c1.096-1.531,3.236-1.885,4.768-0.786c0.742,0.531,1.232,1.32,1.381,2.221   C81.41,42.93,81.199,43.836,80.668,44.578z"/>
	<path fill="#000000" d="M49.398,15.987c-0.58,0-1.051-0.469-1.051-1.051V9.679c0-0.581,0.471-1.052,1.051-1.052   s1.053,0.471,1.053,1.052v5.258C50.451,15.519,49.979,15.987,49.398,15.987z"/>
	<path fill="#000000" d="M45.062,17.15c-0.365,0-0.719-0.188-0.914-0.525l-2.627-4.555c-0.291-0.503-0.119-1.145,0.385-1.436   c0.502-0.291,1.146-0.118,1.436,0.384l2.629,4.556c0.291,0.502,0.119,1.146-0.385,1.435C45.42,17.104,45.238,17.15,45.062,17.15z"/>
	<path fill="#000000" d="M41.883,20.326c-0.178,0-0.359-0.045-0.523-0.141l-4.555-2.629c-0.504-0.29-0.676-0.934-0.385-1.437   c0.289-0.503,0.932-0.676,1.436-0.385l4.553,2.628c0.504,0.291,0.676,0.934,0.387,1.438C42.6,20.139,42.246,20.326,41.883,20.326z"/>
	<path fill="#000000" d="M56.916,20.328c-0.363,0-0.717-0.188-0.912-0.526c-0.289-0.503-0.119-1.146,0.385-1.437l4.553-2.63   c0.502-0.292,1.146-0.118,1.438,0.385c0.289,0.503,0.117,1.146-0.385,1.436l-4.553,2.631   C57.275,20.283,57.094,20.328,56.916,20.328z"/>
	<path fill="#000000" d="M53.738,17.151c-0.18,0-0.359-0.046-0.525-0.141c-0.502-0.291-0.674-0.935-0.387-1.437l2.629-4.556   c0.291-0.502,0.934-0.675,1.438-0.384c0.502,0.291,0.674,0.933,0.385,1.436l-2.627,4.555   C54.453,16.962,54.102,17.151,53.738,17.151z"/>
	<path fill="#000000" d="M33.146,22.188c-0.578,0-1.051-0.47-1.051-1.05v-5.258c0-0.581,0.473-1.052,1.051-1.052   c0.582,0,1.053,0.471,1.053,1.052v5.258C34.199,21.719,33.729,22.188,33.146,22.188z"/>
	<path fill="#000000" d="M28.811,23.352c-0.363,0-0.717-0.188-0.912-0.525l-2.629-4.554c-0.291-0.503-0.117-1.146,0.385-1.437   s1.146-0.117,1.438,0.387l2.629,4.553c0.291,0.503,0.117,1.146-0.387,1.437C29.17,23.307,28.988,23.352,28.811,23.352z"/>
	<path fill="#000000" d="M25.631,26.528c-0.178,0-0.357-0.044-0.523-0.142l-4.555-2.627c-0.502-0.292-0.676-0.935-0.385-1.438   s0.932-0.676,1.438-0.385l4.553,2.629c0.502,0.291,0.676,0.934,0.385,1.436C26.35,26.34,25.994,26.528,25.631,26.528z"/>
	<path fill="#000000" d="M24.469,30.866h-5.256c-0.58,0-1.053-0.47-1.053-1.05c0-0.582,0.473-1.052,1.053-1.052h5.256   c0.582,0,1.053,0.47,1.053,1.052C25.521,30.396,25.051,30.866,24.469,30.866z"/>
	<path fill="#000000" d="M21.08,37.836c-0.363,0-0.717-0.189-0.912-0.526c-0.291-0.504-0.117-1.146,0.385-1.437l4.553-2.628   c0.502-0.292,1.146-0.12,1.438,0.385c0.289,0.503,0.117,1.145-0.387,1.437l-4.551,2.627C21.439,37.789,21.26,37.836,21.08,37.836z"/>
	<path fill="#000000" d="M65.031,23.359c-0.582,0-1.053-0.471-1.053-1.053V17.05c0-0.582,0.471-1.053,1.053-1.053   c0.58,0,1.049,0.471,1.049,1.053v5.257C66.08,22.889,65.611,23.359,65.031,23.359z"/>
	<path fill="#000000" d="M72.547,27.698c-0.365,0-0.717-0.188-0.912-0.525c-0.291-0.503-0.117-1.146,0.385-1.437l4.553-2.629   c0.504-0.293,1.146-0.119,1.438,0.385c0.289,0.501,0.117,1.145-0.385,1.436l-4.555,2.63C72.904,27.652,72.725,27.698,72.547,27.698   z"/>
	<path fill="#000000" d="M69.367,24.521c-0.178,0-0.357-0.045-0.523-0.141c-0.504-0.291-0.676-0.933-0.385-1.437l2.627-4.554   c0.291-0.503,0.932-0.676,1.438-0.385c0.502,0.289,0.676,0.934,0.385,1.437l-2.629,4.554   C70.086,24.333,69.732,24.521,69.367,24.521z"/>
	<path fill="#000000" d="M77.99,34.972c-0.58,0-1.053-0.472-1.053-1.053v-5.258c0-0.581,0.473-1.052,1.053-1.052   s1.051,0.471,1.051,1.052v5.258C79.041,34.5,78.57,34.972,77.99,34.972z"/>
	<path fill="#000000" d="M84.959,55.718c-0.363,0-0.717-0.189-0.912-0.526l-2.629-4.552c-0.291-0.504-0.119-1.146,0.385-1.437   c0.5-0.291,1.145-0.119,1.436,0.385l2.631,4.552c0.289,0.503,0.117,1.146-0.385,1.437C85.318,55.672,85.139,55.718,84.959,55.718z"/>
	<path fill="#000000" d="M90.057,50.616c-0.178,0-0.357-0.046-0.523-0.141l-4.555-2.628c-0.502-0.29-0.676-0.934-0.385-1.437   s0.934-0.675,1.438-0.386l4.553,2.628c0.504,0.291,0.676,0.934,0.385,1.437C90.775,50.429,90.42,50.616,90.057,50.616z"/>
	<path fill="#000000" d="M86.668,43.65c-0.58,0-1.053-0.471-1.053-1.052c0-0.58,0.471-1.052,1.053-1.052l5.258-0.002l0,0   c0.58,0,1.051,0.472,1.051,1.051c0,0.581-0.471,1.053-1.051,1.053L86.668,43.65L86.668,43.65z"/>
	<path fill="#000000" d="M85.506,39.311c-0.363,0-0.717-0.188-0.91-0.525c-0.291-0.503-0.119-1.146,0.385-1.438l4.553-2.628   c0.502-0.294,1.146-0.119,1.436,0.385c0.291,0.501,0.119,1.146-0.385,1.435l-4.553,2.631   C85.865,39.265,85.686,39.311,85.506,39.311z"/>
	<path fill="#000000" d="M82.328,36.134c-0.178,0-0.357-0.044-0.523-0.142c-0.504-0.289-0.678-0.932-0.385-1.436l2.627-4.555   c0.291-0.503,0.932-0.676,1.438-0.385c0.502,0.29,0.674,0.935,0.385,1.438l-2.629,4.553C83.047,35.945,82.693,36.134,82.328,36.134   z"/>
	<path fill="#000000" d="M23.234,46.642c-0.58,0-1.053-0.471-1.053-1.052v-5.72c0-0.58,0.473-1.052,1.053-1.052   s1.051,0.472,1.051,1.052v5.72C24.285,46.171,23.814,46.642,23.234,46.642z"/>
	<path fill="#000000" d="M18.514,47.906c-0.363,0-0.715-0.188-0.912-0.525l-2.859-4.954c-0.289-0.502-0.117-1.146,0.385-1.437   c0.504-0.292,1.146-0.116,1.438,0.386l2.859,4.953c0.289,0.504,0.119,1.146-0.385,1.437C18.875,47.861,18.693,47.906,18.514,47.906   z"/>
	<path fill="#000000" d="M15.059,51.363c-0.178,0-0.361-0.046-0.527-0.143l-4.953-2.858c-0.502-0.291-0.674-0.935-0.385-1.438   c0.291-0.502,0.932-0.676,1.438-0.385l4.953,2.859c0.504,0.292,0.676,0.935,0.387,1.438C15.775,51.173,15.422,51.363,15.059,51.363   z"/>
	<path fill="#000000" d="M13.793,56.082H8.074c-0.582,0-1.051-0.472-1.051-1.052s0.469-1.051,1.051-1.051h5.719   c0.58,0,1.051,0.471,1.051,1.051S14.373,56.082,13.793,56.082z"/>
	<path fill="#000000" d="M10.105,63.662c-0.363,0-0.717-0.189-0.912-0.525c-0.289-0.503-0.117-1.146,0.385-1.438l4.953-2.859   c0.506-0.29,1.146-0.117,1.438,0.385c0.289,0.504,0.117,1.146-0.385,1.438l-4.953,2.859C10.465,63.616,10.283,63.662,10.105,63.662   z"/>
	<path fill="#000000" d="M15.652,69.21c-0.178,0-0.359-0.045-0.525-0.14c-0.502-0.291-0.674-0.934-0.385-1.437l2.859-4.953   c0.291-0.502,0.932-0.675,1.438-0.385c0.502,0.291,0.674,0.934,0.385,1.437l-2.859,4.953C16.369,69.021,16.016,69.21,15.652,69.21z   "/>
	<path fill="#000000" d="M57.623,79.633H50c-0.58,0-1.053-0.472-1.053-1.053c0-1.938,1.963-3.302,4.039-4.744   c1.682-1.168,3.586-2.492,3.586-3.701c0-1.873-1.432-2.728-2.762-2.728c-1.494,0-2.76,0.994-2.76,2.17   c0,0.58-0.471,1.051-1.051,1.051s-1.053-0.471-1.053-1.051c0-2.356,2.182-4.272,4.863-4.272c2.773,0,4.865,2.077,4.865,4.83   c0,2.31-2.281,3.895-4.488,5.429c-0.881,0.612-1.898,1.317-2.527,1.967h5.963c0.58,0,1.053,0.47,1.053,1.05   C58.676,79.161,58.203,79.633,57.623,79.633z"/>
</g>
</svg>