<svg xmlns="http://www.w3.org/2000/svg" xmlns:xlink="http://www.w3.org/1999/xlink" version="1.1" x="0px" y="0px" width="100px" height="100px" viewBox="0 0 100 100" enable-background="new 0 0 100 100" xml:space="preserve">
<g id="Captions">
</g>
<g id="Your_Icon">
	<path fill="#000000" d="M66.162,18.067c-2.261,0-4.34,0.771-6.008,2.051c-0.207-5.275-4.549-9.506-9.875-9.506   c-5.101,0-9.31,3.881-9.836,8.846c-1.754-1.579-4.065-2.55-6.605-2.55c-5.455,0-9.895,4.438-9.895,9.895   c0,4.72,3.325,8.673,7.753,9.654l-0.663-2.433c-2.892-1.127-4.951-3.936-4.951-7.222c0-4.276,3.48-7.755,7.756-7.755   c3.124,0,5.815,1.861,7.043,4.529c0.106,0.327,0.231,0.645,0.37,0.955c0.221,0.719,0.341,1.48,0.341,2.271   c0,1.867-0.663,3.582-1.767,4.922l0.653,2.405c1.752-1.59,3.076-3.799,3.339-6.277C44.433,28.406,45,28.879,46,29.268v-2.523   c-1-0.777-2.061-1.8-2.615-3.001c-0.108-0.333-0.308-0.656-0.449-0.973c-0.219-0.717-0.375-1.477-0.375-2.264   c0-4.275,3.463-7.755,7.736-7.755c4.277,0,7.747,3.479,7.747,7.755c0,0.871-0.154,1.705-0.421,2.487   c-0.286,0.491-0.436,1.01-0.636,1.55C56.448,25.423,56,26.181,55,26.783v2.505c0-0.271,0.921-0.582,1.384-0.938   c0.106,2.735,1.284,5.184,3.177,6.913l0.607-2.42c-1.085-1.334-1.75-3.032-1.75-4.882c0-0.871,0.145-1.705,0.411-2.487   c0.287-0.492,0.527-1.011,0.728-1.552c1.364-2.225,3.811-3.717,6.607-3.717c4.275,0,7.755,3.479,7.755,7.756   c0,3.318-2.102,6.148-5.039,7.253l-0.648,2.419c4.465-0.954,7.825-4.927,7.825-9.672C76.057,22.506,71.617,18.067,66.162,18.067z"/>
	<path fill="#000000" d="M69.783,45.988h-2.676c-0.002,0-0.004,0-0.006,0l4.453-16.626c0.805-2.989-0.973-6.076-3.963-6.883   c-2.99-0.803-6.078,0.975-6.885,3.973l-4.83,18.503V20.462c0-3.097-2.52-5.616-5.615-5.616c-3.098,0-5.617,2.52-5.617,5.616v24.936   l-5.451-20.083c-0.799-2.991-3.883-4.774-6.875-3.976c-2.992,0.801-4.775,3.885-3.975,6.881l6.912,25.363   c0.023,0.146,0.111,0.746,0.188,1.903c-1.156,0.563-2.229,1.312-3.164,2.247l-2.193,2.193c-4.588,4.587-4.588,12.053,0,16.64   l6.109,6.109c0.297,0.296,0.607,0.571,0.928,0.832c2.037,3.511,5.842,5.88,10.197,5.88h14.975c6.488,0,11.766-5.257,11.766-11.719   V50.267C74.061,47.907,72.143,45.988,69.783,45.988z M71.922,77.669c0,5.282-4.318,9.579-9.627,9.579H47.32   c-1.766,0-3.416-0.482-4.84-1.312c-1.516-1.078-2.977-2.285-3.699-3.86c-0.691-1.321-1.088-2.817-1.088-4.407   c0-0.59-0.48-1.069-1.07-1.069s-1.07,0.479-1.07,1.069c0,0.484,0.033,0.961,0.092,1.43l-4.047-4.046   c-3.752-3.753-3.752-9.859,0-13.614l2.193-2.192c0.533-0.532,1.123-0.986,1.748-1.374c0.01,0.465,0.014,0.968,0.014,1.518v5.697   c0,0.59,0.48,1.069,1.07,1.069s1.07-0.479,1.07-1.069V59.39c0-0.956-0.016-1.781-0.041-2.499c-0.02-0.807-0.055-1.442-0.121-2.189   c-0.084-1.033-0.172-1.512-0.178-1.549c-0.008-0.027-0.014-0.055-0.021-0.082l-6.924-25.408c-0.494-1.852,0.609-3.761,2.461-4.256   c1.854-0.494,3.762,0.609,4.258,2.466l7.557,27.827c0.139,0.518,0.643,0.851,1.172,0.78c0.531-0.071,0.93-0.524,0.93-1.061V20.462   c0-1.917,1.559-3.477,3.477-3.477c1.916,0,3.477,1.56,3.477,3.477v32.824c0,0.537,0.398,0.992,0.932,1.061   c0.537,0.074,1.037-0.271,1.172-0.79L62.775,27c0.498-1.851,2.41-2.95,4.262-2.453c1.85,0.498,2.951,2.41,2.451,4.262l-6.5,24.267   c-0.152,0.57,0.188,1.157,0.758,1.311c0.57,0.152,1.156-0.187,1.311-0.757l1.15-4.3c0.322-1.202,0.727-1.202,0.9-1.202h2.676   c1.18,0,2.139,0.96,2.139,2.14V77.669z"/>
	<path fill="#000000" d="M64.059,71.84c0.01-0.015,0.016-0.03,0.025-0.045c0.027-0.045,0.053-0.091,0.074-0.14   c0.008-0.02,0.012-0.042,0.02-0.063c0.016-0.044,0.031-0.088,0.041-0.136c0.014-0.068,0.021-0.14,0.021-0.211   c0-0.072-0.008-0.143-0.021-0.212c-0.01-0.048-0.025-0.091-0.041-0.136c-0.008-0.021-0.012-0.044-0.02-0.063   c-0.021-0.049-0.047-0.095-0.074-0.14c-0.01-0.015-0.016-0.03-0.025-0.045c-0.039-0.058-0.084-0.112-0.133-0.162l-2.406-2.404   c-0.418-0.419-1.094-0.419-1.512,0c-0.418,0.417-0.418,1.095,0,1.512l0.58,0.581h-4.371v-4.371l0.582,0.58   c0.209,0.209,0.482,0.314,0.756,0.314s0.547-0.105,0.756-0.314c0.418-0.417,0.418-1.094,0-1.513l-2.406-2.406   c-0.02-0.019-0.043-0.033-0.062-0.053c-0.031-0.026-0.062-0.056-0.098-0.078c-0.025-0.018-0.053-0.028-0.078-0.043   c-0.035-0.02-0.068-0.041-0.105-0.057c-0.029-0.012-0.061-0.019-0.09-0.027c-0.037-0.012-0.072-0.026-0.111-0.033   c-0.068-0.015-0.139-0.022-0.211-0.022l0,0l0,0c-0.01,0-0.02,0.003-0.029,0.003c-0.061,0.002-0.123,0.007-0.182,0.02   c-0.057,0.01-0.109,0.028-0.162,0.049c-0.012,0.005-0.025,0.006-0.039,0.011c-0.059,0.025-0.115,0.057-0.17,0.092   c-0.004,0.002-0.008,0.004-0.012,0.006c-0.061,0.041-0.115,0.087-0.166,0.138l-2.404,2.402c-0.416,0.419-0.416,1.096,0,1.513   c0.418,0.418,1.096,0.418,1.514,0l0.58-0.58v4.371h-4.371l0.582-0.581c0.418-0.417,0.418-1.095,0-1.512   c-0.418-0.419-1.096-0.419-1.514,0l-2.406,2.404c-0.049,0.05-0.094,0.104-0.133,0.162c-0.01,0.015-0.016,0.03-0.025,0.045   c-0.025,0.045-0.053,0.091-0.072,0.14c-0.01,0.02-0.014,0.043-0.02,0.063c-0.016,0.045-0.033,0.088-0.043,0.136   c-0.014,0.069-0.02,0.14-0.02,0.212c0,0.071,0.006,0.143,0.02,0.211c0.01,0.048,0.027,0.092,0.043,0.136   c0.006,0.021,0.01,0.044,0.02,0.063c0.02,0.049,0.047,0.095,0.072,0.14c0.01,0.015,0.016,0.03,0.025,0.045   c0.039,0.059,0.084,0.112,0.133,0.162l2.406,2.406c0.209,0.209,0.482,0.312,0.756,0.312c0.275,0,0.549-0.104,0.758-0.312   c0.418-0.418,0.418-1.096,0-1.513l-0.582-0.581h4.371v4.37l-0.58-0.58c-0.418-0.418-1.096-0.418-1.514,0   c-0.416,0.417-0.416,1.095,0,1.513l2.404,2.402c0.051,0.052,0.105,0.097,0.166,0.138c0.004,0.002,0.008,0.004,0.012,0.006   c0.055,0.035,0.111,0.066,0.17,0.092c0.014,0.005,0.027,0.006,0.039,0.012c0.053,0.02,0.105,0.038,0.162,0.049   c0.059,0.013,0.121,0.017,0.182,0.019c0.01,0,0.02,0.003,0.029,0.003l0,0l0,0c0.072,0,0.143-0.007,0.211-0.021   c0.039-0.008,0.074-0.022,0.111-0.033c0.029-0.01,0.061-0.016,0.09-0.028c0.037-0.016,0.07-0.036,0.105-0.057   c0.025-0.015,0.053-0.025,0.078-0.042c0.035-0.023,0.066-0.053,0.098-0.079c0.02-0.019,0.043-0.033,0.062-0.052l2.406-2.407   c0.418-0.418,0.418-1.096,0-1.513c-0.418-0.418-1.094-0.418-1.512,0l-0.582,0.58v-4.37h4.371l-0.58,0.581   c-0.418,0.417-0.418,1.095,0,1.513c0.209,0.209,0.482,0.312,0.756,0.312s0.547-0.104,0.756-0.312l2.406-2.406   C63.975,71.952,64.02,71.898,64.059,71.84z"/>
</g>
</svg>