<svg xmlns="http://www.w3.org/2000/svg" xmlns:xlink="http://www.w3.org/1999/xlink" version="1.1" x="0px" y="0px" width="100px" height="100px" viewBox="0 0 100 100" enable-background="new 0 0 100 100" xml:space="preserve">
<g id="Captions">
</g>
<g id="Your_Icon">
	<path fill="#000000" d="M21.315,60.617c-3.828-0.785-6.717-4.18-6.717-8.236c0-4.639,3.773-8.41,8.411-8.41   c4.636,0,8.408,3.771,8.408,8.41c0,1.577-0.444,3.05-1.203,4.312l0.995,2.244c1.441-1.8,2.31-4.077,2.31-6.557   c0-5.797-4.715-10.514-10.51-10.514c-5.798,0-10.514,4.717-10.514,10.514c0,5.559,4.342,10.113,9.813,10.477L21.315,60.617z"/>
	<path fill="#000000" d="M77.777,30.219c-1.272,0-2.484,0.252-3.6,0.698c0.228-0.824,0.359-1.688,0.359-2.583   c0-5.363-4.363-9.727-9.728-9.727c-2.222,0-4.267,0.757-5.906,2.016c-0.203-5.186-4.473-9.344-9.706-9.344   c-5.015,0-9.154,3.815-9.672,8.695c-1.724-1.552-3.996-2.506-6.493-2.506c-5.364,0-9.728,4.363-9.728,9.727   c0,4.641,3.269,8.527,7.623,9.492l-0.652-2.391c-2.844-1.109-4.867-3.871-4.867-7.102c0-4.203,3.42-7.625,7.624-7.625   c3.068,0,5.712,1.827,6.92,4.446c0.106,0.325,0.23,0.642,0.369,0.951c0.216,0.705,0.334,1.453,0.334,2.228   c0,1.836-0.652,3.522-1.737,4.84l0.642,2.364c1.723-1.563,3.03-3.735,3.288-6.172C43.452,28.772,44,29.238,45,29.62v-2.48   c-1-0.763-2.03-1.769-2.576-2.948c-0.106-0.329-0.307-0.648-0.445-0.961c-0.217-0.704-0.37-1.451-0.37-2.225   c0-4.203,3.403-7.623,7.607-7.623c4.203,0,7.613,3.42,7.613,7.623c0,0.855-0.151,1.674-0.412,2.442   c-0.284,0.485-0.351,0.998-0.548,1.532C55.34,25.842,54,26.585,54,27.178v2.462c0-0.267,0.824-0.572,1.277-0.921   c0.105,2.688,1.224,5.095,3.083,6.795l0.577-2.38c-1.066-1.312-1.729-2.981-1.729-4.8c0-0.855,0.137-1.675,0.397-2.443   c0.282-0.484,0.517-0.994,0.714-1.526c1.341-2.188,3.745-3.655,6.493-3.655c4.204,0,7.622,3.422,7.622,7.625   c0,3.262-2.063,6.045-4.951,7.132l-0.636,2.37c0.536-0.116,1.06-0.271,1.561-0.472c-0.228,0.824-0.359,1.688-0.359,2.583   c0,1.569,0.383,3.048,1.046,4.362l1.436-2.004c-0.243-0.743-0.378-1.535-0.378-2.358c0-4.203,3.422-7.625,7.625-7.625   s7.624,3.637,7.624,7.84S81.98,48,77.777,48c-0.008,0-0.015,0-0.022,0l-1.423,1.77c0.474,0.07,0.953,0.012,1.445,0.012   c5.362,0,9.727-4.417,9.727-9.78C87.504,34.636,83.14,30.219,77.777,30.219z"/>
	<path fill="#000000" d="M83.174,39.037c-0.239-1.455-1.032-2.729-2.23-3.588c-2.477-1.773-5.932-1.203-7.703,1.271l-7.992,11.15   l4.863-18.158c0.791-2.939-0.956-5.975-3.896-6.768c-2.94-0.787-5.977,0.959-6.77,3.906l-4.747,18.189V20.963   c0-3.045-2.477-5.521-5.522-5.521c-3.044,0-5.52,2.477-5.52,5.521v24.512l-5.36-19.742c-0.785-2.939-3.819-4.695-6.76-3.908   s-4.694,3.82-3.906,6.764l6.794,24.936c0.043,0.258,0.294,1.955,0.294,5.709v1.91l-1.66-0.633l-4.676-10.537   c-0.947-2.139-3.07-3.52-5.409-3.52c-0.828,0-1.635,0.17-2.396,0.51c-2.98,1.322-4.33,4.822-3.01,7.805l5.186,11.688   c1.796,4.221,4.986,8.059,6.59,9.664l6.007,6.006c0.291,0.291,0.598,0.561,0.913,0.816c1.999,3.451,5.741,5.779,10.021,5.779   h14.722c6.379,0,11.568-5.168,11.568-11.518V56.602l9.638-13.447C83.073,41.955,83.413,40.492,83.174,39.037z M80.504,41.926   L70.669,55.65c-0.129,0.18-0.196,0.395-0.196,0.615v20.938c0,5.191-4.246,9.418-9.466,9.418H46.285   c-1.734,0-3.354-0.475-4.756-1.289c-1.623-0.992-3.069-2.486-3.638-3.799c-0.68-1.297-1.07-2.77-1.07-4.33   c0-0.582-0.471-1.053-1.051-1.053c-0.581,0-1.052,0.471-1.052,1.053c0,0.477,0.032,0.943,0.088,1.404l-3.977-3.977   c-1.938-1.941-4.688-5.584-6.147-9.014l-5.191-11.701c-0.851-1.922,0.019-4.18,1.94-5.031c0.49-0.217,1.01-0.328,1.542-0.328   c1.508,0,2.876,0.891,3.487,2.268l4.853,10.938c0.112,0.256,0.325,0.457,0.587,0.559l2.818,1.072v1.439   c0,0.58,0.471,1.051,1.052,1.051c0.58,0,1.051-0.471,1.051-1.051v-5.6c0-4.32-0.321-6.061-0.333-6.133   c-0.006-0.027-0.012-0.053-0.021-0.08l-6.807-24.979c-0.486-1.82,0.6-3.697,2.418-4.184c1.822-0.486,3.7,0.598,4.188,2.422   l7.428,27.357c0.138,0.508,0.627,0.836,1.152,0.768c0.523-0.07,0.913-0.516,0.913-1.041v-32.4c0-1.885,1.533-3.418,3.417-3.418   c1.885,0,3.419,1.533,3.419,3.418V53.23c0,0.529,0.392,0.977,0.917,1.043c0.521,0.07,1.019-0.264,1.151-0.777l6.815-26.105   c0.49-1.822,2.373-2.9,4.189-2.414c1.819,0.49,2.901,2.371,2.411,4.189l-6.358,23.742c-0.132,0.49,0.107,1.004,0.566,1.223   c0.459,0.215,1.008,0.074,1.305-0.338l11.356-15.848c1.098-1.531,3.237-1.885,4.77-0.787c0.741,0.533,1.231,1.322,1.381,2.221   C81.248,40.281,81.037,41.186,80.504,41.926z"/>
	<path fill="#000000" d="M56.851,62.467l1.43-0.924c0.485-0.314,0.626-0.967,0.31-1.455c-0.314-0.486-0.965-0.627-1.453-0.311   l-3.746,2.426c-0.234,0.148-0.399,0.389-0.457,0.66c-0.059,0.273-0.006,0.559,0.146,0.791l2.425,3.746   c0.201,0.311,0.538,0.48,0.884,0.48c0.194,0,0.395-0.055,0.569-0.17c0.487-0.314,0.628-0.967,0.312-1.453l-1.187-1.832   c2.798,0.857,4.838,3.461,4.838,6.535c0,3.77-3.067,6.836-6.836,6.836c-3.77,0-6.836-3.066-6.836-6.836   c0-1.746,0.657-3.406,1.852-4.678c0.398-0.422,0.378-1.09-0.046-1.488c-0.422-0.396-1.088-0.375-1.485,0.047   c-1.562,1.664-2.423,3.836-2.423,6.119c0,4.93,4.01,8.939,8.938,8.939s8.938-4.01,8.938-8.939   C63.021,66.998,60.429,63.635,56.851,62.467z"/>
</g>
</svg>