<svg xmlns="http://www.w3.org/2000/svg" xmlns:xlink="http://www.w3.org/1999/xlink" version="1.1" x="0px" y="0px" width="100px" height="100px" viewBox="0 0 100 100" enable-background="new 0 0 100 100" xml:space="preserve">
<g id="Captions">
</g>
<g id="Your_Icon">
	<path fill="#000000" d="M31.879,33.878c-2.987-1.109-5.125-3.981-5.125-7.351c0-4.326,3.52-7.847,7.848-7.847   c4.326,0,7.848,3.521,7.848,7.847c0,1.845-0.645,3.539-1.714,4.881l0.667,2.455c1.747-1.622,3.055-3.855,3.298-6.359   C45.349,28.1,46,28.61,47,29.022v-2.535c-2-1.428-3.383-3.735-3.383-6.343c0-4.327,3.453-7.848,7.779-7.848   c4.328,0,7.85,3.521,7.85,7.848c0,2.608-1.246,4.917-3.246,6.345v2.539c3-1.67,5.378-5.021,5.378-8.884   c0-5.521-4.511-10.013-10.032-10.013c-5.189,0-9.479,3.972-9.971,9.036c-1.784-1.641-4.16-2.652-6.769-2.652   c-5.521,0-10.017,4.491-10.017,10.012c0,4.817,3.419,8.848,7.958,9.799L31.879,33.878z"/>
	<path fill="#000000" d="M71.08,45.949h-2.705c-0.809,0-1.574,0.188-2.23,0.512c-0.357-2.028-2.135-3.574-4.264-3.574h-2.707   c-0.787,0-1.527,0.211-2.164,0.581V20.12c0-3.134-2.551-5.683-5.684-5.683s-5.682,2.549-5.682,5.683v25.232L40.127,25.03   c-0.809-3.026-3.93-4.835-6.957-4.022c-3.027,0.81-4.832,3.93-4.021,6.962l6.994,25.667c0.023,0.147,0.113,0.754,0.189,1.925   c-1.17,0.571-2.254,1.327-3.201,2.275l-2.219,2.219c-4.643,4.642-4.643,12.195,0,16.838l6.182,6.183   c0.301,0.3,0.613,0.578,0.939,0.841c2.059,3.554,5.91,5.951,10.316,5.951h15.154c6.566,0,11.906-5.319,11.906-11.857V50.278   C75.41,47.892,73.469,45.949,71.08,45.949z M73.246,78.011c0,5.345-4.371,9.693-9.742,9.693H48.35   c-1.785,0-3.457-0.489-4.896-1.328c-0.914-0.425-2.701-1.958-3.744-3.907c-0.699-1.336-1.102-2.851-1.102-4.458   c0-0.598-0.482-1.083-1.082-1.083c-0.598,0-1.082,0.485-1.082,1.083c0,0.489,0.033,0.972,0.092,1.445l-4.092-4.094   c-3.799-3.798-3.799-9.979,0-13.776l2.219-2.219c0.539-0.539,1.135-0.998,1.766-1.391c0.01,0.471,0.016,0.979,0.016,1.535v5.766   c0,0.598,0.484,1.082,1.082,1.082c0.6,0,1.082-0.484,1.082-1.082v-5.766c0-0.968-0.016-1.803-0.041-2.528   c-0.037-0.919-0.104-1.797-0.121-2.215c-0.086-1.047-0.174-1.53-0.182-1.568c-0.006-0.027-0.012-0.056-0.02-0.082l-7.006-25.713   c-0.5-1.873,0.617-3.805,2.49-4.306s3.807,0.616,4.309,2.494l7.645,28.16c0.143,0.523,0.65,0.86,1.188,0.789   c0.537-0.072,0.939-0.531,0.939-1.073V20.12c0-1.939,1.578-3.519,3.518-3.519s3.518,1.579,3.518,3.519v33.228   c0,0.598,0.486,1.083,1.084,1.083s1.082-0.485,1.082-1.083v-6.131c0-1.194,0.971-2.165,2.164-2.165h2.707   c1.193,0,2.164,0.971,2.164,2.165v6.12c0,0.598,0.486,1.082,1.082,1.082c0.6,0,1.084-0.484,1.084-1.082v-3.924   c0-0.511,0.93-1.299,2.164-1.299h2.705c1.193,0,2.166,0.971,2.166,2.164V78.011z"/>
	<path fill="#000000" d="M63.979,70.547H50.355l1.398-1.399c0.424-0.423,0.424-1.107,0-1.53c-0.422-0.423-1.107-0.423-1.529,0   L46.98,70.86c-0.053,0.052-0.098,0.107-0.139,0.168c-0.002,0.005-0.004,0.009-0.008,0.013c-0.035,0.055-0.066,0.112-0.092,0.173   c-0.004,0.013-0.006,0.025-0.012,0.038c-0.02,0.053-0.039,0.107-0.049,0.164c-0.014,0.06-0.018,0.122-0.02,0.184   c0,0.011-0.002,0.02-0.002,0.029l0,0v0.001c0,0.072,0.006,0.144,0.021,0.214c0.008,0.039,0.021,0.075,0.033,0.112   c0.01,0.03,0.016,0.061,0.029,0.09c0.014,0.038,0.037,0.072,0.057,0.107c0.014,0.026,0.025,0.054,0.043,0.079   c0.023,0.035,0.053,0.066,0.08,0.098c0.018,0.021,0.033,0.045,0.053,0.064l3.248,3.247c0.211,0.212,0.488,0.317,0.764,0.317   c0.277,0,0.555-0.105,0.766-0.317c0.424-0.423,0.424-1.108,0-1.53l-1.4-1.399h13.625c0.598,0,1.082-0.485,1.082-1.083   S64.576,70.547,63.979,70.547z"/>
</g>
</svg>