<svg xmlns="http://www.w3.org/2000/svg" xmlns:xlink="http://www.w3.org/1999/xlink" version="1.1" x="0px" y="0px" width="100px" height="100px" viewBox="0 0 100 100" enable-background="new 0 0 100 100" xml:space="preserve">
<g id="Captions">
</g>
<g id="Your_Icon">
	<path fill="#000000" d="M21.315,60.617c-3.828-0.785-6.715-4.18-6.715-8.236c0-4.639,3.771-8.41,8.409-8.41   c4.636,0,8.409,3.771,8.409,8.41c0,1.577-0.445,3.049-1.203,4.312l0.996,2.246c1.442-1.8,2.311-4.078,2.311-6.558   c0-5.797-4.716-10.514-10.513-10.514s-10.514,4.717-10.514,10.514c0,5.559,4.343,10.113,9.813,10.477L21.315,60.617z"/>
	<path fill="#000000" d="M77.777,30.219c-1.272,0-2.484,0.252-3.6,0.698c0.228-0.824,0.359-1.688,0.359-2.583   c0-5.363-4.363-9.727-9.727-9.727c-2.223,0-4.267,0.757-5.906,2.016c-0.203-5.185-4.472-9.344-9.708-9.344   c-5.014,0-9.153,3.815-9.67,8.695c-1.724-1.552-3.997-2.506-6.494-2.506c-5.364,0-9.728,4.363-9.728,9.727   c0,4.641,3.269,8.527,7.624,9.493l-0.652-2.392c-2.844-1.108-4.868-3.871-4.868-7.102c0-4.203,3.42-7.625,7.624-7.625   c3.068,0,5.712,1.827,6.919,4.445c0.106,0.326,0.231,0.643,0.37,0.953c0.216,0.705,0.333,1.452,0.333,2.227   c0,1.836-0.652,3.521-1.737,4.839l0.642,2.364c1.722-1.563,3.029-3.734,3.288-6.171C43.453,28.772,44,29.238,45,29.62v-2.48   c-1-0.765-2.032-1.771-2.577-2.954c-0.106-0.325-0.304-0.642-0.443-0.951c-0.216-0.706-0.37-1.453-0.37-2.229   c0-4.203,3.401-7.623,7.605-7.623s7.616,3.42,7.616,7.623c0,0.854-0.152,1.674-0.413,2.442c-0.284,0.485-0.351,0.997-0.547,1.531   C55.341,25.842,54,26.585,54,27.178v2.462c0-0.267,0.824-0.571,1.279-0.921c0.105,2.688,1.222,5.094,3.082,6.794l0.577-2.38   c-1.065-1.312-1.729-2.981-1.729-4.799c0-0.856,0.137-1.677,0.397-2.445c0.282-0.483,0.516-0.992,0.712-1.523   c1.341-2.188,3.744-3.656,6.494-3.656c4.203,0,7.621,3.422,7.621,7.625c0,3.262-2.063,6.045-4.95,7.132l-0.636,2.37   c0.537-0.116,1.061-0.271,1.562-0.473c-0.228,0.824-0.359,1.688-0.359,2.584c0,1.569,0.382,3.048,1.045,4.361l1.436-2.004   c-0.242-0.743-0.377-1.534-0.377-2.357c0-4.203,3.418-7.625,7.623-7.625c4.203,0,7.623,3.637,7.623,7.84S81.98,48,77.777,48   c-0.008,0-0.015,0-0.022,0l-1.423,1.77c0.474,0.07,0.953,0.012,1.445,0.012c5.363,0,9.727-4.417,9.727-9.78   C87.504,34.636,83.141,30.219,77.777,30.219z"/>
	<path fill="#000000" d="M83.176,39.037c-0.24-1.455-1.033-2.729-2.23-3.588c-2.477-1.773-5.932-1.203-7.705,1.271l-7.992,11.15   l4.865-18.158c0.791-2.939-0.957-5.975-3.898-6.768c-2.939-0.787-5.975,0.959-6.768,3.906l-4.749,18.189V20.963   c0-3.045-2.476-5.521-5.52-5.521c-3.046,0-5.521,2.477-5.521,5.521v24.512l-5.36-19.742c-0.786-2.939-3.818-4.695-6.76-3.908   c-2.939,0.787-4.693,3.82-3.906,6.764l6.795,24.936c0.042,0.258,0.294,1.955,0.294,5.709v1.91l-1.661-0.633l-4.676-10.537   c-0.948-2.139-3.071-3.52-5.41-3.52c-0.827,0-1.634,0.17-2.395,0.51c-2.98,1.322-4.331,4.822-3.009,7.805l5.185,11.688   c1.795,4.221,4.988,8.059,6.59,9.664l6.007,6.006c0.291,0.291,0.597,0.561,0.913,0.816c2,3.451,5.741,5.779,10.022,5.779H61.01   c6.377,0,11.566-5.168,11.566-11.518V56.602l9.639-13.447C83.074,41.955,83.416,40.492,83.176,39.037z M80.504,41.926L70.67,55.65   c-0.129,0.18-0.197,0.395-0.197,0.615v20.938c0,5.191-4.246,9.418-9.463,9.418H46.287c-1.735,0-3.357-0.475-4.756-1.289   c-1.624-0.992-3.069-2.486-3.639-3.799c-0.68-1.297-1.069-2.77-1.069-4.33c0-0.582-0.471-1.053-1.053-1.053   c-0.58,0-1.05,0.471-1.05,1.053c0,0.477,0.031,0.943,0.087,1.404l-3.975-3.977c-1.94-1.941-4.689-5.584-6.147-9.014l-5.193-11.701   c-0.852-1.922,0.02-4.18,1.94-5.031c0.49-0.217,1.012-0.328,1.541-0.328c1.507,0,2.877,0.891,3.488,2.268l4.853,10.938   c0.113,0.256,0.325,0.457,0.586,0.559l2.82,1.072v1.439c0,0.58,0.47,1.051,1.05,1.051c0.582,0,1.053-0.471,1.053-1.051v-5.6   c0-4.32-0.321-6.061-0.336-6.133c-0.005-0.027-0.011-0.053-0.018-0.08l-6.808-24.979c-0.486-1.82,0.599-3.697,2.42-4.184   s3.697,0.598,4.185,2.422l7.429,27.357c0.138,0.508,0.628,0.836,1.153,0.768c0.521-0.07,0.912-0.516,0.912-1.041v-32.4   c0-1.885,1.533-3.418,3.419-3.418c1.883,0,3.417,1.533,3.417,3.418V53.23c0,0.529,0.393,0.977,0.918,1.043   c0.521,0.07,1.017-0.264,1.151-0.777l6.815-26.105c0.49-1.822,2.373-2.9,4.188-2.414c1.82,0.49,2.904,2.371,2.414,4.189   l-6.359,23.742c-0.131,0.49,0.107,1.004,0.566,1.223c0.459,0.215,1.008,0.074,1.305-0.338l11.357-15.848   c1.096-1.531,3.236-1.885,4.768-0.787c0.742,0.533,1.232,1.322,1.381,2.221C81.248,40.281,81.037,41.186,80.504,41.926z"/>
	<path fill="#000000" d="M62.396,71.512c0.02-0.035,0.041-0.068,0.055-0.105c0.012-0.027,0.018-0.059,0.027-0.088   c0.012-0.037,0.025-0.07,0.033-0.109c0.014-0.066,0.021-0.137,0.021-0.207V71l0,0c0-0.008-0.004-0.018-0.004-0.027   c0-0.061-0.006-0.119-0.018-0.178c-0.012-0.057-0.029-0.109-0.049-0.16c-0.004-0.012-0.006-0.023-0.012-0.037   c-0.023-0.059-0.055-0.115-0.088-0.168c-0.002-0.004-0.004-0.008-0.008-0.012c-0.039-0.059-0.084-0.113-0.133-0.164l-3.152-3.15   c-0.41-0.412-1.076-0.412-1.488,0c-0.41,0.41-0.41,1.076,0,1.486l1.361,1.361H48.248l1.358-1.361c0.411-0.41,0.411-1.076,0-1.486   c-0.412-0.412-1.076-0.412-1.487,0l-3.15,3.15c-0.052,0.051-0.095,0.105-0.135,0.164c-0.003,0.004-0.005,0.008-0.007,0.012   c-0.034,0.053-0.063,0.109-0.09,0.168c-0.005,0.014-0.007,0.025-0.012,0.037c-0.018,0.051-0.037,0.104-0.048,0.16   c-0.013,0.059-0.017,0.117-0.018,0.178c0,0.01-0.003,0.02-0.003,0.027l0,0v0.002c0,0.07,0.006,0.141,0.021,0.207   c0.009,0.039,0.021,0.072,0.033,0.109c0.009,0.029,0.015,0.061,0.027,0.088c0.016,0.037,0.035,0.07,0.056,0.105   c0.015,0.025,0.025,0.053,0.042,0.076c0.022,0.033,0.051,0.062,0.077,0.096c0.017,0.02,0.032,0.043,0.052,0.061l3.154,3.154   c0.206,0.207,0.474,0.309,0.744,0.309c0.268,0,0.539-0.102,0.743-0.309c0.411-0.41,0.411-1.076,0-1.486l-1.359-1.359h10.697   l-1.361,1.359c-0.41,0.41-0.41,1.076,0,1.486c0.207,0.207,0.475,0.309,0.744,0.309s0.539-0.102,0.744-0.309l3.154-3.154   c0.02-0.018,0.035-0.041,0.053-0.061c0.025-0.033,0.055-0.062,0.076-0.096C62.371,71.564,62.381,71.537,62.396,71.512z"/>
</g>
</svg>