<svg xmlns="http://www.w3.org/2000/svg" xmlns:xlink="http://www.w3.org/1999/xlink" version="1.1" x="0px" y="0px" width="100px" height="100px" viewBox="0 0 100 100" enable-background="new 0 0 100 100" xml:space="preserve">
<g id="Captions">
</g>
<g id="Your_Icon">
	<path fill="#000000" d="M66.162,18.067c-2.26,0-4.339,0.771-6.007,2.051c-0.206-5.275-4.55-9.506-9.874-9.506   c-5.102,0-9.312,3.881-9.838,8.846c-1.753-1.579-4.065-2.55-6.605-2.55c-5.456,0-9.895,4.438-9.895,9.895   c0,4.721,3.325,8.674,7.754,9.655l-0.662-2.433c-2.894-1.127-4.952-3.936-4.952-7.223c0-4.276,3.479-7.755,7.755-7.755   c3.122,0,5.812,1.857,7.04,4.522c0.107,0.33,0.234,0.651,0.375,0.966c0.22,0.718,0.34,1.479,0.34,2.267   c0,1.867-0.663,3.582-1.767,4.922l0.653,2.404c1.752-1.591,3.075-3.799,3.337-6.278C44.432,28.404,45,28.878,46,29.267v-2.522   c-1-0.779-2.066-1.807-2.621-3.014c-0.107-0.326-0.302-0.644-0.44-0.953c-0.221-0.719-0.377-1.48-0.377-2.271   c0-4.275,3.461-7.755,7.737-7.755s7.746,3.479,7.746,7.755c0,0.871-0.155,1.706-0.421,2.488c-0.287,0.491-0.436,1.009-0.636,1.549   C56.45,25.422,56,26.18,55,26.783v2.504c0-0.271,0.922-0.582,1.385-0.938c0.105,2.735,1.284,5.184,3.177,6.913l0.607-2.419   c-1.084-1.334-1.75-3.032-1.75-4.882c0-0.871,0.146-1.706,0.411-2.488c0.287-0.491,0.526-1.009,0.727-1.549   c1.365-2.226,3.811-3.719,6.607-3.719c4.275,0,7.754,3.479,7.754,7.756c0,3.317-2.1,6.147-5.036,7.252l-0.648,2.42   c4.464-0.955,7.823-4.928,7.823-9.672C76.057,22.506,71.618,18.067,66.162,18.067z"/>
	<path fill="#000000" d="M69.783,45.988h-2.674c-0.002,0-0.005,0-0.007,0l4.453-16.626c0.805-2.989-0.974-6.076-3.963-6.883   c-2.989-0.803-6.079,0.975-6.885,3.973l-4.831,18.503V20.462c0-3.097-2.52-5.616-5.614-5.616c-3.098,0-5.616,2.52-5.616,5.616   v24.936l-5.453-20.083c-0.8-2.991-3.884-4.774-6.876-3.976c-2.99,0.801-4.774,3.885-3.973,6.881l6.912,25.363   c0.023,0.146,0.112,0.746,0.187,1.903c-1.155,0.563-2.228,1.312-3.164,2.247l-2.192,2.193c-4.589,4.587-4.589,12.053,0,16.64   l6.109,6.109c0.297,0.296,0.607,0.571,0.929,0.832c2.034,3.511,5.841,5.88,10.195,5.88h14.975c6.489,0,11.767-5.257,11.767-11.719   V50.267C74.062,47.907,72.143,45.988,69.783,45.988z M71.922,77.669c0,5.282-4.317,9.579-9.627,9.579H47.32   c-1.765,0-3.415-0.482-4.839-1.312c-1.517-1.078-2.977-2.285-3.7-3.86c-0.691-1.321-1.089-2.817-1.089-4.407   c0-0.59-0.479-1.069-1.069-1.069s-1.069,0.479-1.069,1.069c0,0.484,0.033,0.961,0.091,1.43l-4.046-4.046   c-3.753-3.753-3.753-9.859,0-13.614l2.193-2.192c0.532-0.532,1.122-0.986,1.747-1.374c0.009,0.465,0.015,0.968,0.015,1.518v5.697   c0,0.59,0.479,1.069,1.069,1.069s1.069-0.479,1.069-1.069V59.39c0-0.956-0.015-1.781-0.04-2.499   c-0.021-0.807-0.054-1.442-0.12-2.189c-0.084-1.033-0.173-1.512-0.18-1.549c-0.006-0.027-0.012-0.055-0.019-0.082l-6.925-25.408   c-0.495-1.852,0.609-3.761,2.461-4.256c1.852-0.494,3.762,0.609,4.258,2.466l7.556,27.827c0.141,0.518,0.642,0.851,1.174,0.78   c0.531-0.071,0.928-0.524,0.928-1.061V20.462c0-1.917,1.56-3.477,3.478-3.477c1.916,0,3.476,1.56,3.476,3.477v32.824   c0,0.537,0.399,0.992,0.934,1.061c0.535,0.074,1.034-0.271,1.171-0.79L62.775,27c0.499-1.851,2.41-2.95,4.261-2.453   c1.852,0.498,2.952,2.41,2.453,4.262L62.99,53.075c-0.153,0.57,0.186,1.157,0.756,1.311c0.571,0.152,1.158-0.187,1.31-0.757   l1.152-4.3c0.321-1.202,0.728-1.202,0.901-1.202h2.674c1.179,0,2.139,0.96,2.139,2.14V77.669z"/>
	<path fill="#000000" d="M61.809,65.021c-0.405-0.431-1.082-0.451-1.512-0.047c-0.432,0.404-0.452,1.081-0.048,1.512   c1.215,1.294,1.884,2.982,1.884,4.76c0,3.834-3.119,6.953-6.952,6.953c-3.835,0-6.953-3.119-6.953-6.953   c0-3.127,2.074-5.776,4.919-6.648L51.94,66.46c-0.322,0.496-0.18,1.157,0.316,1.479c0.18,0.116,0.381,0.171,0.58,0.171   c0.351,0,0.694-0.172,0.899-0.488l2.466-3.81c0.153-0.238,0.206-0.528,0.148-0.805c-0.061-0.278-0.227-0.521-0.465-0.675   l-3.811-2.465c-0.496-0.321-1.159-0.179-1.479,0.316c-0.321,0.496-0.179,1.158,0.316,1.479l1.453,0.939   c-3.64,1.189-6.277,4.611-6.277,8.643c0,5.014,4.079,9.092,9.093,9.092s9.092-4.078,9.092-9.092   C64.272,68.923,63.397,66.713,61.809,65.021z"/>
</g>
</svg>