<svg xmlns="http://www.w3.org/2000/svg" xmlns:xlink="http://www.w3.org/1999/xlink" version="1.1" x="0px" y="0px" width="100px" height="100px" viewBox="0 0 100 100" enable-background="new 0 0 100 100" xml:space="preserve">
<g id="Captions">
</g>
<g id="Your_Icon">
	<path fill="#000000" d="M77.846,41.664c-0.24-1.457-1.033-2.734-2.236-3.598c-2.482-1.777-5.947-1.205-7.725,1.275l-8.014,11.182   l4.877-18.209c0.793-2.947-0.959-5.99-3.906-6.785c-2.949-0.793-5.992,0.961-6.787,3.916l-4.762,18.238V23.541   c0-3.053-2.484-5.535-5.535-5.535c-3.053,0-5.537,2.482-5.537,5.535v24.58l-5.375-19.797c-0.787-2.949-3.828-4.707-6.777-3.918   c-2.947,0.787-4.705,3.828-3.918,6.781l6.814,25.004c0.023,0.143,0.111,0.734,0.184,1.875c-1.139,0.555-2.195,1.293-3.117,2.215   l-2.162,2.162c-2.189,2.191-3.396,5.104-3.396,8.201s1.207,6.012,3.396,8.201l6.023,6.023c0.291,0.293,0.598,0.564,0.914,0.82   c2.006,3.459,5.758,5.797,10.051,5.797h14.762c6.396,0,11.6-5.182,11.6-11.553V59.277l9.664-13.484   C77.744,44.59,78.088,43.125,77.846,41.664z M75.17,44.562l-9.863,13.762c-0.129,0.18-0.197,0.393-0.197,0.613v20.996   c0,5.207-4.258,9.443-9.49,9.443H40.857c-1.74,0-3.365-0.477-4.77-1.293c-1.684-0.982-2.914-2.318-3.648-3.807   c-0.682-1.301-1.072-2.777-1.072-4.344c0-0.582-0.473-1.055-1.055-1.055s-1.055,0.473-1.055,1.055c0,0.479,0.033,0.947,0.09,1.408   l-3.986-3.986c-1.793-1.793-2.781-4.176-2.781-6.711s0.988-4.918,2.781-6.711l2.16-2.16c0.525-0.525,1.107-0.973,1.721-1.355   c0.01,0.459,0.016,0.953,0.016,1.496v5.617c0,0.582,0.473,1.053,1.055,1.053s1.055-0.471,1.055-1.053v-5.617   c0-0.943-0.016-1.756-0.039-2.463c-0.039-0.953-0.076-1.574-0.119-2.158c-0.084-1.02-0.17-1.49-0.178-1.527   c-0.006-0.027-0.012-0.053-0.018-0.08l-6.826-25.047c-0.488-1.826,0.6-3.709,2.426-4.197c1.826-0.484,3.709,0.602,4.197,2.432   l7.447,27.432c0.139,0.51,0.631,0.84,1.158,0.768c0.523-0.068,0.914-0.516,0.914-1.043V23.541c0-1.891,1.537-3.428,3.428-3.428   c1.889,0,3.426,1.537,3.426,3.428v32.355c0,0.531,0.395,0.98,0.92,1.047c0.521,0.064,1.021-0.266,1.156-0.779l6.834-26.178   c0.49-1.824,2.377-2.91,4.199-2.42c1.824,0.492,2.91,2.375,2.418,4.201l-6.375,23.805c-0.131,0.492,0.107,1.01,0.566,1.227   c0.463,0.217,1.012,0.076,1.309-0.34L69.6,40.568c1.1-1.535,3.246-1.887,4.781-0.787c0.744,0.533,1.234,1.324,1.385,2.227   C75.914,42.912,75.703,43.818,75.17,44.562z"/>
	<path fill="#000000" d="M43.812,15.895c-0.582,0-1.053-0.471-1.053-1.053V9.568c0-0.582,0.471-1.055,1.053-1.055   c0.584,0,1.055,0.473,1.055,1.055v5.273C44.867,15.424,44.396,15.895,43.812,15.895z"/>
	<path fill="#000000" d="M39.465,17.061c-0.365,0-0.719-0.189-0.916-0.527l-2.635-4.566c-0.291-0.504-0.119-1.148,0.387-1.439   c0.502-0.291,1.148-0.117,1.439,0.387l2.637,4.564c0.289,0.506,0.117,1.15-0.387,1.441C39.824,17.016,39.643,17.061,39.465,17.061z   "/>
	<path fill="#000000" d="M36.277,20.246c-0.18,0-0.361-0.045-0.525-0.141l-4.566-2.637c-0.506-0.291-0.678-0.936-0.387-1.441   c0.291-0.504,0.936-0.678,1.441-0.385l4.564,2.637c0.506,0.291,0.678,0.936,0.387,1.439C36.996,20.057,36.643,20.246,36.277,20.246   z"/>
	<path fill="#000000" d="M51.352,20.248c-0.365,0-0.719-0.189-0.914-0.527c-0.291-0.506-0.119-1.148,0.385-1.441l4.566-2.637   c0.502-0.291,1.148-0.119,1.439,0.385c0.291,0.506,0.119,1.15-0.387,1.441l-4.564,2.637C51.711,20.201,51.531,20.248,51.352,20.248   z"/>
	<path fill="#000000" d="M48.164,17.061c-0.18,0-0.359-0.045-0.525-0.141c-0.504-0.291-0.678-0.936-0.387-1.441l2.635-4.564   c0.291-0.506,0.936-0.678,1.441-0.387c0.504,0.291,0.676,0.936,0.385,1.439l-2.635,4.568   C48.885,16.873,48.529,17.061,48.164,17.061z"/>
	<path fill="#000000" d="M27.518,22.113c-0.582,0-1.055-0.471-1.055-1.053v-5.273c0-0.582,0.473-1.055,1.055-1.055   c0.584,0,1.055,0.473,1.055,1.055v5.273C28.572,21.643,28.102,22.113,27.518,22.113z"/>
	<path fill="#000000" d="M23.168,23.279c-0.363,0-0.719-0.189-0.914-0.527l-2.637-4.566c-0.289-0.504-0.117-1.148,0.387-1.439   s1.148-0.117,1.441,0.387l2.635,4.564c0.293,0.504,0.119,1.15-0.385,1.439C23.529,23.234,23.348,23.279,23.168,23.279z"/>
	<path fill="#000000" d="M19.98,26.465c-0.178,0-0.357-0.047-0.525-0.143l-4.564-2.635c-0.506-0.291-0.678-0.938-0.387-1.441   s0.936-0.678,1.439-0.385l4.566,2.637c0.504,0.289,0.676,0.936,0.387,1.439C20.699,26.275,20.346,26.465,19.98,26.465z"/>
	<path fill="#000000" d="M18.816,30.814h-5.271c-0.582,0-1.055-0.471-1.055-1.053c0-0.584,0.473-1.057,1.055-1.057h5.271   c0.582,0,1.053,0.473,1.053,1.057C19.869,30.344,19.398,30.814,18.816,30.814z"/>
	<path fill="#000000" d="M15.418,37.803c-0.365,0-0.719-0.189-0.914-0.529c-0.291-0.504-0.119-1.148,0.387-1.439l4.564-2.637   c0.504-0.291,1.148-0.117,1.439,0.387c0.291,0.506,0.119,1.15-0.387,1.441l-4.564,2.635C15.777,37.756,15.598,37.803,15.418,37.803   z"/>
	<path fill="#000000" d="M59.486,23.287c-0.582,0-1.053-0.473-1.053-1.057v-5.271c0-0.582,0.471-1.053,1.053-1.053   s1.057,0.471,1.057,1.053v5.271C60.543,22.814,60.068,23.287,59.486,23.287z"/>
	<path fill="#000000" d="M67.023,27.637c-0.363,0-0.719-0.188-0.914-0.525c-0.291-0.506-0.119-1.15,0.385-1.441l4.568-2.637   c0.504-0.293,1.148-0.117,1.439,0.385c0.291,0.504,0.117,1.15-0.387,1.441l-4.564,2.637C67.385,27.592,67.203,27.637,67.023,27.637   z"/>
	<path fill="#000000" d="M63.838,24.453c-0.18,0-0.359-0.047-0.527-0.143c-0.504-0.291-0.676-0.936-0.385-1.439l2.635-4.566   c0.289-0.504,0.934-0.678,1.441-0.387c0.504,0.291,0.676,0.938,0.385,1.441l-2.635,4.564   C64.557,24.264,64.203,24.453,63.838,24.453z"/>
	<path fill="#000000" d="M72.482,34.93c-0.582,0-1.055-0.473-1.055-1.055v-5.271c0-0.582,0.473-1.055,1.055-1.055   c0.584,0,1.055,0.473,1.055,1.055v5.271C73.537,34.457,73.066,34.93,72.482,34.93z"/>
	<path fill="#000000" d="M79.471,55.732c-0.365,0-0.719-0.189-0.914-0.527l-2.637-4.564c-0.291-0.504-0.119-1.148,0.385-1.439   s1.15-0.119,1.441,0.385l2.637,4.564c0.291,0.504,0.119,1.148-0.387,1.441C79.83,55.688,79.65,55.732,79.471,55.732z"/>
	<path fill="#000000" d="M84.584,50.619c-0.18,0-0.359-0.047-0.527-0.143l-4.564-2.635c-0.504-0.291-0.678-0.936-0.387-1.439   c0.291-0.506,0.934-0.678,1.439-0.387l4.566,2.635c0.504,0.291,0.676,0.936,0.387,1.439C85.303,50.428,84.947,50.619,84.584,50.619   z"/>
	<path fill="#000000" d="M81.186,43.633c-0.582,0-1.057-0.473-1.057-1.055s0.473-1.055,1.055-1.055l5.271-0.002h0.002   c0.582,0,1.053,0.473,1.053,1.055s-0.471,1.055-1.053,1.055L81.186,43.633L81.186,43.633z"/>
	<path fill="#000000" d="M80.02,39.281c-0.363,0-0.719-0.189-0.914-0.525c-0.291-0.506-0.117-1.15,0.387-1.441l4.564-2.639   c0.504-0.291,1.148-0.117,1.441,0.387c0.289,0.504,0.119,1.148-0.387,1.439l-4.564,2.639C80.381,39.236,80.199,39.281,80.02,39.281   z"/>
	<path fill="#000000" d="M76.834,36.096c-0.18,0-0.361-0.045-0.525-0.141c-0.506-0.291-0.68-0.936-0.387-1.441l2.635-4.564   c0.291-0.504,0.934-0.68,1.439-0.387c0.504,0.291,0.678,0.936,0.387,1.439l-2.635,4.566C77.553,35.906,77.197,36.096,76.834,36.096   z"/>
	<path fill="#000000" d="M52.068,79.713h-7.646c-0.582,0-1.053-0.473-1.053-1.055c0-1.943,1.967-3.311,4.049-4.758   c1.686-1.172,3.596-2.498,3.596-3.711c0-1.877-1.436-2.734-2.768-2.734c-1.502,0-2.77,0.996-2.77,2.176   c0,0.582-0.473,1.053-1.055,1.053s-1.053-0.471-1.053-1.053c0-2.363,2.188-4.285,4.877-4.285c2.779,0,4.875,2.082,4.875,4.844   c0,2.314-2.287,3.906-4.5,5.443c-0.883,0.613-1.9,1.32-2.535,1.973h5.982c0.582,0,1.053,0.471,1.053,1.053   S52.65,79.713,52.068,79.713z"/>
</g>
</svg>