<svg xmlns="http://www.w3.org/2000/svg" xmlns:xlink="http://www.w3.org/1999/xlink" version="1.1" x="0px" y="0px" width="100px" height="100px" viewBox="0 0 100 100" enable-background="new 0 0 100 100" xml:space="preserve">
<g id="Captions">
</g>
<g id="Your_Icon">
	<path fill="#000000" d="M36,31.345c0-0.912,0-1.778,0-2.59c-2-1.458-3.404-3.814-3.404-6.477c0-4.416,3.55-8.01,7.966-8.01   c4.417,0,7.882,3.594,7.882,8.01c0,2.662-1.444,5.019-3.444,6.477v2.59c3-1.703,5.631-5.125,5.631-9.066   c0-5.635-4.531-10.219-10.167-10.219c-5.635,0-10.103,4.584-10.103,10.219C30.361,26.221,33,29.642,36,31.345z"/>
	<path fill="#000000" d="M70.069,43.118h-2.762c-0.778,0-1.576,0.188-2.274,0.53c-0.362-2.075-2.177-3.658-4.354-3.658h-2.763   c-0.91,0-1.758,0.278-2.463,0.752c-0.606-1.715-2.246-2.944-4.165-2.944h-2.761c-0.806,0-1.561,0.216-2.21,0.593V22.278   c0-3.198-2.603-5.8-5.801-5.8c-3.197,0-5.8,2.602-5.8,5.8v30.591c-1.239,0.589-2.389,1.381-3.389,2.379l-2.264,2.265   c-4.738,4.739-4.738,12.447,0,17.186l6.31,6.311c0.31,0.31,0.634,0.596,0.97,0.867c2.104,3.621,6.032,6.064,10.524,6.064h15.467   c6.701,0,12.153-5.429,12.153-12.102V47.536C74.489,45.1,72.506,43.118,70.069,43.118z M72.278,75.839   c0,5.454-4.46,9.892-9.942,9.892H46.869c-1.821,0-3.524-0.497-4.994-1.353c-1.22-0.729-2.577-1.788-3.82-3.981   c-0.716-1.365-1.127-2.914-1.127-4.558c0-0.61-0.495-1.105-1.104-1.105c-0.611,0-1.105,0.495-1.105,1.105   c0,0.503,0.034,0.997,0.094,1.482l-4.185-4.186c-3.876-3.876-3.876-10.184,0-14.061l2.265-2.264   c0.557-0.557,1.173-1.029,1.826-1.434v7.567c0,0.611,0.494,1.105,1.105,1.105c0.609,0,1.104-0.494,1.104-1.105V22.278   c0-1.979,1.611-3.591,3.59-3.591c1.979,0,3.591,1.612,3.591,3.591v28.378c0,0.611,0.495,1.105,1.104,1.105s1.105-0.494,1.105-1.105   v-8.44c0-1.217,0.991-2.208,2.21-2.208h2.761c1.218,0,2.209,0.991,2.209,2.208v8.452c0,0.61,0.494,1.104,1.104,1.104   s1.105-0.493,1.105-1.104v-6.259c0-1.217,0.991-2.209,2.209-2.209h2.763c1.219,0,2.209,0.992,2.209,2.209v6.247   c0,0.611,0.494,1.105,1.105,1.105c0.609,0,1.104-0.494,1.104-1.105v-4.005c0-0.644,1.137-1.324,2.21-1.324h2.762   c1.218,0,2.209,0.991,2.209,2.209V75.839z"/>
	<path fill="#000000" d="M63.925,69.688c0.111-0.271,0.111-0.574,0-0.845c-0.057-0.137-0.14-0.26-0.243-0.362l-3.31-3.311   c-0.431-0.433-1.131-0.433-1.562,0c-0.432,0.432-0.432,1.051,0,1.481L60.238,68H46.334c-0.61,0-1.104,0.39-1.104,1.001   c0,0.609,0.494,0.999,1.104,0.999h13.905l-1.429,1.613c-0.432,0.432-0.432,1.223,0,1.654c0.217,0.217,0.498,0.37,0.781,0.37   c0.281,0,0.565-0.085,0.78-0.301l3.312-3.301C63.787,69.934,63.868,69.823,63.925,69.688z"/>
</g>
</svg>