<svg xmlns="http://www.w3.org/2000/svg" xmlns:xlink="http://www.w3.org/1999/xlink" version="1.1" x="0px" y="0px" width="100px" height="100px" viewBox="0 0 100 100" enable-background="new 0 0 100 100" xml:space="preserve">
<g id="Captions">
</g>
<g id="Your_Icon">
	<path fill="#000000" d="M37,36.041c0-1.227,0-2.398,0-3.492c-3-1.546-4.699-4.422-4.699-7.717c0-4.922,3.884-8.926,8.806-8.926   s8.64,4.004,8.64,8.926c0,3.295-1.746,6.171-4.746,7.717v3.492c5-1.779,7.838-6.129,7.838-11.209   c0-6.658-5.305-12.074-11.963-12.074s-11.78,5.416-11.78,12.074C29.095,29.911,32,34.261,37,36.041z"/>
	<path fill="#000000" d="M69.075,44.639H66.45c-0.739,0-1.497,0.18-2.162,0.504c-0.345-1.973-2.069-3.477-4.138-3.477h-2.625   c-0.865,0-1.672,0.266-2.342,0.715c-0.577-1.629-2.134-2.799-3.958-2.799h-2.625c-0.766,0-1.482,0.205-2.1,0.564V24.832   c0-3.041-2.475-5.512-5.514-5.512s-5.512,2.471-5.512,5.512v29.074c-1.18,0.561-2.271,1.312-3.221,2.262l-2.152,2.154   c-4.504,4.502-4.504,11.83,0,16.334l5.997,5.996c0.294,0.293,0.603,0.566,0.922,0.826c1.997,3.441,5.732,5.764,10.004,5.764h14.699   c6.37,0,11.551-5.16,11.551-11.504v-26.9C73.275,46.521,71.391,44.639,69.075,44.639z M71.176,75.738   c0,5.184-4.24,9.404-9.451,9.404H47.025c-1.731,0-3.351-0.475-4.748-1.285c-1.159-0.695-2.45-1.701-3.63-3.785   c-0.682-1.299-1.072-2.771-1.072-4.334c0-0.58-0.47-1.049-1.051-1.049c-0.58,0-1.049,0.469-1.049,1.049   c0,0.479,0.032,0.947,0.09,1.41l-3.979-3.977c-3.684-3.686-3.684-9.682,0-13.365l2.151-2.154c0.53-0.527,1.115-0.977,1.737-1.361   v7.193c0,0.58,0.469,1.051,1.049,1.051c0.581,0,1.051-0.471,1.051-1.051V24.832c0-1.883,1.531-3.414,3.412-3.414   s3.412,1.531,3.412,3.414v26.973c0,0.576,0.47,1.049,1.051,1.049c0.578,0,1.051-0.473,1.051-1.049v-8.023   c0-1.156,0.941-2.1,2.1-2.1h2.625c1.157,0,2.1,0.943,2.1,2.1v8.035c0,0.576,0.47,1.049,1.05,1.049c0.579,0,1.051-0.473,1.051-1.049   v-5.949c0-1.158,0.941-2.1,2.1-2.1h2.625c1.158,0,2.1,0.941,2.1,2.1v5.938c0,0.576,0.47,1.049,1.051,1.049   c0.579,0,1.049-0.473,1.049-1.049v-3.807c0-0.611,1.08-1.258,2.101-1.258h2.625c1.157,0,2.101,0.941,2.101,2.098V75.738z"/>
	<path fill="#000000" d="M54.225,81.373c-5.791,0-10.501-4.711-10.501-10.502c0-5.789,4.71-10.5,10.501-10.5   c5.789,0,10.498,4.711,10.498,10.5C64.723,76.662,60.014,81.373,54.225,81.373z M54.225,62.473c-4.633,0-8.401,3.766-8.401,8.398   s3.769,8.4,8.401,8.4c4.631,0,8.398-3.768,8.398-8.4S58.855,62.473,54.225,62.473z"/>
	<path fill="#000000" d="M58.751,62.473h-9.057c-1.646,0-2.984-1.34-2.984-2.986c0-1.645,1.338-2.986,2.984-2.986h9.057   c1.647,0,2.987,1.342,2.987,2.986C61.738,61.133,60.398,62.473,58.751,62.473z M49.694,58.6c-0.487,0-0.886,0.396-0.886,0.887   c0,0.488,0.398,0.885,0.886,0.885h9.057c0.489,0,0.887-0.396,0.887-0.885c0-0.49-0.397-0.887-0.887-0.887H49.694z"/>
	<path fill="#000000" d="M54.225,71.922c-0.581,0-1.052-0.471-1.052-1.051v-9.449c0-0.58,0.471-1.051,1.052-1.051   c0.578,0,1.049,0.471,1.049,1.051v9.449C55.273,71.451,54.803,71.922,54.225,71.922z"/>
	<path fill="#000000" d="M63.674,71.922h-9.449c-0.581,0-1.052-0.471-1.052-1.051s0.471-1.051,1.052-1.051h9.449   c0.579,0,1.049,0.471,1.049,1.051S64.253,71.922,63.674,71.922z"/>
</g>
</svg>