<svg xmlns="http://www.w3.org/2000/svg" xmlns:xlink="http://www.w3.org/1999/xlink" version="1.1" x="0px" y="0px" width="100px" height="100px" viewBox="0 0 100 100" enable-background="new 0 0 100 100" xml:space="preserve">
<g id="Captions">
</g>
<g id="Your_Icon">
	<path fill="#000000" d="M36,31.345c0-0.913,0-1.778,0-2.591c-2-1.458-3.403-3.814-3.403-6.476c0-4.416,3.55-8.01,7.966-8.01   s7.879,3.594,7.879,8.01c0,2.661-1.441,5.018-3.441,6.475v2.592c3-1.704,5.63-5.125,5.63-9.066c0-5.635-4.53-10.219-10.165-10.219   s-10.104,4.584-10.104,10.219C30.361,26.22,33,29.641,36,31.345z"/>
	<path fill="#000000" d="M70.068,43.118h-2.762c-0.777,0-1.576,0.188-2.275,0.53c-0.361-2.075-2.178-3.658-4.354-3.658h-2.76   c-0.912,0-1.76,0.278-2.465,0.752c-0.607-1.715-2.246-2.944-4.166-2.944h-2.762c-0.805,0-1.559,0.216-2.209,0.593V22.278   c0-3.198-2.602-5.8-5.799-5.8c-3.199,0-5.801,2.602-5.801,5.8v30.591c-1.24,0.589-2.389,1.381-3.389,2.379l-2.264,2.265   c-4.738,4.739-4.738,12.447,0,17.186l6.311,6.311c0.309,0.31,0.633,0.596,0.969,0.867c2.104,3.621,6.031,6.064,10.525,6.064h15.467   c6.701,0,12.152-5.429,12.152-12.102V47.536C74.488,45.1,72.506,43.118,70.068,43.118z M72.277,75.839   c0,5.454-4.459,9.892-9.941,9.892H46.869c-1.822,0-3.525-0.497-4.994-1.353c-1.221-0.729-2.578-1.788-3.82-3.981   c-0.717-1.365-1.129-2.914-1.129-4.558c0-0.61-0.494-1.105-1.104-1.105c-0.611,0-1.105,0.495-1.105,1.105   c0,0.503,0.035,0.997,0.094,1.482l-4.184-4.186c-3.877-3.876-3.877-10.184,0-14.061l2.264-2.264   c0.557-0.557,1.174-1.029,1.826-1.434v7.567c0,0.611,0.494,1.105,1.105,1.105c0.609,0,1.104-0.494,1.104-1.105V22.278   c0-1.979,1.611-3.591,3.592-3.591c1.979,0,3.59,1.612,3.59,3.591v28.378c0,0.611,0.494,1.105,1.105,1.105   c0.609,0,1.104-0.494,1.104-1.105v-8.44c0-1.217,0.992-2.208,2.209-2.208h2.762c1.219,0,2.211,0.991,2.211,2.208v8.452   c0,0.61,0.494,1.104,1.104,1.104s1.105-0.493,1.105-1.104v-6.259c0-1.217,0.99-2.209,2.211-2.209h2.76   c1.219,0,2.211,0.992,2.211,2.209v6.247c0,0.611,0.492,1.105,1.104,1.105c0.609,0,1.105-0.494,1.105-1.105v-4.005   c0-0.644,1.135-1.324,2.209-1.324h2.762c1.219,0,2.209,0.991,2.209,2.209V75.839z"/>
	<path fill="#000000" d="M57.277,73.832L56,75.262v-11.24l1.277,1.43c0.217,0.216,0.425,0.323,0.708,0.323s0.526-0.107,0.743-0.323   c0.432-0.432,0.413-1.131-0.019-1.562l-3.321-3.313c-0.079-0.078-0.18-0.13-0.276-0.181c-0.029-0.016,0.146-0.043,0.114-0.056   C55.092,60.282,55,60.126,55,60.126V60h-0.404c-0.035,0-0.064,0.143-0.099,0.146c-0.112,0.011-0.224,0.087-0.326,0.13   c-0.111,0.047-0.208,0.15-0.297,0.229c-0.019,0.016-0.042,0.038-0.06,0.055l-3.312,3.321c-0.432,0.432-0.432,1.135,0,1.566   c0.43,0.432,0.886,0.434,1.317,0.002L53,64.025v11.232l-1.181-1.426c-0.432-0.433-1.011-0.433-1.44,0   c-0.432,0.431-0.37,1.131,0.062,1.562l3.343,3.313c0.102,0.102,0.238,0.184,0.373,0.239c0.091,0.038,0.199,0.03,0.298,0.042   C54.5,78.994,54.544,79,54.592,79h0.003h0.002c0.147,0,0.292-0.014,0.425-0.07c0.061-0.025,0.106-0.063,0.16-0.098   c0.067-0.043,0.14-0.071,0.197-0.128l3.312-3.312c0.432-0.431,0.507-1.13,0.075-1.561C58.333,73.398,57.711,73.399,57.277,73.832z"/>
</g>
</svg>