<svg xmlns="http://www.w3.org/2000/svg" xmlns:xlink="http://www.w3.org/1999/xlink" version="1.1" x="0px" y="0px" width="100px" height="100px" viewBox="0 0 100 100" enable-background="new 0 0 100 100" xml:space="preserve">
<g id="Captions">
</g>
<g id="Your_Icon">
	<path fill="#000000" d="M21.315,60.616c-3.829-0.786-6.716-4.182-6.716-8.237c0-4.637,3.771-8.409,8.41-8.409   c4.635,0,8.408,3.772,8.408,8.409c0,1.577-0.444,3.049-1.203,4.312l0.997,2.247c1.441-1.8,2.31-4.078,2.31-6.559   c0-5.797-4.715-10.513-10.512-10.513s-10.514,4.716-10.514,10.513c0,5.561,4.343,10.113,9.812,10.478L21.315,60.616z"/>
	<path fill="#000000" d="M77.777,30.219c-1.272,0-2.484,0.252-3.6,0.699c0.228-0.825,0.359-1.689,0.359-2.585   c0-5.363-4.363-9.727-9.727-9.727c-2.223,0-4.267,0.757-5.906,2.017c-0.203-5.187-4.473-9.345-9.707-9.345   c-5.015,0-9.153,3.813-9.67,8.694c-1.725-1.552-3.997-2.506-6.494-2.506c-5.365,0-9.729,4.363-9.729,9.728   c0,4.642,3.269,8.527,7.624,9.492l-0.651-2.393c-2.845-1.107-4.869-3.868-4.869-7.1c0-4.204,3.42-7.623,7.625-7.623   c3.068,0,5.713,1.826,6.921,4.446c0.105,0.324,0.229,0.641,0.368,0.949c0.216,0.705,0.334,1.452,0.334,2.228   c0,1.836-0.652,3.522-1.738,4.84l0.643,2.364c1.723-1.562,3.03-3.734,3.288-6.172C43.453,28.771,44,29.236,45,29.618v-2.48   c-1-0.764-2.031-1.771-2.576-2.952c-0.106-0.326-0.305-0.644-0.443-0.953c-0.215-0.705-0.37-1.453-0.37-2.228   c0-4.203,3.4-7.623,7.605-7.623c4.203,0,7.615,3.42,7.615,7.623c0,0.855-0.151,1.675-0.413,2.442   c-0.282,0.485-0.35,0.996-0.547,1.528C55.342,25.838,54,26.582,54,27.175v2.462c0-0.266,0.824-0.572,1.279-0.921   c0.105,2.689,1.223,5.096,3.082,6.796l0.577-2.379c-1.065-1.312-1.729-2.981-1.729-4.8c0-0.856,0.138-1.678,0.399-2.447   c0.281-0.482,0.515-0.99,0.711-1.521c1.341-2.188,3.744-3.656,6.494-3.656c4.203,0,7.621,3.42,7.621,7.624   c0,3.263-2.063,6.044-4.95,7.131l-0.636,2.37c0.537-0.117,1.061-0.271,1.562-0.473c-0.228,0.824-0.359,1.688-0.359,2.584   c0,1.569,0.382,3.048,1.045,4.361l1.437-2.003c-0.243-0.743-0.378-1.535-0.378-2.358c0-4.204,3.418-7.624,7.623-7.624   c4.203,0,7.623,3.636,7.623,7.839c0,4.205-3.42,7.84-7.623,7.84c-0.008,0-0.015,0-0.022,0l-1.422,1.769   c0.473,0.07,0.952,0.011,1.444,0.011c5.363,0,9.727-4.417,9.727-9.78C87.504,34.637,83.141,30.219,77.777,30.219z"/>
	<path fill="#000000" d="M83.176,39.037c-0.24-1.456-1.033-2.729-2.23-3.589c-2.477-1.773-5.932-1.203-7.705,1.27L65.248,47.87   l4.865-18.157c0.791-2.94-0.957-5.977-3.898-6.768c-2.939-0.79-5.975,0.957-6.768,3.904l-4.748,18.19V20.961   c0-3.045-2.477-5.521-5.52-5.521c-3.047,0-5.521,2.476-5.521,5.521v24.514l-5.361-19.742c-0.785-2.941-3.818-4.696-6.76-3.909   c-2.939,0.786-4.693,3.818-3.906,6.764l6.795,24.936c0.043,0.258,0.295,1.955,0.295,5.708v1.911l-1.662-0.634l-4.676-10.536   c-0.947-2.139-3.07-3.52-5.41-3.52c-0.826,0-1.633,0.172-2.395,0.51c-2.98,1.321-4.33,4.823-3.008,7.805l5.184,11.688   c1.795,4.221,4.988,8.059,6.59,9.662l6.008,6.007c0.291,0.291,0.596,0.562,0.912,0.817c2,3.451,5.742,5.781,10.023,5.781H61.01   c6.377,0,11.566-5.168,11.566-11.521v-20.6l9.639-13.45C83.074,41.952,83.416,40.491,83.176,39.037z M80.504,41.927L70.67,55.65   c-0.129,0.178-0.197,0.393-0.197,0.612v20.938c0,5.192-4.246,9.418-9.463,9.418H46.287c-1.736,0-3.357-0.476-4.756-1.29   c-1.625-0.991-3.07-2.485-3.639-3.796c-0.68-1.298-1.07-2.77-1.07-4.332c0-0.581-0.471-1.052-1.053-1.052   c-0.58,0-1.049,0.471-1.049,1.052c0,0.476,0.031,0.945,0.086,1.405l-3.975-3.978c-1.939-1.938-4.689-5.582-6.146-9.013   l-5.193-11.703c-0.852-1.921,0.02-4.177,1.939-5.028c0.49-0.219,1.012-0.33,1.541-0.33c1.508,0,2.877,0.891,3.488,2.27   l4.854,10.938c0.113,0.255,0.324,0.456,0.586,0.556l2.82,1.073v1.441c0,0.579,0.469,1.051,1.049,1.051   c0.582,0,1.053-0.472,1.053-1.051V59.23c0-4.319-0.32-6.06-0.336-6.132c-0.004-0.026-0.01-0.055-0.018-0.079L29.662,28.04   c-0.486-1.821,0.598-3.698,2.42-4.185c1.82-0.486,3.697,0.6,4.184,2.424l7.43,27.356c0.137,0.509,0.627,0.836,1.152,0.768   c0.521-0.07,0.912-0.516,0.912-1.043V20.961c0-1.885,1.533-3.418,3.42-3.418c1.883,0,3.416,1.533,3.416,3.418v32.271   c0,0.527,0.393,0.976,0.918,1.043c0.521,0.067,1.018-0.268,1.152-0.779L61.48,27.39c0.49-1.821,2.373-2.901,4.188-2.413   c1.82,0.49,2.904,2.368,2.414,4.189l-6.359,23.74c-0.131,0.49,0.107,1.005,0.566,1.223c0.459,0.216,1.008,0.076,1.305-0.338   l11.357-15.847c1.096-1.531,3.236-1.885,4.768-0.786c0.742,0.531,1.232,1.32,1.381,2.221   C81.248,40.278,81.037,41.185,80.504,41.927z"/>
	<path fill="#000000" d="M62.816,71.546c0.008-0.015,0.012-0.029,0.021-0.044c0.027-0.044,0.055-0.089,0.074-0.137   c0.008-0.02,0.012-0.041,0.02-0.062c0.014-0.044,0.031-0.087,0.041-0.134c0.014-0.068,0.02-0.138,0.02-0.207   c0-0.071-0.006-0.14-0.02-0.209c-0.01-0.047-0.027-0.09-0.041-0.133c-0.008-0.021-0.012-0.043-0.02-0.063   c-0.02-0.047-0.047-0.092-0.074-0.136c-0.01-0.016-0.014-0.029-0.021-0.045c-0.041-0.058-0.084-0.111-0.133-0.158l-2.365-2.364   c-0.41-0.412-1.076-0.412-1.486,0c-0.412,0.409-0.412,1.076,0,1.485l0.57,0.571h-4.297v-4.298l0.572,0.572   c0.205,0.205,0.473,0.308,0.742,0.308s0.539-0.103,0.744-0.308c0.41-0.41,0.41-1.077,0-1.486l-2.365-2.367   c-0.02-0.02-0.043-0.033-0.064-0.051c-0.029-0.028-0.059-0.055-0.094-0.078c-0.023-0.018-0.053-0.028-0.076-0.042   c-0.035-0.02-0.068-0.041-0.105-0.057c-0.027-0.012-0.059-0.019-0.088-0.026c-0.035-0.011-0.07-0.025-0.109-0.033   c-0.066-0.015-0.137-0.021-0.209-0.021l0,0l0,0c-0.008,0-0.016,0.004-0.027,0.004c-0.061,0.001-0.119,0.005-0.178,0.018   c-0.057,0.011-0.107,0.029-0.16,0.048c-0.012,0.005-0.025,0.007-0.035,0.012c-0.061,0.024-0.115,0.055-0.17,0.089   c-0.004,0.003-0.008,0.005-0.012,0.008c-0.059,0.039-0.113,0.084-0.164,0.135l-2.361,2.363c-0.41,0.409-0.41,1.075,0,1.486   c0.41,0.41,1.076,0.41,1.486,0l0.572-0.571v4.297h-4.297l0.57-0.571c0.41-0.409,0.41-1.076,0-1.485   c-0.412-0.412-1.076-0.412-1.488,0l-2.365,2.364c-0.049,0.047-0.092,0.101-0.131,0.158c-0.008,0.016-0.014,0.029-0.023,0.045   c-0.025,0.044-0.053,0.089-0.072,0.136c-0.008,0.021-0.012,0.042-0.02,0.063c-0.016,0.043-0.031,0.086-0.041,0.133   c-0.014,0.069-0.021,0.138-0.021,0.209c0,0.069,0.008,0.139,0.021,0.207c0.01,0.047,0.025,0.09,0.041,0.134   c0.008,0.021,0.012,0.043,0.02,0.062c0.02,0.048,0.047,0.093,0.072,0.137c0.01,0.015,0.016,0.029,0.023,0.044   c0.039,0.057,0.082,0.112,0.131,0.159l2.365,2.365c0.205,0.206,0.475,0.308,0.744,0.308s0.539-0.102,0.744-0.308   c0.41-0.41,0.41-1.076,0-1.487l-0.572-0.57h4.299v4.297l-0.572-0.571c-0.41-0.41-1.076-0.41-1.486,0   c-0.41,0.411-0.41,1.076,0,1.487l2.361,2.363c0.051,0.049,0.105,0.094,0.164,0.134c0.004,0.003,0.008,0.004,0.012,0.006   c0.055,0.034,0.109,0.066,0.17,0.09c0.01,0.006,0.023,0.008,0.035,0.012c0.053,0.02,0.104,0.037,0.16,0.049   c0.059,0.012,0.117,0.017,0.178,0.018c0.012,0.001,0.02,0.004,0.027,0.004l0,0l0,0c0.072,0,0.143-0.007,0.209-0.021   c0.039-0.008,0.074-0.022,0.109-0.033c0.029-0.01,0.061-0.016,0.088-0.027c0.037-0.015,0.07-0.036,0.105-0.056   c0.023-0.014,0.053-0.024,0.076-0.042c0.035-0.022,0.064-0.051,0.094-0.079c0.021-0.017,0.045-0.032,0.064-0.05l2.365-2.366   c0.41-0.411,0.41-1.076,0-1.487c-0.41-0.41-1.078-0.41-1.486,0l-0.572,0.571v-4.297h4.297l-0.57,0.57   c-0.412,0.411-0.412,1.077,0,1.487c0.205,0.206,0.475,0.308,0.742,0.308c0.27,0,0.539-0.102,0.744-0.308l2.365-2.365   C62.732,71.658,62.775,71.603,62.816,71.546z"/>
</g>
</svg>