<svg xmlns="http://www.w3.org/2000/svg" xmlns:xlink="http://www.w3.org/1999/xlink" version="1.1" x="0px" y="0px" width="100px" height="100px" viewBox="0 0 100 100" enable-background="new 0 0 100 100" xml:space="preserve">
<g id="Captions">
</g>
<g id="Your_Icon">
	<path fill="#000000" d="M83.398,41.688c-0.239-1.456-1.032-2.729-2.23-3.589c-2.477-1.773-5.932-1.203-7.703,1.27l-7.992,11.152   l4.863-18.157c0.791-2.94-0.956-5.977-3.896-6.768c-2.94-0.79-5.977,0.957-6.77,3.904l-4.747,18.19V23.612   c0-3.045-2.477-5.521-5.522-5.521c-3.044,0-5.52,2.476-5.52,5.521v24.514l-5.36-19.742c-0.785-2.941-3.819-4.696-6.76-3.909   c-2.94,0.786-4.694,3.818-3.906,6.764l6.794,24.936c0.043,0.258,0.294,1.955,0.294,5.708v1.911l-1.66-0.634l-4.676-10.536   c-0.947-2.139-3.07-3.52-5.409-3.52c-0.828,0-1.635,0.172-2.396,0.51c-2.98,1.321-4.33,4.823-3.01,7.805l5.186,11.688   c1.796,4.221,4.986,8.059,6.59,9.662l6.007,6.007c0.291,0.291,0.598,0.562,0.913,0.817c1.999,3.451,5.741,5.781,10.021,5.781   h14.722c6.379,0,11.568-5.168,11.568-11.521v-20.6l9.638-13.45C83.298,44.604,83.638,43.143,83.398,41.688z M80.729,44.578   l-9.835,13.724c-0.129,0.178-0.196,0.393-0.196,0.612v20.938c0,5.192-4.246,9.418-9.466,9.418H46.51   c-1.734,0-3.354-0.476-4.756-1.29c-1.623-0.991-3.069-2.485-3.638-3.796c-0.68-1.298-1.07-2.77-1.07-4.332   c0-0.581-0.471-1.052-1.051-1.052c-0.581,0-1.052,0.471-1.052,1.052c0,0.476,0.032,0.945,0.088,1.405l-3.977-3.978   c-1.938-1.938-4.688-5.582-6.147-9.013l-5.191-11.703c-0.851-1.921,0.019-4.177,1.94-5.028c0.49-0.219,1.01-0.33,1.542-0.33   c1.508,0,2.876,0.891,3.487,2.27l4.853,10.938c0.112,0.255,0.325,0.456,0.587,0.556l2.818,1.073v1.441   c0,0.579,0.471,1.051,1.052,1.051c0.58,0,1.051-0.472,1.051-1.051v-5.602c0-4.319-0.321-6.06-0.333-6.132   c-0.006-0.026-0.012-0.055-0.021-0.079l-6.807-24.979c-0.486-1.821,0.6-3.698,2.418-4.185c1.822-0.486,3.7,0.6,4.188,2.424   l7.428,27.356c0.138,0.509,0.627,0.836,1.152,0.768c0.523-0.07,0.913-0.516,0.913-1.043V23.612c0-1.885,1.533-3.418,3.417-3.418   c1.885,0,3.419,1.533,3.419,3.418v32.271c0,0.527,0.392,0.976,0.917,1.043c0.521,0.067,1.019-0.268,1.151-0.779l6.815-26.105   c0.49-1.821,2.373-2.901,4.189-2.413c1.819,0.49,2.901,2.368,2.411,4.189l-6.358,23.74c-0.132,0.49,0.107,1.005,0.566,1.223   c0.459,0.216,1.008,0.076,1.305-0.338l11.356-15.847c1.098-1.531,3.237-1.885,4.77-0.786c0.741,0.531,1.231,1.32,1.381,2.221   C81.473,42.93,81.262,43.836,80.729,44.578z"/>
	<path fill="#000000" d="M49.399,15.987c-0.58,0-1.053-0.469-1.053-1.051V9.679c0-0.581,0.473-1.052,1.053-1.052   c0.581,0,1.051,0.471,1.051,1.052v5.258C50.45,15.519,49.98,15.987,49.399,15.987z"/>
	<path fill="#000000" d="M45.062,17.15c-0.364,0-0.717-0.188-0.913-0.525l-2.628-4.555c-0.29-0.503-0.118-1.145,0.384-1.436   c0.504-0.291,1.146-0.118,1.438,0.384l2.628,4.556c0.291,0.502,0.12,1.146-0.385,1.435C45.421,17.104,45.239,17.15,45.062,17.15z"/>
	<path fill="#000000" d="M41.883,20.326c-0.178,0-0.359-0.045-0.524-0.141l-4.554-2.629c-0.503-0.29-0.676-0.934-0.385-1.437   s0.932-0.676,1.437-0.385l4.554,2.628c0.503,0.291,0.676,0.934,0.384,1.438C42.6,20.139,42.246,20.326,41.883,20.326z"/>
	<path fill="#000000" d="M56.916,20.328c-0.363,0-0.717-0.188-0.911-0.526c-0.291-0.503-0.118-1.146,0.385-1.437l4.552-2.63   c0.502-0.292,1.146-0.118,1.437,0.385s0.118,1.146-0.385,1.436l-4.552,2.631C57.275,20.283,57.096,20.328,56.916,20.328z"/>
	<path fill="#000000" d="M53.738,17.151c-0.179,0-0.359-0.046-0.525-0.141c-0.503-0.291-0.675-0.935-0.385-1.437l2.628-4.556   c0.29-0.502,0.932-0.675,1.437-0.384c0.502,0.291,0.675,0.933,0.386,1.436l-2.629,4.555C54.455,16.962,54.103,17.151,53.738,17.151   z"/>
	<path fill="#000000" d="M33.148,22.188c-0.58,0-1.053-0.47-1.053-1.05v-5.258c0-0.581,0.473-1.052,1.053-1.052   c0.579,0,1.051,0.471,1.051,1.052v5.258C34.199,21.719,33.728,22.188,33.148,22.188z"/>
	<path fill="#000000" d="M28.811,23.352c-0.364,0-0.717-0.188-0.913-0.525l-2.629-4.554c-0.289-0.503-0.117-1.146,0.385-1.437   c0.504-0.291,1.146-0.117,1.438,0.387l2.629,4.553c0.29,0.503,0.117,1.146-0.386,1.437C29.17,23.307,28.988,23.352,28.811,23.352z"/>
	<path fill="#000000" d="M25.632,26.528c-0.178,0-0.359-0.044-0.524-0.142l-4.555-2.627c-0.502-0.292-0.675-0.935-0.384-1.438   s0.932-0.676,1.437-0.385l4.554,2.629c0.503,0.291,0.676,0.934,0.384,1.436C26.349,26.34,25.995,26.528,25.632,26.528z"/>
	<path fill="#000000" d="M24.469,30.866h-5.257c-0.58,0-1.051-0.47-1.051-1.05c0-0.582,0.471-1.052,1.051-1.052h5.257   c0.58,0,1.052,0.47,1.052,1.052C25.521,30.396,25.049,30.866,24.469,30.866z"/>
	<path fill="#000000" d="M21.08,37.836c-0.363,0-0.716-0.189-0.911-0.526c-0.291-0.504-0.118-1.146,0.384-1.437l4.553-2.628   c0.503-0.292,1.146-0.12,1.438,0.385c0.29,0.503,0.118,1.145-0.385,1.437l-4.553,2.627C21.441,37.789,21.259,37.836,21.08,37.836z"/>
	<path fill="#000000" d="M65.03,23.359c-0.581,0-1.051-0.471-1.051-1.053V17.05c0-0.582,0.47-1.053,1.051-1.053   c0.58,0,1.051,0.471,1.051,1.053v5.257C66.081,22.889,65.61,23.359,65.03,23.359z"/>
	<path fill="#000000" d="M72.546,27.698c-0.364,0-0.716-0.188-0.911-0.525c-0.29-0.503-0.118-1.146,0.384-1.437l4.555-2.629   c0.502-0.293,1.146-0.119,1.437,0.385c0.29,0.501,0.118,1.145-0.384,1.436l-4.555,2.63C72.906,27.652,72.724,27.698,72.546,27.698z   "/>
	<path fill="#000000" d="M69.369,24.521c-0.179,0-0.358-0.045-0.524-0.141c-0.503-0.291-0.675-0.933-0.386-1.437l2.628-4.554   c0.29-0.503,0.931-0.676,1.437-0.385c0.503,0.289,0.676,0.934,0.385,1.437l-2.628,4.554C70.086,24.333,69.731,24.521,69.369,24.521   z"/>
	<path fill="#000000" d="M77.99,34.972c-0.58,0-1.051-0.472-1.051-1.053v-5.258c0-0.581,0.471-1.052,1.051-1.052   s1.053,0.471,1.053,1.052v5.258C79.043,34.5,78.57,34.972,77.99,34.972z"/>
	<path fill="#000000" d="M84.959,55.718c-0.364,0-0.717-0.189-0.911-0.526l-2.63-4.552c-0.29-0.504-0.118-1.146,0.385-1.437   c0.502-0.291,1.146-0.119,1.438,0.385l2.628,4.552c0.291,0.503,0.119,1.146-0.383,1.437C85.319,55.672,85.138,55.718,84.959,55.718   z"/>
	<path fill="#000000" d="M90.059,50.616c-0.179,0-0.36-0.046-0.525-0.141l-4.554-2.628c-0.503-0.29-0.676-0.934-0.385-1.437   c0.289-0.503,0.933-0.675,1.436-0.386l4.555,2.628c0.503,0.291,0.676,0.934,0.385,1.437C90.774,50.429,90.422,50.616,90.059,50.616   z"/>
	<path fill="#000000" d="M86.669,43.65c-0.581,0-1.052-0.471-1.052-1.052c0-0.58,0.471-1.052,1.051-1.052l5.258-0.002l0,0   c0.581,0,1.052,0.472,1.052,1.051c0,0.581-0.47,1.053-1.051,1.053L86.669,43.65L86.669,43.65z"/>
	<path fill="#000000" d="M85.507,39.311c-0.363,0-0.717-0.188-0.912-0.525c-0.29-0.503-0.118-1.146,0.385-1.438l4.554-2.628   c0.502-0.294,1.146-0.119,1.436,0.385c0.292,0.501,0.119,1.146-0.384,1.435l-4.554,2.631   C85.866,39.265,85.685,39.311,85.507,39.311z"/>
	<path fill="#000000" d="M82.329,36.134c-0.178,0-0.358-0.044-0.524-0.142c-0.504-0.289-0.676-0.932-0.386-1.436l2.628-4.555   c0.29-0.503,0.933-0.676,1.438-0.385c0.501,0.29,0.674,0.935,0.383,1.438l-2.626,4.553C83.046,35.945,82.693,36.134,82.329,36.134z   "/>
	<path fill="#000000" d="M23.234,46.642c-0.582,0-1.052-0.471-1.052-1.052v-5.72c0-0.58,0.47-1.052,1.052-1.052   c0.581,0,1.052,0.472,1.052,1.052v5.72C24.286,46.171,23.815,46.642,23.234,46.642z"/>
	<path fill="#000000" d="M18.516,47.906c-0.364,0-0.718-0.188-0.912-0.525l-2.86-4.954c-0.29-0.502-0.118-1.146,0.385-1.437   c0.502-0.292,1.146-0.116,1.437,0.386l2.86,4.953c0.29,0.504,0.117,1.146-0.385,1.437C18.875,47.861,18.692,47.906,18.516,47.906z"/>
	<path fill="#000000" d="M15.059,51.363c-0.179,0-0.359-0.046-0.525-0.143l-4.954-2.858c-0.503-0.291-0.675-0.935-0.386-1.438   c0.292-0.502,0.934-0.676,1.438-0.385l4.953,2.859c0.503,0.292,0.676,0.935,0.386,1.438C15.775,51.173,15.422,51.363,15.059,51.363   z"/>
	<path fill="#000000" d="M13.793,56.082H8.074c-0.581,0-1.052-0.472-1.052-1.052s0.471-1.051,1.052-1.051h5.719   c0.58,0,1.053,0.471,1.053,1.051S14.373,56.082,13.793,56.082z"/>
	<path fill="#000000" d="M10.106,63.662c-0.363,0-0.717-0.189-0.913-0.525c-0.289-0.503-0.116-1.146,0.386-1.438l4.953-2.859   c0.504-0.29,1.146-0.117,1.438,0.385c0.29,0.504,0.117,1.146-0.386,1.438l-4.952,2.859C10.466,63.616,10.283,63.662,10.106,63.662z   "/>
	<path fill="#000000" d="M15.653,69.21c-0.18,0-0.359-0.045-0.525-0.14c-0.503-0.291-0.675-0.934-0.385-1.437l2.859-4.953   c0.29-0.502,0.931-0.675,1.437-0.385c0.502,0.291,0.675,0.934,0.385,1.437l-2.859,4.953C16.37,69.021,16.017,69.21,15.653,69.21z"/>
	<path fill="#000000" d="M53.95,79.633c-0.582,0-1.052-0.472-1.052-1.053v-9.686l-1.579,1.579c-0.412,0.411-1.076,0.411-1.487,0   c-0.41-0.41-0.41-1.076,0-1.486l3.373-3.374c0.302-0.302,0.753-0.393,1.146-0.229c0.394,0.162,0.649,0.547,0.649,0.973V78.58   C55.001,79.161,54.53,79.633,53.95,79.633z"/>
</g>
</svg>