<svg xmlns="http://www.w3.org/2000/svg" xmlns:xlink="http://www.w3.org/1999/xlink" version="1.1" x="0px" y="0px" width="100px" height="100px" viewBox="0 0 100 100" enable-background="new 0 0 100 100" xml:space="preserve">
<g id="Captions">
</g>
<g id="Your_Icon">
	<path fill="#000000" d="M69.783,48.686h-2.675c-0.001,0-0.003,0-0.005,0l4.453-16.627c0.804-2.988-0.974-6.076-3.964-6.883   c-2.99-0.803-6.078,0.975-6.885,3.973l-4.83,18.504V23.158c0-3.096-2.52-5.615-5.616-5.615s-5.615,2.52-5.615,5.615v24.936   l-5.452-20.082c-0.8-2.992-3.884-4.775-6.876-3.977c-2.991,0.801-4.774,3.885-3.975,6.881l6.913,25.363   c0.023,0.146,0.112,0.746,0.188,1.904c-1.155,0.562-2.229,1.311-3.164,2.246l-2.193,2.193c-4.588,4.588-4.588,12.053,0,16.641   l6.109,6.109c0.297,0.295,0.607,0.57,0.929,0.832c2.035,3.51,5.841,5.879,10.195,5.879h14.976c6.487,0,11.767-5.256,11.767-11.719   V52.963C74.062,50.604,72.143,48.686,69.783,48.686z M71.923,80.365c0,5.283-4.319,9.58-9.627,9.58H47.32   c-1.765,0-3.415-0.482-4.839-1.312c-1.516-1.078-2.978-2.285-3.7-3.859c-0.69-1.322-1.088-2.818-1.088-4.408   c0-0.59-0.479-1.068-1.069-1.068s-1.069,0.479-1.069,1.068c0,0.484,0.032,0.961,0.091,1.43L31.6,77.75   c-3.754-3.754-3.754-9.859,0-13.615l2.193-2.191c0.532-0.533,1.122-0.986,1.746-1.375c0.01,0.465,0.016,0.969,0.016,1.518v5.697   c0,0.59,0.479,1.07,1.069,1.07s1.069-0.48,1.069-1.07v-5.697c0-0.955-0.016-1.781-0.04-2.498c-0.021-0.807-0.055-1.443-0.121-2.189   c-0.085-1.033-0.173-1.512-0.179-1.549c-0.006-0.027-0.012-0.055-0.02-0.082L30.41,30.359c-0.495-1.852,0.609-3.762,2.461-4.256   s3.761,0.609,4.258,2.465l7.555,27.828c0.142,0.518,0.643,0.85,1.174,0.779c0.532-0.07,0.928-0.523,0.928-1.061V23.158   c0-1.916,1.561-3.477,3.477-3.477c1.917,0,3.477,1.561,3.477,3.477v32.824c0,0.537,0.399,0.992,0.934,1.061   c0.536,0.074,1.035-0.27,1.171-0.789l6.933-26.557c0.499-1.852,2.41-2.951,4.262-2.453c1.851,0.498,2.952,2.41,2.454,4.262   l-6.502,24.266c-0.151,0.57,0.187,1.158,0.758,1.311s1.156-0.186,1.311-0.756l1.15-4.301c0.323-1.201,0.728-1.201,0.9-1.201h2.675   c1.181,0,2.14,0.959,2.14,2.139V80.365z"/>
	<path fill="#000000" d="M50.316,15.402c-0.592,0-1.07-0.479-1.07-1.068v-5.35c0-0.59,0.479-1.068,1.07-1.068   c0.59,0,1.068,0.479,1.068,1.068v5.35C51.385,14.924,50.906,15.402,50.316,15.402z"/>
	<path fill="#000000" d="M45.903,16.586c-0.369,0-0.729-0.191-0.928-0.535l-2.673-4.633c-0.296-0.512-0.121-1.166,0.391-1.461   s1.166-0.119,1.462,0.393l2.674,4.633c0.296,0.512,0.12,1.164-0.392,1.461C46.27,16.539,46.086,16.586,45.903,16.586z"/>
	<path fill="#000000" d="M42.671,19.816c-0.183,0-0.366-0.045-0.534-0.143L37.505,17c-0.512-0.297-0.687-0.951-0.391-1.463   c0.294-0.512,0.949-0.686,1.46-0.391l4.632,2.674c0.512,0.295,0.687,0.949,0.393,1.461C43.399,19.625,43.041,19.816,42.671,19.816z   "/>
	<path fill="#000000" d="M57.961,19.816c-0.369,0-0.728-0.191-0.927-0.533c-0.295-0.512-0.12-1.166,0.392-1.461l4.632-2.676   c0.511-0.297,1.165-0.121,1.46,0.391c0.296,0.512,0.121,1.166-0.391,1.461l-4.631,2.676C58.327,19.771,58.144,19.816,57.961,19.816   z"/>
	<path fill="#000000" d="M54.729,16.586c-0.182,0-0.365-0.047-0.534-0.143c-0.512-0.295-0.688-0.949-0.392-1.461l2.673-4.633   c0.296-0.512,0.95-0.688,1.462-0.393s0.687,0.949,0.391,1.461l-2.672,4.633C55.459,16.395,55.099,16.586,54.729,16.586z"/>
	<path fill="#000000" d="M33.785,21.711c-0.591,0-1.069-0.479-1.069-1.068v-5.35c0-0.59,0.479-1.068,1.069-1.068   s1.069,0.479,1.069,1.068v5.35C34.854,21.232,34.376,21.711,33.785,21.711z"/>
	<path fill="#000000" d="M29.373,22.895c-0.369,0-0.729-0.193-0.928-0.535l-2.674-4.631c-0.295-0.512-0.12-1.166,0.392-1.463   c0.512-0.295,1.166-0.119,1.461,0.393l2.675,4.631c0.295,0.512,0.119,1.166-0.393,1.461C29.739,22.848,29.555,22.895,29.373,22.895   z"/>
	<path fill="#000000" d="M26.14,26.125c-0.182,0-0.366-0.045-0.533-0.143l-4.632-2.676c-0.512-0.295-0.687-0.947-0.392-1.461   c0.295-0.51,0.949-0.686,1.461-0.391l4.632,2.674c0.512,0.295,0.688,0.949,0.392,1.461C26.869,25.934,26.51,26.125,26.14,26.125z"/>
	<path fill="#000000" d="M24.957,30.539H19.61c-0.591,0-1.07-0.48-1.07-1.07c0-0.592,0.479-1.07,1.07-1.07h5.347   c0.591,0,1.07,0.479,1.07,1.07C26.027,30.059,25.548,30.539,24.957,30.539z"/>
	<path fill="#000000" d="M21.51,37.625c-0.369,0-0.729-0.191-0.927-0.535c-0.295-0.51-0.12-1.166,0.392-1.461l4.631-2.674   c0.512-0.295,1.166-0.119,1.461,0.393s0.12,1.166-0.392,1.463l-4.631,2.672C21.876,37.58,21.692,37.625,21.51,37.625z"/>
	<path fill="#000000" d="M66.215,22.9c-0.591,0-1.07-0.479-1.07-1.068v-5.35c0-0.59,0.479-1.068,1.07-1.068s1.069,0.479,1.069,1.068   v5.35C67.284,22.422,66.806,22.9,66.215,22.9z"/>
	<path fill="#000000" d="M78.49,38.814c-0.182,0-0.365-0.045-0.533-0.143L73.325,36c-0.512-0.295-0.688-0.949-0.393-1.461   c0.296-0.514,0.948-0.689,1.462-0.393l4.631,2.672c0.512,0.295,0.688,0.949,0.392,1.461C79.22,38.623,78.859,38.814,78.49,38.814z"/>
	<path fill="#000000" d="M75.042,31.729c-0.591,0-1.069-0.479-1.069-1.068s0.479-1.07,1.069-1.07l5.348-0.002l0,0   c0.591,0,1.069,0.479,1.07,1.068c0,0.592-0.479,1.07-1.069,1.07L75.042,31.729L75.042,31.729z"/>
	<path fill="#000000" d="M73.86,27.314c-0.369,0-0.729-0.191-0.927-0.533c-0.295-0.512-0.12-1.166,0.392-1.463l4.631-2.674   c0.512-0.297,1.166-0.121,1.461,0.391c0.296,0.512,0.121,1.166-0.391,1.461l-4.632,2.676C74.227,27.27,74.043,27.314,73.86,27.314z   "/>
	<path fill="#000000" d="M70.629,24.084c-0.182,0-0.365-0.047-0.534-0.143c-0.512-0.297-0.688-0.951-0.392-1.463l2.673-4.631   c0.296-0.512,0.95-0.688,1.461-0.393c0.512,0.295,0.688,0.949,0.392,1.461l-2.672,4.633C71.357,23.893,70.998,24.084,70.629,24.084   z"/>
	<path fill="#000000" d="M54.674,80.377c-2.853,0-4.769-2.242-4.769-4.334c0-0.592,0.479-1.07,1.07-1.07s1.069,0.479,1.069,1.07   c0,0.916,1,2.195,2.629,2.195c2.167,0,2.897-1.898,2.897-2.764c0-2.248-3.548-2.273-3.7-2.273c-0.591,0-1.069-0.479-1.069-1.07   c0-0.59,0.479-1.068,1.069-1.068c1.716,0,2.998-1.201,2.998-2.273c0-1.328-1.535-1.471-2.195-1.471   c-1.258,0-2.361,0.625-2.361,1.338c0,0.59-0.479,1.068-1.069,1.068s-1.071-0.479-1.071-1.068c0-1.951,1.978-3.477,4.502-3.477   c2.593,0,4.335,1.451,4.335,3.609c0,1.195-0.588,2.297-1.521,3.102c1.311,0.709,2.224,1.883,2.224,3.584   C59.711,77.451,58.109,80.377,54.674,80.377z"/>
</g>
</svg>