<svg xmlns="http://www.w3.org/2000/svg" xmlns:xlink="http://www.w3.org/1999/xlink" version="1.1" x="0px" y="0px" width="100px" height="100px" viewBox="0 0 100 100" enable-background="new 0 0 100 100" xml:space="preserve">
<g id="Captions">
</g>
<g id="Your_Icon">
	<path fill="#000000" d="M21.315,60.618c-3.829-0.785-6.718-4.181-6.718-8.237c0-4.639,3.773-8.41,8.41-8.41s8.408,3.771,8.408,8.41   c0,1.577-0.444,3.049-1.202,4.311l0.996,2.246c1.441-1.799,2.31-4.077,2.31-6.557c0-5.797-4.715-10.514-10.512-10.514   s-10.512,4.717-10.512,10.514c0,5.559,4.342,10.113,9.812,10.477L21.315,60.618z"/>
	<path fill="#000000" d="M77.775,30.219c-1.272,0-2.484,0.252-3.6,0.698c0.228-0.824,0.359-1.688,0.359-2.583   c0-5.363-4.363-9.727-9.725-9.727c-2.223,0-4.267,0.757-5.906,2.016c-0.203-5.186-4.473-9.344-9.707-9.344   c-5.017,0-9.155,3.815-9.672,8.695c-1.725-1.552-3.997-2.506-6.494-2.506c-5.363,0-9.727,4.363-9.727,9.727   c0,4.641,3.269,8.527,7.622,9.492l-0.651-2.391c-2.844-1.108-4.869-3.871-4.869-7.102c0-4.203,3.422-7.625,7.625-7.625   c3.062,0,5.703,1.82,6.915,4.433c0.108,0.333,0.236,0.657,0.378,0.974c0.215,0.702,0.332,1.447,0.332,2.219   c0,1.836-0.653,3.521-1.738,4.84l0.642,2.363c1.722-1.563,3.029-3.734,3.288-6.171C43.452,28.771,44,29.237,45,29.619v-2.48   c-1-0.765-2.033-1.771-2.578-2.954c-0.106-0.325-0.304-0.642-0.442-0.95c-0.216-0.705-0.37-1.453-0.37-2.229   c0-4.203,3.401-7.623,7.606-7.623c4.203,0,7.613,3.42,7.613,7.623c0,0.854-0.151,1.674-0.412,2.441   c-0.284,0.486-0.351,0.999-0.548,1.533C55.34,25.842,54,26.586,54,27.178v2.463c0-0.267,0.823-0.572,1.278-0.922   c0.106,2.688,1.222,5.094,3.081,6.794l0.577-2.38c-1.065-1.312-1.729-2.981-1.729-4.799c0-0.854,0.136-1.672,0.396-2.438   c0.284-0.487,0.521-1,0.718-1.536c1.343-2.185,3.744-3.65,6.492-3.65c4.203,0,7.621,3.422,7.621,7.625   c0,3.263-2.064,6.046-4.952,7.133l-0.636,2.37c0.537-0.117,1.061-0.272,1.562-0.473c-0.228,0.824-0.359,1.688-0.359,2.583   c0,1.569,0.382,3.048,1.045,4.361l1.437-2.004c-0.243-0.743-0.378-1.534-0.378-2.357c0-4.203,3.42-7.625,7.623-7.625   s7.625,3.637,7.625,7.84S81.979,48,77.775,48c-0.007,0-0.014,0-0.021,0l-1.423,1.77c0.473,0.07,0.952,0.012,1.443,0.012   c5.365,0,9.729-4.417,9.729-9.78C87.504,34.636,83.141,30.219,77.775,30.219z"/>
	<path fill="#000000" d="M83.174,39.037c-0.24-1.455-1.033-2.729-2.23-3.588c-2.477-1.773-5.932-1.203-7.705,1.271l-7.99,11.15   l4.865-18.158c0.789-2.939-0.959-5.975-3.898-6.768c-2.939-0.787-5.975,0.959-6.768,3.906l-4.75,18.189V20.963   c0-3.045-2.477-5.521-5.52-5.521c-3.045,0-5.521,2.477-5.521,5.521v24.512l-5.361-19.742c-0.783-2.939-3.816-4.695-6.758-3.908   c-2.939,0.787-4.693,3.82-3.906,6.764l6.795,24.936c0.043,0.258,0.291,1.955,0.291,5.709v1.91l-1.66-0.633l-4.674-10.537   c-0.949-2.139-3.072-3.52-5.41-3.52c-0.828,0-1.633,0.17-2.395,0.51c-2.982,1.322-4.332,4.822-3.01,7.805l5.186,11.688   c1.795,4.221,4.986,8.059,6.59,9.664l6.006,6.006c0.291,0.291,0.598,0.561,0.912,0.816c2,3.451,5.742,5.779,10.023,5.779h14.723   c6.379,0,11.566-5.168,11.566-11.518V56.602l9.639-13.447C83.072,41.955,83.414,40.492,83.174,39.037z M80.504,41.926L70.668,55.65   c-0.127,0.18-0.195,0.395-0.195,0.615v20.938c0,5.191-4.246,9.418-9.465,9.418H46.285c-1.734,0-3.355-0.475-4.756-1.289   c-1.623-0.992-3.07-2.486-3.639-3.799c-0.68-1.297-1.07-2.77-1.07-4.33c0-0.582-0.471-1.053-1.051-1.053s-1.053,0.471-1.053,1.053   c0,0.477,0.035,0.943,0.09,1.404l-3.977-3.977c-1.939-1.941-4.688-5.584-6.148-9.014L19.49,53.916   c-0.852-1.922,0.018-4.18,1.939-5.031c0.492-0.217,1.012-0.328,1.543-0.328c1.508,0,2.877,0.891,3.486,2.268l4.855,10.938   c0.111,0.256,0.322,0.457,0.586,0.559l2.816,1.072v1.439c0,0.58,0.473,1.051,1.053,1.051s1.051-0.471,1.051-1.051v-5.6   c0-4.32-0.32-6.061-0.334-6.133c-0.004-0.027-0.012-0.053-0.018-0.08l-6.807-24.979c-0.488-1.82,0.598-3.697,2.418-4.184   s3.697,0.598,4.186,2.422l7.428,27.357c0.139,0.508,0.627,0.836,1.154,0.768c0.521-0.07,0.912-0.516,0.912-1.041v-32.4   c0-1.885,1.533-3.418,3.418-3.418c1.883,0,3.418,1.533,3.418,3.418V53.23c0,0.529,0.393,0.977,0.916,1.043   c0.521,0.07,1.02-0.264,1.152-0.777l6.816-26.105c0.488-1.822,2.371-2.9,4.188-2.414c1.82,0.49,2.902,2.371,2.412,4.189   l-6.357,23.742c-0.133,0.49,0.105,1.004,0.564,1.223c0.461,0.215,1.01,0.074,1.305-0.338l11.357-15.848   c1.098-1.531,3.238-1.885,4.77-0.787c0.742,0.533,1.23,1.322,1.379,2.221C81.246,40.281,81.035,41.186,80.504,41.926z"/>
	<path fill="#000000" d="M56.123,75.35l-1.357,1.359V66.012l1.357,1.359c0.207,0.205,0.475,0.307,0.744,0.307   s0.539-0.102,0.744-0.307c0.41-0.41,0.41-1.076,0-1.486l-3.154-3.156c-0.02-0.018-0.043-0.031-0.062-0.051   c-0.031-0.027-0.061-0.055-0.096-0.078c-0.025-0.016-0.051-0.027-0.076-0.041c-0.035-0.02-0.068-0.041-0.105-0.057   c-0.027-0.012-0.057-0.016-0.088-0.025c-0.035-0.012-0.07-0.027-0.109-0.035c-0.066-0.012-0.135-0.02-0.207-0.02l0,0l0,0   c-0.01,0-0.018,0.002-0.027,0.004c-0.061,0-0.121,0.006-0.18,0.016c-0.057,0.012-0.107,0.029-0.158,0.049   c-0.014,0.006-0.025,0.008-0.037,0.012c-0.061,0.025-0.115,0.055-0.168,0.09c-0.004,0.002-0.01,0.004-0.014,0.006   c-0.059,0.041-0.113,0.086-0.162,0.135l-3.15,3.152c-0.412,0.41-0.412,1.076,0,1.486c0.408,0.41,1.074,0.41,1.486,0l1.359-1.359   v10.695l-1.359-1.357c-0.412-0.412-1.078-0.412-1.486,0c-0.412,0.408-0.412,1.076,0,1.484l3.15,3.152   c0.049,0.051,0.104,0.096,0.162,0.135c0.004,0.002,0.01,0.004,0.014,0.006c0.053,0.035,0.107,0.066,0.168,0.09   c0.012,0.006,0.023,0.008,0.037,0.012c0.051,0.02,0.102,0.037,0.158,0.049c0.059,0.012,0.119,0.016,0.18,0.018   c0.01,0,0.018,0.004,0.027,0.004l0,0l0,0c0.072,0,0.141-0.008,0.207-0.021c0.039-0.01,0.074-0.023,0.109-0.033   c0.031-0.01,0.061-0.016,0.088-0.027c0.037-0.016,0.07-0.037,0.105-0.057c0.025-0.014,0.051-0.025,0.076-0.041   c0.035-0.021,0.064-0.051,0.096-0.078c0.02-0.018,0.043-0.031,0.062-0.051l3.154-3.156c0.41-0.408,0.41-1.076,0-1.484   C57.199,74.938,56.535,74.938,56.123,75.35z"/>
</g>
</svg>