<svg xmlns="http://www.w3.org/2000/svg" xmlns:xlink="http://www.w3.org/1999/xlink" version="1.1" x="0px" y="0px" width="100px" height="100px" viewBox="0 0 100 100" enable-background="new 0 0 100 100" xml:space="preserve">
<g id="Captions">
</g>
<g id="Your_Icon">
	<path fill="#000000" d="M36,31.345c0-0.912,0-1.778,0-2.591c-2-1.457-3.403-3.814-3.403-6.476c0-4.416,3.548-8.01,7.966-8.01   c4.416,0,7.881,3.594,7.881,8.01c0,2.662-1.443,5.019-3.443,6.477v2.59c3-1.703,5.629-5.124,5.629-9.066   c0-5.635-4.529-10.219-10.164-10.219s-10.104,4.584-10.104,10.219C30.361,26.22,33,29.641,36,31.345z"/>
	<path fill="#000000" d="M70.069,43.118h-2.762c-0.778,0-1.577,0.188-2.275,0.53c-0.362-2.075-2.177-3.658-4.354-3.658h-2.762   c-0.911,0-1.758,0.278-2.463,0.752c-0.607-1.715-2.246-2.944-4.165-2.944h-2.762c-0.806,0-1.561,0.216-2.21,0.593V22.278   c0-3.198-2.603-5.8-5.8-5.8c-3.198,0-5.8,2.602-5.8,5.8v30.591c-1.24,0.589-2.388,1.381-3.388,2.379l-2.266,2.265   c-4.738,4.739-4.738,12.447,0,17.186l6.311,6.311c0.309,0.31,0.635,0.596,0.97,0.867c2.103,3.621,6.03,6.064,10.525,6.064h15.466   c6.7,0,12.153-5.429,12.153-12.102V47.536C74.489,45.1,72.505,43.118,70.069,43.118z M72.279,75.839   c0,5.454-4.462,9.892-9.943,9.892H46.87c-1.823,0-3.525-0.497-4.995-1.353c-1.22-0.729-2.577-1.788-3.82-3.981   c-0.716-1.365-1.127-2.914-1.127-4.558c0-0.61-0.496-1.105-1.105-1.105c-0.61,0-1.104,0.495-1.104,1.105   c0,0.503,0.035,0.997,0.094,1.482l-4.186-4.186c-3.876-3.876-3.876-10.184,0-14.061l2.266-2.264   c0.557-0.557,1.172-1.029,1.826-1.434v7.567c0,0.611,0.494,1.105,1.104,1.105c0.609,0,1.105-0.494,1.105-1.105V22.278   c0-1.979,1.61-3.591,3.59-3.591s3.591,1.612,3.591,3.591v28.378c0,0.611,0.494,1.105,1.104,1.105c0.61,0,1.105-0.494,1.105-1.105   v-8.44c0-1.217,0.991-2.208,2.21-2.208h2.762c1.218,0,2.209,0.991,2.209,2.208v8.452c0,0.61,0.494,1.104,1.105,1.104   c0.609,0,1.104-0.493,1.104-1.104v-6.259c0-1.217,0.991-2.209,2.21-2.209h2.762c1.219,0,2.209,0.992,2.209,2.209v6.247   c0,0.611,0.495,1.105,1.105,1.105c0.609,0,1.104-0.494,1.104-1.105v-4.005c0-0.644,1.136-1.324,2.21-1.324h2.762   c1.218,0,2.21,0.991,2.21,2.209V75.839z"/>
	<path fill="#000000" d="M58.703,73.694c-0.432-0.432-0.988-0.432-1.418,0L56,75.123V61.219c0-0.61-0.389-1.104-1-1.104   c-0.609,0-1,0.494-1,1.104V75.12l-1.676-1.426c-0.432-0.432-1.256-0.432-1.686,0c-0.432,0.431-0.494,1.131-0.062,1.562l3.276,3.307   c0.103,0.104,0.21,0.188,0.347,0.245c0.11,0.046,0.223,0.062,0.344,0.07c0.025,0.002,0.043,0.015,0.068,0.015l0,0H54.61   c0.147,0,0.291-0.03,0.424-0.086c0.134-0.056,0.255-0.137,0.354-0.237c0-0.001,0.001-0.001,0.001-0.001l3.314-3.312   C59.135,74.825,59.135,74.125,58.703,73.694z"/>
</g>
</svg>