<svg xmlns="http://www.w3.org/2000/svg" xmlns:xlink="http://www.w3.org/1999/xlink" version="1.1" x="0px" y="0px" width="100px" height="100px" viewBox="0 0 100 100" enable-background="new 0 0 100 100" xml:space="preserve">
<g id="Captions">
</g>
<g id="Your_Icon">
	<path fill="#000000" d="M21.219,62.539c-4.238-0.689-7.487-4.46-7.487-8.89c0-4.921,4.003-8.973,8.925-8.973   c4.921,0,8.926,3.982,8.926,8.903c0,1.806-0.543,3.475-1.47,4.881l1.439,3.239c1.968-2.149,3.18-5.004,3.18-8.141   c0-0.157-0.018-0.312-0.023-0.468l-1.443-5.298c-2.05-3.758-6.036-6.314-10.608-6.314c-6.658,0-12.074,5.604-12.074,12.262   C10.582,60.4,15.998,66,22.656,66c0.006,0,0.011,0,0.017,0L21.219,62.539z"/>
	<path fill="#000000" d="M55.608,31.046c-0.089-0.511-0.418-0.945-0.886-1.165c-0.468-0.217-1.138-0.193-1.583,0.064   C53.135,29.948,53,29.95,53,29.953v4.204c1,2.055,2.349,3.804,4.083,5.091l0.945-3.384C56.76,34.595,55.929,32.935,55.608,31.046z"/>
	<path fill="#000000" d="M68.513,39.932c0.07-0.519-0.12-1.037-0.512-1.387c-0.291-0.26-0.666-0.4-1.05-0.4   c-0.097,0-0.194,0.018-0.291,0.035l-1.261,4.707c0.25,1.719,0.869,3.314,1.765,4.72l2.032-2.836   c-0.497-1.11-0.779-2.337-0.779-3.63C68.417,40.788,68.447,40.403,68.513,39.932z"/>
	<path fill="#000000" d="M42.299,29.402c-0.485,0.186-0.847,0.598-0.969,1.103c-0.401,1.654-1.245,3.099-2.381,4.231l0.914,3.366   c1.678-1.248,2.869-2.928,3.722-4.913C43.773,33.277,44,33.343,44,33.421V29.91c0-0.11-0.225-0.206-0.407-0.332   C43.164,29.282,42.784,29.218,42.299,29.402z"/>
	<path fill="#000000" d="M77.344,29.067c-0.292,0-0.585,0.011-0.881,0.033c-0.235-6.453-5.559-11.629-12.068-11.629   c-1.435,0-2.859,0.26-4.202,0.762c-1.664-4.782-6.173-8.079-11.386-8.079c-4.896,0-9.203,2.915-11.079,7.295   c-1.581-0.733-3.299-1.114-5.062-1.114c-6.658,0-12.075,5.416-12.075,12.075c0,6.178,4.666,11.279,10.658,11.983l-0.922-3.381   c-3.788-1.031-6.587-4.493-6.587-8.603c0-4.922,4.005-8.926,8.926-8.926c1.811,0,3.556,0.546,5.051,1.577   c0.428,0.292,0.972,0.358,1.457,0.173c0.483-0.184,0.848-0.596,0.969-1.1c0.974-4.022,4.535-6.83,8.665-6.83   c4.358,0,8.054,3.123,8.788,7.428c0.087,0.507,0.415,0.94,0.884,1.16c0.467,0.219,1.012,0.196,1.458-0.062   c1.36-0.792,2.902-1.208,4.458-1.208c4.923,0,8.925,4.003,8.925,8.924c0,0.359-0.028,0.742-0.092,1.209   c-0.072,0.52,0.12,1.038,0.511,1.387c0.389,0.35,0.926,0.481,1.434,0.354c0.75-0.189,1.46-0.279,2.172-0.279   c4.921,0,8.924,4.004,8.924,8.924c0,4.921-4.003,8.925-8.924,8.925c-0.313,0-0.623-0.017-0.929-0.049l-2.021,2.82   c0.945,0.239,1.931,0.379,2.949,0.379c6.657,0,12.074-5.417,12.074-12.075C89.418,34.483,84.001,29.067,77.344,29.067z"/>
	<path fill="#000000" d="M82.733,40.233c-0.24-1.453-1.031-2.725-2.228-3.583c-2.474-1.771-5.922-1.2-7.693,1.27l-7.979,11.135   l4.856-18.131c0.789-2.937-0.956-5.968-3.891-6.759c-2.936-0.786-5.966,0.957-6.759,3.9L54.3,46.229V22.185   c0-3.04-2.473-5.513-5.512-5.513c-3.041,0-5.515,2.473-5.515,5.513v24.477l-5.353-19.713c-0.782-2.936-3.812-4.689-6.747-3.902   c-2.938,0.785-4.687,3.814-3.903,6.755l6.786,24.898c0.043,0.256,0.294,1.95,0.294,5.698v1.908l-1.66-0.632l-4.667-10.522   c-0.946-2.135-3.065-3.513-5.401-3.513c-0.827,0-1.631,0.172-2.391,0.508c-2.978,1.32-4.325,4.816-3.006,7.795l5.178,11.668   c1.793,4.214,4.979,8.049,6.58,9.649l5.996,5.997c0.291,0.291,0.596,0.561,0.912,0.816c1.998,3.445,5.734,5.773,10.007,5.773H60.6   c6.369,0,11.55-5.16,11.55-11.504V57.773l9.624-13.432C82.632,43.146,82.973,41.686,82.733,40.233z M80.067,43.12l-9.821,13.702   c-0.128,0.18-0.196,0.394-0.196,0.612v20.907c0,5.186-4.24,9.403-9.45,9.403H45.898c-1.73,0-3.351-0.475-4.749-1.288   c-1.62-0.989-3.063-2.48-3.632-3.788c-0.678-1.298-1.068-2.768-1.068-4.327c0-0.58-0.469-1.05-1.05-1.05   c-0.58,0-1.049,0.47-1.049,1.05c0,0.476,0.03,0.943,0.089,1.403l-3.972-3.971c-1.936-1.938-4.681-5.574-6.137-9.002l-5.188-11.684   c-0.85-1.917,0.019-4.172,1.938-5.023c0.49-0.216,1.009-0.327,1.54-0.327c1.505,0,2.871,0.889,3.482,2.267l4.845,10.919   c0.113,0.256,0.323,0.455,0.585,0.556l2.816,1.073v1.436c0,0.581,0.469,1.052,1.049,1.052c0.581,0,1.05-0.471,1.05-1.052v-5.591   c0-4.313-0.319-6.05-0.334-6.123c-0.005-0.027-0.012-0.054-0.018-0.079l-6.797-24.941c-0.487-1.817,0.597-3.693,2.415-4.18   c1.817-0.484,3.692,0.599,4.18,2.421l7.416,27.315c0.139,0.509,0.628,0.835,1.151,0.768c0.521-0.071,0.913-0.516,0.913-1.043   V22.185c0-1.88,1.529-3.412,3.412-3.412c1.881,0,3.411,1.532,3.411,3.412v32.223c0,0.527,0.393,0.975,0.917,1.04   c0.519,0.069,1.017-0.267,1.148-0.776l6.808-26.067c0.487-1.817,2.368-2.897,4.18-2.408c1.819,0.488,2.899,2.363,2.411,4.182   l-6.35,23.705c-0.132,0.49,0.105,1.006,0.564,1.223c0.458,0.215,1.007,0.074,1.303-0.338l11.34-15.824   c1.095-1.528,3.232-1.881,4.761-0.785c0.741,0.531,1.23,1.317,1.379,2.219C80.809,41.475,80.597,42.379,80.067,43.12z"/>
	<path fill="#000000" d="M53.187,83.922c-5.791,0-10.501-4.709-10.501-10.5c0-5.788,4.71-10.498,10.501-10.498   c5.789,0,10.498,4.71,10.498,10.498C63.685,79.213,58.976,83.922,53.187,83.922z M53.187,65.022c-4.633,0-8.4,3.768-8.4,8.399   s3.768,8.4,8.4,8.4c4.63,0,8.398-3.769,8.398-8.4S57.816,65.022,53.187,65.022z"/>
	<path fill="#000000" d="M57.714,65.022h-9.058c-1.645,0-2.984-1.34-2.984-2.985c0-1.647,1.34-2.986,2.984-2.986h9.058   c1.646,0,2.986,1.339,2.986,2.986C60.7,63.683,59.359,65.022,57.714,65.022z M48.656,61.15c-0.488,0-0.885,0.397-0.885,0.887   c0,0.486,0.396,0.887,0.885,0.887h9.058c0.488,0,0.886-0.4,0.886-0.887c0-0.489-0.397-0.887-0.886-0.887H48.656z"/>
	<path fill="#000000" d="M53.187,74.472c-0.581,0-1.052-0.47-1.052-1.05v-9.449c0-0.581,0.471-1.049,1.052-1.049   c0.579,0,1.049,0.468,1.049,1.049v9.449C54.235,74.002,53.766,74.472,53.187,74.472z"/>
	<path fill="#000000" d="M62.636,74.472h-9.449c-0.581,0-1.052-0.47-1.052-1.05c0-0.579,0.471-1.049,1.052-1.049h9.449   c0.58,0,1.049,0.47,1.049,1.049C63.685,74.002,63.216,74.472,62.636,74.472z"/>
</g>
</svg>