<svg xmlns="http://www.w3.org/2000/svg" xmlns:xlink="http://www.w3.org/1999/xlink" version="1.1" x="0px" y="0px" width="100px" height="100px" viewBox="0 0 100 100" enable-background="new 0 0 100 100" xml:space="preserve">
<g id="Captions">
</g>
<g id="Your_Icon">
	<path fill="#000000" d="M50.604,31.046c-0.086-0.511-0.418-0.945-0.883-1.165c-0.469-0.217-1.136-0.193-1.581,0.064   C48.134,29.948,48,29.951,48,29.954v4.198c1,2.057,2.345,3.806,4.08,5.094l0.943-3.384C51.756,34.594,50.925,32.934,50.604,31.046z   "/>
	<path fill="#000000" d="M63.508,39.93c0.07-0.518-0.121-1.035-0.512-1.385c-0.291-0.261-0.666-0.402-1.049-0.402   c-0.098,0-0.195,0.019-0.292,0.037l-1.261,4.707c0.25,1.718,0.869,3.313,1.765,4.719l2.033-2.837   c-0.496-1.11-0.778-2.336-0.778-3.628C63.414,40.782,63.445,40.396,63.508,39.93z"/>
	<path fill="#000000" d="M37.295,29.402c-0.484,0.186-0.85,0.598-0.971,1.103c-0.4,1.653-1.244,3.098-2.38,4.23l0.913,3.366   c1.678-1.248,2.872-2.928,3.724-4.912C38.77,33.277,39,33.343,39,33.421v-3.51c0-0.111-0.229-0.207-0.411-0.333   C38.163,29.282,37.777,29.219,37.295,29.402z"/>
	<path fill="#000000" d="M72.338,29.067c-0.289,0-0.584,0.011-0.879,0.033c-0.236-6.453-5.559-11.629-12.068-11.629   c-1.436,0-2.859,0.26-4.203,0.762c-1.66-4.782-6.174-8.079-11.387-8.079c-4.895,0-9.203,2.915-11.08,7.294   c-1.578-0.732-3.297-1.113-5.061-1.113c-6.658,0-12.074,5.416-12.074,12.073c0,6.179,4.665,11.279,10.655,11.985l-0.921-3.382   c-3.789-1.031-6.586-4.492-6.586-8.604c0-4.921,4.004-8.925,8.926-8.925c1.811,0,3.557,0.545,5.051,1.576   c0.428,0.294,0.973,0.358,1.455,0.175c0.486-0.185,0.848-0.598,0.971-1.102c0.973-4.021,4.537-6.83,8.664-6.83   c4.359,0,8.057,3.123,8.787,7.426c0.086,0.511,0.416,0.944,0.885,1.164c0.467,0.219,1.014,0.196,1.461-0.064   c1.359-0.79,2.9-1.209,4.457-1.209c4.922,0,8.926,4.004,8.926,8.927c0,0.359-0.029,0.742-0.094,1.209   c-0.07,0.52,0.121,1.038,0.51,1.387c0.391,0.35,0.93,0.481,1.436,0.354c0.738-0.187,1.469-0.279,2.17-0.279   c4.922,0,8.926,4.004,8.926,8.924c0,4.921-4.004,8.925-8.926,8.925c-0.313,0-0.623-0.017-0.928-0.049l-2.021,2.82   c0.946,0.238,1.931,0.379,2.949,0.379c6.658,0,12.076-5.417,12.076-12.075C84.414,34.483,78.996,29.067,72.338,29.067z"/>
	<path fill="#000000" d="M77.729,40.233c-0.238-1.453-1.031-2.725-2.227-3.583c-2.475-1.771-5.924-1.2-7.693,1.27l-7.98,11.135   l4.857-18.131c0.789-2.937-0.957-5.968-3.891-6.759c-2.938-0.787-5.967,0.957-6.76,3.9l-4.74,18.163V22.185   c0-3.04-2.475-5.513-5.512-5.513c-3.041,0-5.514,2.473-5.514,5.513v24.477l-5.352-19.713c-0.787-2.936-3.812-4.687-6.75-3.902   c-2.936,0.785-4.688,3.814-3.9,6.755l6.785,24.898c0.023,0.143,0.109,0.73,0.184,1.865c-1.135,0.556-2.188,1.288-3.105,2.207   l-2.152,2.153c-2.184,2.181-3.383,5.08-3.383,8.167c0,3.085,1.199,5.984,3.383,8.167l5.996,5.997   c0.291,0.292,0.598,0.561,0.912,0.816c1.996,3.445,5.732,5.773,10.008,5.773h14.701c6.367,0,11.549-5.16,11.549-11.504V57.773   l9.625-13.432C77.627,43.146,77.969,41.686,77.729,40.233z M75.062,43.12L65.24,56.822c-0.127,0.18-0.195,0.394-0.195,0.612v20.907   c0,5.186-4.24,9.403-9.449,9.403H40.895c-1.732,0-3.352-0.475-4.75-1.288c-1.676-0.979-2.9-2.308-3.631-3.788   c-0.68-1.298-1.068-2.768-1.068-4.327c0-0.58-0.471-1.05-1.051-1.05s-1.051,0.47-1.051,1.05c0,0.476,0.033,0.943,0.09,1.403   l-3.971-3.971c-1.785-1.787-2.768-4.158-2.768-6.683c0-2.523,0.982-4.898,2.768-6.682l2.152-2.154   c0.523-0.521,1.102-0.967,1.715-1.348c0.01,0.456,0.014,0.948,0.014,1.489v5.591c0,0.581,0.471,1.052,1.051,1.052   s1.051-0.471,1.051-1.052v-5.591c0-0.939-0.016-1.748-0.041-2.454c-0.039-0.945-0.074-1.568-0.117-2.146   c-0.084-1.017-0.17-1.486-0.178-1.522c-0.006-0.026-0.01-0.054-0.018-0.079l-6.797-24.941c-0.486-1.817,0.598-3.693,2.416-4.18   c1.816-0.484,3.693,0.599,4.178,2.421l7.418,27.315c0.137,0.509,0.627,0.836,1.152,0.768c0.521-0.071,0.91-0.516,0.91-1.043V22.185   c0-1.88,1.531-3.412,3.414-3.412c1.881,0,3.412,1.532,3.412,3.412v32.223c0,0.527,0.393,0.975,0.916,1.04   c0.52,0.064,1.016-0.267,1.15-0.776l6.805-26.067c0.488-1.817,2.369-2.897,4.182-2.409c1.816,0.489,2.898,2.364,2.408,4.183   l-6.348,23.705c-0.131,0.49,0.105,1.006,0.564,1.223c0.461,0.217,1.006,0.074,1.303-0.338l11.34-15.824   c1.094-1.53,3.234-1.881,4.762-0.785c0.74,0.531,1.23,1.317,1.379,2.219C75.805,41.475,75.594,42.379,75.062,43.12z"/>
	<path fill="#000000" d="M47.842,83.922c-5.789,0-10.5-4.709-10.5-10.5c0-5.788,4.711-10.498,10.5-10.498s10.5,4.71,10.5,10.498   C58.342,79.213,53.631,83.922,47.842,83.922z M47.842,65.022c-4.631,0-8.4,3.768-8.4,8.399s3.77,8.4,8.4,8.4   c4.633,0,8.4-3.769,8.4-8.4S52.475,65.022,47.842,65.022z"/>
	<path fill="#000000" d="M52.369,65.022h-9.055c-1.646,0-2.986-1.34-2.986-2.985c0-1.647,1.34-2.986,2.986-2.986h9.055   c1.648,0,2.986,1.339,2.986,2.986C55.355,63.683,54.018,65.022,52.369,65.022z M43.314,61.15c-0.49,0-0.887,0.397-0.887,0.887   c0,0.486,0.396,0.887,0.887,0.887h9.055c0.49,0,0.887-0.4,0.887-0.887c0-0.489-0.396-0.887-0.887-0.887H43.314z"/>
	<path fill="#000000" d="M47.842,74.472c-0.58,0-1.049-0.47-1.049-1.05v-9.449c0-0.581,0.469-1.049,1.049-1.049   s1.051,0.468,1.051,1.049v9.449C48.893,74.002,48.422,74.472,47.842,74.472z"/>
	<path fill="#000000" d="M57.293,74.472h-9.451c-0.58,0-1.049-0.47-1.049-1.05c0-0.579,0.469-1.049,1.049-1.049h9.451   c0.58,0,1.049,0.47,1.049,1.049C58.342,74.002,57.873,74.472,57.293,74.472z"/>
</g>
</svg>