<svg xmlns="http://www.w3.org/2000/svg" xmlns:xlink="http://www.w3.org/1999/xlink" version="1.1" x="0px" y="0px" width="100px" height="100px" viewBox="0 0 100 100" enable-background="new 0 0 100 100" xml:space="preserve">
<g id="Captions">
</g>
<g id="Your_Icon">
	<path fill="#000000" d="M47.357,29.514c-0.428-0.303-0.978-0.37-1.464-0.185c-0.488,0.188-0.853,0.604-0.972,1.112   c-0.387,1.643-1.207,3.079-2.318,4.213l0.919,3.385c1.655-1.251,2.982-2.927,3.818-4.902C47.557,33.238,48,33.316,48,33.405v-3.508   C48,29.771,47.564,29.659,47.357,29.514z"/>
	<path fill="#000000" d="M34.007,37.029c-3.841-0.996-6.689-4.479-6.689-8.629c0-4.921,4.005-8.925,8.926-8.925   c1.834,0,3.6,0.56,5.11,1.619c0.428,0.301,0.978,0.368,1.465,0.184c0.488-0.186,0.853-0.602,0.973-1.11   c0.954-4.055,4.522-6.885,8.679-6.885c4.923,0,8.96,4.002,8.96,8.923c0,3.297-1.43,6.174-4.43,7.72v3.493   c4-1.779,7.58-6.13,7.58-11.213c0-6.656-5.435-12.073-12.094-12.073c-4.922,0-9.244,2.933-11.109,7.339   c-1.596-0.755-3.342-1.146-5.13-1.146c-6.658,0-12.077,5.417-12.077,12.075c0,6.213,4.716,11.34,10.756,11.999L34.007,37.029z"/>
	<path fill="#000000" d="M71.633,47.262h-2.626c-0.784,0-1.527,0.184-2.164,0.497c-0.347-1.967-2.068-3.468-4.136-3.468h-2.626   c-0.764,0-1.48,0.205-2.1,0.562V22.206c0-3.04-2.473-5.513-5.512-5.513c-3.04,0-5.513,2.473-5.513,5.513v24.477L41.604,26.97   c-0.784-2.938-3.812-4.689-6.748-3.902c-2.938,0.785-4.688,3.812-3.902,6.753l6.785,24.899c0.023,0.142,0.111,0.731,0.185,1.866   c-1.134,0.556-2.187,1.288-3.105,2.207l-2.153,2.153c-4.502,4.502-4.502,11.83,0,16.332l5.998,5.999   c0.29,0.291,0.596,0.561,0.91,0.814c1.998,3.447,5.734,5.775,10.008,5.775h14.701c6.368,0,11.55-5.16,11.55-11.504V51.462   C75.832,49.145,73.947,47.262,71.633,47.262z M73.732,78.363c0,5.186-4.239,9.403-9.45,9.403H49.581   c-1.732,0-3.353-0.475-4.75-1.288c-0.887-0.413-2.621-1.901-3.631-3.79c-0.68-1.297-1.068-2.766-1.068-4.325   c0-0.58-0.471-1.05-1.051-1.05c-0.579,0-1.05,0.47-1.05,1.05c0,0.476,0.032,0.942,0.09,1.401l-3.971-3.971   c-3.685-3.684-3.685-9.679,0-13.362l2.151-2.154c0.523-0.522,1.103-0.967,1.715-1.348c0.01,0.456,0.015,0.948,0.015,1.489v5.591   c0,0.581,0.471,1.052,1.05,1.052c0.58,0,1.051-0.471,1.051-1.052v-5.591c0-0.939-0.016-1.748-0.04-2.454   c-0.036-0.891-0.101-1.741-0.118-2.148c-0.083-1.016-0.169-1.484-0.176-1.521c-0.006-0.027-0.012-0.054-0.02-0.079l-6.797-24.943   c-0.485-1.817,0.599-3.691,2.416-4.178c1.818-0.486,3.692,0.599,4.18,2.421l7.417,27.315c0.138,0.508,0.63,0.835,1.151,0.768   c0.521-0.071,0.911-0.517,0.911-1.043V22.206c0-1.882,1.531-3.412,3.413-3.412c1.881,0,3.412,1.53,3.412,3.412V54.44   c0,0.577,0.47,1.049,1.051,1.049c0.58,0,1.049-0.472,1.049-1.049v-5.948c0-1.159,0.943-2.101,2.1-2.101h2.626   c1.158,0,2.101,0.941,2.101,2.101v5.937c0,0.577,0.471,1.05,1.049,1.05c0.58,0,1.051-0.473,1.051-1.05v-3.807   c0-0.495,0.901-1.26,2.1-1.26h2.626c1.157,0,2.1,0.94,2.1,2.1V78.363z"/>
	<path fill="#000000" d="M57.03,83.943c-5.789,0-10.5-4.709-10.5-10.5c0-5.788,4.711-10.498,10.5-10.498   c5.791,0,10.5,4.71,10.5,10.498C67.53,79.234,62.821,83.943,57.03,83.943z M57.03,65.044c-4.632,0-8.4,3.768-8.4,8.399   s3.769,8.4,8.4,8.4c4.633,0,8.4-3.769,8.4-8.4S61.663,65.044,57.03,65.044z"/>
	<path fill="#000000" d="M61.559,65.044h-9.057c-1.646,0-2.985-1.34-2.985-2.985c0-1.647,1.34-2.986,2.985-2.986h9.057   c1.646,0,2.985,1.339,2.985,2.986C64.544,63.704,63.205,65.044,61.559,65.044z M52.502,61.172c-0.489,0-0.886,0.397-0.886,0.887   c0,0.486,0.396,0.887,0.886,0.887h9.057c0.489,0,0.886-0.4,0.886-0.887c0-0.489-0.396-0.887-0.886-0.887H52.502z"/>
	<path fill="#000000" d="M57.03,74.493c-0.579,0-1.05-0.47-1.05-1.05v-9.449c0-0.581,0.471-1.049,1.05-1.049   c0.58,0,1.051,0.468,1.051,1.049v9.449C58.081,74.023,57.61,74.493,57.03,74.493z"/>
	<path fill="#000000" d="M66.48,74.493h-9.45c-0.579,0-1.05-0.47-1.05-1.05c0-0.579,0.471-1.049,1.05-1.049h9.45   c0.579,0,1.05,0.47,1.05,1.049C67.53,74.023,67.06,74.493,66.48,74.493z"/>
</g>
</svg>