<svg xmlns="http://www.w3.org/2000/svg" xmlns:xlink="http://www.w3.org/1999/xlink" version="1.1" x="0px" y="0px" width="100px" height="100px" viewBox="0 0 100 100" enable-background="new 0 0 100 100" xml:space="preserve">
<g id="Captions">
</g>
<g id="Your_Icon">
	<path fill="#000000" d="M24.186,39.611c-1.585-0.947-2.87-2.386-3.556-4.167c-0.804-2.088-0.746-4.366,0.166-6.421   c0.911-2.053,2.563-3.625,4.653-4.431c0.967-0.372,1.979-0.562,3.007-0.562c3.454,0,6.606,2.162,7.846,5.378   c1.319,3.427,0.227,7.191-2.433,9.436l0.203,2.455c4.149-2.621,6.018-7.896,4.189-12.645c-1.549-4.022-5.489-6.724-9.805-6.724   c-1.287,0-2.552,0.235-3.763,0.702c-2.612,1.006-4.678,2.972-5.817,5.538c-1.139,2.565-1.212,5.417-0.205,8.028   c1.037,2.69,3.146,4.785,5.72,5.881L24.186,39.611z"/>
	<path fill="#000000" d="M72.322,14.058c-5.355,0-9.713,4.357-9.713,9.713c0,1.019,0.159,2,0.452,2.924   c0.614-0.614,1.201-1.202,1.748-1.748c-0.061-0.385-0.101-0.775-0.101-1.176c0-4.198,3.416-7.613,7.613-7.613   s7.612,3.415,7.612,7.613c0,4.197-3.415,7.611-7.612,7.611c-0.416,0-0.82-0.042-1.218-0.106l-1.743,1.742   c0.935,0.3,1.929,0.465,2.961,0.465c5.355,0,9.713-4.357,9.713-9.712C82.035,18.415,77.678,14.058,72.322,14.058z"/>
	<path fill="#000000" d="M65.752,64.573c0.016-0.025,0.028-0.054,0.043-0.08c0.019-0.034,0.039-0.065,0.053-0.102   c0.015-0.034,0.023-0.07,0.033-0.106c0.01-0.028,0.02-0.059,0.025-0.089c0.028-0.137,0.028-0.276,0-0.411   c-0.006-0.031-0.016-0.059-0.025-0.091c-0.01-0.033-0.019-0.07-0.033-0.105c-0.014-0.035-0.034-0.066-0.053-0.1   c-0.015-0.028-0.027-0.056-0.043-0.081c-0.039-0.058-0.083-0.111-0.132-0.161l-3.149-3.149c-0.41-0.409-1.074-0.409-1.484,0   c-0.41,0.411-0.41,1.075,0,1.484l1.357,1.358h-5.865c-0.58,0-1.05,0.471-1.05,1.05c0,0.58,0.471,1.051,1.05,1.051h5.865   l-1.357,1.356c-0.41,0.412-0.41,1.076,0,1.485c0.204,0.204,0.473,0.308,0.742,0.308c0.269,0,0.537-0.104,0.742-0.308l3.149-3.149   C65.669,64.686,65.713,64.63,65.752,64.573z"/>
	<path fill="#000000" d="M46.981,62.94h-5.864l1.357-1.358c0.41-0.409,0.41-1.073,0-1.484c-0.41-0.409-1.076-0.409-1.485,0   l-3.149,3.149c-0.049,0.05-0.092,0.104-0.131,0.161c-0.019,0.025-0.029,0.053-0.044,0.081c-0.019,0.033-0.038,0.064-0.053,0.1   s-0.022,0.072-0.033,0.105c-0.009,0.032-0.021,0.06-0.026,0.091c-0.026,0.135-0.026,0.274,0,0.411   c0.006,0.03,0.018,0.061,0.026,0.089c0.011,0.036,0.019,0.072,0.033,0.106c0.015,0.036,0.034,0.067,0.053,0.102   c0.015,0.026,0.025,0.055,0.044,0.08c0.039,0.057,0.082,0.112,0.131,0.16l3.149,3.149c0.206,0.204,0.474,0.308,0.742,0.308   s0.538-0.104,0.743-0.308c0.41-0.409,0.41-1.073,0-1.485l-1.357-1.356h5.864c0.581,0,1.051-0.471,1.051-1.051   C48.032,63.411,47.562,62.94,46.981,62.94z"/>
	<path fill="#000000" d="M78.17,57.62l-1.857-1.855c-0.521-0.522-1.186-0.934-1.885-1.173c0.494-0.702,0.762-1.538,0.762-2.415   c0-1.121-0.438-2.174-1.23-2.969l-1.855-1.856c-0.613-0.61-1.371-0.994-2.162-1.149c0.744-1.562,0.471-3.489-0.82-4.778   l-1.855-1.857c-0.541-0.54-1.193-0.902-1.885-1.086l10.83-10.828c1.041-1.042,1.615-2.426,1.615-3.898s-0.574-2.855-1.615-3.896   c-1.041-1.042-2.428-1.615-3.898-1.615c-1.473,0-2.855,0.573-3.898,1.615l-25.119,25.12l-8.021-1.874l-0.922-11.146   c-0.264-3.202-3.113-5.673-6.371-5.398c-3.246,0.269-5.669,3.127-5.401,6.371l1.054,12.726c0.311,4.574,2.059,9.236,3.043,11.274   l2.535,5.243c-0.094,0.6-0.154,1.206-0.152,1.827c0.008,3.076,1.213,5.974,3.394,8.155L42.846,82.55   c2.182,2.18,5.078,3.385,8.155,3.393c0.009,0,0.019,0,0.026,0c3.07,0,5.953-1.193,8.121-3.359L78.17,63.56   C79.807,61.923,79.807,59.257,78.17,57.62z M76.686,62.075L57.662,81.097c-1.77,1.771-4.125,2.746-6.635,2.746   c-0.007,0-0.014,0-0.021,0c-2.518-0.006-4.889-0.993-6.676-2.78L33.938,70.669c-1.206-1.204-2.036-2.679-2.458-4.281   c-0.521-1.844-0.077-4.512-0.077-4.512c0.385-1.705,1.236-3.272,2.501-4.538c0.41-0.408,0.41-1.073,0-1.484   c-0.411-0.41-1.075-0.41-1.485,0c-0.982,0.981-1.75,2.114-2.312,3.343l-1.539-3.181c-1.191-2.466-2.588-6.802-2.84-10.519   l-1.055-12.74c-0.172-2.09,1.391-3.933,3.48-4.105c0.108-0.01,0.215-0.015,0.32-0.015c1.961,0,3.625,1.535,3.787,3.494   l0.986,11.906c0.035,0.455,0.361,0.833,0.807,0.937l7.492,1.752l-0.463,0.463c-0.409,0.411-0.409,1.077,0,1.484   c0.412,0.41,1.076,0.41,1.486,0l1.385-1.384l1.747-1.747l24.198-24.199c0.646-0.646,1.504-1,2.414-1   c0.912,0,1.768,0.354,2.414,0.998c0.645,0.646,0.998,1.502,0.998,2.413s-0.354,1.769-0.998,2.414L55.653,45.239   c-0.204,0.203-0.306,0.474-0.306,0.743s0.102,0.538,0.306,0.741c0.41,0.412,1.076,0.412,1.486,0l5.67-5.671   c0.822-0.819,2.154-0.819,2.973,0l1.855,1.857c0.82,0.817,0.82,2.149,0,2.968l-1.453,1.454c-0.008,0.007-0.014,0.014-0.02,0.02   l-4.207,4.206c-0.41,0.411-0.41,1.076,0,1.486c0.412,0.409,1.074,0.409,1.486,0l4.219-4.221c0.82-0.806,2.141-0.801,2.957,0.013   l1.855,1.859c0.395,0.395,0.615,0.922,0.615,1.481c0,0.562-0.221,1.089-0.615,1.486l-4.199,4.197   c-0.205,0.207-0.307,0.475-0.307,0.743c0,0.27,0.102,0.537,0.307,0.743c0.41,0.41,1.074,0.41,1.484,0l2.693-2.692   c0.445-0.44,1.641-0.14,2.375,0.595l1.857,1.856C77.504,59.924,77.504,61.256,76.686,62.075z"/>
</g>
</svg>