<svg xmlns="http://www.w3.org/2000/svg" xmlns:xlink="http://www.w3.org/1999/xlink" version="1.1" x="0px" y="0px" width="100px" height="100px" viewBox="0 0 100 100" enable-background="new 0 0 100 100" xml:space="preserve">
<g id="Captions">
</g>
<g id="Your_Icon">
	<path fill="#000000" d="M72.434,30.164c-1.276,0-2.492,0.253-3.61,0.7c0.229-0.826,0.36-1.692,0.36-2.591   c0-5.377-4.375-9.752-9.752-9.752c-2.229,0-4.277,0.759-5.922,2.021c-0.204-5.199-4.485-9.37-9.734-9.37   c-5.028,0-9.178,3.826-9.697,8.72c-1.729-1.557-4.008-2.513-6.512-2.513c-5.377,0-9.754,4.375-9.754,9.754   c0,4.654,3.278,8.55,7.645,9.518l-0.653-2.398c-2.853-1.11-4.882-3.879-4.882-7.119c0-4.215,3.43-7.645,7.645-7.645   c3.075,0,5.725,1.829,6.938,4.453c0.106,0.328,0.232,0.648,0.373,0.96c0.216,0.706,0.334,1.455,0.334,2.231   c0,1.84-0.654,3.53-1.741,4.852l0.644,2.371c1.727-1.567,2.754-3.744,3.013-6.188C37.732,28.714,39,29.181,39,29.563v-2.488   c-1-0.765-1.752-1.771-2.299-2.954c-0.107-0.33-0.164-0.651-0.305-0.965c-0.217-0.705-0.3-1.453-0.3-2.229   c0-4.217,3.446-7.646,7.661-7.646s7.653,3.43,7.653,7.646c0,0.857-0.144,1.679-0.405,2.448c-0.283,0.486-0.641,0.998-0.838,1.532   C49.637,25.773,49,26.52,48,27.113v2.469c1-0.267,1.122-0.573,1.578-0.923c0.105,2.697,1.374,5.11,3.238,6.814l0.652-2.386   c-1.068-1.315-1.698-2.99-1.698-4.814c0-0.854,0.154-1.674,0.415-2.442c0.285-0.489,0.531-1.004,0.73-1.542   c1.347-2.189,3.76-3.658,6.514-3.658c4.215,0,7.646,3.43,7.646,7.643c0,3.273-2.069,6.063-4.965,7.152l-0.637,2.377   c0.539-0.117,1.063-0.272,1.566-0.474c-0.229,0.826-0.36,1.692-0.36,2.591c0,1.573,0.384,3.057,1.048,4.373l1.44-2.009   c-0.243-0.745-0.379-1.539-0.379-2.364c0-4.217,3.43-7.646,7.645-7.646s7.645,3.648,7.645,7.865c0,4.213-3.43,7.861-7.645,7.861   c-0.008,0-0.015,0-0.022,0l-1.427,1.771c0.475,0.07,0.956,0.01,1.449,0.01c5.379,0,9.754-4.43,9.754-9.807   C82.188,34.594,77.812,30.164,72.434,30.164z"/>
	<path fill="#000000" d="M77.846,39.006c-0.24-1.457-1.035-2.734-2.236-3.598c-2.482-1.777-5.947-1.205-7.725,1.275l-8.014,11.182   l4.877-18.209c0.793-2.947-0.959-5.99-3.908-6.785c-2.947-0.793-5.99,0.961-6.785,3.916l-4.762,18.238V20.883   c0-3.053-2.482-5.535-5.537-5.535c-3.053,0-5.535,2.482-5.535,5.535v24.58l-5.375-19.797c-0.789-2.949-3.828-4.707-6.777-3.918   c-2.949,0.787-4.707,3.828-3.918,6.781l6.814,25.004c0.023,0.143,0.111,0.734,0.186,1.875c-1.141,0.555-2.197,1.293-3.119,2.215   l-2.162,2.162c-2.191,2.191-3.396,5.104-3.396,8.201s1.205,6.012,3.396,8.201l6.021,6.023c0.293,0.293,0.6,0.564,0.916,0.82   c2.006,3.459,5.758,5.797,10.051,5.797h14.762c6.396,0,11.6-5.182,11.6-11.553V56.619l9.664-13.484   C77.744,41.932,78.086,40.467,77.846,39.006z M75.168,41.904l-9.861,13.762c-0.129,0.18-0.197,0.393-0.197,0.613v20.996   c0,5.207-4.258,9.443-9.49,9.443H40.857c-1.74,0-3.367-0.477-4.77-1.293c-1.684-0.982-2.912-2.318-3.648-3.807   c-0.682-1.301-1.072-2.777-1.072-4.344c0-0.582-0.473-1.055-1.055-1.055s-1.055,0.473-1.055,1.055c0,0.479,0.033,0.947,0.09,1.408   l-3.988-3.986c-1.791-1.793-2.777-4.176-2.777-6.711s0.986-4.918,2.777-6.711l2.162-2.16c0.525-0.525,1.105-0.973,1.723-1.355   c0.008,0.459,0.014,0.953,0.014,1.496v5.617c0,0.582,0.473,1.053,1.055,1.053s1.055-0.471,1.055-1.053v-5.617   c0-0.943-0.016-1.756-0.039-2.463c-0.041-0.953-0.076-1.574-0.119-2.158c-0.084-1.02-0.172-1.49-0.178-1.527   c-0.004-0.027-0.012-0.053-0.018-0.08L24.188,27.98c-0.488-1.826,0.6-3.709,2.426-4.197c1.824-0.484,3.709,0.602,4.197,2.432   l7.447,27.432c0.139,0.51,0.631,0.84,1.156,0.768c0.523-0.068,0.916-0.516,0.916-1.043V20.883c0-1.891,1.537-3.428,3.426-3.428   c1.891,0,3.428,1.537,3.428,3.428v32.355c0,0.531,0.395,0.98,0.92,1.047c0.523,0.064,1.02-0.266,1.154-0.779l6.834-26.178   c0.492-1.824,2.379-2.91,4.201-2.42c1.824,0.492,2.91,2.375,2.418,4.201l-6.377,23.805c-0.131,0.492,0.107,1.01,0.568,1.227   s1.012,0.076,1.309-0.34L69.6,37.91c1.1-1.535,3.246-1.887,4.781-0.787c0.744,0.533,1.234,1.324,1.385,2.227   C75.914,40.254,75.701,41.16,75.168,41.904z"/>
	<path fill="#000000" d="M55.139,64.883c-0.398-0.426-1.066-0.445-1.49-0.047s-0.445,1.066-0.047,1.49   c1.197,1.275,1.857,2.941,1.857,4.691c0,3.779-3.076,6.855-6.854,6.855c-3.779,0-6.854-3.076-6.854-6.855   c0-3.082,2.043-5.693,4.848-6.553l-1.189,1.836c-0.316,0.49-0.176,1.143,0.312,1.459c0.178,0.115,0.377,0.17,0.572,0.17   c0.346,0,0.684-0.17,0.887-0.482l2.43-3.756c0.152-0.234,0.205-0.52,0.146-0.793s-0.223-0.514-0.457-0.664l-3.756-2.432   c-0.488-0.316-1.143-0.176-1.459,0.312c-0.316,0.49-0.176,1.143,0.312,1.459L45.83,62.5c-3.588,1.172-6.188,4.545-6.188,8.518   c0,4.943,4.02,8.965,8.963,8.965c4.941,0,8.963-4.021,8.963-8.965C57.568,68.73,56.705,66.551,55.139,64.883z"/>
</g>
</svg>