<svg xmlns="http://www.w3.org/2000/svg" xmlns:xlink="http://www.w3.org/1999/xlink" version="1.1" x="0px" y="0px" width="100px" height="100px" viewBox="0 0 100 100" enable-background="new 0 0 100 100" xml:space="preserve">
<g id="Captions">
</g>
<g id="Your_Icon">
	<path fill="#000000" d="M83.408,41.688c-0.239-1.456-1.032-2.729-2.229-3.589c-2.478-1.773-5.932-1.203-7.705,1.27l-7.99,11.152   l4.864-18.157c0.79-2.94-0.959-5.977-3.897-6.768c-2.939-0.79-5.976,0.957-6.769,3.904l-4.749,18.19V23.612   c0-3.045-2.477-5.521-5.521-5.521s-5.521,2.476-5.521,5.521v24.514L38.53,28.384c-0.784-2.941-3.817-4.696-6.758-3.909   c-2.94,0.786-4.694,3.818-3.907,6.764l6.795,24.936c0.043,0.258,0.292,1.955,0.292,5.708v1.911l-1.66-0.634l-4.674-10.536   c-0.949-2.139-3.072-3.52-5.41-3.52c-0.828,0-1.634,0.172-2.395,0.51c-2.982,1.321-4.332,4.823-3.01,7.805l5.186,11.688   c1.795,4.221,4.985,8.059,6.59,9.662l6.005,6.007c0.292,0.291,0.598,0.562,0.913,0.817c2,3.451,5.742,5.781,10.023,5.781h14.723   c6.378,0,11.566-5.168,11.566-11.521v-20.6l9.639-13.45C83.308,44.604,83.649,43.143,83.408,41.688z M80.738,44.578l-9.836,13.724   c-0.126,0.178-0.195,0.393-0.195,0.612v20.938c0,5.192-4.246,9.418-9.464,9.418H46.521c-1.735,0-3.356-0.476-4.757-1.29   c-1.623-0.991-3.069-2.485-3.638-3.796c-0.68-1.298-1.07-2.77-1.07-4.332c0-0.581-0.471-1.052-1.052-1.052   c-0.58,0-1.052,0.471-1.052,1.052c0,0.476,0.034,0.945,0.09,1.405l-3.977-3.978c-1.939-1.938-4.688-5.582-6.148-9.013   l-5.191-11.703c-0.852-1.921,0.018-4.177,1.939-5.028c0.492-0.219,1.012-0.33,1.543-0.33c1.507,0,2.877,0.891,3.486,2.27   l4.854,10.938c0.112,0.255,0.323,0.456,0.586,0.556l2.817,1.073v1.441c0,0.579,0.472,1.051,1.052,1.051   c0.581,0,1.052-0.472,1.052-1.051v-5.602c0-4.319-0.32-6.06-0.334-6.132c-0.005-0.026-0.012-0.055-0.019-0.079l-6.807-24.979   c-0.487-1.821,0.598-3.698,2.418-4.185c1.821-0.486,3.698,0.6,4.187,2.424l7.428,27.356c0.138,0.509,0.627,0.836,1.154,0.768   c0.521-0.07,0.912-0.516,0.912-1.043V23.612c0-1.885,1.532-3.418,3.417-3.418c1.884,0,3.418,1.533,3.418,3.418v32.271   c0,0.527,0.393,0.976,0.917,1.043c0.521,0.067,1.019-0.268,1.152-0.779l6.815-26.105c0.489-1.821,2.371-2.901,4.188-2.413   c1.819,0.49,2.901,2.368,2.412,4.189l-6.358,23.74c-0.132,0.49,0.106,1.005,0.564,1.223c0.461,0.216,1.01,0.076,1.306-0.338   l11.357-15.847c1.097-1.531,3.237-1.885,4.77-0.786c0.741,0.531,1.23,1.32,1.379,2.221C81.481,42.93,81.271,43.836,80.738,44.578z"/>
	<path fill="#000000" d="M49.398,15.987c-0.58,0-1.051-0.469-1.051-1.051V9.679c0-0.581,0.471-1.052,1.051-1.052   c0.581,0,1.051,0.471,1.051,1.052v5.258C50.449,15.519,49.979,15.987,49.398,15.987z"/>
	<path fill="#000000" d="M45.061,17.15c-0.362,0-0.716-0.188-0.912-0.525l-2.628-4.555c-0.291-0.503-0.119-1.145,0.385-1.436   c0.503-0.291,1.146-0.118,1.438,0.384l2.629,4.556c0.289,0.502,0.117,1.146-0.386,1.435C45.421,17.104,45.239,17.15,45.061,17.15z"/>
	<path fill="#000000" d="M41.883,20.326c-0.178,0-0.359-0.045-0.525-0.141l-4.554-2.629c-0.503-0.29-0.675-0.934-0.384-1.437   c0.29-0.503,0.933-0.676,1.436-0.385l4.555,2.628c0.503,0.291,0.674,0.934,0.385,1.438C42.599,20.139,42.247,20.326,41.883,20.326z   "/>
	<path fill="#000000" d="M56.916,20.328c-0.364,0-0.717-0.188-0.911-0.526c-0.29-0.503-0.118-1.146,0.385-1.437l4.552-2.63   c0.501-0.292,1.146-0.118,1.437,0.385c0.29,0.503,0.119,1.146-0.385,1.436l-4.553,2.631C57.275,20.283,57.096,20.328,56.916,20.328   z"/>
	<path fill="#000000" d="M53.736,17.151c-0.178,0-0.357-0.046-0.523-0.141c-0.503-0.291-0.676-0.935-0.385-1.437l2.627-4.556   c0.291-0.502,0.933-0.675,1.437-0.384s0.676,0.933,0.385,1.436l-2.628,4.555C54.455,16.962,54.101,17.151,53.736,17.151z"/>
	<path fill="#000000" d="M33.147,22.188c-0.581,0-1.052-0.47-1.052-1.05v-5.258c0-0.581,0.471-1.052,1.052-1.052   s1.051,0.471,1.051,1.052v5.258C34.198,21.719,33.729,22.188,33.147,22.188z"/>
	<path fill="#000000" d="M28.81,23.352c-0.362,0-0.716-0.188-0.912-0.525l-2.629-4.554c-0.29-0.503-0.118-1.146,0.386-1.437   c0.503-0.291,1.146-0.117,1.437,0.387l2.629,4.553c0.29,0.503,0.117,1.146-0.385,1.437C29.17,23.307,28.988,23.352,28.81,23.352z"/>
	<path fill="#000000" d="M25.632,26.528c-0.178,0-0.36-0.044-0.525-0.142l-4.555-2.627c-0.502-0.292-0.674-0.935-0.383-1.438   c0.29-0.503,0.932-0.676,1.436-0.385l4.555,2.629c0.502,0.291,0.674,0.934,0.385,1.436C26.348,26.34,25.996,26.528,25.632,26.528z"/>
	<path fill="#000000" d="M24.469,30.866h-5.258c-0.579,0-1.051-0.47-1.051-1.05c0-0.582,0.472-1.052,1.051-1.052h5.258   c0.581,0,1.052,0.47,1.052,1.052C25.521,30.396,25.05,30.866,24.469,30.866z"/>
	<path fill="#000000" d="M21.08,37.836c-0.364,0-0.717-0.189-0.911-0.526c-0.291-0.504-0.119-1.146,0.383-1.437l4.554-2.628   c0.504-0.292,1.146-0.12,1.437,0.385c0.29,0.503,0.119,1.145-0.384,1.437l-4.554,2.627C21.44,37.789,21.259,37.836,21.08,37.836z"/>
	<path fill="#000000" d="M65.029,23.359c-0.58,0-1.051-0.471-1.051-1.053V17.05c0-0.582,0.471-1.053,1.051-1.053   s1.053,0.471,1.053,1.053v5.257C66.082,22.889,65.609,23.359,65.029,23.359z"/>
	<path fill="#000000" d="M72.546,27.698c-0.363,0-0.717-0.188-0.912-0.525c-0.291-0.503-0.118-1.146,0.385-1.437l4.555-2.629   c0.502-0.293,1.145-0.119,1.435,0.385c0.292,0.501,0.119,1.145-0.384,1.436l-4.554,2.63C72.906,27.652,72.724,27.698,72.546,27.698   z"/>
	<path fill="#000000" d="M69.369,24.521c-0.179,0-0.359-0.045-0.525-0.141c-0.503-0.291-0.675-0.933-0.386-1.437l2.628-4.554   c0.29-0.503,0.933-0.676,1.438-0.385c0.502,0.289,0.674,0.934,0.384,1.437l-2.627,4.554C70.085,24.333,69.732,24.521,69.369,24.521   z"/>
	<path fill="#000000" d="M77.991,34.972c-0.583,0-1.053-0.472-1.053-1.053v-5.258c0-0.581,0.47-1.052,1.053-1.052   c0.58,0,1.051,0.471,1.051,1.052v5.258C79.042,34.5,78.571,34.972,77.991,34.972z"/>
	<path fill="#000000" d="M84.96,55.718c-0.365,0-0.718-0.189-0.913-0.526l-2.628-4.552c-0.291-0.504-0.12-1.146,0.385-1.437   c0.499-0.291,1.146-0.119,1.435,0.385l2.631,4.552c0.291,0.503,0.118,1.146-0.386,1.437C85.318,55.672,85.137,55.718,84.96,55.718z   "/>
	<path fill="#000000" d="M90.058,50.616c-0.178,0-0.359-0.046-0.524-0.141l-4.555-2.628c-0.501-0.29-0.675-0.934-0.384-1.437   c0.289-0.503,0.931-0.675,1.436-0.386l4.555,2.628c0.502,0.291,0.675,0.934,0.385,1.437C90.775,50.429,90.422,50.616,90.058,50.616   z"/>
	<path fill="#000000" d="M86.668,43.65c-0.58,0-1.051-0.471-1.051-1.052c0-0.58,0.47-1.052,1.05-1.052l5.258-0.002   c0.001,0,0.001,0,0.001,0c0.58,0,1.052,0.472,1.052,1.051c0,0.581-0.471,1.053-1.051,1.053L86.668,43.65L86.668,43.65z"/>
	<path fill="#000000" d="M85.507,39.311c-0.364,0-0.717-0.188-0.912-0.525c-0.29-0.503-0.117-1.146,0.385-1.438l4.554-2.628   c0.503-0.294,1.146-0.119,1.436,0.385c0.291,0.501,0.118,1.146-0.384,1.435l-4.554,2.631   C85.866,39.265,85.685,39.311,85.507,39.311z"/>
	<path fill="#000000" d="M82.329,36.134c-0.179,0-0.359-0.044-0.524-0.142c-0.504-0.289-0.676-0.932-0.385-1.436l2.627-4.555   c0.289-0.503,0.932-0.676,1.437-0.385c0.503,0.29,0.677,0.935,0.386,1.438l-2.628,4.553C83.047,35.945,82.692,36.134,82.329,36.134   z"/>
	<path fill="#000000" d="M23.234,46.642c-0.581,0-1.052-0.471-1.052-1.052v-5.72c0-0.58,0.471-1.052,1.052-1.052   c0.58,0,1.051,0.472,1.051,1.052v5.72C24.285,46.171,23.814,46.642,23.234,46.642z"/>
	<path fill="#000000" d="M18.515,47.906c-0.364,0-0.718-0.188-0.911-0.525l-2.861-4.954c-0.29-0.502-0.117-1.146,0.386-1.437   c0.502-0.292,1.146-0.116,1.437,0.386l2.859,4.953c0.291,0.504,0.119,1.146-0.385,1.437C18.874,47.861,18.693,47.906,18.515,47.906   z"/>
	<path fill="#000000" d="M15.058,51.363c-0.178,0-0.359-0.046-0.524-0.143L9.58,48.362c-0.504-0.291-0.676-0.935-0.386-1.438   c0.289-0.502,0.933-0.676,1.437-0.385l4.954,2.859c0.503,0.292,0.675,0.935,0.386,1.438C15.774,51.173,15.422,51.363,15.058,51.363   z"/>
	<path fill="#000000" d="M13.792,56.082H8.074c-0.581,0-1.052-0.472-1.052-1.052s0.471-1.051,1.052-1.051h5.718   c0.582,0,1.053,0.471,1.053,1.051S14.374,56.082,13.792,56.082z"/>
	<path fill="#000000" d="M10.106,63.662c-0.363,0-0.718-0.189-0.912-0.525c-0.29-0.503-0.118-1.146,0.386-1.438l4.952-2.859   c0.503-0.29,1.145-0.117,1.437,0.385c0.29,0.504,0.117,1.146-0.385,1.438l-4.953,2.859C10.464,63.616,10.285,63.662,10.106,63.662z   "/>
	<path fill="#000000" d="M15.652,69.21c-0.179,0-0.358-0.045-0.524-0.14c-0.503-0.291-0.676-0.934-0.386-1.437l2.859-4.953   c0.291-0.502,0.932-0.675,1.437-0.385c0.503,0.291,0.676,0.934,0.384,1.437l-2.857,4.953C16.369,69.021,16.016,69.21,15.652,69.21z   "/>
	<path fill="#000000" d="M53.822,79.939c-2.804,0-4.688-2.203-4.688-4.262c0-0.581,0.471-1.052,1.051-1.052   c0.582,0,1.053,0.471,1.053,1.052c0,0.901,0.983,2.158,2.585,2.158c2.13,0,2.848-1.865,2.848-2.716c0-2.21-3.488-2.234-3.637-2.234   c-0.58,0-1.052-0.471-1.052-1.052s0.472-1.053,1.052-1.053c1.687,0,2.945-1.179,2.945-2.232c0-1.307-1.507-1.447-2.156-1.447   c-1.237,0-2.322,0.614-2.322,1.314c0,0.581-0.47,1.052-1.053,1.052c-0.58,0-1.051-0.471-1.051-1.052   c0-1.916,1.942-3.418,4.426-3.418c2.549,0,4.261,1.427,4.261,3.551c0,1.174-0.577,2.256-1.497,3.047   c1.29,0.697,2.187,1.853,2.187,3.524C58.772,77.062,57.199,79.939,53.822,79.939z"/>
</g>
</svg>