<svg xmlns="http://www.w3.org/2000/svg" xmlns:xlink="http://www.w3.org/1999/xlink" version="1.1" x="0px" y="0px" width="100px" height="100px" viewBox="0 0 100 100" enable-background="new 0 0 100 100" xml:space="preserve">
<g id="Captions">
</g>
<g id="Your_Icon">
	<path fill="#000000" d="M21.357,60.603c-3.821-0.784-6.706-4.176-6.706-8.226c0-4.631,3.768-8.398,8.396-8.398   c4.631,0,8.396,3.768,8.396,8.398c0,1.574-0.443,3.044-1.201,4.305l0.995,2.244c1.44-1.797,2.308-4.072,2.308-6.549   c0-5.787-4.709-10.496-10.498-10.496c-5.787,0-10.496,4.709-10.496,10.496c0,5.551,4.336,10.099,9.798,10.461L21.357,60.603z"/>
	<path fill="#000000" d="M77.735,30.248c-1.27,0-2.48,0.252-3.593,0.697c0.227-0.823,0.358-1.686,0.358-2.58   c0-5.355-4.357-9.713-9.713-9.713c-2.219,0-4.259,0.756-5.896,2.013c-0.204-5.177-4.468-9.329-9.693-9.329   c-5.009,0-9.141,3.811-9.657,8.684c-1.721-1.55-3.99-2.502-6.483-2.502c-5.355,0-9.713,4.355-9.713,9.711   c0,4.633,3.263,8.513,7.61,9.477l-0.65-2.387c-2.84-1.106-4.86-3.864-4.86-7.09c0-4.197,3.414-7.611,7.613-7.611   c3.063,0,5.704,1.823,6.909,4.438c0.106,0.324,0.23,0.64,0.369,0.948c0.215,0.704,0.333,1.451,0.333,2.225   c0,1.833-0.651,3.517-1.734,4.832l0.641,2.361c1.72-1.562,3.022-3.729,3.28-6.162C43.459,28.804,44,29.269,45,29.65v-2.479   c-1-0.761-2.021-1.764-2.566-2.941c-0.107-0.329-0.305-0.648-0.445-0.961c-0.215-0.703-0.368-1.448-0.368-2.221   c0-4.195,3.398-7.611,7.596-7.611s7.604,3.416,7.604,7.611c0,0.854-0.151,1.671-0.411,2.437c-0.283,0.486-0.348,0.998-0.544,1.532   C55.336,25.878,54,26.62,54,27.211v2.46c0-0.267,0.82-0.572,1.273-0.921c0.105,2.686,1.22,5.088,3.076,6.785l0.576-2.376   c-1.065-1.31-1.729-2.978-1.729-4.794c0-0.852,0.135-1.668,0.395-2.433c0.284-0.487,0.521-1.001,0.719-1.537   c1.34-2.18,3.738-3.642,6.48-3.642c4.197,0,7.609,3.414,7.609,7.611c0,3.259-2.06,6.036-4.942,7.121l-0.635,2.367   c0.536-0.116,1.058-0.271,1.558-0.471c-0.227,0.823-0.358,1.686-0.358,2.58c0,1.566,0.382,3.043,1.043,4.354l1.435-2.001   c-0.242-0.742-0.377-1.532-0.377-2.354c0-4.199,3.415-7.615,7.612-7.615s7.613,3.63,7.613,7.829c0,4.195-3.416,7.823-7.613,7.823   c-0.007,0-0.014,0-0.021,0l-1.421,1.77c0.472,0.07,0.951,0.012,1.442,0.012c5.355,0,9.713-4.409,9.713-9.765   C87.448,34.659,83.091,30.248,77.735,30.248z"/>
	<path fill="#000000" d="M83.124,39.053c-0.238-1.453-1.03-2.725-2.227-3.582c-2.473-1.771-5.922-1.199-7.693,1.27l-7.979,11.133   l4.856-18.131c0.79-2.936-0.955-5.965-3.892-6.754c-2.936-0.789-5.965,0.955-6.758,3.898l-4.74,18.162V21.006   c0-3.041-2.474-5.514-5.514-5.514c-3.039,0-5.513,2.473-5.513,5.514v24.477L38.314,25.77c-0.784-2.938-3.813-4.689-6.749-3.902   c-2.936,0.783-4.688,3.811-3.901,6.754l6.784,24.896c0.043,0.258,0.293,1.953,0.293,5.699v1.908l-1.658-0.633l-4.668-10.52   c-0.947-2.135-3.066-3.514-5.4-3.514c-0.828,0-1.633,0.17-2.393,0.508c-2.977,1.32-4.325,4.816-3.004,7.795l5.178,11.67   c1.791,4.213,4.979,8.047,6.58,9.648l5.996,5.996c0.291,0.289,0.596,0.561,0.912,0.816c1.996,3.445,5.732,5.771,10.007,5.771h14.7   c6.369,0,11.551-5.16,11.551-11.502v-20.57l9.624-13.43C83.024,41.967,83.364,40.508,83.124,39.053z M80.46,41.938l-9.822,13.703   c-0.128,0.18-0.195,0.395-0.195,0.615v20.906c0,5.184-4.24,9.402-9.451,9.402h-14.7c-1.731,0-3.351-0.475-4.75-1.287   c-1.62-0.988-3.063-2.482-3.632-3.789c-0.68-1.297-1.068-2.766-1.068-4.326c0-0.58-0.471-1.049-1.049-1.049   c-0.58,0-1.051,0.469-1.051,1.049c0,0.475,0.032,0.941,0.089,1.402l-3.971-3.971c-1.937-1.938-4.683-5.574-6.138-9l-5.185-11.686   c-0.851-1.918,0.018-4.17,1.937-5.02c0.49-0.219,1.008-0.33,1.541-0.33c1.504,0,2.871,0.889,3.48,2.266l4.848,10.92   c0.112,0.258,0.324,0.455,0.584,0.555l2.814,1.074v1.436c0,0.582,0.471,1.051,1.051,1.051c0.578,0,1.049-0.469,1.049-1.051v-5.592   c0-4.312-0.321-6.051-0.333-6.121c-0.006-0.027-0.012-0.055-0.021-0.08l-6.795-24.943c-0.487-1.818,0.598-3.689,2.415-4.178   c1.818-0.482,3.692,0.598,4.179,2.42l7.417,27.318c0.137,0.508,0.626,0.834,1.151,0.764c0.522-0.068,0.912-0.514,0.912-1.041   v-32.35c0-1.883,1.529-3.414,3.412-3.414c1.881,0,3.412,1.531,3.412,3.414v32.219c0,0.531,0.393,0.975,0.917,1.043   c0.52,0.068,1.016-0.266,1.15-0.775l6.806-26.07c0.488-1.816,2.369-2.893,4.181-2.408c1.818,0.49,2.899,2.367,2.41,4.184   l-6.349,23.705c-0.133,0.49,0.106,1.004,0.563,1.221c0.459,0.217,1.006,0.076,1.303-0.336l11.34-15.824   c1.095-1.529,3.233-1.883,4.763-0.785c0.742,0.531,1.23,1.318,1.379,2.219C81.201,40.295,80.991,41.197,80.46,41.938z"/>
	<path fill="#000000" d="M55.982,60.818l-1.359,1.354v-5.339c0-0.579-0.469-1.051-1.049-1.051s-1.049,0.472-1.049,1.051v5.341   l-1.357-1.356c-0.41-0.411-1.076-0.411-1.486,0c-0.41,0.408-0.41,1.074,0,1.483l3.15,3.148c0.045,0.048,0.096,0.087,0.148,0.125   c0.002,0.002,0.004,0.005,0.008,0.006c0.033,0.021,0.072,0.04,0.107,0.06c0.025,0.012,0.049,0.026,0.074,0.036   c0.035,0.018,0.074,0.026,0.113,0.039c0.027,0.006,0.055,0.018,0.082,0.024c0.07,0.014,0.137,0.02,0.209,0.02l0,0l0,0   c0.02,0,0.037-0.005,0.057-0.006c0.051-0.003,0.102-0.004,0.15-0.014c0.064-0.015,0.127-0.033,0.184-0.059   c0.004-0.002,0.008-0.002,0.012-0.003c0.131-0.052,0.248-0.133,0.346-0.232l3.143-3.145c0.412-0.409,0.412-1.073,0-1.483   C57.057,60.407,56.391,60.407,55.982,60.818z"/>
	<path fill="#000000" d="M48.236,67.667c0.008-0.015,0.008-0.028,0.014-0.044c0.043-0.114,0.066-0.231,0.066-0.354l-0.002-4.454   c0-0.58-0.469-1.05-1.051-1.05c-0.58,0-1.047,0.47-1.047,1.05v1.92l-3.777-3.776c-0.412-0.41-1.074-0.41-1.486,0   c-0.41,0.411-0.41,1.074,0,1.486l3.777,3.773h-1.92c-0.58,0-1.049,0.472-1.049,1.051s0.469,1.05,1.049,1.05h4.445   c0.002,0,0.006,0,0.006,0c0.207,0,0.41-0.058,0.586-0.175c0.035-0.024,0.066-0.056,0.1-0.083c0.021-0.017,0.043-0.032,0.061-0.049   l0,0l0,0c0.051-0.051,0.096-0.105,0.133-0.164c0.01-0.016,0.018-0.035,0.029-0.054C48.193,67.754,48.219,67.712,48.236,67.667z"/>
	<path fill="#000000" d="M46.916,73.537c-0.004-0.05-0.006-0.101-0.018-0.15c-0.01-0.062-0.029-0.125-0.053-0.185   c-0.002-0.003-0.002-0.007-0.006-0.009c-0.053-0.132-0.133-0.25-0.234-0.347l-3.143-3.144c-0.41-0.41-1.074-0.41-1.484,0   c-0.41,0.409-0.41,1.074,0,1.483l1.357,1.356h-5.338c-0.582,0-1.051,0.471-1.051,1.05c0,0.581,0.469,1.05,1.051,1.05h5.34   l-1.359,1.358c-0.41,0.409-0.41,1.075,0,1.484c0.205,0.207,0.475,0.309,0.74,0.309c0.27,0,0.541-0.102,0.744-0.309l3.152-3.149   c0.043-0.045,0.084-0.094,0.121-0.147c0.002-0.003,0.006-0.005,0.006-0.007c0.023-0.033,0.041-0.072,0.059-0.109   c0.012-0.024,0.027-0.047,0.039-0.071c0.016-0.038,0.023-0.078,0.035-0.116c0.008-0.027,0.018-0.053,0.023-0.082   c0.016-0.067,0.023-0.138,0.023-0.206l0,0v-0.002C46.922,73.575,46.916,73.557,46.916,73.537z"/>
	<path fill="#000000" d="M59.719,68.319c0,0,0.01,0,0.012,0h4.443c0.58,0,1.051-0.471,1.051-1.05s-0.471-1.051-1.051-1.051h-1.918   l3.775-3.773c0.41-0.412,0.41-1.075,0-1.486c-0.41-0.41-1.076-0.41-1.486,0l-3.775,3.776v-1.92c0-0.58-0.469-1.05-1.051-1.05   c-0.58,0-1.049,0.47-1.049,1.05l-0.002,4.454c0,0.122,0.027,0.239,0.066,0.354c0.004,0.016,0.008,0.029,0.012,0.044   c0.021,0.045,0.045,0.087,0.07,0.128c0.01,0.019,0.018,0.038,0.027,0.054c0.039,0.059,0.084,0.113,0.133,0.164l0,0l0,0   c0.02,0.017,0.041,0.032,0.062,0.049c0.031,0.027,0.062,0.059,0.1,0.083C59.312,68.262,59.516,68.319,59.719,68.319z"/>
	<path fill="#000000" d="M68.988,72.543H63.65l1.355-1.356c0.41-0.409,0.41-1.074,0-1.483c-0.41-0.41-1.072-0.41-1.482,0   l-3.146,3.144c-0.1,0.097-0.18,0.215-0.232,0.347c-0.002,0.002-0.002,0.006-0.004,0.009c-0.023,0.06-0.043,0.122-0.055,0.185   c-0.01,0.05-0.014,0.101-0.016,0.15c0,0.02-0.006,0.038-0.006,0.058v0.002l0,0c0,0.068,0.008,0.139,0.021,0.206   c0.006,0.029,0.016,0.055,0.025,0.082c0.01,0.038,0.02,0.078,0.033,0.116c0.014,0.024,0.025,0.047,0.041,0.071   c0.018,0.037,0.035,0.076,0.059,0.109c0.002,0.002,0.004,0.004,0.006,0.007c0.035,0.054,0.076,0.103,0.123,0.147l3.15,3.149   c0.203,0.207,0.471,0.309,0.74,0.309s0.537-0.102,0.742-0.309c0.41-0.409,0.41-1.075,0-1.484l-1.357-1.358h5.34   c0.58,0,1.049-0.469,1.049-1.05C70.037,73.014,69.568,72.543,68.988,72.543z"/>
</g>
</svg>