<svg xmlns="http://www.w3.org/2000/svg" xmlns:xlink="http://www.w3.org/1999/xlink" version="1.1" x="0px" y="0px" width="100px" height="100px" viewBox="0 0 100 100" enable-background="new 0 0 100 100" xml:space="preserve">
<g id="Captions">
</g>
<g id="Your_Icon">
	<path fill="#000000" d="M72.434,30.164c-1.275,0-2.491,0.253-3.609,0.7c0.229-0.826,0.36-1.692,0.36-2.591   c0-5.377-4.375-9.752-9.754-9.752c-2.228,0-4.276,0.759-5.921,2.021c-0.205-5.199-4.485-9.37-9.734-9.37   c-5.029,0-9.179,3.826-9.697,8.72c-1.729-1.557-4.008-2.513-6.512-2.513c-5.378,0-9.753,4.375-9.753,9.754   c0,4.653,3.276,8.55,7.643,9.518l-0.653-2.398c-2.852-1.11-4.881-3.88-4.881-7.119c0-4.215,3.429-7.645,7.645-7.645   c3.075,0,5.725,1.829,6.938,4.453c0.106,0.328,0.232,0.648,0.373,0.96c0.216,0.706,0.334,1.455,0.334,2.231   c0,1.841-0.654,3.531-1.742,4.852l0.644,2.371c1.728-1.567,2.755-3.744,3.013-6.188C37.732,28.713,39,29.18,39,29.562v-2.488   c-1-0.766-1.754-1.775-2.301-2.961c-0.107-0.326-0.163-0.643-0.302-0.952c-0.217-0.707-0.301-1.457-0.301-2.233   c0-4.217,3.445-7.646,7.661-7.646c4.215,0,7.653,3.43,7.653,7.646c0,0.856-0.143,1.677-0.403,2.445   c-0.285,0.488-0.645,1.002-0.843,1.539C49.635,25.775,49,26.521,48,27.114v2.469c1-0.268,1.121-0.574,1.578-0.924   c0.105,2.696,1.373,5.109,3.237,6.814l0.653-2.387c-1.068-1.315-1.697-2.99-1.697-4.813c0-0.855,0.154-1.677,0.415-2.445   c0.285-0.487,0.531-1.002,0.729-1.538c1.346-2.19,3.759-3.659,6.514-3.659c4.215,0,7.646,3.43,7.646,7.643   c0,3.272-2.068,6.062-4.963,7.152l-0.637,2.377c0.538-0.117,1.062-0.272,1.565-0.474c-0.229,0.826-0.36,1.692-0.36,2.591   c0,1.573,0.383,3.056,1.048,4.373l1.439-2.009c-0.243-0.745-0.379-1.539-0.379-2.364c0-4.217,3.43-7.646,7.646-7.646   c4.215,0,7.645,3.648,7.645,7.865c0,4.213-3.43,7.861-7.645,7.861c-0.008,0-0.016,0-0.022,0l-1.427,1.771   c0.474,0.07,0.955,0.01,1.449,0.01c5.378,0,9.753-4.43,9.753-9.807C82.187,34.594,77.812,30.164,72.434,30.164z"/>
	<path fill="#000000" d="M77.845,39.006c-0.24-1.457-1.034-2.734-2.235-3.598c-2.483-1.777-5.948-1.205-7.726,1.275L59.87,47.865   l4.878-18.209c0.792-2.947-0.96-5.99-3.908-6.785c-2.948-0.793-5.991,0.961-6.786,3.916l-4.762,18.238V20.883   c0-3.053-2.483-5.535-5.536-5.535s-5.535,2.482-5.535,5.535v24.58l-5.375-19.797c-0.788-2.949-3.828-4.707-6.778-3.918   c-2.948,0.787-4.706,3.828-3.916,6.781l6.812,25.004c0.024,0.143,0.111,0.734,0.186,1.875c-1.14,0.555-2.196,1.293-3.119,2.215   l-2.162,2.162c-2.19,2.191-3.396,5.104-3.396,8.201s1.206,6.012,3.396,8.201l6.022,6.023c0.292,0.293,0.6,0.564,0.916,0.82   c2.005,3.459,5.757,5.797,10.05,5.797h14.763c6.396,0,11.599-5.182,11.599-11.553V56.619l9.664-13.484   C77.744,41.932,78.087,40.467,77.845,39.006z M75.169,41.904l-9.863,13.762c-0.128,0.18-0.196,0.393-0.196,0.613v20.996   c0,5.207-4.258,9.443-9.49,9.443H40.856c-1.74,0-3.366-0.477-4.769-1.293c-1.685-0.982-2.914-2.318-3.648-3.807   c-0.682-1.301-1.072-2.777-1.072-4.344c0-0.582-0.474-1.055-1.056-1.055s-1.054,0.473-1.054,1.055c0,0.479,0.032,0.947,0.09,1.408   l-3.988-3.986c-1.792-1.793-2.779-4.176-2.779-6.711s0.987-4.918,2.779-6.711l2.161-2.16c0.526-0.525,1.107-0.973,1.723-1.355   c0.009,0.459,0.015,0.953,0.015,1.496v5.617c0,0.582,0.472,1.053,1.054,1.053s1.056-0.471,1.056-1.053v-5.617   c0-0.943-0.016-1.756-0.04-2.463c-0.039-0.953-0.076-1.574-0.12-2.158c-0.083-1.02-0.169-1.49-0.177-1.527   c-0.004-0.027-0.011-0.053-0.018-0.08L24.187,27.98c-0.488-1.826,0.601-3.709,2.426-4.197c1.826-0.484,3.709,0.602,4.197,2.432   l7.447,27.432c0.139,0.51,0.632,0.84,1.157,0.768c0.524-0.068,0.915-0.516,0.915-1.043V20.883c0-1.891,1.538-3.428,3.427-3.428   c1.891,0,3.428,1.537,3.428,3.428v32.355c0,0.531,0.394,0.98,0.92,1.047c0.521,0.064,1.021-0.266,1.154-0.779l6.834-26.178   c0.492-1.824,2.379-2.91,4.2-2.42c1.825,0.492,2.91,2.375,2.419,4.201l-6.376,23.805c-0.132,0.492,0.107,1.01,0.567,1.227   c0.461,0.217,1.01,0.076,1.308-0.34L69.599,37.91c1.1-1.535,3.246-1.887,4.781-0.787c0.745,0.533,1.235,1.324,1.386,2.227   C75.913,40.254,75.702,41.16,75.169,41.904z"/>
	<path fill="#000000" d="M57.43,71.605c0.01-0.014,0.016-0.031,0.023-0.045c0.027-0.045,0.054-0.088,0.074-0.137   c0.008-0.02,0.013-0.041,0.019-0.062c0.016-0.045,0.032-0.088,0.042-0.135c0.014-0.068,0.021-0.137,0.021-0.207   c0-0.072-0.007-0.141-0.021-0.209c-0.01-0.043-0.025-0.084-0.039-0.125c-0.007-0.023-0.013-0.049-0.021-0.072   c-0.019-0.043-0.042-0.082-0.065-0.121c-0.012-0.02-0.021-0.041-0.032-0.061c-0.034-0.051-0.073-0.096-0.115-0.139   c-0.006-0.008-0.009-0.014-0.016-0.02L54.927,67.9c-0.411-0.41-1.079-0.41-1.491,0c-0.411,0.412-0.411,1.08,0,1.492l0.572,0.572   h-4.309v-4.309l0.573,0.572c0.206,0.205,0.476,0.309,0.746,0.309c0.27,0,0.539-0.104,0.745-0.309c0.411-0.412,0.411-1.08,0-1.492   l-2.372-2.371c-0.021-0.02-0.042-0.033-0.062-0.053c-0.031-0.025-0.061-0.055-0.096-0.078c-0.024-0.016-0.052-0.027-0.076-0.041   c-0.035-0.018-0.069-0.041-0.105-0.057c-0.028-0.012-0.059-0.018-0.089-0.027c-0.035-0.01-0.07-0.023-0.109-0.033   c-0.067-0.014-0.137-0.02-0.208-0.02l0,0l0,0c-0.011,0-0.019,0.002-0.028,0.002c-0.062,0.002-0.12,0.008-0.179,0.018   c-0.057,0.012-0.108,0.029-0.16,0.049c-0.013,0.006-0.025,0.008-0.037,0.012c-0.059,0.025-0.115,0.057-0.168,0.09   c-0.005,0.002-0.009,0.004-0.013,0.006c-0.06,0.041-0.113,0.086-0.164,0.137l-2.369,2.367c-0.411,0.412-0.411,1.08,0,1.492   c0.413,0.412,1.08,0.412,1.491,0l0.572-0.572v4.309h-4.308l0.571-0.572c0.413-0.412,0.413-1.08,0-1.492   c-0.411-0.41-1.078-0.41-1.491,0l-2.372,2.373c-0.005,0.006-0.01,0.012-0.016,0.02c-0.041,0.043-0.08,0.088-0.114,0.139   c-0.012,0.02-0.021,0.041-0.032,0.061c-0.023,0.039-0.047,0.078-0.065,0.121c-0.009,0.023-0.015,0.049-0.022,0.072   c-0.014,0.041-0.029,0.082-0.037,0.125c-0.014,0.068-0.021,0.137-0.021,0.209c0,0.07,0.008,0.139,0.021,0.207   c0.009,0.047,0.025,0.09,0.04,0.135c0.008,0.021,0.012,0.043,0.02,0.062c0.021,0.049,0.046,0.092,0.073,0.137   c0.009,0.014,0.015,0.031,0.024,0.045c0.038,0.057,0.082,0.109,0.131,0.16l2.371,2.371c0.206,0.205,0.477,0.309,0.746,0.309   s0.539-0.104,0.745-0.309c0.413-0.412,0.413-1.078,0-1.49l-0.572-0.574h4.309v4.309l-0.572-0.572c-0.411-0.412-1.078-0.412-1.491,0   c-0.411,0.412-0.411,1.08,0,1.492l2.369,2.369c0.051,0.049,0.104,0.094,0.164,0.133c0.007,0.006,0.016,0.008,0.022,0.014   c0.05,0.031,0.103,0.061,0.158,0.084c0.016,0.006,0.032,0.01,0.049,0.016c0.049,0.018,0.097,0.035,0.147,0.045   c0.06,0.012,0.121,0.018,0.182,0.018c0.01,0.002,0.018,0.004,0.026,0.004l0,0l0,0c0.071,0,0.141-0.008,0.208-0.021   c0.039-0.008,0.074-0.021,0.109-0.033c0.03-0.01,0.061-0.018,0.089-0.027c0.036-0.016,0.07-0.037,0.105-0.057   c0.024-0.014,0.052-0.025,0.076-0.041c0.035-0.023,0.064-0.053,0.096-0.08c0.021-0.016,0.042-0.031,0.062-0.051l2.372-2.371   c0.411-0.412,0.411-1.08,0-1.492c-0.412-0.412-1.079-0.412-1.491,0l-0.573,0.572v-4.309h4.309l-0.572,0.574   c-0.411,0.412-0.411,1.078,0,1.49c0.206,0.205,0.476,0.309,0.745,0.309c0.271,0,0.54-0.104,0.746-0.309l2.372-2.371   C57.347,71.715,57.392,71.662,57.43,71.605z"/>
</g>
</svg>