<svg xmlns="http://www.w3.org/2000/svg" xmlns:xlink="http://www.w3.org/1999/xlink" version="1.1" x="0px" y="0px" width="100px" height="100px" viewBox="0 0 100 100" enable-background="new 0 0 100 100" xml:space="preserve">
<g id="Captions">
</g>
<g id="Your_Icon">
	<path fill="#000000" d="M73.789,48.668h-2.707c-0.809,0-1.574,0.188-2.23,0.512c-0.357-2.029-2.133-3.574-4.264-3.574h-2.705   c-0.789,0-1.529,0.211-2.166,0.58V22.838c0-3.133-2.549-5.682-5.682-5.682c-3.135,0-5.684,2.549-5.684,5.682V48.07l-5.518-20.322   c-0.809-3.025-3.93-4.834-6.957-4.021c-3.027,0.809-4.832,3.93-4.021,6.961l6.994,25.668c0.025,0.146,0.115,0.754,0.189,1.924   c-1.17,0.572-2.254,1.328-3.201,2.275l-2.219,2.219c-4.643,4.643-4.643,12.195,0,16.838l6.182,6.184   c0.301,0.299,0.615,0.578,0.939,0.84c2.059,3.555,5.91,5.951,10.318,5.951h15.152c6.566,0,11.908-5.318,11.908-11.857V52.996   C78.119,50.609,76.176,48.668,73.789,48.668z M75.953,80.729c0,5.346-4.369,9.693-9.742,9.693H51.059   c-1.787,0-3.457-0.488-4.898-1.328c-0.914-0.424-2.701-1.957-3.744-3.906c-0.699-1.336-1.1-2.852-1.1-4.459   c0-0.598-0.484-1.082-1.082-1.082c-0.6,0-1.084,0.484-1.084,1.082c0,0.49,0.035,0.971,0.092,1.445L35.15,78.08   c-3.799-3.797-3.799-9.979,0-13.775l2.219-2.219c0.539-0.539,1.135-0.998,1.768-1.391c0.008,0.471,0.014,0.979,0.014,1.535v5.766   c0,0.598,0.484,1.082,1.084,1.082c0.598,0,1.082-0.484,1.082-1.082V62.23c0-0.969-0.016-1.803-0.041-2.529   c-0.037-0.918-0.105-1.797-0.123-2.215c-0.084-1.047-0.174-1.529-0.182-1.568c-0.004-0.027-0.012-0.055-0.018-0.082l-7.008-25.713   c-0.5-1.873,0.617-3.805,2.49-4.305c1.875-0.502,3.807,0.615,4.309,2.494l7.646,28.16c0.141,0.523,0.648,0.859,1.186,0.789   c0.539-0.072,0.939-0.531,0.939-1.074v-33.35c0-1.939,1.578-3.518,3.52-3.518c1.939,0,3.518,1.578,3.518,3.518v33.229   c0,0.598,0.484,1.082,1.082,1.082s1.082-0.484,1.082-1.082v-6.131c0-1.195,0.973-2.166,2.166-2.166h2.705   c1.193,0,2.164,0.971,2.164,2.166v6.119c0,0.598,0.486,1.082,1.084,1.082s1.082-0.484,1.082-1.082v-3.924   c0-0.512,0.93-1.299,2.164-1.299h2.707c1.193,0,2.164,0.971,2.164,2.164V80.729z"/>
	<path fill="#000000" d="M54.037,14.99c-0.6,0-1.084-0.484-1.084-1.082V8.496c0-0.598,0.484-1.082,1.084-1.082   c0.596,0,1.082,0.484,1.082,1.082v5.412C55.119,14.506,54.633,14.99,54.037,14.99z"/>
	<path fill="#000000" d="M49.572,16.188c-0.375,0-0.738-0.193-0.939-0.541l-2.707-4.688c-0.299-0.518-0.121-1.18,0.396-1.479   c0.52-0.299,1.18-0.121,1.479,0.396l2.707,4.688c0.299,0.518,0.121,1.18-0.396,1.479C49.941,16.141,49.754,16.188,49.572,16.188z"/>
	<path fill="#000000" d="M46.301,19.457c-0.186,0-0.371-0.047-0.541-0.145l-4.688-2.707c-0.518-0.299-0.695-0.961-0.396-1.479   s0.961-0.695,1.479-0.396l4.688,2.707c0.518,0.299,0.695,0.959,0.396,1.479C47.037,19.262,46.674,19.457,46.301,19.457z"/>
	<path fill="#000000" d="M66.457,31.096c-0.184,0-0.369-0.047-0.539-0.146l-4.688-2.703c-0.518-0.299-0.695-0.961-0.396-1.479   c0.299-0.52,0.961-0.697,1.479-0.396L67,29.074c0.518,0.299,0.695,0.961,0.396,1.479C67.195,30.9,66.832,31.096,66.457,31.096z"/>
	<path fill="#000000" d="M62.969,23.924c-0.598,0-1.082-0.484-1.082-1.082s0.484-1.082,1.082-1.082l5.412-0.002l0,0   c0.598,0,1.082,0.484,1.082,1.082s-0.484,1.082-1.082,1.082L62.969,23.924L62.969,23.924z"/>
	<path fill="#000000" d="M61.773,19.457c-0.375,0-0.738-0.193-0.939-0.541c-0.297-0.518-0.121-1.18,0.396-1.479l4.688-2.707   c0.518-0.299,1.18-0.121,1.479,0.396s0.121,1.18-0.396,1.479l-4.686,2.707C62.143,19.412,61.957,19.457,61.773,19.457z"/>
	<path fill="#000000" d="M58.502,16.188c-0.184,0-0.369-0.047-0.539-0.145c-0.518-0.299-0.695-0.961-0.396-1.479l2.705-4.688   C60.57,9.359,61.23,9.182,61.75,9.48c0.518,0.299,0.693,0.961,0.396,1.479l-2.705,4.688C59.24,15.994,58.877,16.188,58.502,16.188z   "/>
	<path fill="#000000" d="M37.309,21.375c-0.598,0-1.082-0.486-1.082-1.084v-5.412c0-0.598,0.484-1.082,1.082-1.082   s1.082,0.484,1.082,1.082v5.412C38.391,20.889,37.906,21.375,37.309,21.375z"/>
	<path fill="#000000" d="M32.844,22.57c-0.375,0-0.738-0.193-0.939-0.541l-2.705-4.688c-0.299-0.518-0.121-1.18,0.396-1.479   s1.18-0.121,1.479,0.396l2.705,4.688c0.299,0.518,0.121,1.18-0.396,1.479C33.213,22.523,33.027,22.57,32.844,22.57z"/>
	<path fill="#000000" d="M29.572,25.84c-0.184,0-0.371-0.047-0.541-0.145l-4.686-2.705c-0.52-0.301-0.697-0.961-0.396-1.48   c0.299-0.518,0.961-0.693,1.479-0.396l4.688,2.707c0.516,0.299,0.693,0.961,0.395,1.479C30.311,25.646,29.945,25.84,29.572,25.84z"/>
	<path fill="#000000" d="M28.375,30.307h-5.41c-0.6,0-1.082-0.484-1.082-1.082s0.482-1.084,1.082-1.084h5.41   c0.598,0,1.082,0.486,1.082,1.084S28.973,30.307,28.375,30.307z"/>
	<path fill="#000000" d="M24.887,37.479c-0.373,0-0.738-0.193-0.938-0.541c-0.301-0.518-0.123-1.18,0.396-1.479l4.686-2.707   c0.516-0.297,1.178-0.121,1.479,0.396c0.299,0.52,0.121,1.18-0.396,1.48l-4.686,2.705C25.256,37.432,25.07,37.479,24.887,37.479z"/>
	<path fill="#000000" d="M62.49,80.424h-7.848c-0.596,0-1.082-0.484-1.082-1.082c0-1.996,2.02-3.4,4.158-4.885   c1.729-1.203,3.689-2.564,3.689-3.809c0-1.93-1.473-2.809-2.842-2.809c-1.539,0-2.84,1.023-2.84,2.232   c0,0.598-0.484,1.084-1.084,1.084c-0.596,0-1.082-0.486-1.082-1.084c0-2.424,2.246-4.396,5.006-4.396   c2.855,0,5.006,2.139,5.006,4.973c0,2.375-2.348,4.008-4.619,5.586c-0.906,0.631-1.951,1.357-2.602,2.025h6.139   c0.6,0,1.082,0.484,1.082,1.082S63.09,80.424,62.49,80.424z"/>
</g>
</svg>