<svg xmlns="http://www.w3.org/2000/svg" xmlns:xlink="http://www.w3.org/1999/xlink" version="1.1" x="0px" y="0px" width="100px" height="100px" viewBox="0 0 100 100" enable-background="new 0 0 100 100" xml:space="preserve">
<g id="Captions">
</g>
<g id="Your_Icon">
	<path fill="#000000" d="M21.314,60.615c-3.828-0.785-6.717-4.18-6.717-8.238c0-4.635,3.773-8.408,8.41-8.408s8.41,3.773,8.41,8.408   c0,1.579-0.445,3.052-1.205,4.315l0.997,2.244c1.441-1.8,2.31-4.078,2.31-6.56c0-5.793-4.715-10.51-10.512-10.51   s-10.512,4.717-10.512,10.51c0,5.562,4.342,10.115,9.812,10.479L21.314,60.615z"/>
	<path fill="#000000" d="M77.775,30.219c-1.272,0-2.484,0.252-3.6,0.698c0.228-0.824,0.359-1.688,0.359-2.585   c0-5.361-4.363-9.725-9.725-9.725c-2.223,0-4.267,0.757-5.906,2.015c-0.203-5.187-4.473-9.343-9.709-9.343   c-5.015,0-9.152,3.812-9.67,8.693c-1.725-1.552-3.997-2.506-6.494-2.506c-5.363,0-9.727,4.363-9.727,9.727   c0,4.642,3.269,8.525,7.622,9.49l-0.651-2.389c-2.844-1.107-4.867-3.869-4.867-7.102c0-4.203,3.418-7.623,7.623-7.623   c3.068,0,5.712,1.826,6.92,4.445c0.106,0.325,0.23,0.642,0.369,0.95c0.216,0.705,0.334,1.453,0.334,2.228   c0,1.836-0.652,3.521-1.736,4.839l0.642,2.364c1.723-1.562,3.03-3.733,3.288-6.171C43.452,28.771,44,29.236,45,29.617v-2.48   c-1-0.764-2.031-1.77-2.577-2.951c-0.106-0.326-0.305-0.644-0.444-0.954c-0.215-0.704-0.369-1.451-0.369-2.226   c0-4.205,3.401-7.625,7.604-7.625c4.205,0,7.615,3.42,7.615,7.625c0,0.854-0.151,1.674-0.412,2.441   c-0.284,0.485-0.351,0.997-0.548,1.531C55.34,25.84,54,26.583,54,27.176v2.462c0-0.267,0.823-0.571,1.278-0.921   c0.105,2.689,1.222,5.096,3.083,6.795l0.576-2.379c-1.066-1.312-1.729-2.982-1.729-4.801c0-0.854,0.136-1.673,0.396-2.44   c0.283-0.485,0.52-0.998,0.717-1.532c1.342-2.186,3.744-3.65,6.492-3.65c4.203,0,7.621,3.42,7.621,7.623   c0,3.264-2.064,6.047-4.952,7.133l-0.636,2.37c0.537-0.117,1.061-0.272,1.562-0.473c-0.228,0.824-0.359,1.688-0.359,2.583   c0,1.569,0.382,3.049,1.045,4.362l1.437-2.004c-0.243-0.743-0.378-1.535-0.378-2.358c0-4.203,3.42-7.623,7.623-7.623   c4.205,0,7.625,3.635,7.625,7.838S81.98,48,77.775,48c-0.007,0-0.015,0-0.021,0l-1.422,1.768c0.473,0.07,0.952,0.012,1.443,0.012   c5.365,0,9.729-4.417,9.729-9.78S83.141,30.219,77.775,30.219z"/>
	<path fill="#000000" d="M83.174,39.037c-0.24-1.455-1.031-2.73-2.23-3.59c-2.477-1.771-5.93-1.201-7.703,1.271l-7.992,11.15   l4.863-18.158c0.791-2.939-0.957-5.975-3.896-6.766c-2.939-0.789-5.977,0.955-6.768,3.904l-4.75,18.189V20.961   c0-3.045-2.477-5.521-5.52-5.521c-3.045,0-5.521,2.477-5.521,5.521v24.514l-5.359-19.742c-0.787-2.941-3.818-4.695-6.76-3.908   c-2.941,0.785-4.693,3.818-3.908,6.764l6.797,24.934c0.041,0.258,0.293,1.957,0.293,5.709v1.912l-1.66-0.635l-4.678-10.537   c-0.945-2.137-3.07-3.52-5.406-3.52c-0.83,0-1.635,0.172-2.396,0.51c-2.982,1.322-4.332,4.824-3.01,7.807l5.186,11.686   c1.795,4.221,4.986,8.061,6.59,9.662l6.006,6.008c0.291,0.291,0.598,0.562,0.912,0.818c2,3.451,5.742,5.779,10.023,5.779h14.723   c6.377,0,11.566-5.168,11.566-11.52v-20.6l9.641-13.449C83.072,41.953,83.416,40.492,83.174,39.037z M80.504,41.926l-9.836,13.723   c-0.127,0.18-0.197,0.395-0.197,0.613v20.939c0,5.193-4.244,9.416-9.463,9.416H46.285c-1.734,0-3.355-0.475-4.756-1.289   c-1.625-0.99-3.07-2.484-3.639-3.795c-0.68-1.297-1.068-2.77-1.068-4.332c0-0.58-0.473-1.051-1.053-1.051s-1.051,0.471-1.051,1.051   c0,0.477,0.031,0.943,0.09,1.406l-3.977-3.979c-1.941-1.939-4.689-5.582-6.15-9.014L19.49,53.914   c-0.852-1.922,0.02-4.178,1.939-5.031c0.494-0.217,1.012-0.328,1.545-0.328c1.506,0,2.873,0.891,3.486,2.27l4.852,10.938   c0.115,0.256,0.326,0.457,0.586,0.555l2.82,1.076v1.438c0,0.58,0.471,1.053,1.051,1.053s1.053-0.473,1.053-1.053v-5.6   c0-4.32-0.32-6.061-0.336-6.131c-0.006-0.027-0.012-0.055-0.02-0.08l-6.807-24.98c-0.486-1.82,0.6-3.699,2.42-4.184   c1.82-0.486,3.699,0.6,4.186,2.424l7.428,27.355c0.137,0.51,0.629,0.836,1.154,0.768c0.521-0.068,0.912-0.516,0.912-1.043V20.961   c0-1.885,1.533-3.418,3.418-3.418s3.418,1.533,3.418,3.418v32.27c0,0.529,0.393,0.975,0.916,1.043   c0.521,0.068,1.02-0.266,1.152-0.777l6.816-26.107c0.488-1.82,2.371-2.9,4.189-2.412s2.9,2.367,2.41,4.189l-6.359,23.74   c-0.129,0.49,0.107,1.006,0.566,1.223s1.008,0.076,1.305-0.338l11.357-15.848c1.098-1.531,3.236-1.883,4.77-0.787   c0.742,0.533,1.232,1.322,1.381,2.223S81.035,41.184,80.504,41.926z"/>
	<path fill="#000000" d="M57.49,75.215c-0.41-0.408-1.076-0.408-1.486,0l-1.359,1.361V63.34c0-0.58-0.471-1.051-1.053-1.051   c-0.58,0-1.051,0.471-1.051,1.051v13.234l-1.359-1.359c-0.41-0.408-1.076-0.408-1.486,0c-0.412,0.412-0.412,1.078,0,1.488   l3.148,3.148c0.098,0.1,0.215,0.18,0.348,0.232c0.002,0.002,0.006,0.002,0.01,0.004c0.059,0.025,0.121,0.045,0.186,0.057   c0.049,0.01,0.1,0.012,0.148,0.016c0.02,0,0.039,0.006,0.057,0.006h0.002l0,0c0.07,0,0.141-0.008,0.207-0.021   c0.029-0.006,0.057-0.016,0.084-0.025c0.037-0.012,0.076-0.02,0.113-0.035c0.025-0.01,0.049-0.025,0.072-0.039   c0.037-0.018,0.076-0.037,0.109-0.059c0.002-0.002,0.006-0.004,0.008-0.008c0.053-0.035,0.104-0.074,0.15-0.121l3.152-3.154   C57.9,76.293,57.9,75.627,57.49,75.215z"/>
</g>
</svg>