<svg xmlns="http://www.w3.org/2000/svg" xmlns:xlink="http://www.w3.org/1999/xlink" version="1.1" x="0px" y="0px" width="100px" height="100px" viewBox="0 0 100 100" enable-background="new 0 0 100 100" xml:space="preserve">
<g id="Captions">
</g>
<g id="Your_Icon">
	<path fill="#000000" d="M31.88,33.879c-2.988-1.11-5.127-3.982-5.127-7.352c0-4.326,3.521-7.847,7.848-7.847   c4.328,0,7.848,3.521,7.848,7.847c0,1.844-0.643,3.538-1.712,4.879l0.667,2.457c1.747-1.622,3.053-3.855,3.297-6.358   C45.35,28.102,46,28.611,47,29.022v-2.534c-2-1.428-3.382-3.736-3.382-6.344c0-4.327,3.451-7.848,7.78-7.848   c4.326,0,7.85,3.521,7.85,7.848c0,2.609-1.248,4.918-3.248,6.346v2.538c3-1.669,5.378-5.021,5.378-8.884   c0-5.521-4.509-10.013-10.03-10.013c-5.191,0-9.479,3.971-9.974,9.035c-1.783-1.641-4.16-2.651-6.769-2.651   c-5.521,0-10.014,4.491-10.014,10.012c0,4.817,3.417,8.849,7.957,9.799L31.88,33.879z"/>
	<path fill="#000000" d="M71.082,45.949h-2.705c-0.809,0-1.576,0.188-2.23,0.512c-0.359-2.028-2.135-3.574-4.266-3.574h-2.705   c-0.789,0-1.527,0.211-2.164,0.581V20.12c0-3.134-2.551-5.683-5.684-5.683c-3.133,0-5.684,2.549-5.684,5.683v25.232L40.126,25.03   c-0.809-3.026-3.928-4.835-6.957-4.022c-3.025,0.81-4.832,3.93-4.021,6.962l6.996,25.667c0.023,0.147,0.113,0.754,0.189,1.925   c-1.17,0.571-2.254,1.327-3.203,2.275l-2.219,2.219c-4.641,4.642-4.641,12.195,0,16.838l6.184,6.183   c0.299,0.3,0.613,0.578,0.938,0.841c2.059,3.554,5.912,5.951,10.318,5.951h15.155c6.564,0,11.906-5.319,11.906-11.857V50.278   C75.412,47.892,73.469,45.949,71.082,45.949z M73.248,78.011c0,5.345-4.371,9.693-9.742,9.693H48.351   c-1.787,0-3.457-0.489-4.898-1.328c-0.914-0.425-2.701-1.958-3.742-3.907c-0.699-1.336-1.102-2.851-1.102-4.458   c0-0.598-0.484-1.083-1.082-1.083s-1.082,0.485-1.082,1.083c0,0.489,0.033,0.972,0.092,1.445l-4.094-4.094   c-3.799-3.798-3.799-9.979,0-13.776l2.219-2.219c0.539-0.539,1.137-0.998,1.768-1.391c0.01,0.471,0.016,0.979,0.016,1.535v5.766   c0,0.598,0.484,1.082,1.082,1.082s1.082-0.484,1.082-1.082v-5.766c0-0.968-0.016-1.803-0.041-2.528   c-0.037-0.919-0.105-1.797-0.121-2.215c-0.086-1.047-0.174-1.53-0.182-1.568c-0.006-0.027-0.012-0.056-0.02-0.082l-7.008-25.713   c-0.5-1.873,0.617-3.805,2.49-4.306c1.875-0.501,3.807,0.616,4.309,2.494l7.646,28.16c0.141,0.523,0.65,0.86,1.188,0.789   c0.537-0.072,0.939-0.531,0.939-1.073V20.12c0-1.939,1.578-3.519,3.518-3.519c1.939,0,3.518,1.579,3.518,3.519v33.228   c0,0.598,0.484,1.083,1.082,1.083s1.084-0.485,1.084-1.083v-6.131c0-1.194,0.971-2.165,2.164-2.165h2.705   c1.193,0,2.166,0.971,2.166,2.165v6.12c0,0.598,0.484,1.082,1.082,1.082s1.082-0.484,1.082-1.082v-3.924   c0-0.511,0.93-1.299,2.166-1.299h2.705c1.193,0,2.166,0.971,2.166,2.164V78.011z"/>
	<path fill="#000000" d="M59.873,75.969c-0.422-0.423-1.107-0.423-1.531,0l-1.398,1.399V63.745c0-0.598-0.484-1.083-1.082-1.083   c-0.6,0-1.082,0.485-1.082,1.083v13.623l-1.4-1.399c-0.422-0.423-1.107-0.423-1.531,0c-0.422,0.423-0.422,1.107,0,1.53l3.244,3.244   c0.051,0.052,0.107,0.098,0.168,0.139c0.004,0.002,0.01,0.004,0.014,0.007c0.053,0.035,0.111,0.066,0.172,0.092   c0.014,0.005,0.025,0.007,0.039,0.012c0.053,0.021,0.105,0.039,0.162,0.05c0.061,0.013,0.123,0.017,0.186,0.019   c0.01,0.001,0.018,0.003,0.029,0.003l0,0l0,0c0.072,0,0.145-0.007,0.215-0.021c0.035-0.007,0.07-0.021,0.104-0.031   s0.066-0.018,0.098-0.031c0.035-0.014,0.066-0.034,0.1-0.053c0.029-0.016,0.061-0.028,0.088-0.047   c0.023-0.017,0.043-0.037,0.066-0.055c0.031-0.025,0.066-0.049,0.096-0.078l3.246-3.248C60.297,77.076,60.297,76.391,59.873,75.969   z"/>
</g>
</svg>