<svg xmlns="http://www.w3.org/2000/svg" xmlns:xlink="http://www.w3.org/1999/xlink" version="1.1" x="0px" y="0px" width="100px" height="100px" viewBox="0 0 100 100" enable-background="new 0 0 100 100" xml:space="preserve">
<g id="Captions">
</g>
<g id="Your_Icon">
	<path fill="#000000" d="M73.788,48.668h-2.705c-0.809,0-1.576,0.188-2.23,0.512c-0.359-2.029-2.135-3.574-4.264-3.574h-2.707   c-0.787,0-1.527,0.211-2.164,0.58V22.838c0-3.133-2.551-5.682-5.684-5.682s-5.683,2.549-5.683,5.682V48.07l-5.518-20.322   c-0.809-3.025-3.929-4.834-6.957-4.021c-3.026,0.809-4.831,3.93-4.021,6.961l6.995,25.668c0.023,0.146,0.113,0.754,0.189,1.924   c-1.17,0.572-2.254,1.328-3.202,2.275l-2.219,2.219c-4.642,4.643-4.642,12.195,0,16.838l6.183,6.184   c0.299,0.299,0.613,0.578,0.938,0.84c2.06,3.555,5.911,5.951,10.317,5.951h15.154c6.564,0,11.906-5.318,11.906-11.857V52.996   C78.118,50.609,76.177,48.668,73.788,48.668z M75.954,80.729c0,5.346-4.371,9.693-9.742,9.693H51.058   c-1.786,0-3.457-0.488-4.897-1.328c-0.914-0.424-2.701-1.957-3.743-3.906c-0.699-1.336-1.102-2.852-1.102-4.459   c0-0.598-0.484-1.082-1.082-1.082s-1.082,0.484-1.082,1.082c0,0.49,0.033,0.971,0.092,1.445l-4.094-4.094   c-3.798-3.797-3.798-9.979,0-13.775l2.219-2.219c0.54-0.539,1.137-0.998,1.768-1.391c0.01,0.471,0.016,0.979,0.016,1.535v5.766   c0,0.598,0.484,1.082,1.082,1.082s1.082-0.484,1.082-1.082V62.23c0-0.969-0.016-1.803-0.041-2.529   c-0.037-0.918-0.104-1.797-0.121-2.215c-0.086-1.047-0.174-1.529-0.182-1.568c-0.006-0.027-0.012-0.055-0.02-0.082l-7.007-25.713   c-0.501-1.873,0.616-3.805,2.49-4.305c1.874-0.502,3.807,0.615,4.309,2.494l7.646,28.16c0.142,0.523,0.65,0.859,1.188,0.789   c0.537-0.072,0.939-0.531,0.939-1.074v-33.35c0-1.939,1.578-3.518,3.518-3.518s3.518,1.578,3.518,3.518v33.229   c0,0.598,0.484,1.082,1.084,1.082c0.598,0,1.082-0.484,1.082-1.082v-6.131c0-1.195,0.971-2.166,2.164-2.166h2.707   c1.193,0,2.164,0.971,2.164,2.166v6.119c0,0.598,0.484,1.082,1.082,1.082s1.082-0.484,1.082-1.082v-3.924   c0-0.512,0.93-1.299,2.166-1.299h2.705c1.193,0,2.166,0.971,2.166,2.164V80.729z"/>
	<path fill="#000000" d="M54.036,14.99c-0.598,0-1.082-0.484-1.082-1.082V8.496c0-0.598,0.484-1.082,1.082-1.082   s1.082,0.484,1.082,1.082v5.412C55.118,14.506,54.634,14.99,54.036,14.99z"/>
	<path fill="#000000" d="M49.571,16.188c-0.374,0-0.738-0.193-0.938-0.541l-2.706-4.688c-0.299-0.518-0.121-1.18,0.396-1.479   s1.18-0.121,1.479,0.396l2.706,4.688c0.298,0.518,0.122,1.18-0.396,1.479C49.94,16.141,49.755,16.188,49.571,16.188z"/>
	<path fill="#000000" d="M46.3,19.457c-0.184,0-0.369-0.047-0.54-0.145l-4.687-2.707c-0.518-0.299-0.695-0.961-0.396-1.479   s0.961-0.695,1.479-0.396l4.688,2.707c0.518,0.299,0.693,0.959,0.396,1.479C47.038,19.262,46.675,19.457,46.3,19.457z"/>
	<path fill="#000000" d="M66.458,31.096c-0.184,0-0.369-0.047-0.541-0.146l-4.686-2.703c-0.518-0.299-0.695-0.961-0.396-1.479   c0.297-0.52,0.959-0.697,1.479-0.396l4.686,2.703c0.518,0.299,0.695,0.961,0.398,1.479C67.196,30.9,66.833,31.096,66.458,31.096z"/>
	<path fill="#000000" d="M62.968,23.924c-0.596,0-1.08-0.484-1.082-1.082c0-0.598,0.484-1.082,1.082-1.082l5.412-0.002l0,0   c0.598,0,1.082,0.484,1.084,1.082c0,0.598-0.484,1.082-1.084,1.082l-5.41,0.002H62.968z"/>
	<path fill="#000000" d="M61.772,19.457c-0.373,0-0.736-0.193-0.938-0.541c-0.299-0.518-0.121-1.18,0.396-1.479l4.686-2.707   c0.518-0.299,1.18-0.121,1.479,0.396s0.123,1.18-0.395,1.479l-4.688,2.707C62.144,19.412,61.958,19.457,61.772,19.457z"/>
	<path fill="#000000" d="M58.503,16.188c-0.184,0-0.371-0.047-0.541-0.145c-0.518-0.299-0.695-0.961-0.396-1.479l2.705-4.688   c0.299-0.518,0.961-0.695,1.479-0.396s0.695,0.961,0.396,1.479l-2.705,4.688C59.241,15.994,58.876,16.188,58.503,16.188z"/>
	<path fill="#000000" d="M37.309,21.375c-0.599,0-1.083-0.486-1.083-1.084v-5.412c0-0.598,0.484-1.082,1.083-1.082   c0.597,0,1.083,0.484,1.083,1.082v5.412C38.392,20.889,37.905,21.375,37.309,21.375z"/>
	<path fill="#000000" d="M32.844,22.57c-0.374,0-0.738-0.193-0.938-0.541l-2.706-4.688c-0.3-0.518-0.122-1.18,0.396-1.479   s1.18-0.121,1.479,0.396l2.707,4.688c0.299,0.518,0.121,1.18-0.396,1.479C33.214,22.523,33.027,22.57,32.844,22.57z"/>
	<path fill="#000000" d="M29.572,25.84c-0.185,0-0.37-0.047-0.54-0.145l-4.688-2.705c-0.518-0.301-0.695-0.961-0.396-1.48   c0.299-0.518,0.961-0.693,1.479-0.396l4.688,2.707c0.518,0.299,0.695,0.961,0.396,1.479C30.31,25.646,29.946,25.84,29.572,25.84z"/>
	<path fill="#000000" d="M28.376,30.307h-5.412c-0.598,0-1.082-0.484-1.082-1.082s0.484-1.084,1.082-1.084h5.412   c0.597,0,1.082,0.486,1.082,1.084S28.973,30.307,28.376,30.307z"/>
	<path fill="#000000" d="M24.888,37.479c-0.375,0-0.738-0.193-0.939-0.541c-0.299-0.518-0.121-1.18,0.396-1.479l4.686-2.707   c0.518-0.297,1.18-0.121,1.479,0.396c0.299,0.52,0.122,1.18-0.396,1.48l-4.687,2.705C25.257,37.432,25.071,37.479,24.888,37.479z"/>
	<path fill="#000000" d="M58.642,80.424c-0.598,0-1.082-0.484-1.082-1.082v-9.971l-1.627,1.625c-0.422,0.424-1.107,0.424-1.529,0   c-0.424-0.422-0.424-1.107,0-1.531l3.473-3.473c0.309-0.309,0.775-0.402,1.18-0.234s0.668,0.562,0.668,1v12.584   C59.724,79.939,59.239,80.424,58.642,80.424z"/>
</g>
</svg>