<svg xmlns="http://www.w3.org/2000/svg" xmlns:xlink="http://www.w3.org/1999/xlink" version="1.1" x="0px" y="0px" width="100px" height="100px" viewBox="0 0 100 100" enable-background="new 0 0 100 100" xml:space="preserve">
<g id="Captions">
</g>
<g id="Your_Icon">
	<path fill="#000000" d="M66.162,18.067c-2.261,0-4.34,0.771-6.008,2.051c-0.207-5.275-4.549-9.506-9.875-9.506   c-5.101,0-9.31,3.881-9.836,8.846c-1.754-1.579-4.065-2.55-6.605-2.55c-5.455,0-9.895,4.438-9.895,9.895   c0,4.72,3.325,8.673,7.753,9.654l-0.663-2.433c-2.892-1.127-4.951-3.936-4.951-7.222c0-4.276,3.48-7.755,7.756-7.755   c3.124,0,5.815,1.86,7.042,4.529c0.107,0.327,0.232,0.645,0.371,0.956c0.221,0.718,0.341,1.479,0.341,2.27   c0,1.867-0.663,3.582-1.767,4.922l0.653,2.405c1.752-1.59,3.076-3.799,3.339-6.277C44.433,28.406,45,28.88,46,29.269v-2.524   c-1-0.777-2.061-1.8-2.615-3.001c-0.108-0.333-0.308-0.656-0.449-0.973c-0.219-0.717-0.375-1.477-0.375-2.264   c0-4.275,3.463-7.755,7.736-7.755c4.277,0,7.747,3.479,7.747,7.755c0,0.871-0.154,1.705-0.421,2.487   c-0.286,0.491-0.436,1.01-0.636,1.55C56.448,25.423,56,26.181,55,26.783v2.505c0-0.271,0.921-0.582,1.384-0.938   c0.107,2.735,1.284,5.184,3.177,6.913l0.607-2.42c-1.085-1.334-1.75-3.032-1.75-4.882c0-0.87,0.145-1.705,0.41-2.487   c0.288-0.492,0.528-1.011,0.729-1.552c1.364-2.225,3.811-3.717,6.607-3.717c4.275,0,7.755,3.479,7.755,7.756   c0,3.318-2.102,6.148-5.039,7.253l-0.648,2.419c4.465-0.954,7.825-4.927,7.825-9.672C76.057,22.506,71.617,18.067,66.162,18.067z"/>
	<path fill="#000000" d="M69.783,45.988h-2.676c-0.002,0-0.004,0-0.006,0l4.453-16.626c0.805-2.989-0.973-6.076-3.963-6.882   c-2.99-0.804-6.078,0.974-6.885,3.972l-4.83,18.503V20.462c0-3.097-2.52-5.616-5.615-5.616c-3.098,0-5.617,2.52-5.617,5.616v24.936   l-5.451-20.083c-0.799-2.991-3.883-4.774-6.875-3.976c-2.992,0.801-4.775,3.885-3.975,6.881l6.912,25.364   c0.023,0.146,0.111,0.745,0.188,1.901c-1.156,0.564-2.227,1.312-3.164,2.248l-2.193,2.193c-4.588,4.587-4.588,12.053,0,16.64   l6.109,6.109c0.297,0.296,0.607,0.571,0.928,0.832c2.037,3.511,5.842,5.88,10.197,5.88h14.975c6.488,0,11.766-5.257,11.766-11.718   V50.267C74.061,47.907,72.143,45.988,69.783,45.988z M71.922,77.67c0,5.281-4.318,9.578-9.627,9.578H47.32   c-1.766,0-3.416-0.482-4.84-1.312c-1.516-1.078-2.977-2.285-3.699-3.86c-0.691-1.321-1.088-2.817-1.088-4.406   c0-0.591-0.48-1.07-1.07-1.07s-1.07,0.479-1.07,1.07c0,0.483,0.033,0.96,0.092,1.429l-4.047-4.046   c-3.752-3.753-3.752-9.859,0-13.614l2.193-2.192c0.533-0.532,1.123-0.986,1.748-1.374c0.01,0.465,0.014,0.968,0.014,1.518v5.697   c0,0.591,0.48,1.069,1.07,1.069s1.07-0.479,1.07-1.069V59.39c0-0.956-0.016-1.782-0.041-2.5c-0.02-0.806-0.055-1.441-0.121-2.188   c-0.084-1.033-0.172-1.512-0.18-1.549c-0.006-0.027-0.012-0.055-0.02-0.082l-6.924-25.408c-0.494-1.852,0.609-3.761,2.461-4.256   c1.854-0.494,3.762,0.609,4.26,2.466l7.555,27.827c0.141,0.518,0.643,0.851,1.172,0.779c0.533-0.07,0.93-0.523,0.93-1.06V20.462   c0-1.917,1.559-3.477,3.477-3.477c1.916,0,3.477,1.56,3.477,3.477v32.824c0,0.537,0.398,0.992,0.932,1.061   c0.537,0.074,1.037-0.271,1.172-0.79L62.775,27c0.498-1.851,2.41-2.951,4.262-2.453c1.85,0.498,2.951,2.41,2.453,4.262   l-6.502,24.267c-0.152,0.57,0.188,1.157,0.758,1.311c0.57,0.152,1.156-0.186,1.311-0.757l1.15-4.3   c0.322-1.202,0.729-1.202,0.9-1.202h2.676c1.18,0,2.139,0.96,2.139,2.14V77.67z"/>
	<path fill="#000000" d="M58.705,66.158l-3.209-3.209c-0.006-0.006-0.014-0.011-0.02-0.017c-0.043-0.042-0.09-0.082-0.141-0.115   c-0.02-0.014-0.041-0.022-0.062-0.033c-0.039-0.023-0.078-0.048-0.121-0.065c-0.025-0.011-0.053-0.016-0.076-0.024   c-0.041-0.014-0.08-0.029-0.123-0.037c-0.07-0.014-0.141-0.021-0.213-0.021l0,0l0,0c-0.006,0-0.01,0.001-0.014,0.001   c-0.066,0.001-0.133,0.008-0.197,0.021c-0.053,0.01-0.1,0.027-0.15,0.046c-0.016,0.005-0.033,0.008-0.049,0.016   c-0.055,0.022-0.105,0.051-0.154,0.082c-0.01,0.006-0.02,0.009-0.031,0.016c-0.057,0.04-0.113,0.085-0.162,0.135l-3.207,3.207   c-0.418,0.418-0.418,1.095,0,1.513s1.096,0.418,1.512,0l1.385-1.384V79.75c0,0.591,0.479,1.069,1.068,1.069   c0.592,0,1.07-0.479,1.07-1.069V66.287l1.383,1.384c0.209,0.209,0.482,0.312,0.756,0.312s0.547-0.104,0.756-0.312   C59.123,67.253,59.123,66.576,58.705,66.158z"/>
</g>
</svg>