<svg xmlns="http://www.w3.org/2000/svg" xmlns:xlink="http://www.w3.org/1999/xlink" version="1.1" x="0px" y="0px" width="100px" height="100px" viewBox="0 0 100 100" enable-background="new 0 0 100 100" xml:space="preserve">
<g id="Captions">
</g>
<g id="Your_Icon">
	<path fill="#000000" d="M21.315,60.615c-3.829-0.785-6.716-4.18-6.716-8.238c0-4.635,3.771-8.408,8.41-8.408   c4.635,0,8.408,3.773,8.408,8.408c0,1.578-0.444,3.05-1.203,4.312l0.997,2.247c1.441-1.8,2.31-4.078,2.31-6.56   c0-5.793-4.715-10.51-10.512-10.51s-10.514,4.717-10.514,10.51c0,5.562,4.343,10.115,9.812,10.479L21.315,60.615z"/>
	<path fill="#000000" d="M77.777,30.219c-1.272,0-2.485,0.252-3.6,0.698c0.228-0.824,0.359-1.688,0.359-2.585   c0-5.361-4.363-9.725-9.727-9.725c-2.223,0-4.267,0.758-5.906,2.016c-0.203-5.187-4.473-9.344-9.707-9.344   c-5.015,0-9.152,3.812-9.67,8.693c-1.725-1.552-3.997-2.506-6.494-2.506c-5.365,0-9.729,4.363-9.729,9.727   c0,4.642,3.269,8.526,7.624,9.491l-0.651-2.39c-2.845-1.107-4.869-3.869-4.869-7.102c0-4.203,3.42-7.623,7.625-7.623   c3.068,0,5.712,1.826,6.92,4.445c0.106,0.325,0.23,0.642,0.369,0.95c0.216,0.705,0.334,1.453,0.334,2.228   c0,1.836-0.652,3.522-1.737,4.84l0.642,2.364c1.723-1.562,3.03-3.733,3.288-6.172C43.453,28.771,44,29.236,45,29.617v-2.48   c-1-0.763-2.029-1.768-2.575-2.948c-0.106-0.328-0.306-0.646-0.444-0.958c-0.217-0.704-0.37-1.451-0.37-2.225   c0-4.205,3.4-7.625,7.605-7.625c4.203,0,7.615,3.42,7.615,7.625c0,0.854-0.151,1.674-0.412,2.441   c-0.283,0.485-0.351,0.996-0.548,1.529C55.342,25.839,54,26.582,54,27.175v2.462c0-0.266,0.824-0.572,1.279-0.921   c0.105,2.689,1.223,5.096,3.082,6.796l0.577-2.38c-1.065-1.312-1.729-2.981-1.729-4.8c0-0.856,0.138-1.678,0.399-2.447   c0.281-0.482,0.515-0.99,0.711-1.52c1.341-2.188,3.744-3.656,6.494-3.656c4.203,0,7.621,3.42,7.621,7.623   c0,3.264-2.063,6.046-4.95,7.132l-0.636,2.37c0.537-0.116,1.061-0.271,1.562-0.472c-0.228,0.824-0.359,1.688-0.359,2.583   c0,1.569,0.382,3.048,1.045,4.361l1.436-2.004c-0.242-0.743-0.377-1.534-0.377-2.357c0-4.203,3.418-7.623,7.623-7.623   c4.203,0,7.623,3.635,7.623,7.838S81.98,48,77.777,48c-0.008,0-0.016,0-0.023,0l-1.422,1.768c0.474,0.07,0.953,0.012,1.445,0.012   c5.363,0,9.727-4.417,9.727-9.78S83.141,30.219,77.777,30.219z"/>
	<path fill="#000000" d="M83.176,39.037c-0.24-1.455-1.033-2.73-2.23-3.59c-2.477-1.771-5.932-1.201-7.705,1.271l-7.992,11.15   l4.865-18.158c0.791-2.939-0.957-5.975-3.898-6.766c-2.939-0.789-5.975,0.955-6.768,3.904l-4.748,18.189V20.961   c0-3.045-2.477-5.521-5.52-5.521c-3.047,0-5.521,2.477-5.521,5.521v24.514l-5.361-19.742c-0.785-2.941-3.818-4.695-6.76-3.908   c-2.939,0.785-4.693,3.818-3.906,6.764l6.795,24.934c0.043,0.258,0.295,1.957,0.295,5.709v1.912l-1.662-0.635l-4.676-10.537   c-0.947-2.137-3.07-3.52-5.41-3.52c-0.826,0-1.633,0.172-2.395,0.51c-2.98,1.322-4.33,4.824-3.008,7.807l5.184,11.686   c1.795,4.221,4.988,8.061,6.59,9.662l6.008,6.008c0.291,0.291,0.596,0.562,0.912,0.818c2,3.451,5.742,5.779,10.023,5.779H61.01   c6.377,0,11.566-5.168,11.566-11.52v-20.6l9.639-13.449C83.074,41.953,83.416,40.492,83.176,39.037z M80.504,41.926L70.67,55.648   c-0.129,0.18-0.197,0.395-0.197,0.613v20.939c0,5.193-4.246,9.416-9.463,9.416H46.287c-1.736,0-3.357-0.475-4.756-1.289   c-1.625-0.99-3.07-2.484-3.639-3.795c-0.68-1.297-1.07-2.77-1.07-4.332c0-0.58-0.471-1.051-1.053-1.051   c-0.58,0-1.049,0.471-1.049,1.051c0,0.477,0.031,0.943,0.086,1.406l-3.975-3.979c-1.939-1.939-4.689-5.582-6.146-9.014   l-5.193-11.701c-0.852-1.922,0.02-4.178,1.939-5.031c0.49-0.217,1.012-0.328,1.541-0.328c1.508,0,2.877,0.891,3.488,2.27   l4.854,10.938c0.113,0.256,0.324,0.457,0.586,0.555l2.82,1.076v1.438c0,0.58,0.469,1.053,1.049,1.053   c0.582,0,1.053-0.473,1.053-1.053v-5.6c0-4.32-0.32-6.061-0.336-6.131c-0.004-0.027-0.01-0.055-0.018-0.08l-6.807-24.98   c-0.486-1.82,0.598-3.699,2.42-4.184c1.82-0.486,3.697,0.6,4.184,2.424l7.43,27.355c0.137,0.51,0.627,0.836,1.152,0.768   c0.521-0.068,0.912-0.516,0.912-1.043V20.961c0-1.885,1.533-3.418,3.42-3.418c1.883,0,3.416,1.533,3.416,3.418v32.27   c0,0.529,0.393,0.975,0.918,1.043c0.521,0.068,1.018-0.266,1.152-0.777l6.814-26.107c0.49-1.82,2.373-2.9,4.188-2.412   c1.82,0.488,2.904,2.367,2.414,4.189l-6.359,23.74c-0.131,0.49,0.107,1.006,0.566,1.223s1.008,0.076,1.305-0.338l11.357-15.848   c1.096-1.531,3.236-1.883,4.768-0.787c0.742,0.533,1.232,1.322,1.381,2.223S81.037,41.184,80.504,41.926z"/>
	<path fill="#000000" d="M61.48,69.947H48.248l1.357-1.357c0.412-0.412,0.412-1.076,0-1.488c-0.412-0.41-1.076-0.41-1.486,0   l-3.15,3.152c-0.053,0.049-0.096,0.104-0.135,0.162c-0.004,0.006-0.006,0.01-0.008,0.014c-0.033,0.053-0.062,0.107-0.09,0.168   c-0.004,0.012-0.006,0.023-0.012,0.035c-0.018,0.053-0.037,0.105-0.047,0.16c-0.014,0.059-0.018,0.119-0.018,0.18   c0,0.01-0.004,0.018-0.004,0.027l0,0v0.002c0,0.07,0.006,0.139,0.021,0.207c0.008,0.037,0.021,0.072,0.033,0.107   c0.008,0.031,0.014,0.059,0.027,0.09c0.016,0.037,0.035,0.068,0.055,0.104c0.016,0.025,0.025,0.053,0.043,0.076   c0.021,0.035,0.051,0.064,0.076,0.096c0.018,0.02,0.033,0.045,0.053,0.062l3.154,3.154c0.205,0.207,0.473,0.307,0.744,0.307   c0.268,0,0.539-0.1,0.742-0.307c0.412-0.41,0.412-1.076,0-1.488l-1.359-1.359H61.48c0.582,0,1.053-0.471,1.053-1.051   S62.062,69.947,61.48,69.947z"/>
</g>
</svg>