<svg xmlns="http://www.w3.org/2000/svg" xmlns:xlink="http://www.w3.org/1999/xlink" version="1.1" x="0px" y="0px" width="100px" height="100px" viewBox="0 0 100 100" enable-background="new 0 0 100 100" xml:space="preserve">
<g id="Captions">
</g>
<g id="Your_Icon">
	<path fill="#000000" d="M72.434,30.165c-1.275,0-2.49,0.253-3.608,0.7c0.229-0.827,0.36-1.693,0.36-2.591   c0-5.378-4.375-9.754-9.754-9.754c-2.229,0-4.277,0.759-5.922,2.021c-0.204-5.199-4.485-9.369-9.734-9.369   c-5.027,0-9.179,3.825-9.697,8.718c-1.729-1.556-4.008-2.512-6.512-2.512c-5.379,0-9.754,4.375-9.754,9.754   c0,4.654,3.277,8.55,7.644,9.518l-0.653-2.398c-2.852-1.111-4.881-3.88-4.881-7.119c0-4.215,3.43-7.645,7.645-7.645   c3.076,0,5.729,1.831,6.939,4.458c0.106,0.325,0.231,0.643,0.37,0.952c0.217,0.707,0.335,1.457,0.335,2.234   c0,1.841-0.654,3.531-1.742,4.853l0.644,2.371c1.728-1.567,2.755-3.745,3.014-6.188C37.732,28.714,39,29.181,39,29.563v-2.487   c-1-0.766-1.753-1.773-2.3-2.958c-0.106-0.329-0.163-0.648-0.304-0.96c-0.217-0.707-0.3-1.456-0.3-2.232   c0-4.215,3.446-7.644,7.661-7.644s7.655,3.429,7.655,7.644c0,0.855-0.143,1.676-0.403,2.445c-0.286,0.488-0.646,1.004-0.844,1.542   C49.636,25.776,49,26.521,48,27.114v2.469c1-0.267,1.122-0.573,1.578-0.924c0.105,2.696,1.374,5.108,3.238,6.813l0.652-2.387   c-1.068-1.314-1.696-2.989-1.696-4.812c0-0.858,0.155-1.681,0.417-2.451c0.283-0.484,0.527-0.995,0.724-1.528   c1.346-2.193,3.761-3.664,6.517-3.664c4.215,0,7.646,3.428,7.646,7.644c0,3.271-2.068,6.061-4.963,7.149l-0.637,2.377   c0.538-0.117,1.062-0.271,1.564-0.473c-0.229,0.826-0.36,1.692-0.36,2.59c0,1.574,0.384,3.058,1.049,4.375l1.439-2.01   c-0.243-0.745-0.379-1.539-0.379-2.365c0-4.215,3.43-7.645,7.645-7.645s7.645,3.648,7.645,7.863c0,4.216-3.43,7.863-7.645,7.863   c-0.008,0-0.015,0-0.022,0l-1.426,1.771c0.474,0.07,0.955,0.01,1.448,0.01c5.377,0,9.754-4.43,9.754-9.809   C82.188,34.595,77.811,30.165,72.434,30.165z"/>
	<path fill="#000000" d="M77.846,39.007c-0.24-1.459-1.035-2.735-2.236-3.599c-2.482-1.778-5.947-1.205-7.725,1.274l-8.014,11.182   l4.877-18.208c0.793-2.948-0.959-5.991-3.906-6.785c-2.949-0.792-5.992,0.961-6.787,3.916l-4.762,18.239V20.883   c0-3.053-2.484-5.537-5.535-5.537c-3.053,0-5.537,2.484-5.537,5.537v24.579l-5.375-19.796c-0.787-2.948-3.828-4.707-6.777-3.919   c-2.947,0.788-4.707,3.828-3.918,6.782l6.814,25.003c0.023,0.144,0.111,0.735,0.184,1.874c-1.139,0.558-2.195,1.294-3.119,2.218   l-2.16,2.161c-2.191,2.19-3.396,5.104-3.396,8.2c0,3.1,1.205,6.012,3.396,8.202l6.023,6.023c0.291,0.293,0.598,0.563,0.914,0.819   c2.006,3.461,5.758,5.797,10.049,5.797h14.764c6.396,0,11.6-5.183,11.6-11.552V56.619l9.664-13.486   C77.744,41.933,78.086,40.466,77.846,39.007z M75.168,41.904l-9.861,13.762c-0.129,0.18-0.197,0.394-0.197,0.613v20.996   c0,5.207-4.258,9.443-9.49,9.443H40.855c-1.738,0-3.363-0.477-4.768-1.293c-1.684-0.983-2.914-2.318-3.648-3.807   c-0.682-1.301-1.072-2.776-1.072-4.344c0-0.582-0.473-1.054-1.055-1.054s-1.055,0.472-1.055,1.054c0,0.479,0.033,0.947,0.09,1.409   l-3.986-3.987c-1.793-1.793-2.781-4.176-2.781-6.712c0-2.534,0.988-4.917,2.781-6.709l2.16-2.162   c0.525-0.524,1.105-0.972,1.721-1.354c0.01,0.458,0.016,0.952,0.016,1.495v5.615c0,0.583,0.473,1.055,1.055,1.055   s1.055-0.472,1.055-1.055v-5.615c0-0.943-0.016-1.756-0.041-2.464c-0.039-0.952-0.074-1.575-0.117-2.157   c-0.084-1.02-0.17-1.491-0.178-1.527c-0.006-0.027-0.012-0.055-0.02-0.08L24.188,27.98c-0.488-1.826,0.6-3.708,2.426-4.196   c1.826-0.486,3.707,0.602,4.195,2.431l7.449,27.431c0.139,0.512,0.631,0.84,1.156,0.77c0.525-0.069,0.916-0.517,0.916-1.046V20.883   c0-1.89,1.537-3.428,3.428-3.428c1.889,0,3.426,1.538,3.426,3.428v32.356c0,0.53,0.395,0.979,0.92,1.046   c0.521,0.064,1.021-0.267,1.156-0.779l6.834-26.179c0.49-1.825,2.377-2.908,4.199-2.419c1.824,0.491,2.91,2.376,2.418,4.201   l-6.375,23.805c-0.133,0.493,0.107,1.009,0.566,1.227c0.461,0.217,1.012,0.074,1.309-0.339l11.387-15.891   c1.102-1.536,3.248-1.888,4.783-0.788c0.744,0.533,1.234,1.324,1.385,2.228C75.914,40.254,75.703,41.16,75.168,41.904z"/>
	<path fill="#000000" d="M57.029,71.643c0.018-0.025,0.029-0.053,0.043-0.078c0.018-0.035,0.039-0.067,0.055-0.104   c0.014-0.034,0.021-0.07,0.033-0.105c0.008-0.031,0.02-0.061,0.025-0.092c0.027-0.136,0.027-0.275,0-0.412   c-0.006-0.031-0.018-0.062-0.025-0.092c-0.012-0.035-0.02-0.07-0.033-0.105c-0.016-0.036-0.037-0.069-0.055-0.103   c-0.014-0.026-0.025-0.054-0.043-0.078c-0.037-0.059-0.082-0.113-0.131-0.161l-3.164-3.163c-0.41-0.413-1.078-0.413-1.49,0   c-0.412,0.411-0.412,1.079,0,1.49l1.363,1.364H40.336c-0.582,0-1.055,0.472-1.055,1.054s0.473,1.054,1.055,1.054h13.271   l-1.363,1.365c-0.412,0.411-0.412,1.078,0,1.49c0.205,0.206,0.475,0.309,0.746,0.309c0.27,0,0.539-0.103,0.744-0.309l3.164-3.163   C56.947,71.755,56.992,71.7,57.029,71.643z"/>
</g>
</svg>