<svg xmlns="http://www.w3.org/2000/svg" xmlns:xlink="http://www.w3.org/1999/xlink" version="1.1" x="0px" y="0px" width="100px" height="100px" viewBox="0 0 100 100" enable-background="new 0 0 100 100" xml:space="preserve">
<g id="Captions">
</g>
<g id="Your_Icon">
	<path fill="#000000" d="M36,31.344c0-0.914,0-1.78,0-2.593c-2-1.458-3.398-3.812-3.398-6.473c0-4.417,3.547-8.009,7.963-8.009   c4.417,0,7.882,3.593,7.882,8.009c0,2.663-1.446,5.02-3.446,6.477v2.591c3-1.704,5.634-5.125,5.634-9.068   c0-5.635-4.532-10.219-10.167-10.219s-10.103,4.584-10.103,10.219C30.364,26.219,33,29.64,36,31.344z"/>
	<path fill="#000000" d="M70.07,43.117h-2.764c-0.776,0-1.574,0.188-2.273,0.531c-0.363-2.075-2.177-3.657-4.354-3.657h-2.761   c-0.911,0-1.759,0.278-2.463,0.751c-0.608-1.713-2.246-2.944-4.165-2.944h-2.763c-0.805,0-1.56,0.216-2.209,0.593V22.278   c0-3.198-2.603-5.8-5.801-5.8s-5.8,2.603-5.8,5.8v30.591c-1.239,0.589-2.389,1.38-3.388,2.379l-2.265,2.265   c-4.738,4.738-4.738,12.447,0,17.186l6.31,6.31c0.31,0.31,0.635,0.597,0.97,0.868c2.104,3.621,6.032,6.064,10.525,6.064h15.467   c6.7,0,12.151-5.429,12.151-12.103V47.536C74.488,45.1,72.506,43.117,70.07,43.117z M72.279,75.838c0,5.455-4.46,9.894-9.942,9.894   H46.87c-1.821,0-3.524-0.498-4.994-1.354c-1.219-0.729-2.578-1.788-3.821-3.981c-0.717-1.366-1.127-2.915-1.127-4.559   c0-0.61-0.496-1.104-1.104-1.104c-0.61,0-1.105,0.494-1.105,1.104c0,0.504,0.035,0.997,0.095,1.483l-4.185-4.186   c-3.876-3.877-3.876-10.184,0-14.061l2.264-2.264c0.558-0.558,1.174-1.03,1.826-1.434v7.567c0,0.61,0.495,1.105,1.105,1.105   c0.608,0,1.104-0.495,1.104-1.105V22.278c0-1.98,1.61-3.591,3.59-3.591c1.98,0,3.591,1.611,3.591,3.591v28.377   c0,0.61,0.494,1.105,1.104,1.105s1.105-0.495,1.105-1.105v-8.44c0-1.217,0.99-2.209,2.209-2.209h2.763   c1.217,0,2.209,0.992,2.209,2.209v8.452c0,0.609,0.494,1.104,1.104,1.104c0.609,0,1.104-0.495,1.104-1.104v-6.259   c0-1.217,0.99-2.209,2.21-2.209h2.761c1.219,0,2.21,0.992,2.21,2.209v6.247c0,0.61,0.494,1.105,1.105,1.105   c0.609,0,1.104-0.495,1.104-1.105v-4.004c0-0.644,1.135-1.324,2.208-1.324h2.764c1.217,0,2.209,0.99,2.209,2.208V75.838z"/>
	<path fill="#000000" d="M63.81,69.55c0.01-0.015,0.017-0.032,0.024-0.047c0.028-0.046,0.056-0.093,0.077-0.144   c0.008-0.021,0.013-0.043,0.021-0.065c0.016-0.046,0.032-0.092,0.043-0.14c0.015-0.072,0.021-0.146,0.021-0.219   s-0.007-0.148-0.021-0.219c-0.011-0.045-0.024-0.088-0.04-0.131c-0.009-0.024-0.014-0.052-0.023-0.076   c-0.019-0.044-0.044-0.086-0.068-0.127c-0.012-0.021-0.021-0.043-0.033-0.062c-0.036-0.053-0.077-0.101-0.119-0.146   c-0.007-0.007-0.011-0.015-0.019-0.021l-2.484-2.484c-0.432-0.432-1.131-0.433-1.563,0c-0.431,0.433-0.431,1.131,0,1.563   l0.601,0.598h-4.514v-4.514l0.6,0.601c0.216,0.215,0.497,0.322,0.781,0.322c0.283,0,0.565-0.107,0.781-0.322   c0.432-0.432,0.432-1.132,0-1.562l-2.485-2.485c-0.02-0.021-0.044-0.035-0.065-0.055c-0.032-0.027-0.064-0.057-0.1-0.082   c-0.026-0.017-0.054-0.029-0.082-0.043c-0.036-0.02-0.07-0.044-0.109-0.058c-0.028-0.014-0.062-0.021-0.092-0.03   c-0.038-0.012-0.073-0.026-0.115-0.034c-0.069-0.015-0.145-0.021-0.217-0.021c0,0,0,0-0.001,0l0,0c-0.011,0-0.02,0.002-0.03,0.002   c-0.064,0.002-0.126,0.006-0.188,0.019c-0.058,0.013-0.113,0.03-0.168,0.052c-0.012,0.005-0.025,0.007-0.038,0.013   c-0.062,0.024-0.121,0.058-0.177,0.093c-0.004,0.003-0.008,0.005-0.013,0.008c-0.062,0.041-0.118,0.088-0.171,0.142l-2.483,2.481   c-0.431,0.431-0.431,1.131,0,1.562c0.433,0.431,1.131,0.431,1.562,0l0.601-0.6v4.513h-4.514l0.6-0.598   c0.431-0.433,0.431-1.131,0-1.563c-0.432-0.433-1.132-0.432-1.562,0l-2.487,2.484c-0.006,0.006-0.011,0.014-0.016,0.021   c-0.044,0.046-0.085,0.094-0.12,0.146c-0.014,0.02-0.022,0.042-0.035,0.062c-0.022,0.041-0.049,0.083-0.066,0.127   c-0.011,0.024-0.016,0.052-0.024,0.076c-0.014,0.043-0.03,0.086-0.039,0.131c-0.015,0.07-0.022,0.146-0.022,0.219   s0.008,0.146,0.022,0.219c0.01,0.048,0.026,0.094,0.042,0.14c0.008,0.022,0.013,0.045,0.021,0.065   c0.02,0.051,0.049,0.098,0.076,0.144c0.009,0.015,0.016,0.032,0.024,0.047c0.041,0.061,0.086,0.116,0.138,0.168l2.486,2.484   c0.215,0.216,0.498,0.323,0.78,0.323c0.281,0,0.564-0.107,0.781-0.323c0.431-0.432,0.431-1.131,0-1.562l-0.6-0.601h4.514v4.514   l-0.601-0.6c-0.432-0.431-1.13-0.431-1.562,0c-0.431,0.432-0.431,1.132,0,1.562l2.483,2.482c0.053,0.053,0.108,0.1,0.171,0.142   c0.008,0.005,0.016,0.007,0.024,0.012c0.053,0.034,0.107,0.065,0.165,0.088c0.017,0.008,0.035,0.011,0.052,0.018   c0.051,0.018,0.102,0.035,0.153,0.047c0.063,0.012,0.126,0.017,0.191,0.02c0.01,0,0.018,0.002,0.027,0.002l0,0   c0.001,0,0.001,0,0.001,0c0.072,0,0.147-0.008,0.217-0.021c0.042-0.009,0.077-0.022,0.115-0.034c0.03-0.011,0.063-0.018,0.092-0.03   c0.039-0.015,0.073-0.038,0.109-0.058c0.028-0.015,0.056-0.027,0.082-0.044c0.035-0.024,0.067-0.055,0.1-0.082   c0.021-0.019,0.046-0.033,0.065-0.054l2.485-2.486c0.432-0.431,0.432-1.131,0-1.562c-0.433-0.431-1.131-0.431-1.562,0l-0.6,0.6   v-4.514h4.514l-0.601,0.601c-0.431,0.432-0.431,1.131,0,1.562c0.217,0.216,0.499,0.323,0.782,0.323s0.565-0.107,0.781-0.323   l2.484-2.484C63.724,69.666,63.77,69.61,63.81,69.55z"/>
</g>
</svg>