<svg xmlns="http://www.w3.org/2000/svg" xmlns:xlink="http://www.w3.org/1999/xlink" version="1.1" x="0px" y="0px" width="100px" height="100px" viewBox="0 0 100 100" enable-background="new 0 0 100 100" xml:space="preserve">
<g id="Captions">
</g>
<g id="Your_Icon">
	<path fill="#000000" d="M31.88,33.879c-2.988-1.109-5.128-3.981-5.128-7.352c0-4.327,3.521-7.848,7.848-7.848   c4.328,0,7.848,3.521,7.848,7.848c0,1.844-0.644,3.538-1.712,4.879l0.667,2.456c1.747-1.621,3.055-3.855,3.298-6.358   c0.648,0.597,1.3,1.106,2.3,1.519v-2.535c-2-1.429-3.383-3.736-3.383-6.343c0-4.327,3.453-7.848,7.779-7.848   c4.328,0,7.85,3.521,7.85,7.848c0,2.607-1.246,4.917-3.246,6.345v2.538c3-1.669,5.376-5.021,5.376-8.883   c0-5.521-4.509-10.013-10.03-10.013c-5.191,0-9.479,3.972-9.971,9.037c-1.784-1.642-4.161-2.653-6.771-2.653   c-5.52,0-10.015,4.491-10.015,10.012c0,4.817,3.42,8.849,7.958,9.799L31.88,33.879z"/>
	<path fill="#000000" d="M71.08,45.949h-2.705c-0.809,0-1.574,0.188-2.23,0.512c-0.357-2.028-2.135-3.574-4.264-3.574h-2.707   c-0.787,0-1.527,0.211-2.164,0.581V20.12c0-3.134-2.551-5.683-5.684-5.683s-5.682,2.549-5.682,5.683v25.232L40.127,25.03   c-0.809-3.026-3.93-4.835-6.957-4.022c-3.027,0.81-4.832,3.93-4.021,6.962l6.994,25.667c0.023,0.147,0.113,0.754,0.189,1.925   c-1.17,0.571-2.254,1.327-3.201,2.275l-2.219,2.219c-4.643,4.642-4.643,12.195,0,16.838l6.182,6.183   c0.299,0.299,0.613,0.578,0.939,0.841c2.059,3.554,5.91,5.951,10.316,5.951h15.154c6.566,0,11.906-5.319,11.906-11.857V50.278   C75.41,47.892,73.469,45.949,71.08,45.949z M73.246,78.011c0,5.345-4.371,9.692-9.742,9.692H48.35   c-1.785,0-3.457-0.488-4.896-1.327c-0.914-0.425-2.701-1.958-3.744-3.907c-0.699-1.336-1.102-2.851-1.102-4.458   c0-0.598-0.484-1.083-1.082-1.083s-1.082,0.485-1.082,1.083c0,0.489,0.033,0.971,0.092,1.445l-4.094-4.094   c-3.797-3.798-3.797-9.979,0-13.776l2.219-2.219c0.541-0.539,1.137-0.998,1.768-1.391c0.01,0.471,0.016,0.979,0.016,1.535v5.766   c0,0.598,0.484,1.082,1.082,1.082s1.082-0.484,1.082-1.082v-5.766c0-0.968-0.016-1.803-0.041-2.528   c-0.037-0.919-0.104-1.797-0.121-2.215c-0.086-1.047-0.174-1.53-0.182-1.568c-0.006-0.028-0.012-0.056-0.02-0.082l-7.006-25.713   c-0.502-1.873,0.615-3.805,2.49-4.306c1.873-0.501,3.807,0.616,4.309,2.494l7.645,28.16c0.143,0.523,0.65,0.86,1.188,0.789   c0.537-0.072,0.939-0.531,0.939-1.073V20.12c0-1.94,1.578-3.519,3.518-3.519s3.518,1.578,3.518,3.519v33.228   c0,0.598,0.486,1.082,1.084,1.082s1.082-0.484,1.082-1.082v-6.131c0-1.194,0.971-2.165,2.164-2.165h2.707   c1.193,0,2.164,0.971,2.164,2.165v6.12c0,0.598,0.484,1.082,1.082,1.082s1.084-0.484,1.084-1.082v-3.924   c0-0.512,0.93-1.3,2.164-1.3h2.705c1.193,0,2.166,0.972,2.166,2.165V78.011z"/>
	<path fill="#000000" d="M62.938,65.211c-0.41-0.436-1.096-0.457-1.529-0.049c-0.438,0.41-0.459,1.095-0.049,1.53   c1.229,1.309,1.906,3.02,1.906,4.816c0,3.88-3.156,7.036-7.035,7.036c-3.881,0-7.037-3.156-7.037-7.036   c0-3.163,2.1-5.845,4.979-6.728l-1.221,1.886c-0.324,0.502-0.182,1.172,0.32,1.496c0.182,0.118,0.387,0.174,0.588,0.174   c0.354,0,0.701-0.174,0.908-0.494l2.496-3.854c0.156-0.241,0.209-0.534,0.15-0.815c-0.061-0.28-0.23-0.525-0.471-0.682   l-3.855-2.494c-0.502-0.326-1.174-0.181-1.496,0.32c-0.326,0.502-0.182,1.172,0.32,1.496l1.469,0.951   c-3.682,1.203-6.352,4.665-6.352,8.744c0,5.073,4.127,9.201,9.201,9.201c5.072,0,9.199-4.128,9.199-9.201   C65.43,69.159,64.545,66.923,62.938,65.211z"/>
</g>
</svg>