<svg xmlns="http://www.w3.org/2000/svg" xmlns:xlink="http://www.w3.org/1999/xlink" version="1.1" x="0px" y="0px" width="100px" height="100px" viewBox="0 0 100 100" enable-background="new 0 0 100 100" xml:space="preserve">
<g id="Captions">
</g>
<g id="Your_Icon">
	<path fill="#000000" d="M66.162,18.066c-2.261,0-4.34,0.771-6.008,2.051c-0.207-5.275-4.55-9.504-9.875-9.504   c-5.101,0-9.31,3.88-9.835,8.844c-1.754-1.578-4.066-2.549-6.606-2.549c-5.455,0-9.895,4.438-9.895,9.895   c0,4.721,3.325,8.673,7.754,9.654l-0.663-2.432c-2.893-1.127-4.952-3.937-4.952-7.223c0-4.275,3.48-7.756,7.756-7.756   c3.124,0,5.815,1.861,7.042,4.53c0.107,0.326,0.232,0.645,0.371,0.956c0.221,0.718,0.341,1.48,0.341,2.27   c0,1.867-0.664,3.582-1.767,4.922l0.653,2.406c1.752-1.591,3.076-3.799,3.339-6.278C44.433,28.406,45,28.879,46,29.268v-2.523   c-1-0.774-2.058-1.796-2.612-2.994c-0.109-0.336-0.31-0.663-0.453-0.982c-0.219-0.715-0.374-1.474-0.374-2.26   c0-4.277,3.461-7.756,7.736-7.756c4.277,0,7.747,3.479,7.747,7.756c0,0.869-0.154,1.703-0.419,2.483   c-0.288,0.493-0.438,1.013-0.639,1.556C56.447,25.424,56,26.181,55,26.784v2.503c0-0.271,0.921-0.582,1.384-0.937   c0.107,2.735,1.284,5.183,3.177,6.912l0.608-2.419c-1.085-1.334-1.751-3.033-1.751-4.883c0-0.87,0.145-1.704,0.41-2.485   c0.287-0.492,0.528-1.012,0.729-1.553c1.365-2.225,3.812-3.716,6.607-3.716c4.275,0,7.755,3.479,7.755,7.754   c0,3.318-2.102,6.149-5.039,7.255l-0.647,2.418c4.464-0.955,7.824-4.928,7.824-9.673C76.057,22.506,71.617,18.066,66.162,18.066z"/>
	<path fill="#000000" d="M69.783,45.988h-2.676c-0.002,0-0.004,0-0.006,0l4.453-16.625c0.805-2.99-0.973-6.078-3.963-6.883   c-2.99-0.803-6.078,0.973-6.885,3.973l-4.83,18.502V20.463c0-3.098-2.52-5.617-5.615-5.617c-3.098,0-5.617,2.52-5.617,5.617v24.934   l-5.451-20.082c-0.799-2.992-3.883-4.775-6.875-3.975c-2.992,0.799-4.775,3.883-3.975,6.879l6.912,25.365   c0.023,0.146,0.111,0.744,0.188,1.9c-1.156,0.566-2.229,1.314-3.164,2.25l-2.193,2.191c-4.588,4.588-4.588,12.053,0,16.641   l6.109,6.109c0.297,0.295,0.607,0.572,0.928,0.832c2.037,3.51,5.842,5.879,10.197,5.879h14.975c6.488,0,11.766-5.256,11.766-11.717   V50.266C74.061,47.906,72.143,45.988,69.783,45.988z M71.922,77.67c0,5.281-4.318,9.578-9.627,9.578H47.32   c-1.766,0-3.416-0.482-4.84-1.311c-1.516-1.078-2.977-2.287-3.699-3.861c-0.691-1.32-1.088-2.816-1.088-4.406   c0-0.592-0.48-1.07-1.07-1.07s-1.07,0.479-1.07,1.07c0,0.482,0.033,0.959,0.092,1.43l-4.047-4.047   c-3.752-3.754-3.752-9.859,0-13.615l2.193-2.191c0.533-0.531,1.123-0.986,1.748-1.373c0.008,0.465,0.014,0.967,0.014,1.518v5.695   c0,0.592,0.48,1.07,1.07,1.07s1.07-0.479,1.07-1.07v-5.695c0-0.957-0.016-1.783-0.041-2.5c-0.02-0.807-0.055-1.441-0.121-2.189   c-0.084-1.033-0.172-1.512-0.178-1.549c-0.008-0.027-0.014-0.055-0.021-0.082l-6.924-25.408c-0.494-1.852,0.609-3.762,2.461-4.256   c1.854-0.494,3.762,0.609,4.258,2.465l7.557,27.828c0.139,0.518,0.643,0.85,1.172,0.779c0.531-0.07,0.93-0.523,0.93-1.061V20.463   c0-1.918,1.559-3.477,3.477-3.477c1.916,0,3.477,1.559,3.477,3.477v32.824c0,0.537,0.398,0.992,0.932,1.061   c0.537,0.074,1.037-0.271,1.172-0.791L62.775,27c0.498-1.852,2.41-2.951,4.262-2.453c1.85,0.498,2.951,2.41,2.451,4.262   l-6.5,24.268c-0.152,0.57,0.188,1.156,0.758,1.309c0.57,0.154,1.156-0.186,1.311-0.756l1.15-4.299   c0.322-1.203,0.727-1.203,0.9-1.203h2.676c1.18,0,2.139,0.959,2.139,2.139V77.67z"/>
	<path fill="#000000" d="M63.652,71.955c0.018-0.023,0.029-0.053,0.045-0.078c0.018-0.035,0.039-0.068,0.053-0.105   c0.016-0.035,0.023-0.07,0.033-0.107c0.012-0.029,0.021-0.061,0.029-0.092c0.027-0.139,0.027-0.279,0-0.418   c-0.008-0.033-0.018-0.062-0.029-0.094c-0.01-0.035-0.018-0.072-0.033-0.107c-0.014-0.035-0.035-0.068-0.053-0.104   c-0.016-0.027-0.027-0.055-0.045-0.08c-0.039-0.059-0.084-0.113-0.133-0.164l-3.209-3.207c-0.418-0.42-1.096-0.42-1.512,0   c-0.418,0.418-0.418,1.094,0,1.512l1.381,1.383H46.719c-0.592,0-1.07,0.479-1.07,1.07c0,0.59,0.479,1.068,1.07,1.068H60.18   l-1.381,1.385c-0.418,0.418-0.418,1.094,0,1.512c0.209,0.209,0.482,0.312,0.756,0.312s0.547-0.104,0.756-0.312l3.209-3.209   C63.568,72.07,63.613,72.016,63.652,71.955z"/>
</g>
</svg>