<svg xmlns="http://www.w3.org/2000/svg" xmlns:xlink="http://www.w3.org/1999/xlink" version="1.1" x="0px" y="0px" width="100px" height="100px" viewBox="0 0 100 100" enable-background="new 0 0 100 100" xml:space="preserve">
<g id="Captions">
</g>
<g id="Your_Icon">
	<path fill="#000000" d="M70.439,45.88h-2.762c-0.779,0-1.576,0.188-2.277,0.53c-0.361-2.074-2.176-3.657-4.352-3.657h-2.762   c-0.912,0-1.758,0.277-2.463,0.751c-0.609-1.713-2.246-2.943-4.166-2.943h-2.762c-0.803,0-1.559,0.216-2.209,0.592V25.041   c0-3.197-2.604-5.8-5.799-5.8c-3.199,0-5.801,2.603-5.801,5.8v30.59c-1.24,0.59-2.389,1.381-3.389,2.379l-2.264,2.266   c-4.74,4.738-4.74,12.447,0,17.186l6.309,6.31c0.311,0.31,0.635,0.597,0.971,0.868c2.102,3.621,6.031,6.064,10.525,6.064h15.465   c6.701,0,12.152-5.429,12.152-12.103V50.299C74.857,47.862,72.875,45.88,70.439,45.88z M72.648,78.601   c0,5.455-4.461,9.893-9.943,9.893H47.24c-1.822,0-3.525-0.497-4.996-1.353c-1.219-0.729-2.576-1.788-3.818-3.981   c-0.719-1.366-1.129-2.915-1.129-4.559c0-0.61-0.494-1.105-1.105-1.105c-0.609,0-1.104,0.495-1.104,1.105   c0,0.504,0.035,0.997,0.094,1.483l-4.184-4.186c-3.877-3.877-3.877-10.184,0-14.061l2.264-2.264   c0.557-0.558,1.172-1.03,1.826-1.434v7.567c0,0.61,0.494,1.105,1.104,1.105c0.611,0,1.105-0.495,1.105-1.105V25.041   c0-1.979,1.609-3.591,3.592-3.591c1.979,0,3.59,1.611,3.59,3.591v28.378c0,0.61,0.494,1.104,1.105,1.104   c0.609,0,1.104-0.494,1.104-1.104v-8.439c0-1.219,0.99-2.21,2.209-2.21h2.762c1.219,0,2.209,0.991,2.209,2.21v8.451   c0,0.609,0.496,1.104,1.105,1.104s1.104-0.495,1.104-1.104v-6.258c0-1.219,0.992-2.21,2.211-2.21h2.762   c1.217,0,2.209,0.991,2.209,2.21v6.246c0,0.61,0.496,1.104,1.105,1.104s1.104-0.494,1.104-1.104v-4.005   c0-0.644,1.137-1.325,2.211-1.325h2.762c1.219,0,2.209,0.991,2.209,2.21V78.601z"/>
	<path fill="#000000" d="M54.834,78.551c-2.945,0-4.926-2.313-4.926-4.476c0-0.609,0.494-1.105,1.105-1.105s1.105,0.496,1.105,1.105   c0,0.946,1.033,2.267,2.715,2.267c2.24,0,2.992-1.959,2.992-2.854c0-2.319-3.664-2.347-3.82-2.347   c-0.609,0-1.105-0.494-1.105-1.104c0-0.611,0.496-1.105,1.105-1.105c1.771,0,3.096-1.238,3.096-2.348   c0-1.37-1.586-1.519-2.268-1.519c-1.301,0-2.439,0.646-2.439,1.381c0,0.61-0.494,1.104-1.105,1.104   c-0.609,0-1.104-0.494-1.104-1.104c0-2.013,2.041-3.591,4.648-3.591c2.678,0,4.477,1.499,4.477,3.729   c0,1.235-0.605,2.372-1.57,3.203c1.354,0.73,2.295,1.946,2.295,3.701C60.035,75.529,58.383,78.551,54.834,78.551z"/>
	<path fill="#000000" d="M40.889,17.029c-0.611,0-1.105-0.494-1.105-1.104v-5.523c0-0.61,0.494-1.104,1.105-1.104   c0.609,0,1.104,0.494,1.104,1.104v5.523C41.992,16.535,41.498,17.029,40.889,17.029z"/>
	<path fill="#000000" d="M36.33,18.251c-0.381,0-0.754-0.198-0.957-0.553l-2.762-4.783c-0.305-0.528-0.125-1.204,0.402-1.51   c0.529-0.305,1.205-0.124,1.51,0.405l2.762,4.783c0.307,0.528,0.125,1.204-0.404,1.509C36.707,18.204,36.518,18.251,36.33,18.251z"/>
	<path fill="#000000" d="M32.992,21.588c-0.189,0-0.379-0.048-0.553-0.148l-4.783-2.762c-0.527-0.305-0.709-0.98-0.404-1.509   s0.982-0.709,1.51-0.404l4.783,2.762c0.527,0.305,0.709,0.981,0.404,1.509C33.744,21.39,33.373,21.588,32.992,21.588z"/>
	<path fill="#000000" d="M31.77,26.146h-5.521c-0.611,0-1.105-0.495-1.105-1.105s0.494-1.104,1.105-1.104h5.521   c0.609,0,1.105,0.494,1.105,1.104S32.379,26.146,31.77,26.146z"/>
	<path fill="#000000" d="M28.209,33.466c-0.381,0-0.752-0.198-0.957-0.553c-0.305-0.528-0.123-1.204,0.404-1.509l4.783-2.762   c0.527-0.306,1.203-0.124,1.508,0.405c0.307,0.528,0.125,1.203-0.404,1.509l-4.781,2.761   C28.588,33.418,28.398,33.466,28.209,33.466z"/>
	<path fill="#000000" d="M53.564,33.466c-0.188,0-0.377-0.048-0.551-0.148l-4.783-2.76c-0.529-0.305-0.709-0.98-0.404-1.509   c0.305-0.529,0.979-0.71,1.508-0.405l4.783,2.761c0.529,0.305,0.709,0.98,0.406,1.509C54.318,33.268,53.947,33.466,53.564,33.466z"/>
	<path fill="#000000" d="M50.004,26.147c-0.609,0-1.104-0.494-1.105-1.104c0-0.61,0.496-1.105,1.105-1.105l5.523-0.001l0,0   c0.609,0,1.104,0.494,1.104,1.104c0.002,0.609-0.492,1.104-1.104,1.105L50.004,26.147L50.004,26.147z"/>
	<path fill="#000000" d="M48.783,21.589c-0.381,0-0.752-0.198-0.957-0.552c-0.305-0.529-0.125-1.204,0.404-1.51l4.783-2.763   c0.527-0.305,1.203-0.124,1.51,0.404c0.303,0.527,0.123,1.204-0.406,1.509l-4.781,2.763C49.16,21.541,48.971,21.589,48.783,21.589z   "/>
	<path fill="#000000" d="M45.445,18.251c-0.188,0-0.377-0.047-0.551-0.147c-0.529-0.305-0.711-0.981-0.404-1.509l2.76-4.784   c0.305-0.529,0.98-0.71,1.51-0.405c0.529,0.306,0.709,0.981,0.404,1.509l-2.762,4.785C46.199,18.054,45.828,18.251,45.445,18.251z"/>
</g>
</svg>