<svg xmlns="http://www.w3.org/2000/svg" xmlns:xlink="http://www.w3.org/1999/xlink" version="1.1" x="0px" y="0px" width="100px" height="100px" viewBox="0 0 100 100" enable-background="new 0 0 100 100" xml:space="preserve">
<g id="Captions">
</g>
<g id="Your_Icon">
	<path fill="#000000" d="M36,31.346c0-0.913,0-1.779,0-2.591c-2-1.458-3.404-3.814-3.404-6.476c0-4.416,3.549-8.01,7.965-8.01   s7.883,3.594,7.883,8.01c0,2.661-1.443,5.017-3.443,6.475v2.591c3-1.704,5.629-5.125,5.629-9.066   c0-5.635-4.531-10.219-10.166-10.219S30.36,16.644,30.36,22.278C30.36,26.221,33,29.642,36,31.346z"/>
	<path fill="#000000" d="M70.069,43.117h-2.763c-0.776,0-1.575,0.188-2.273,0.53c-0.363-2.074-2.178-3.657-4.354-3.657h-2.761   c-0.912,0-1.759,0.277-2.464,0.751c-0.607-1.713-2.246-2.943-4.165-2.943h-2.762c-0.806,0-1.56,0.216-2.211,0.592V22.278   c0-3.197-2.601-5.8-5.799-5.8s-5.8,2.603-5.8,5.8v30.59c-1.239,0.59-2.389,1.381-3.389,2.379l-2.265,2.266   c-4.737,4.738-4.737,12.447,0,17.186l6.31,6.31c0.311,0.31,0.635,0.597,0.971,0.868c2.103,3.621,6.031,6.064,10.524,6.064h15.467   c6.701,0,12.152-5.429,12.152-12.103V47.536C74.488,45.1,72.506,43.117,70.069,43.117z M72.278,75.838   c0,5.455-4.46,9.893-9.942,9.893H46.869c-1.821,0-3.524-0.497-4.994-1.353c-1.219-0.729-2.578-1.788-3.82-3.981   c-0.717-1.366-1.127-2.915-1.127-4.559c0-0.61-0.496-1.105-1.104-1.105c-0.611,0-1.105,0.495-1.105,1.105   c0,0.504,0.034,0.997,0.094,1.483l-4.185-4.186c-3.876-3.877-3.876-10.184,0-14.061l2.265-2.264   c0.556-0.558,1.174-1.03,1.826-1.434v7.567c0,0.61,0.494,1.105,1.105,1.105c0.608,0,1.104-0.495,1.104-1.105V22.278   c0-1.979,1.61-3.591,3.59-3.591s3.59,1.611,3.59,3.591v28.378c0,0.61,0.494,1.104,1.105,1.104c0.609,0,1.104-0.494,1.104-1.104   v-8.439c0-1.219,0.992-2.21,2.211-2.21h2.762c1.217,0,2.209,0.991,2.209,2.21v8.451c0,0.609,0.495,1.104,1.104,1.104   c0.61,0,1.105-0.495,1.105-1.104V44.41c0-1.219,0.99-2.21,2.21-2.21h2.761c1.219,0,2.21,0.991,2.21,2.21v6.246   c0,0.61,0.493,1.104,1.104,1.104c0.609,0,1.104-0.494,1.104-1.104v-4.005c0-0.644,1.136-1.325,2.209-1.325h2.763   c1.218,0,2.209,0.991,2.209,2.21V75.838z"/>
	<path fill="#000000" d="M57.511,60.218l1.499-0.97c0.512-0.332,0.659-1.017,0.327-1.529c-0.331-0.512-1.016-0.657-1.528-0.326   l-3.935,2.546c-0.246,0.159-0.419,0.409-0.48,0.695c-0.06,0.288-0.006,0.586,0.154,0.833l2.546,3.933   c0.212,0.328,0.566,0.505,0.929,0.505c0.205,0,0.413-0.056,0.6-0.177c0.512-0.331,0.657-1.016,0.326-1.528l-1.245-1.923   c2.938,0.901,5.079,3.637,5.079,6.866c0,3.959-3.221,7.181-7.181,7.181c-3.959,0-7.18-3.222-7.18-7.181   c0-1.834,0.69-3.58,1.945-4.915c0.418-0.446,0.396-1.145-0.05-1.562c-0.442-0.417-1.143-0.396-1.562,0.05   c-1.641,1.746-2.544,4.028-2.544,6.428c0,5.177,4.212,9.39,9.39,9.39c5.179,0,9.392-4.213,9.392-9.39   C63.993,64.979,61.269,61.445,57.511,60.218z"/>
</g>
</svg>