<svg xmlns="http://www.w3.org/2000/svg" xmlns:xlink="http://www.w3.org/1999/xlink" version="1.1" x="0px" y="0px" width="100px" height="100px" viewBox="0 0 100 100" enable-background="new 0 0 100 100" xml:space="preserve">
<g id="Captions">
</g>
<g id="Your_Icon">
	<path fill="#000000" d="M72.434,30.165c-1.275,0-2.491,0.253-3.609,0.7c0.229-0.826,0.36-1.692,0.36-2.591   c0-5.378-4.375-9.754-9.754-9.754c-2.228,0-4.277,0.759-5.921,2.021c-0.204-5.199-4.485-9.369-9.734-9.369   c-5.028,0-9.179,3.826-9.696,8.72c-1.729-1.557-4.009-2.514-6.513-2.514c-5.378,0-9.753,4.375-9.753,9.754   c0,4.654,3.277,8.551,7.644,9.518l-0.653-2.397c-2.852-1.111-4.881-3.88-4.881-7.12c0-4.215,3.429-7.645,7.644-7.645   c3.077,0,5.728,1.83,6.939,4.456c0.107,0.327,0.232,0.646,0.371,0.956c0.217,0.707,0.335,1.456,0.335,2.232   c0,1.841-0.654,3.531-1.742,4.853l0.644,2.37c1.727-1.568,2.752-3.745,3.012-6.188C37.732,28.713,39,29.181,39,29.564v-2.488   c-1-0.766-1.754-1.775-2.303-2.961c-0.105-0.327-0.163-0.646-0.302-0.957c-0.217-0.706-0.3-1.456-0.3-2.232   c0-4.215,3.448-7.644,7.662-7.644c4.215,0,7.653,3.429,7.653,7.644c0,0.858-0.144,1.682-0.405,2.452   c-0.283,0.485-0.641,0.996-0.838,1.529C49.638,25.772,49,26.52,48,27.113v2.47c1-0.267,1.122-0.573,1.578-0.924   c0.105,2.696,1.374,5.108,3.238,6.813l0.652-2.386c-1.068-1.315-1.696-2.989-1.696-4.812c0-0.858,0.155-1.681,0.417-2.45   c0.283-0.486,0.527-0.997,0.725-1.53c1.345-2.193,3.759-3.663,6.515-3.663c4.216,0,7.646,3.428,7.646,7.644   c0,3.271-2.068,6.061-4.963,7.149l-0.637,2.378c0.538-0.117,1.062-0.272,1.565-0.474c-0.229,0.826-0.36,1.691-0.36,2.59   c0,1.574,0.383,3.057,1.048,4.374l1.439-2.009c-0.243-0.746-0.379-1.539-0.379-2.365c0-4.215,3.43-7.645,7.645-7.645   s7.645,3.648,7.645,7.863c0,4.216-3.43,7.863-7.645,7.863c-0.008,0-0.015,0-0.022,0l-1.426,1.771c0.474,0.07,0.955,0.01,1.448,0.01   c5.378,0,9.753-4.43,9.753-9.809C82.187,34.595,77.812,30.165,72.434,30.165z"/>
	<path fill="#000000" d="M77.846,39.007c-0.24-1.459-1.035-2.735-2.236-3.599c-2.483-1.778-5.947-1.205-7.725,1.274L59.87,47.864   l4.878-18.208c0.793-2.948-0.96-5.991-3.907-6.785c-2.949-0.792-5.991,0.961-6.787,3.916l-4.762,18.239V20.883   c0-3.053-2.482-5.537-5.535-5.537s-5.536,2.484-5.536,5.537v24.579l-5.375-19.796c-0.787-2.948-3.829-4.707-6.776-3.919   c-2.949,0.788-4.708,3.828-3.918,6.782l6.812,25.003c0.024,0.144,0.111,0.735,0.186,1.874c-1.139,0.558-2.196,1.294-3.119,2.218   l-2.16,2.161c-2.191,2.19-3.398,5.104-3.398,8.2c0,3.1,1.207,6.012,3.398,8.202l6.021,6.023c0.292,0.293,0.598,0.563,0.915,0.819   c2.006,3.461,5.759,5.797,10.05,5.797h14.763c6.396,0,11.599-5.183,11.599-11.552V56.619l9.665-13.486   C77.744,41.933,78.087,40.466,77.846,39.007z M75.169,41.904l-9.863,13.762c-0.128,0.18-0.196,0.394-0.196,0.613v20.996   c0,5.207-4.258,9.443-9.49,9.443H40.856c-1.739,0-3.365-0.477-4.769-1.293c-1.685-0.983-2.913-2.318-3.648-3.807   c-0.681-1.301-1.073-2.776-1.073-4.344c0-0.582-0.471-1.054-1.053-1.054s-1.056,0.472-1.056,1.054c0,0.479,0.032,0.947,0.09,1.409   l-3.987-3.987c-1.793-1.793-2.779-4.176-2.779-6.712c0-2.534,0.986-4.917,2.779-6.709l2.162-2.162   c0.524-0.524,1.105-0.972,1.721-1.354c0.01,0.458,0.015,0.952,0.015,1.495v5.615c0,0.583,0.474,1.055,1.056,1.055   s1.053-0.472,1.053-1.055v-5.615c0-0.943-0.016-1.756-0.039-2.464c-0.039-0.952-0.076-1.575-0.119-2.157   c-0.083-1.02-0.17-1.491-0.176-1.527c-0.006-0.027-0.012-0.055-0.02-0.08L24.187,27.98c-0.486-1.826,0.602-3.708,2.426-4.196   c1.827-0.486,3.709,0.602,4.197,2.431l7.449,27.431c0.137,0.512,0.629,0.84,1.156,0.77c0.523-0.069,0.914-0.517,0.914-1.046V20.883   c0-1.89,1.537-3.428,3.428-3.428c1.89,0,3.427,1.538,3.427,3.428v32.356c0,0.53,0.394,0.979,0.921,1.046   c0.521,0.064,1.02-0.267,1.153-0.779l6.835-26.179c0.491-1.825,2.378-2.908,4.199-2.419c1.825,0.491,2.91,2.376,2.42,4.201   l-6.377,23.805c-0.132,0.493,0.107,1.009,0.567,1.227c0.461,0.217,1.012,0.074,1.31-0.339l11.387-15.891   c1.1-1.536,3.246-1.888,4.782-0.788c0.744,0.533,1.235,1.324,1.385,2.228C75.914,40.254,75.703,41.16,75.169,41.904z"/>
	<path fill="#000000" d="M50.662,75.416l-1.363,1.365V66.054l1.363,1.364c0.206,0.205,0.476,0.309,0.745,0.309   c0.271,0,0.54-0.104,0.746-0.309c0.411-0.411,0.411-1.08,0-1.491l-3.163-3.163c-0.02-0.02-0.043-0.033-0.062-0.052   c-0.031-0.027-0.062-0.056-0.096-0.078c-0.023-0.017-0.051-0.027-0.077-0.042c-0.034-0.019-0.067-0.041-0.104-0.055   c-0.029-0.013-0.06-0.02-0.089-0.028c-0.036-0.012-0.071-0.025-0.109-0.034c-0.067-0.013-0.138-0.021-0.208-0.021l0,0l0,0   c-0.011,0-0.02,0.003-0.029,0.003c-0.061,0.002-0.12,0.007-0.18,0.018c-0.055,0.012-0.108,0.029-0.159,0.05   c-0.013,0.004-0.024,0.006-0.037,0.011c-0.059,0.024-0.115,0.056-0.169,0.09c-0.003,0.003-0.009,0.004-0.012,0.008   c-0.06,0.039-0.113,0.084-0.163,0.134l-3.16,3.16c-0.412,0.411-0.412,1.079,0,1.491c0.411,0.411,1.079,0.411,1.49,0l1.363-1.363   v10.725l-1.363-1.363c-0.411-0.411-1.079-0.411-1.49,0c-0.412,0.413-0.412,1.08,0,1.492l3.16,3.159   c0.05,0.05,0.104,0.095,0.163,0.135c0.003,0.003,0.009,0.004,0.012,0.007c0.054,0.034,0.11,0.065,0.169,0.09   c0.013,0.005,0.024,0.007,0.037,0.012c0.051,0.02,0.104,0.037,0.159,0.049c0.06,0.012,0.119,0.016,0.18,0.018   c0.01,0,0.019,0.003,0.029,0.003l0,0l0,0c0.07,0,0.141-0.007,0.208-0.021c0.038-0.009,0.073-0.022,0.109-0.033   c0.029-0.01,0.06-0.016,0.089-0.028c0.036-0.015,0.069-0.036,0.104-0.056c0.026-0.015,0.054-0.024,0.077-0.041   c0.034-0.023,0.064-0.052,0.096-0.078c0.02-0.02,0.043-0.033,0.062-0.053l3.163-3.162c0.411-0.412,0.411-1.08,0-1.492   C51.741,75.005,51.074,75.005,50.662,75.416z"/>
</g>
</svg>