<svg xmlns="http://www.w3.org/2000/svg" xmlns:xlink="http://www.w3.org/1999/xlink" version="1.1" x="0px" y="0px" width="100px" height="100px" viewBox="0 0 100 100" enable-background="new 0 0 100 100" xml:space="preserve">
<g id="Captions">
</g>
<g id="Your_Icon">
	<path fill="#000000" d="M77.846,41.664c-0.24-1.457-1.035-2.734-2.238-3.598c-2.482-1.777-5.945-1.205-7.725,1.275l-8.014,11.182   l4.879-18.209c0.793-2.947-0.961-5.99-3.908-6.785c-2.947-0.793-5.99,0.961-6.787,3.916l-4.762,18.238V23.541   c0-3.053-2.482-5.535-5.535-5.535s-5.535,2.482-5.535,5.535v24.58l-5.375-19.797c-0.789-2.949-3.83-4.707-6.777-3.918   c-2.949,0.787-4.707,3.828-3.918,6.781l6.812,25.004c0.023,0.143,0.111,0.734,0.186,1.875c-1.139,0.555-2.195,1.293-3.119,2.215   l-2.16,2.162c-2.191,2.191-3.398,5.104-3.398,8.201s1.207,6.012,3.398,8.201l6.021,6.023c0.293,0.293,0.598,0.564,0.916,0.82   c2.006,3.459,5.758,5.797,10.049,5.797h14.764c6.395,0,11.598-5.182,11.598-11.553V59.277l9.666-13.484   C77.744,44.59,78.086,43.125,77.846,41.664z M75.168,44.562l-9.861,13.762c-0.129,0.18-0.199,0.393-0.199,0.613v20.996   c0,5.207-4.256,9.443-9.488,9.443H40.855c-1.738,0-3.365-0.477-4.768-1.293c-1.684-0.982-2.914-2.318-3.648-3.807   c-0.682-1.301-1.074-2.777-1.074-4.344c0-0.582-0.471-1.055-1.053-1.055s-1.055,0.473-1.055,1.055c0,0.479,0.031,0.947,0.088,1.408   l-3.986-3.986c-1.791-1.793-2.779-4.176-2.779-6.711s0.988-4.918,2.779-6.711l2.162-2.16c0.523-0.525,1.105-0.973,1.721-1.355   c0.01,0.459,0.016,0.953,0.016,1.496v5.617c0,0.582,0.473,1.053,1.055,1.053s1.053-0.471,1.053-1.053v-5.617   c0-0.943-0.016-1.756-0.039-2.463c-0.039-0.953-0.076-1.574-0.119-2.158c-0.082-1.02-0.17-1.49-0.176-1.527   c-0.006-0.027-0.012-0.053-0.02-0.08l-6.826-25.047c-0.486-1.826,0.602-3.709,2.426-4.197c1.826-0.484,3.709,0.602,4.197,2.432   l7.449,27.432c0.137,0.51,0.629,0.84,1.156,0.768c0.523-0.068,0.914-0.516,0.914-1.043V23.541c0-1.891,1.537-3.428,3.428-3.428   c1.889,0,3.428,1.537,3.428,3.428v32.355c0,0.531,0.393,0.98,0.92,1.047c0.521,0.064,1.02-0.266,1.154-0.779l6.834-26.178   c0.49-1.824,2.379-2.91,4.199-2.42c1.824,0.492,2.912,2.375,2.42,4.201l-6.375,23.805c-0.133,0.492,0.105,1.01,0.566,1.227   s1.01,0.076,1.309-0.34l11.387-15.891c1.1-1.535,3.246-1.887,4.783-0.787c0.742,0.533,1.234,1.324,1.383,2.227   C75.914,42.912,75.701,43.818,75.168,44.562z"/>
	<path fill="#000000" d="M43.812,15.895c-0.582,0-1.055-0.471-1.055-1.053V9.568c0-0.582,0.473-1.055,1.055-1.055   s1.055,0.473,1.055,1.055v5.273C44.867,15.424,44.395,15.895,43.812,15.895z"/>
	<path fill="#000000" d="M39.463,17.061c-0.363,0-0.719-0.189-0.914-0.527l-2.637-4.566c-0.291-0.504-0.117-1.148,0.387-1.439   s1.148-0.117,1.439,0.387l2.637,4.564c0.291,0.506,0.119,1.15-0.385,1.441C39.824,17.016,39.641,17.061,39.463,17.061z"/>
	<path fill="#000000" d="M36.277,20.246c-0.18,0-0.361-0.045-0.527-0.141l-4.566-2.637c-0.504-0.291-0.678-0.936-0.387-1.441   c0.293-0.504,0.936-0.678,1.441-0.385l4.566,2.637c0.504,0.291,0.676,0.936,0.387,1.439C36.994,20.057,36.641,20.246,36.277,20.246   z"/>
	<path fill="#000000" d="M51.35,20.248c-0.363,0-0.717-0.189-0.914-0.527c-0.291-0.506-0.117-1.148,0.387-1.441l4.564-2.637   c0.502-0.291,1.148-0.119,1.439,0.385c0.291,0.506,0.119,1.15-0.385,1.441l-4.564,2.637C51.711,20.201,51.529,20.248,51.35,20.248z   "/>
	<path fill="#000000" d="M48.164,17.061c-0.18,0-0.361-0.045-0.527-0.141c-0.504-0.291-0.678-0.936-0.385-1.441l2.635-4.564   c0.289-0.506,0.934-0.678,1.439-0.387c0.504,0.291,0.678,0.936,0.387,1.439l-2.635,4.568   C48.883,16.873,48.527,17.061,48.164,17.061z"/>
	<path fill="#000000" d="M27.518,22.113c-0.582,0-1.055-0.471-1.055-1.053v-5.273c0-0.582,0.473-1.055,1.055-1.055   s1.055,0.473,1.055,1.055v5.273C28.572,21.643,28.1,22.113,27.518,22.113z"/>
	<path fill="#000000" d="M23.168,23.279c-0.365,0-0.719-0.189-0.914-0.527l-2.637-4.566c-0.291-0.504-0.119-1.148,0.385-1.439   s1.148-0.117,1.441,0.387l2.637,4.564c0.291,0.504,0.119,1.15-0.387,1.439C23.527,23.234,23.346,23.279,23.168,23.279z"/>
	<path fill="#000000" d="M19.98,26.465c-0.18,0-0.359-0.047-0.525-0.143l-4.566-2.635c-0.504-0.291-0.678-0.938-0.387-1.441   s0.936-0.678,1.441-0.385l4.564,2.637c0.506,0.289,0.678,0.936,0.387,1.439C20.699,26.275,20.346,26.465,19.98,26.465z"/>
	<path fill="#000000" d="M18.814,30.814h-5.271c-0.582,0-1.053-0.471-1.053-1.053c0-0.584,0.471-1.057,1.053-1.057h5.271   c0.584,0,1.055,0.473,1.055,1.057C19.869,30.344,19.398,30.814,18.814,30.814z"/>
	<path fill="#000000" d="M15.418,37.803c-0.365,0-0.719-0.189-0.916-0.529c-0.291-0.504-0.117-1.148,0.387-1.439l4.564-2.637   c0.504-0.291,1.148-0.117,1.441,0.387c0.291,0.506,0.119,1.15-0.387,1.441l-4.564,2.635C15.777,37.756,15.596,37.803,15.418,37.803   z"/>
	<path fill="#000000" d="M59.486,23.287c-0.584,0-1.055-0.473-1.055-1.057v-5.271c0-0.582,0.471-1.053,1.055-1.053   c0.582,0,1.055,0.471,1.055,1.053v5.271C60.541,22.814,60.068,23.287,59.486,23.287z"/>
	<path fill="#000000" d="M67.021,27.637c-0.363,0-0.717-0.188-0.912-0.525c-0.291-0.506-0.119-1.15,0.385-1.441l4.566-2.637   c0.502-0.293,1.148-0.117,1.439,0.385c0.293,0.504,0.119,1.15-0.385,1.441l-4.566,2.637C67.383,27.592,67.201,27.637,67.021,27.637   z"/>
	<path fill="#000000" d="M63.836,24.453c-0.178,0-0.359-0.047-0.525-0.143c-0.504-0.291-0.678-0.936-0.387-1.439l2.635-4.566   c0.291-0.504,0.936-0.678,1.441-0.387c0.504,0.291,0.678,0.938,0.387,1.441l-2.635,4.564   C64.557,24.264,64.201,24.453,63.836,24.453z"/>
	<path fill="#000000" d="M72.482,34.93c-0.582,0-1.055-0.473-1.055-1.055v-5.271c0-0.582,0.473-1.055,1.055-1.055   s1.053,0.473,1.053,1.055v5.271C73.535,34.457,73.064,34.93,72.482,34.93z"/>
	<path fill="#000000" d="M79.471,55.732c-0.365,0-0.721-0.189-0.916-0.527l-2.637-4.564c-0.289-0.504-0.117-1.148,0.387-1.439   c0.502-0.291,1.148-0.119,1.439,0.385l2.637,4.564c0.291,0.504,0.119,1.148-0.385,1.441C79.83,55.688,79.648,55.732,79.471,55.732z   "/>
	<path fill="#000000" d="M84.582,50.619c-0.18,0-0.359-0.047-0.527-0.143l-4.564-2.635c-0.504-0.291-0.678-0.936-0.387-1.439   c0.291-0.506,0.936-0.678,1.441-0.387l4.566,2.635c0.504,0.291,0.676,0.936,0.385,1.439C85.301,50.428,84.947,50.619,84.582,50.619   z"/>
	<path fill="#000000" d="M81.184,43.633c-0.582,0-1.055-0.473-1.055-1.055s0.473-1.055,1.055-1.055l5.271-0.002l0,0   c0.582,0,1.055,0.473,1.055,1.055s-0.471,1.055-1.055,1.055L81.184,43.633L81.184,43.633z"/>
	<path fill="#000000" d="M80.02,39.281c-0.365,0-0.719-0.189-0.914-0.525c-0.291-0.506-0.119-1.15,0.385-1.441l4.564-2.639   c0.504-0.291,1.15-0.117,1.441,0.387s0.119,1.148-0.385,1.439l-4.566,2.639C80.379,39.236,80.197,39.281,80.02,39.281z"/>
	<path fill="#000000" d="M76.832,36.096c-0.178,0-0.359-0.045-0.525-0.141c-0.504-0.291-0.678-0.936-0.387-1.441l2.635-4.564   c0.291-0.504,0.936-0.68,1.441-0.387c0.504,0.291,0.676,0.936,0.387,1.439l-2.637,4.566C77.551,35.906,77.197,36.096,76.832,36.096   z"/>
	<path fill="#000000" d="M48.178,80.021c-2.811,0-4.701-2.209-4.701-4.273c0-0.582,0.473-1.055,1.055-1.055s1.055,0.473,1.055,1.055   c0,0.904,0.986,2.164,2.592,2.164c2.137,0,2.855-1.871,2.855-2.725c0-2.215-3.498-2.24-3.646-2.24   c-0.582,0-1.055-0.473-1.055-1.055s0.473-1.055,1.055-1.055c1.691,0,2.955-1.182,2.955-2.24c0-1.309-1.514-1.449-2.164-1.449   c-1.24,0-2.328,0.615-2.328,1.316c0,0.584-0.473,1.057-1.055,1.057s-1.055-0.473-1.055-1.057c0-1.92,1.949-3.426,4.438-3.426   c2.555,0,4.273,1.43,4.273,3.559c0,1.178-0.58,2.264-1.5,3.057c1.291,0.697,2.191,1.857,2.191,3.533   C53.143,77.137,51.564,80.021,48.178,80.021z"/>
</g>
</svg>