<svg xmlns="http://www.w3.org/2000/svg" xmlns:xlink="http://www.w3.org/1999/xlink" version="1.1" x="0px" y="0px" width="100px" height="100px" viewBox="0 0 100 100" enable-background="new 0 0 100 100" xml:space="preserve">
<g id="Captions">
</g>
<g id="Your_Icon">
	<path fill="#000000" d="M69.773,48.691h-2.676c-0.002,0-0.004,0-0.004,0l4.461-16.623c0.807-2.988-0.969-6.078-3.961-6.885   c-2.988-0.805-6.078,0.971-6.885,3.969L55.867,47.65l0.014-24.492c0.002-3.096-2.516-5.617-5.613-5.619   c-3.096,0-5.617,2.518-5.618,5.613l-0.015,24.936l-5.44-20.086c-0.798-2.99-3.881-4.777-6.873-3.979   c-2.991,0.797-4.777,3.881-3.978,6.877l6.897,25.369c0.024,0.145,0.112,0.744,0.187,1.902c-1.157,0.562-2.229,1.311-3.166,2.246   l-2.193,2.191c-4.592,4.584-4.596,12.049-0.01,16.639l6.106,6.113c0.296,0.297,0.607,0.572,0.928,0.832   c2.033,3.512,5.839,5.885,10.192,5.887l14.974,0.008c6.49,0.004,11.771-5.25,11.773-11.711l0.016-27.402   C74.051,50.615,72.133,48.693,69.773,48.691z M71.895,80.375c-0.004,5.283-4.324,9.578-9.633,9.574l-14.974-0.008   c-1.766-0.002-3.415-0.486-4.838-1.314c-1.516-1.08-2.977-2.289-3.698-3.863c-0.69-1.322-1.087-2.818-1.086-4.406   c0-0.592-0.479-1.07-1.069-1.07s-1.069,0.479-1.07,1.068c0,0.484,0.032,0.961,0.089,1.43l-4.042-4.049   c-3.752-3.756-3.748-9.863,0.008-13.613l2.193-2.191c0.534-0.533,1.123-0.986,1.748-1.373c0.009,0.465,0.014,0.967,0.014,1.518   l-0.003,5.695c0,0.592,0.479,1.07,1.068,1.07c0.592,0,1.07-0.477,1.071-1.068l0.004-5.697c0-0.955-0.016-1.781-0.04-2.498   c-0.02-0.807-0.053-1.441-0.119-2.189c-0.085-1.035-0.172-1.514-0.18-1.549c-0.005-0.029-0.011-0.055-0.019-0.082l-6.91-25.414   c-0.494-1.852,0.612-3.758,2.464-4.252c1.853-0.494,3.762,0.611,4.256,2.467l7.54,27.83c0.141,0.518,0.643,0.852,1.174,0.781   c0.53-0.07,0.929-0.523,0.929-1.059l0.018-32.957c0.001-1.916,1.562-3.477,3.479-3.475c1.916,0,3.475,1.561,3.475,3.479   l-0.018,32.824c0,0.537,0.398,0.992,0.932,1.061c0.537,0.074,1.035-0.27,1.172-0.789l6.949-26.553   c0.498-1.85,2.41-2.949,4.262-2.451c1.85,0.5,2.949,2.41,2.449,4.264l-6.514,24.262c-0.152,0.572,0.186,1.158,0.758,1.311   c0.57,0.154,1.156-0.184,1.311-0.754l1.152-4.299c0.324-1.203,0.729-1.203,0.902-1.203l2.674,0.002c1.18,0,2.139,0.959,2.139,2.141   L71.895,80.375z"/>
	<path fill="#000000" d="M50.324,15.4c-0.59,0-1.068-0.48-1.068-1.07l0.002-5.348c0-0.592,0.48-1.07,1.07-1.07   c0.59,0.002,1.07,0.48,1.068,1.07l-0.002,5.35C51.395,14.922,50.914,15.4,50.324,15.4z"/>
	<path fill="#000000" d="M45.911,16.58c-0.369,0-0.729-0.191-0.927-0.535l-2.671-4.633c-0.296-0.512-0.12-1.166,0.393-1.461   c0.51-0.295,1.166-0.119,1.46,0.393l2.672,4.633c0.295,0.512,0.119,1.166-0.393,1.461C46.277,16.535,46.093,16.58,45.911,16.58z"/>
	<path fill="#000000" d="M42.676,19.809c-0.182,0-0.365-0.045-0.534-0.143l-4.63-2.676c-0.512-0.297-0.687-0.951-0.391-1.463   c0.295-0.51,0.95-0.686,1.462-0.391l4.63,2.678c0.511,0.295,0.686,0.949,0.391,1.461C43.406,19.617,43.046,19.811,42.676,19.809z"/>
	<path fill="#000000" d="M57.967,19.818c-0.369,0-0.729-0.191-0.926-0.535c-0.295-0.512-0.119-1.166,0.393-1.459l4.631-2.674   c0.514-0.297,1.166-0.119,1.463,0.393c0.295,0.512,0.119,1.166-0.393,1.459l-4.633,2.674C58.332,19.773,58.148,19.82,57.967,19.818   z"/>
	<path fill="#000000" d="M54.736,16.586c-0.182,0-0.365-0.047-0.533-0.143c-0.512-0.297-0.686-0.951-0.391-1.463l2.676-4.631   c0.295-0.512,0.949-0.686,1.461-0.391s0.686,0.951,0.393,1.463l-2.678,4.631C55.467,16.395,55.105,16.586,54.736,16.586z"/>
	<path fill="#000000" d="M33.79,21.699c-0.59,0-1.069-0.479-1.068-1.07l0.003-5.348c0-0.59,0.479-1.07,1.069-1.068   c0.592,0,1.069,0.479,1.069,1.07l-0.003,5.348C34.86,21.221,34.38,21.699,33.79,21.699z"/>
	<path fill="#000000" d="M29.377,22.881c-0.369,0-0.729-0.193-0.928-0.537l-2.671-4.633c-0.296-0.512-0.12-1.166,0.392-1.461   s1.166-0.119,1.461,0.393l2.672,4.633c0.295,0.512,0.119,1.166-0.393,1.463C29.743,22.834,29.558,22.881,29.377,22.881z"/>
	<path fill="#000000" d="M26.142,26.109c-0.182,0-0.365-0.047-0.533-0.145l-4.63-2.676c-0.512-0.297-0.687-0.949-0.392-1.461   c0.296-0.512,0.95-0.688,1.462-0.393l4.63,2.678c0.512,0.295,0.687,0.949,0.391,1.461C26.872,25.918,26.512,26.109,26.142,26.109z"/>
	<path fill="#000000" d="M24.958,30.521l-5.347-0.002c-0.592-0.002-1.07-0.48-1.07-1.072c0.001-0.59,0.479-1.068,1.071-1.068   l5.347,0.002c0.591,0.002,1.069,0.48,1.069,1.07C26.028,30.043,25.548,30.521,24.958,30.521z"/>
	<path fill="#000000" d="M21.506,37.607c-0.369,0-0.729-0.191-0.927-0.535c-0.296-0.512-0.12-1.168,0.392-1.461l4.632-2.672   c0.512-0.295,1.166-0.119,1.462,0.393c0.294,0.512,0.118,1.166-0.394,1.461l-4.632,2.672   C21.873,37.561,21.687,37.607,21.506,37.607z"/>
	<path fill="#000000" d="M66.219,22.906c-0.59,0-1.068-0.479-1.068-1.07l0.004-5.348c0-0.592,0.479-1.07,1.068-1.07   c0.592,0.002,1.07,0.48,1.07,1.07l-0.004,5.35C67.289,22.428,66.811,22.906,66.219,22.906z"/>
	<path fill="#000000" d="M78.486,38.828c-0.184,0-0.365-0.045-0.535-0.145l-4.629-2.674c-0.512-0.297-0.688-0.951-0.391-1.463   c0.295-0.51,0.947-0.688,1.459-0.391l4.631,2.676c0.512,0.295,0.688,0.949,0.393,1.461C79.215,38.637,78.855,38.828,78.486,38.828z   "/>
	<path fill="#000000" d="M75.041,31.74c-0.59,0-1.068-0.48-1.068-1.068c0-0.592,0.479-1.07,1.07-1.07h5.348l0,0   c0.59,0.002,1.068,0.48,1.068,1.07c0,0.592-0.479,1.07-1.068,1.07L75.041,31.74L75.041,31.74z"/>
	<path fill="#000000" d="M73.861,27.326c-0.369,0-0.729-0.193-0.926-0.535c-0.295-0.514-0.121-1.168,0.393-1.461l4.633-2.672   c0.512-0.299,1.166-0.121,1.461,0.391s0.119,1.166-0.393,1.461l-4.631,2.672C74.229,27.279,74.043,27.326,73.861,27.326z"/>
	<path fill="#000000" d="M70.633,24.094c-0.182,0-0.365-0.047-0.535-0.145c-0.512-0.295-0.686-0.949-0.391-1.461l2.676-4.631   c0.297-0.512,0.949-0.686,1.461-0.393c0.512,0.297,0.688,0.951,0.391,1.463l-2.674,4.631   C71.361,23.902,71.002,24.094,70.633,24.094z"/>
	<path fill="#000000" d="M58.592,80.066l-7.756-0.004c-0.59,0-1.07-0.48-1.068-1.07c0-1.973,1.996-3.357,4.109-4.824   c1.709-1.188,3.648-2.533,3.648-3.762c0.002-1.906-1.453-2.775-2.805-2.775c-1.521-0.002-2.811,1.008-2.811,2.203   c0,0.592-0.479,1.07-1.07,1.07c-0.59,0-1.068-0.48-1.068-1.07c0.002-2.396,2.221-4.346,4.949-4.344   c2.82,0.002,4.947,2.115,4.945,4.916c-0.002,2.35-2.324,3.961-4.568,5.52c-0.896,0.621-1.93,1.34-2.572,1.998l6.066,0.004   c0.592,0,1.07,0.48,1.07,1.07C59.66,79.588,59.182,80.068,58.592,80.066z"/>
</g>
</svg>