<svg xmlns="http://www.w3.org/2000/svg" xmlns:xlink="http://www.w3.org/1999/xlink" version="1.1" id="Layer_1" x="0px" y="0px" width="100px" height="100px" viewBox="0 0 100 100" enable-background="new 0 0 100 100" xml:space="preserve">
<path d="M72.415,8.458c-11.2,0.021-16.832,5.159-22.417,15.422C44.41,13.617,38.781,8.479,27.577,8.458  C15.133,8.435,5.019,17.719,5,29.178C4.97,49.941,27.484,70.745,49.998,91.542C72.513,70.742,95.027,49.941,95,29.178  C94.973,17.718,84.858,8.435,72.415,8.458z M65.576,29.232c2.866,0,5.192,3.1,5.192,6.923c0,3.824-2.326,6.924-5.192,6.924  c-2.867,0-5.192-3.1-5.192-6.924C60.384,32.332,62.709,29.232,65.576,29.232z M34.421,29.232c2.868,0,5.192,3.1,5.192,6.923  c0,3.824-2.324,6.924-5.192,6.924s-5.192-3.1-5.192-6.924C29.229,32.332,31.553,29.232,34.421,29.232z M49.998,63.849  c-20.337,0-24.231-13.847-24.231-13.847s7.356,6.924,24.231,6.924c16.876,0,24.231-6.924,24.231-6.924S70.336,63.849,49.998,63.849z  "/>
</svg>