<svg xmlns="http://www.w3.org/2000/svg" xmlns:xlink="http://www.w3.org/1999/xlink" version="1.1" x="0px" y="0px" width="100px" height="100px" viewBox="0 0 100 100" enable-background="new 0 0 100 100" xml:space="preserve">
<g id="Captions">
</g>
<g id="Your_Icon">
	<g>
		<path fill="#000000" d="M70.617,6.296c-10.321,0-16.836,5.023-20.617,9.565c-3.781-4.542-10.295-9.565-20.62-9.565    C11.805,6.296,0,22.577,0,37.782c0,22.135,42.518,51.801,47.366,55.11c0.794,0.541,1.714,0.812,2.634,0.812    s1.84-0.271,2.634-0.812C57.482,89.583,100,59.917,100,37.782C100,22.577,88.193,6.296,70.617,6.296z M50,61.389    c0,0-13.226-9.028-13.226-14.953c0-3.535,2.71-7.824,7.209-7.824c4.502,0,6.017,3.994,6.017,3.994s1.517-3.994,6.017-3.994    s7.209,4.289,7.209,7.824C63.226,52.36,50,61.389,50,61.389z"/>
	</g>
</g>
</svg>